<?xml version="1.0" encoding="UTF-8" standalone="no"?><svg xmlns="http://www.w3.org/2000/svg" xmlns:xlink="http://www.w3.org/1999/xlink" contentScriptType="application/ecmascript" contentStyleType="text/css" height="231px" preserveAspectRatio="none" style="width:202px;height:231px;" version="1.1" viewBox="0 0 202 231" width="202px" zoomAndPan="magnify"><defs><filter height="300%" id="f1m09ric71rd1m" width="300%" x="-1" y="-1"><feGaussianBlur result="blurOut" stdDeviation="2.0"/><feColorMatrix in="blurOut" result="blurOut2" type="matrix" values="0 0 0 0 0 0 0 0 0 0 0 0 0 0 0 0 0 0 .4 0"/><feOffset dx="4.0" dy="4.0" in="blurOut2" result="blurOut3"/><feBlend in="SourceGraphic" in2="blurOut3" mode="normal"/></filter></defs><g><!--class it.polimi.ingsw.model.cards.DeckCopy--><a href="DeckCopy.html" target="_top" xlink:actuate="onRequest" xlink:show="new" xlink:title="DeckCopy.html" xlink:type="simple"><rect fill="#FEFECE" filter="url(#f1m09ric71rd1m)" height="89.6953" id="it.polimi.ingsw.model.cards.DeckCopy" style="stroke: #A80036; stroke-width: 1.5;" width="161" x="8.5" y="108"/><ellipse cx="23.5" cy="128.0938" fill="#ADD1B2" rx="11" ry="11" style="stroke: #A80036; stroke-width: 1.0;"/><path d="M26.2656,123.9688 Q26.4219,123.75 26.6094,123.6406 Q26.7969,123.5313 27.0156,123.5313 Q27.3906,123.5313 27.625,123.7969 Q27.8594,124.0469 27.8594,124.6563 L27.8594,126.1094 Q27.8594,126.7188 27.625,126.9844 Q27.3906,127.25 27.0156,127.25 Q26.6719,127.25 26.4688,127.0469 Q26.2656,126.8594 26.1563,126.3438 Q26.1094,125.9844 25.9219,125.7969 Q25.5938,125.4219 24.9844,125.2031 Q24.375,124.9844 23.75,124.9844 Q22.9844,124.9844 22.3438,125.3125 Q21.7188,125.6406 21.2188,126.3906 Q20.7344,127.1406 20.7344,128.1719 L20.7344,129.2656 Q20.7344,130.5 21.625,131.3281 Q22.5156,132.1406 24.1094,132.1406 Q25.0469,132.1406 25.7031,131.8906 Q26.0938,131.7344 26.5156,131.2969 Q26.7813,131.0313 26.9219,130.9531 Q27.0781,130.875 27.2813,130.875 Q27.6094,130.875 27.8594,131.1406 Q28.125,131.3906 28.125,131.7344 Q28.125,132.0781 27.7813,132.4844 Q27.2813,133.0625 26.4844,133.3906 Q25.4063,133.8438 24.1094,133.8438 Q22.5938,133.8438 21.3906,133.2188 Q20.4063,132.7188 19.7188,131.6563 Q19.0313,130.5781 19.0313,129.2969 L19.0313,128.1406 Q19.0313,126.8125 19.6406,125.6719 Q20.2656,124.5156 21.3594,123.9063 Q22.4531,123.2813 23.6875,123.2813 Q24.4219,123.2813 25.0625,123.4531 Q25.7188,123.6094 26.2656,123.9688 Z "/><text fill="#000000" font-family="sans-serif" font-size="14" lengthAdjust="spacingAndGlyphs" textLength="65" x="69.5" y="127.5332">DeckCopy</text><text fill="#000000" font-family="sans-serif" font-size="10" lengthAdjust="spacingAndGlyphs" textLength="129" x="37.5" y="140.9902">it.polimi.ingsw.model.cards</text><line style="stroke: #A80036; stroke-width: 1.5;" x1="9.5" x2="168.5" y1="148.1875" y2="148.1875"/><ellipse cx="19.5" cy="160.6055" fill="#84BE84" rx="3" ry="3" style="stroke: #038048; stroke-width: 1.0;"/><text fill="#000000" font-family="sans-serif" font-size="11" lengthAdjust="spacingAndGlyphs" textLength="126" x="28.5" y="163.6064">getCardsSelected(): God[]</text><ellipse cx="19.5" cy="174.4414" fill="#84BE84" rx="3" ry="3" style="stroke: #038048; stroke-width: 1.0;"/><text fill="#000000" font-family="sans-serif" font-size="11" lengthAdjust="spacingAndGlyphs" textLength="124" x="28.5" y="177.4424">getAvailability(): boolean[]</text><ellipse cx="19.5" cy="188.2773" fill="#84BE84" rx="3" ry="3" style="stroke: #038048; stroke-width: 1.0;"/><text fill="#000000" font-family="sans-serif" font-size="11" lengthAdjust="spacingAndGlyphs" textLength="55" x="28.5" y="191.2783">print(): void</text></a><!--class java.io.Serializable--><rect fill="#FEFECE" filter="url(#f1m09ric71rd1m)" height="40.1875" id="java.io.Serializable" style="stroke: #A80036; stroke-width: 1.5;" width="105" x="36.5" y="8"/><ellipse cx="51.5" cy="28.0938" fill="#B4A7E5" rx="11" ry="11" style="stroke: #A80036; stroke-width: 1.0;"/><path d="M52.4531,24.7344 L52.4531,31.3906 L54.1719,31.3906 Q54.7813,31.3906 55.0469,31.625 Q55.3125,31.8594 55.3125,32.25 Q55.3125,32.625 55.0469,32.8594 Q54.7813,33.0938 54.1719,33.0938 L49.0313,33.0938 Q48.4219,33.0938 48.1563,32.8594 Q47.8906,32.625 47.8906,32.2344 Q47.8906,31.8594 48.1563,31.625 Q48.4219,31.3906 49.0313,31.3906 L50.75,31.3906 L50.75,24.7344 L49.0313,24.7344 Q48.4219,24.7344 48.1563,24.5 Q47.8906,24.2656 47.8906,23.875 Q47.8906,23.5 48.1563,23.2656 Q48.4219,23.0313 49.0313,23.0313 L54.1719,23.0313 Q54.7813,23.0313 55.0469,23.2656 Q55.3125,23.5 55.3125,23.875 Q55.3125,24.2656 55.0469,24.5 Q54.7813,24.7344 54.1719,24.7344 L52.4531,24.7344 Z "/><text fill="#000000" font-family="sans-serif" font-size="14" font-style="italic" lengthAdjust="spacingAndGlyphs" textLength="73" x="65.5" y="27.5332">Serializable</text><text fill="#000000" font-family="sans-serif" font-size="10" font-style="italic" lengthAdjust="spacingAndGlyphs" textLength="31" x="86.5" y="40.9902">java.io</text><!--link java.io.Serializable to it.polimi.ingsw.model.cards.DeckCopy--><path d="M89,68.254 C89,80.893 89,94.98 89,107.9416 " fill="none" id="java.io.Serializable-it.polimi.ingsw.model.cards.DeckCopy" style="stroke: #A80036; stroke-width: 1.0; stroke-dasharray: 7.0,7.0;"/><polygon fill="none" points="82.0001,68.219,89,48.219,96.0001,68.219,82.0001,68.219" style="stroke: #A80036; stroke-width: 1.0;"/><text fill="#888888" font-family="sans-serif" font-size="10" lengthAdjust="spacingAndGlyphs" textLength="190" x="0" y="218.3809">UMLDoclet 2.0.10, PlantUML 1.2019.08</text><!--
@startuml
    set namespaceSeparator none
    hide empty fields
    hide empty methods

    class "<size:14>DeckCopy\n<size:10>it.polimi.ingsw.model.cards" as it.polimi.ingsw.model.cards.DeckCopy [[DeckCopy.html]] {
        +getCardsSelected(): God[]
        +getAvailability(): boolean[]
        +print(): void
    }

    interface "<size:14>Serializable\n<size:10>java.io" as java.io.Serializable

    java.io.Serializable <|.. it.polimi.ingsw.model.cards.DeckCopy

    center footer UMLDoclet 2.0.10, PlantUML 1.2019.08
@enduml

PlantUML version 1.2019.08(Sat Jul 13 21:25:14 CEST 2019)
(APACHE source distribution)
Java Runtime: Java(TM) SE Runtime Environment
JVM: Java HotSpot(TM) 64-Bit Server VM
Java Version: 14.0.1+7
Operating System: Windows 10
OS Version: 10.0
Default Encoding: Cp1252
Language: it
Country: IT
--></g></svg>