<?xml version="1.0" encoding="UTF-8" standalone="no"?><svg xmlns="http://www.w3.org/2000/svg" xmlns:xlink="http://www.w3.org/1999/xlink" contentScriptType="application/ecmascript" contentStyleType="text/css" height="158px" preserveAspectRatio="none" style="width:202px;height:158px;" version="1.1" viewBox="0 0 202 158" width="202px" zoomAndPan="magnify"><defs><filter height="300%" id="fgo0ceum6jjgv" width="300%" x="-1" y="-1"><feGaussianBlur result="blurOut" stdDeviation="2.0"/><feColorMatrix in="blurOut" result="blurOut2" type="matrix" values="0 0 0 0 0 0 0 0 0 0 0 0 0 0 0 0 0 0 .4 0"/><feOffset dx="4.0" dy="4.0" in="blurOut2" result="blurOut3"/><feBlend in="SourceGraphic" in2="blurOut3" mode="normal"/></filter></defs><g><!--class it.polimi.ingsw.model.cards.Deck--><a href="Deck.html" target="_top" xlink:actuate="onRequest" xlink:show="new" xlink:title="Deck.html" xlink:type="simple"><rect fill="#FEFECE" filter="url(#fgo0ceum6jjgv)" height="117.3672" id="it.polimi.ingsw.model.cards.Deck" style="stroke: #A80036; stroke-width: 1.5;" width="161" x="8.5" y="8"/><ellipse cx="23.5" cy="28.0938" fill="#ADD1B2" rx="11" ry="11" style="stroke: #A80036; stroke-width: 1.0;"/><path d="M26.2656,23.9688 Q26.4219,23.75 26.6094,23.6406 Q26.7969,23.5313 27.0156,23.5313 Q27.3906,23.5313 27.625,23.7969 Q27.8594,24.0469 27.8594,24.6563 L27.8594,26.1094 Q27.8594,26.7188 27.625,26.9844 Q27.3906,27.25 27.0156,27.25 Q26.6719,27.25 26.4688,27.0469 Q26.2656,26.8594 26.1563,26.3438 Q26.1094,25.9844 25.9219,25.7969 Q25.5938,25.4219 24.9844,25.2031 Q24.375,24.9844 23.75,24.9844 Q22.9844,24.9844 22.3438,25.3125 Q21.7188,25.6406 21.2188,26.3906 Q20.7344,27.1406 20.7344,28.1719 L20.7344,29.2656 Q20.7344,30.5 21.625,31.3281 Q22.5156,32.1406 24.1094,32.1406 Q25.0469,32.1406 25.7031,31.8906 Q26.0938,31.7344 26.5156,31.2969 Q26.7813,31.0313 26.9219,30.9531 Q27.0781,30.875 27.2813,30.875 Q27.6094,30.875 27.8594,31.1406 Q28.125,31.3906 28.125,31.7344 Q28.125,32.0781 27.7813,32.4844 Q27.2813,33.0625 26.4844,33.3906 Q25.4063,33.8438 24.1094,33.8438 Q22.5938,33.8438 21.3906,33.2188 Q20.4063,32.7188 19.7188,31.6563 Q19.0313,30.5781 19.0313,29.2969 L19.0313,28.1406 Q19.0313,26.8125 19.6406,25.6719 Q20.2656,24.5156 21.3594,23.9063 Q22.4531,23.2813 23.6875,23.2813 Q24.4219,23.2813 25.0625,23.4531 Q25.7188,23.6094 26.2656,23.9688 Z "/><text fill="#000000" font-family="sans-serif" font-size="14" lengthAdjust="spacingAndGlyphs" textLength="32" x="86" y="27.5332">Deck</text><text fill="#000000" font-family="sans-serif" font-size="10" lengthAdjust="spacingAndGlyphs" textLength="129" x="37.5" y="40.9902">it.polimi.ingsw.model.cards</text><line style="stroke: #A80036; stroke-width: 1.5;" x1="9.5" x2="168.5" y1="48.1875" y2="48.1875"/><ellipse cx="19.5" cy="60.6055" fill="#84BE84" rx="3" ry="3" style="stroke: #038048; stroke-width: 1.0;"/><text fill="#000000" font-family="sans-serif" font-size="11" lengthAdjust="spacingAndGlyphs" textLength="43" x="28.5" y="63.6064">Deck(int)</text><ellipse cx="19.5" cy="74.4414" fill="#84BE84" rx="3" ry="3" style="stroke: #038048; stroke-width: 1.0;"/><text fill="#000000" font-family="sans-serif" font-size="11" lengthAdjust="spacingAndGlyphs" text-decoration="underline" textLength="94" x="28.5" y="77.4424">getInstance(): Deck</text><ellipse cx="19.5" cy="88.2773" fill="#84BE84" rx="3" ry="3" style="stroke: #038048; stroke-width: 1.0;"/><text fill="#000000" font-family="sans-serif" font-size="11" lengthAdjust="spacingAndGlyphs" textLength="126" x="28.5" y="91.2783">getCardsSelected(): God[]</text><ellipse cx="19.5" cy="102.1133" fill="#84BE84" rx="3" ry="3" style="stroke: #038048; stroke-width: 1.0;"/><text fill="#000000" font-family="sans-serif" font-size="11" lengthAdjust="spacingAndGlyphs" textLength="125" x="28.5" y="105.1143">getCardToPlayer(int): God</text><ellipse cx="19.5" cy="115.9492" fill="#84BE84" rx="3" ry="3" style="stroke: #038048; stroke-width: 1.0;"/><text fill="#000000" font-family="sans-serif" font-size="11" lengthAdjust="spacingAndGlyphs" textLength="115" x="28.5" y="118.9502">isAvailable(int): boolean</text></a><text fill="#888888" font-family="sans-serif" font-size="10" lengthAdjust="spacingAndGlyphs" textLength="190" x="0" y="145.3809">UMLDoclet 2.0.10, PlantUML 1.2019.08</text><!--
@startuml
    set namespaceSeparator none
    hide empty fields
    hide empty methods

    class "<size:14>Deck\n<size:10>it.polimi.ingsw.model.cards" as it.polimi.ingsw.model.cards.Deck [[Deck.html]] {
        +Deck(int)
        {static} +getInstance(): Deck
        +getCardsSelected(): God[]
        +getCardToPlayer(int): God
        +isAvailable(int): boolean
    }

    center footer UMLDoclet 2.0.10, PlantUML 1.2019.08
@enduml

PlantUML version 1.2019.08(Sat Jul 13 21:25:14 CEST 2019)
(APACHE source distribution)
Java Runtime: Java(TM) SE Runtime Environment
JVM: Java HotSpot(TM) 64-Bit Server VM
Java Version: 14.0.1+7
Operating System: Windows 10
OS Version: 10.0
Default Encoding: Cp1252
Language: it
Country: IT
--></g></svg>