<?xml version="1.0" encoding="UTF-8" standalone="no"?><svg xmlns="http://www.w3.org/2000/svg" xmlns:xlink="http://www.w3.org/1999/xlink" contentScriptType="application/ecmascript" contentStyleType="text/css" height="305px" preserveAspectRatio="none" style="width:207px;height:305px;" version="1.1" viewBox="0 0 207 305" width="207px" zoomAndPan="magnify"><defs><filter height="300%" id="f1ofdu8skyb4jk" width="300%" x="-1" y="-1"><feGaussianBlur result="blurOut" stdDeviation="2.0"/><feColorMatrix in="blurOut" result="blurOut2" type="matrix" values="0 0 0 0 0 0 0 0 0 0 0 0 0 0 0 0 0 0 .4 0"/><feOffset dx="4.0" dy="4.0" in="blurOut2" result="blurOut3"/><feBlend in="SourceGraphic" in2="blurOut3" mode="normal"/></filter></defs><g><!--class it.polimi.ingsw.model.cards.God--><a href="God.html" target="_top" xlink:actuate="onRequest" xlink:show="new" xlink:title="God.html" xlink:type="simple"><rect fill="#FEFECE" filter="url(#f1ofdu8skyb4jk)" height="263.7266" id="it.polimi.ingsw.model.cards.God" style="stroke: #A80036; stroke-width: 1.5;" width="177" x="6" y="8"/><ellipse cx="28.2" cy="28.0938" fill="#EB937F" rx="11" ry="11" style="stroke: #A80036; stroke-width: 1.0;"/><path d="M27.0594,28.8906 L27.0594,31.3906 L31.3875,31.3906 L31.3875,30.4688 Q31.3875,29.8594 31.6219,29.5938 Q31.8719,29.3281 32.2469,29.3281 Q32.6219,29.3281 32.8563,29.5938 Q33.0906,29.8594 33.0906,30.4688 L33.0906,33.0938 L25.0906,33.0938 Q24.4656,33.0938 24.2,32.8594 Q23.95,32.625 23.95,32.2344 Q23.95,31.8594 24.2156,31.625 Q24.4813,31.3906 25.0906,31.3906 L25.3563,31.3906 L25.3563,24.7344 L25.0906,24.7344 Q24.4656,24.7344 24.2,24.5 Q23.95,24.2656 23.95,23.875 Q23.95,23.5 24.2,23.2656 Q24.4656,23.0313 25.0906,23.0313 L32.7156,23.0313 L32.7156,25.625 Q32.7156,26.2344 32.4813,26.5 Q32.2625,26.75 31.8719,26.75 Q31.4969,26.75 31.2625,26.5 Q31.0281,26.2344 31.0281,25.625 L31.0281,24.7344 L27.0594,24.7344 L27.0594,27.1875 L28.5438,27.1875 Q28.5438,26.5313 28.6688,26.3438 Q28.9344,25.9375 29.4031,25.9375 Q29.7781,25.9375 30.0125,26.2031 Q30.2469,26.4531 30.2469,27.0625 L30.2469,29.0313 Q30.2469,29.5781 30.1219,29.7656 Q29.8563,30.1563 29.4031,30.1563 Q28.9344,30.1563 28.6688,29.75 Q28.5438,29.5625 28.5438,28.8906 L27.0594,28.8906 Z "/><text fill="#000000" font-family="sans-serif" font-size="14" lengthAdjust="spacingAndGlyphs" textLength="27" x="94.8" y="27.5332">God</text><text fill="#000000" font-family="sans-serif" font-size="10" lengthAdjust="spacingAndGlyphs" textLength="129" x="43.8" y="40.9902">it.polimi.ingsw.model.cards</text><line style="stroke: #A80036; stroke-width: 1.5;" x1="7" x2="182" y1="48.1875" y2="48.1875"/><ellipse cx="17" cy="60.6055" fill="none" rx="3" ry="3" style="stroke: #038048; stroke-width: 1.0;"/><text fill="#000000" font-family="sans-serif" font-size="11" lengthAdjust="spacingAndGlyphs" text-decoration="underline" textLength="42" x="26" y="63.6064">APOLLO</text><ellipse cx="17" cy="74.4414" fill="none" rx="3" ry="3" style="stroke: #038048; stroke-width: 1.0;"/><text fill="#000000" font-family="sans-serif" font-size="11" lengthAdjust="spacingAndGlyphs" text-decoration="underline" textLength="44" x="26" y="77.4424">ARTEMIS</text><ellipse cx="17" cy="88.2773" fill="none" rx="3" ry="3" style="stroke: #038048; stroke-width: 1.0;"/><text fill="#000000" font-family="sans-serif" font-size="11" lengthAdjust="spacingAndGlyphs" text-decoration="underline" textLength="42" x="26" y="91.2783">ATHENA</text><ellipse cx="17" cy="102.1133" fill="none" rx="3" ry="3" style="stroke: #038048; stroke-width: 1.0;"/><text fill="#000000" font-family="sans-serif" font-size="11" lengthAdjust="spacingAndGlyphs" text-decoration="underline" textLength="35" x="26" y="105.1143">ATLAS</text><ellipse cx="17" cy="115.9492" fill="none" rx="3" ry="3" style="stroke: #038048; stroke-width: 1.0;"/><text fill="#000000" font-family="sans-serif" font-size="11" lengthAdjust="spacingAndGlyphs" text-decoration="underline" textLength="50" x="26" y="118.9502">CHRONUS</text><ellipse cx="17" cy="129.7852" fill="none" rx="3" ry="3" style="stroke: #038048; stroke-width: 1.0;"/><text fill="#000000" font-family="sans-serif" font-size="11" lengthAdjust="spacingAndGlyphs" text-decoration="underline" textLength="46" x="26" y="132.7861">DEMETER</text><ellipse cx="17" cy="143.6211" fill="none" rx="3" ry="3" style="stroke: #038048; stroke-width: 1.0;"/><text fill="#000000" font-family="sans-serif" font-size="11" lengthAdjust="spacingAndGlyphs" text-decoration="underline" textLength="67" x="26" y="146.6221">HEPHAESTUS</text><ellipse cx="17" cy="157.457" fill="none" rx="3" ry="3" style="stroke: #038048; stroke-width: 1.0;"/><text fill="#000000" font-family="sans-serif" font-size="11" lengthAdjust="spacingAndGlyphs" text-decoration="underline" textLength="28" x="26" y="160.458">HERA</text><ellipse cx="17" cy="171.293" fill="none" rx="3" ry="3" style="stroke: #038048; stroke-width: 1.0;"/><text fill="#000000" font-family="sans-serif" font-size="11" lengthAdjust="spacingAndGlyphs" text-decoration="underline" textLength="36" x="26" y="174.2939">HESTIA</text><ellipse cx="17" cy="185.1289" fill="none" rx="3" ry="3" style="stroke: #038048; stroke-width: 1.0;"/><text fill="#000000" font-family="sans-serif" font-size="11" lengthAdjust="spacingAndGlyphs" text-decoration="underline" textLength="53" x="26" y="188.1299">MINOTAUR</text><ellipse cx="17" cy="198.9648" fill="none" rx="3" ry="3" style="stroke: #038048; stroke-width: 1.0;"/><text fill="#000000" font-family="sans-serif" font-size="11" lengthAdjust="spacingAndGlyphs" text-decoration="underline" textLength="21" x="26" y="201.9658">PAN</text><ellipse cx="17" cy="212.8008" fill="none" rx="3" ry="3" style="stroke: #038048; stroke-width: 1.0;"/><text fill="#000000" font-family="sans-serif" font-size="11" lengthAdjust="spacingAndGlyphs" text-decoration="underline" textLength="68" x="26" y="215.8018">PROMETHEUS</text><ellipse cx="17" cy="226.6367" fill="none" rx="3" ry="3" style="stroke: #038048; stroke-width: 1.0;"/><text fill="#000000" font-family="sans-serif" font-size="11" lengthAdjust="spacingAndGlyphs" text-decoration="underline" textLength="36" x="26" y="229.6377">TRITON</text><ellipse cx="17" cy="240.4727" fill="none" rx="3" ry="3" style="stroke: #038048; stroke-width: 1.0;"/><text fill="#000000" font-family="sans-serif" font-size="11" lengthAdjust="spacingAndGlyphs" text-decoration="underline" textLength="27" x="26" y="243.4736">ZEUS</text><line style="stroke: #A80036; stroke-width: 1.5;" x1="7" x2="182" y1="249.8906" y2="249.8906"/><ellipse cx="17" cy="262.3086" fill="#84BE84" rx="3" ry="3" style="stroke: #038048; stroke-width: 1.0;"/><text fill="#000000" font-family="sans-serif" font-size="11" lengthAdjust="spacingAndGlyphs" text-decoration="underline" textLength="151" x="26" y="265.3096">getGodDescription(God): String</text></a><text fill="#888888" font-family="sans-serif" font-size="10" lengthAdjust="spacingAndGlyphs" textLength="190" x="5.5" y="292.3809">UMLDoclet 2.0.10, PlantUML 1.2019.08</text><!--
@startuml
    set namespaceSeparator none
    hide empty fields
    hide empty methods

    enum "<size:14>God\n<size:10>it.polimi.ingsw.model.cards" as it.polimi.ingsw.model.cards.God [[God.html]] {
        {static} +APOLLO
        {static} +ARTEMIS
        {static} +ATHENA
        {static} +ATLAS
        {static} +CHRONUS
        {static} +DEMETER
        {static} +HEPHAESTUS
        {static} +HERA
        {static} +HESTIA
        {static} +MINOTAUR
        {static} +PAN
        {static} +PROMETHEUS
        {static} +TRITON
        {static} +ZEUS
        {static} +getGodDescription(God): String
    }

    center footer UMLDoclet 2.0.10, PlantUML 1.2019.08
@enduml

PlantUML version 1.2019.08(Sat Jul 13 21:25:14 CEST 2019)
(APACHE source distribution)
Java Runtime: Java(TM) SE Runtime Environment
JVM: Java HotSpot(TM) 64-Bit Server VM
Java Version: 14.0.1+7
Operating System: Windows 10
OS Version: 10.0
Default Encoding: Cp1252
Language: it
Country: IT
--></g></svg>