<?xml version="1.0" encoding="UTF-8" standalone="no"?><svg xmlns="http://www.w3.org/2000/svg" xmlns:xlink="http://www.w3.org/1999/xlink" contentScriptType="application/ecmascript" contentStyleType="text/css" height="682px" preserveAspectRatio="none" style="width:492px;height:682px;" version="1.1" viewBox="0 0 492 682" width="492px" zoomAndPan="magnify"><defs><filter height="300%" id="fbogtoej3zrcx" width="300%" x="-1" y="-1"><feGaussianBlur result="blurOut" stdDeviation="2.0"/><feColorMatrix in="blurOut" result="blurOut2" type="matrix" values="0 0 0 0 0 0 0 0 0 0 0 0 0 0 0 0 0 0 .4 0"/><feOffset dx="4.0" dy="4.0" in="blurOut2" result="blurOut3"/><feBlend in="SourceGraphic" in2="blurOut3" mode="normal"/></filter></defs><g><!--cluster it.polimi.ingsw.model.cards--><polygon fill="#FFFFFF" filter="url(#fbogtoej3zrcx)" points="22,157,218,157,225,180.6094,470,180.6094,470,633,22,633,22,157" style="stroke: #000000; stroke-width: 1.5;"/><line style="stroke: #000000; stroke-width: 1.5;" x1="22" x2="225" y1="180.6094" y2="180.6094"/><text fill="#000000" font-family="sans-serif" font-size="14" font-weight="bold" lengthAdjust="spacingAndGlyphs" textLength="190" x="26" y="173.5332">it.polimi.ingsw.model.cards</text><!--cluster java.io--><polygon fill="#FFFFFF" filter="url(#fbogtoej3zrcx)" points="47,24,99,24,106,47.6094,179,47.6094,179,124,47,124,47,24" style="stroke: #000000; stroke-width: 1.5;"/><line style="stroke: #000000; stroke-width: 1.5;" x1="47" x2="106" y1="47.6094" y2="47.6094"/><text fill="#000000" font-family="sans-serif" font-size="14" font-weight="bold" lengthAdjust="spacingAndGlyphs" textLength="46" x="51" y="40.5332">java.io</text><!--class it.polimi.ingsw.model.cards.Deck--><a href="Deck.html" target="_top" xlink:actuate="onRequest" xlink:show="new" xlink:title="Deck.html" xlink:type="simple"><rect fill="#FEFECE" filter="url(#fbogtoej3zrcx)" height="89.5078" id="it.polimi.ingsw.model.cards.Deck" style="stroke: #A80036; stroke-width: 1.5;" width="151" x="223.5" y="193"/><ellipse cx="280.75" cy="209" fill="#ADD1B2" rx="11" ry="11" style="stroke: #A80036; stroke-width: 1.0;"/><path d="M283.5156,204.875 Q283.6719,204.6563 283.8594,204.5469 Q284.0469,204.4375 284.2656,204.4375 Q284.6406,204.4375 284.875,204.7031 Q285.1094,204.9531 285.1094,205.5625 L285.1094,207.0156 Q285.1094,207.625 284.875,207.8906 Q284.6406,208.1563 284.2656,208.1563 Q283.9219,208.1563 283.7188,207.9531 Q283.5156,207.7656 283.4063,207.25 Q283.3594,206.8906 283.1719,206.7031 Q282.8438,206.3281 282.2344,206.1094 Q281.625,205.8906 281,205.8906 Q280.2344,205.8906 279.5938,206.2188 Q278.9688,206.5469 278.4688,207.2969 Q277.9844,208.0469 277.9844,209.0781 L277.9844,210.1719 Q277.9844,211.4063 278.875,212.2344 Q279.7656,213.0469 281.3594,213.0469 Q282.2969,213.0469 282.9531,212.7969 Q283.3438,212.6406 283.7656,212.2031 Q284.0313,211.9375 284.1719,211.8594 Q284.3281,211.7813 284.5313,211.7813 Q284.8594,211.7813 285.1094,212.0469 Q285.375,212.2969 285.375,212.6406 Q285.375,212.9844 285.0313,213.3906 Q284.5313,213.9688 283.7344,214.2969 Q282.6563,214.75 281.3594,214.75 Q279.8438,214.75 278.6406,214.125 Q277.6563,213.625 276.9688,212.5625 Q276.2813,211.4844 276.2813,210.2031 L276.2813,209.0469 Q276.2813,207.7188 276.8906,206.5781 Q277.5156,205.4219 278.6094,204.8125 Q279.7031,204.1875 280.9375,204.1875 Q281.6719,204.1875 282.3125,204.3594 Q282.9688,204.5156 283.5156,204.875 Z "/><text fill="#000000" font-family="sans-serif" font-size="12" lengthAdjust="spacingAndGlyphs" textLength="28" x="301.25" y="213.9102">Deck</text><line style="stroke: #A80036; stroke-width: 1.5;" x1="224.5" x2="373.5" y1="225" y2="225"/><line style="stroke: #A80036; stroke-width: 1.5;" x1="224.5" x2="373.5" y1="233" y2="233"/><ellipse cx="234.5" cy="245.418" fill="#84BE84" rx="3" ry="3" style="stroke: #038048; stroke-width: 1.0;"/><text fill="#000000" font-family="sans-serif" font-size="11" lengthAdjust="spacingAndGlyphs" textLength="43" x="243.5" y="248.4189">Deck(int)</text><ellipse cx="234.5" cy="259.2539" fill="#84BE84" rx="3" ry="3" style="stroke: #038048; stroke-width: 1.0;"/><text fill="#000000" font-family="sans-serif" font-size="11" lengthAdjust="spacingAndGlyphs" textLength="125" x="243.5" y="262.2549">getCardToPlayer(int): God</text><ellipse cx="234.5" cy="273.0898" fill="#84BE84" rx="3" ry="3" style="stroke: #038048; stroke-width: 1.0;"/><text fill="#000000" font-family="sans-serif" font-size="11" lengthAdjust="spacingAndGlyphs" textLength="115" x="243.5" y="276.0908">isAvailable(int): boolean</text></a><!--class it.polimi.ingsw.model.cards.DeckCopy--><a href="DeckCopy.html" target="_top" xlink:actuate="onRequest" xlink:show="new" xlink:title="DeckCopy.html" xlink:type="simple"><rect fill="#FEFECE" filter="url(#fbogtoej3zrcx)" height="75.6719" id="it.polimi.ingsw.model.cards.DeckCopy" style="stroke: #A80036; stroke-width: 1.5;" width="150" x="38" y="200"/><ellipse cx="80.9" cy="216" fill="#ADD1B2" rx="11" ry="11" style="stroke: #A80036; stroke-width: 1.0;"/><path d="M83.6656,211.875 Q83.8219,211.6563 84.0094,211.5469 Q84.1969,211.4375 84.4156,211.4375 Q84.7906,211.4375 85.025,211.7031 Q85.2594,211.9531 85.2594,212.5625 L85.2594,214.0156 Q85.2594,214.625 85.025,214.8906 Q84.7906,215.1563 84.4156,215.1563 Q84.0719,215.1563 83.8688,214.9531 Q83.6656,214.7656 83.5563,214.25 Q83.5094,213.8906 83.3219,213.7031 Q82.9938,213.3281 82.3844,213.1094 Q81.775,212.8906 81.15,212.8906 Q80.3844,212.8906 79.7438,213.2188 Q79.1188,213.5469 78.6188,214.2969 Q78.1344,215.0469 78.1344,216.0781 L78.1344,217.1719 Q78.1344,218.4063 79.025,219.2344 Q79.9156,220.0469 81.5094,220.0469 Q82.4469,220.0469 83.1031,219.7969 Q83.4938,219.6406 83.9156,219.2031 Q84.1813,218.9375 84.3219,218.8594 Q84.4781,218.7813 84.6813,218.7813 Q85.0094,218.7813 85.2594,219.0469 Q85.525,219.2969 85.525,219.6406 Q85.525,219.9844 85.1813,220.3906 Q84.6813,220.9688 83.8844,221.2969 Q82.8063,221.75 81.5094,221.75 Q79.9938,221.75 78.7906,221.125 Q77.8063,220.625 77.1188,219.5625 Q76.4313,218.4844 76.4313,217.2031 L76.4313,216.0469 Q76.4313,214.7188 77.0406,213.5781 Q77.6656,212.4219 78.7594,211.8125 Q79.8531,211.1875 81.0875,211.1875 Q81.8219,211.1875 82.4625,211.3594 Q83.1188,211.5156 83.6656,211.875 Z "/><text fill="#000000" font-family="sans-serif" font-size="12" lengthAdjust="spacingAndGlyphs" textLength="56" x="101.1" y="220.9102">DeckCopy</text><line style="stroke: #A80036; stroke-width: 1.5;" x1="39" x2="187" y1="232" y2="232"/><line style="stroke: #A80036; stroke-width: 1.5;" x1="39" x2="187" y1="240" y2="240"/><ellipse cx="49" cy="252.418" fill="#84BE84" rx="3" ry="3" style="stroke: #038048; stroke-width: 1.0;"/><text fill="#000000" font-family="sans-serif" font-size="11" lengthAdjust="spacingAndGlyphs" textLength="124" x="58" y="255.4189">getAvailability(): boolean[]</text><ellipse cx="49" cy="266.2539" fill="#84BE84" rx="3" ry="3" style="stroke: #038048; stroke-width: 1.0;"/><text fill="#000000" font-family="sans-serif" font-size="11" lengthAdjust="spacingAndGlyphs" textLength="55" x="58" y="269.2549">print(): void</text></a><!--class it.polimi.ingsw.model.cards.God--><a href="God.html" target="_top" xlink:actuate="onRequest" xlink:show="new" xlink:title="God.html" xlink:type="simple"><rect fill="#FEFECE" filter="url(#fbogtoej3zrcx)" height="255.5391" id="it.polimi.ingsw.model.cards.God" style="stroke: #A80036; stroke-width: 1.5;" width="177" x="112.5" y="361"/><ellipse cx="185.25" cy="377" fill="#EB937F" rx="11" ry="11" style="stroke: #A80036; stroke-width: 1.0;"/><path d="M184.1094,377.7969 L184.1094,380.2969 L188.4375,380.2969 L188.4375,379.375 Q188.4375,378.7656 188.6719,378.5 Q188.9219,378.2344 189.2969,378.2344 Q189.6719,378.2344 189.9063,378.5 Q190.1406,378.7656 190.1406,379.375 L190.1406,382 L182.1406,382 Q181.5156,382 181.25,381.7656 Q181,381.5313 181,381.1406 Q181,380.7656 181.2656,380.5313 Q181.5313,380.2969 182.1406,380.2969 L182.4063,380.2969 L182.4063,373.6406 L182.1406,373.6406 Q181.5156,373.6406 181.25,373.4063 Q181,373.1719 181,372.7813 Q181,372.4063 181.25,372.1719 Q181.5156,371.9375 182.1406,371.9375 L189.7656,371.9375 L189.7656,374.5313 Q189.7656,375.1406 189.5313,375.4063 Q189.3125,375.6563 188.9219,375.6563 Q188.5469,375.6563 188.3125,375.4063 Q188.0781,375.1406 188.0781,374.5313 L188.0781,373.6406 L184.1094,373.6406 L184.1094,376.0938 L185.5938,376.0938 Q185.5938,375.4375 185.7188,375.25 Q185.9844,374.8438 186.4531,374.8438 Q186.8281,374.8438 187.0625,375.1094 Q187.2969,375.3594 187.2969,375.9688 L187.2969,377.9375 Q187.2969,378.4844 187.1719,378.6719 Q186.9063,379.0625 186.4531,379.0625 Q185.9844,379.0625 185.7188,378.6563 Q185.5938,378.4688 185.5938,377.7969 L184.1094,377.7969 Z "/><text fill="#000000" font-family="sans-serif" font-size="12" lengthAdjust="spacingAndGlyphs" textLength="23" x="205.75" y="381.9102">God</text><line style="stroke: #A80036; stroke-width: 1.5;" x1="113.5" x2="288.5" y1="393" y2="393"/><ellipse cx="123.5" cy="405.418" fill="none" rx="3" ry="3" style="stroke: #038048; stroke-width: 1.0;"/><text fill="#000000" font-family="sans-serif" font-size="11" lengthAdjust="spacingAndGlyphs" text-decoration="underline" textLength="42" x="132.5" y="408.4189">APOLLO</text><ellipse cx="123.5" cy="419.2539" fill="none" rx="3" ry="3" style="stroke: #038048; stroke-width: 1.0;"/><text fill="#000000" font-family="sans-serif" font-size="11" lengthAdjust="spacingAndGlyphs" text-decoration="underline" textLength="44" x="132.5" y="422.2549">ARTEMIS</text><ellipse cx="123.5" cy="433.0898" fill="none" rx="3" ry="3" style="stroke: #038048; stroke-width: 1.0;"/><text fill="#000000" font-family="sans-serif" font-size="11" lengthAdjust="spacingAndGlyphs" text-decoration="underline" textLength="42" x="132.5" y="436.0908">ATHENA</text><ellipse cx="123.5" cy="446.9258" fill="none" rx="3" ry="3" style="stroke: #038048; stroke-width: 1.0;"/><text fill="#000000" font-family="sans-serif" font-size="11" lengthAdjust="spacingAndGlyphs" text-decoration="underline" textLength="35" x="132.5" y="449.9268">ATLAS</text><ellipse cx="123.5" cy="460.7617" fill="none" rx="3" ry="3" style="stroke: #038048; stroke-width: 1.0;"/><text fill="#000000" font-family="sans-serif" font-size="11" lengthAdjust="spacingAndGlyphs" text-decoration="underline" textLength="50" x="132.5" y="463.7627">CHRONUS</text><ellipse cx="123.5" cy="474.5977" fill="none" rx="3" ry="3" style="stroke: #038048; stroke-width: 1.0;"/><text fill="#000000" font-family="sans-serif" font-size="11" lengthAdjust="spacingAndGlyphs" text-decoration="underline" textLength="46" x="132.5" y="477.5986">DEMETER</text><ellipse cx="123.5" cy="488.4336" fill="none" rx="3" ry="3" style="stroke: #038048; stroke-width: 1.0;"/><text fill="#000000" font-family="sans-serif" font-size="11" lengthAdjust="spacingAndGlyphs" text-decoration="underline" textLength="67" x="132.5" y="491.4346">HEPHAESTUS</text><ellipse cx="123.5" cy="502.2695" fill="none" rx="3" ry="3" style="stroke: #038048; stroke-width: 1.0;"/><text fill="#000000" font-family="sans-serif" font-size="11" lengthAdjust="spacingAndGlyphs" text-decoration="underline" textLength="28" x="132.5" y="505.2705">HERA</text><ellipse cx="123.5" cy="516.1055" fill="none" rx="3" ry="3" style="stroke: #038048; stroke-width: 1.0;"/><text fill="#000000" font-family="sans-serif" font-size="11" lengthAdjust="spacingAndGlyphs" text-decoration="underline" textLength="36" x="132.5" y="519.1064">HESTIA</text><ellipse cx="123.5" cy="529.9414" fill="none" rx="3" ry="3" style="stroke: #038048; stroke-width: 1.0;"/><text fill="#000000" font-family="sans-serif" font-size="11" lengthAdjust="spacingAndGlyphs" text-decoration="underline" textLength="53" x="132.5" y="532.9424">MINOTAUR</text><ellipse cx="123.5" cy="543.7773" fill="none" rx="3" ry="3" style="stroke: #038048; stroke-width: 1.0;"/><text fill="#000000" font-family="sans-serif" font-size="11" lengthAdjust="spacingAndGlyphs" text-decoration="underline" textLength="21" x="132.5" y="546.7783">PAN</text><ellipse cx="123.5" cy="557.6133" fill="none" rx="3" ry="3" style="stroke: #038048; stroke-width: 1.0;"/><text fill="#000000" font-family="sans-serif" font-size="11" lengthAdjust="spacingAndGlyphs" text-decoration="underline" textLength="68" x="132.5" y="560.6143">PROMETHEUS</text><ellipse cx="123.5" cy="571.4492" fill="none" rx="3" ry="3" style="stroke: #038048; stroke-width: 1.0;"/><text fill="#000000" font-family="sans-serif" font-size="11" lengthAdjust="spacingAndGlyphs" text-decoration="underline" textLength="36" x="132.5" y="574.4502">TRITON</text><ellipse cx="123.5" cy="585.2852" fill="none" rx="3" ry="3" style="stroke: #038048; stroke-width: 1.0;"/><text fill="#000000" font-family="sans-serif" font-size="11" lengthAdjust="spacingAndGlyphs" text-decoration="underline" textLength="27" x="132.5" y="588.2861">ZEUS</text><line style="stroke: #A80036; stroke-width: 1.5;" x1="113.5" x2="288.5" y1="594.7031" y2="594.7031"/><ellipse cx="123.5" cy="607.1211" fill="#84BE84" rx="3" ry="3" style="stroke: #038048; stroke-width: 1.0;"/><text fill="#000000" font-family="sans-serif" font-size="11" lengthAdjust="spacingAndGlyphs" text-decoration="underline" textLength="151" x="132.5" y="610.1221">getGodDescription(God): String</text></a><!--class java.io.Serializable--><rect fill="#FEFECE" filter="url(#fbogtoej3zrcx)" height="48" id="java.io.Serializable" style="stroke: #A80036; stroke-width: 1.5;" width="99" x="63.5" y="60"/><ellipse cx="78.5" cy="76" fill="#B4A7E5" rx="11" ry="11" style="stroke: #A80036; stroke-width: 1.0;"/><path d="M79.4531,72.6406 L79.4531,79.2969 L81.1719,79.2969 Q81.7813,79.2969 82.0469,79.5313 Q82.3125,79.7656 82.3125,80.1563 Q82.3125,80.5313 82.0469,80.7656 Q81.7813,81 81.1719,81 L76.0313,81 Q75.4219,81 75.1563,80.7656 Q74.8906,80.5313 74.8906,80.1406 Q74.8906,79.7656 75.1563,79.5313 Q75.4219,79.2969 76.0313,79.2969 L77.75,79.2969 L77.75,72.6406 L76.0313,72.6406 Q75.4219,72.6406 75.1563,72.4063 Q74.8906,72.1719 74.8906,71.7813 Q74.8906,71.4063 75.1563,71.1719 Q75.4219,70.9375 76.0313,70.9375 L81.1719,70.9375 Q81.7813,70.9375 82.0469,71.1719 Q82.3125,71.4063 82.3125,71.7813 Q82.3125,72.1719 82.0469,72.4063 Q81.7813,72.6406 81.1719,72.6406 L79.4531,72.6406 Z "/><text fill="#000000" font-family="sans-serif" font-size="12" font-style="italic" lengthAdjust="spacingAndGlyphs" textLength="67" x="92.5" y="80.9102">Serializable</text><line style="stroke: #A80036; stroke-width: 1.5;" x1="64.5" x2="161.5" y1="92" y2="92"/><line style="stroke: #A80036; stroke-width: 1.5;" x1="64.5" x2="161.5" y1="100" y2="100"/><!--link it.polimi.ingsw.model.cards.Deck to it.polimi.ingsw.model.cards.Deck--><path d="M374.662,222.4 C394.505,223.325 409.5,228.525 409.5,238 C409.5,246.66 396.971,251.749 379.664,253.267 " fill="none" id="it.polimi.ingsw.model.cards.Deck-it.polimi.ingsw.model.cards.Deck" style="stroke: #A80036; stroke-width: 1.0;"/><polygon fill="#A80036" points="374.662,253.6,383.9083,256.9919,379.6509,253.2671,383.3757,249.0097,374.662,253.6" style="stroke: #A80036; stroke-width: 1.0;"/><text fill="#000000" font-family="sans-serif" font-size="13" lengthAdjust="spacingAndGlyphs" textLength="49" x="415.5" y="243.4951">instance</text><!--link it.polimi.ingsw.model.cards.Deck to it.polimi.ingsw.model.cards.God--><path d="M281.592,283.229 C273.463,303.885 263.311,329.679 252.982,355.923 " fill="none" id="it.polimi.ingsw.model.cards.Deck-it.polimi.ingsw.model.cards.God" style="stroke: #A80036; stroke-width: 1.0;"/><polygon fill="#A80036" points="251.052,360.828,258.0704,353.9184,252.8833,356.1754,250.6263,350.9883,251.052,360.828" style="stroke: #A80036; stroke-width: 1.0;"/><text fill="#000000" font-family="sans-serif" font-size="13" lengthAdjust="spacingAndGlyphs" textLength="83" x="268" y="327.4951">cardsSelected</text><text fill="#000000" font-family="sans-serif" font-size="13" lengthAdjust="spacingAndGlyphs" textLength="5" x="248.9497" y="350.0499">*</text><!--link java.io.Serializable to it.polimi.ingsw.model.cards.DeckCopy--><path d="M113,128.297 C113,150.859 113,178.172 113,199.776 " fill="none" id="java.io.Serializable-it.polimi.ingsw.model.cards.DeckCopy" style="stroke: #A80036; stroke-width: 1.0; stroke-dasharray: 7.0,7.0;"/><polygon fill="none" points="106,128.086,113,108.086,120,128.085,106,128.086" style="stroke: #A80036; stroke-width: 1.0;"/><!--link it.polimi.ingsw.model.cards.DeckCopy to it.polimi.ingsw.model.cards.God--><path d="M126.079,276.009 C133.76,297.742 143.983,326.667 154.4,356.143 " fill="none" id="it.polimi.ingsw.model.cards.DeckCopy-it.polimi.ingsw.model.cards.God" style="stroke: #A80036; stroke-width: 1.0;"/><polygon fill="#A80036" points="156.073,360.878,156.8435,351.0593,154.406,356.1641,149.3012,353.7266,156.073,360.878" style="stroke: #A80036; stroke-width: 1.0;"/><text fill="#000000" font-family="sans-serif" font-size="13" lengthAdjust="spacingAndGlyphs" textLength="83" x="145" y="327.4951">cardsSelected</text><text fill="#000000" font-family="sans-serif" font-size="13" lengthAdjust="spacingAndGlyphs" textLength="5" x="148.1829" y="350.1029">*</text><text fill="#888888" font-family="sans-serif" font-size="10" lengthAdjust="spacingAndGlyphs" textLength="190" x="157" y="669.3809">UMLDoclet 2.0.10, PlantUML 1.2019.08</text><!--
@startuml
    namespace it.polimi.ingsw.model.cards {

        class Deck [[Deck.html]] {
            +Deck(int)
            +getCardToPlayer(int): God
            +isAvailable(int): boolean
        }

        class DeckCopy [[DeckCopy.html]] {
            +getAvailability(): boolean[]
            +print(): void
        }

        enum God [[God.html]] {
            {static} +APOLLO
            {static} +ARTEMIS
            {static} +ATHENA
            {static} +ATLAS
            {static} +CHRONUS
            {static} +DEMETER
            {static} +HEPHAESTUS
            {static} +HERA
            {static} +HESTIA
            {static} +MINOTAUR
            {static} +PAN
            {static} +PROMETHEUS
            {static} +TRITON
            {static} +ZEUS
            {static} +getGodDescription(God): String
        }

        Deck - -> Deck: instance
        Deck - -> "*" God: cardsSelected
        java.io.Serializable <|.. DeckCopy
        DeckCopy - -> "*" God: cardsSelected
    }

    namespace java.io {
        interface Serializable
    }

    center footer UMLDoclet 2.0.10, PlantUML 1.2019.08
@enduml

PlantUML version 1.2019.08(Sat Jul 13 21:25:14 CEST 2019)
(APACHE source distribution)
Java Runtime: Java(TM) SE Runtime Environment
JVM: Java HotSpot(TM) 64-Bit Server VM
Java Version: 14.0.1+7
Operating System: Windows 10
OS Version: 10.0
Default Encoding: Cp1252
Language: it
Country: IT
--></g></svg>