<?xml version="1.0" encoding="UTF-8" standalone="no"?><svg xmlns="http://www.w3.org/2000/svg" xmlns:xlink="http://www.w3.org/1999/xlink" contentScriptType="application/ecmascript" contentStyleType="text/css" height="180px" preserveAspectRatio="none" style="width:213px;height:180px;" version="1.1" viewBox="0 0 213 180" width="213px" zoomAndPan="magnify"><defs><filter height="300%" id="fd9xmrd76hrns" width="300%" x="-1" y="-1"><feGaussianBlur result="blurOut" stdDeviation="2.0"/><feColorMatrix in="blurOut" result="blurOut2" type="matrix" values="0 0 0 0 0 0 0 0 0 0 0 0 0 0 0 0 0 0 .4 0"/><feOffset dx="4.0" dy="4.0" in="blurOut2" result="blurOut3"/><feBlend in="SourceGraphic" in2="blurOut3" mode="normal"/></filter></defs><g><!--class it.polimi.ingsw.model.player.Color--><a href="Color.html" target="_top" xlink:actuate="onRequest" xlink:show="new" xlink:title="Color.html" xlink:type="simple"><rect fill="#FEFECE" filter="url(#fd9xmrd76hrns)" height="139.2031" id="it.polimi.ingsw.model.player.Color" style="stroke: #A80036; stroke-width: 1.5;" width="189" x="6" y="8"/><ellipse cx="31.8" cy="28.0938" fill="#EB937F" rx="11" ry="11" style="stroke: #A80036; stroke-width: 1.0;"/><path d="M30.6594,28.8906 L30.6594,31.3906 L34.9875,31.3906 L34.9875,30.4688 Q34.9875,29.8594 35.2219,29.5938 Q35.4719,29.3281 35.8469,29.3281 Q36.2219,29.3281 36.4563,29.5938 Q36.6906,29.8594 36.6906,30.4688 L36.6906,33.0938 L28.6906,33.0938 Q28.0656,33.0938 27.8,32.8594 Q27.55,32.625 27.55,32.2344 Q27.55,31.8594 27.8156,31.625 Q28.0813,31.3906 28.6906,31.3906 L28.9563,31.3906 L28.9563,24.7344 L28.6906,24.7344 Q28.0656,24.7344 27.8,24.5 Q27.55,24.2656 27.55,23.875 Q27.55,23.5 27.8,23.2656 Q28.0656,23.0313 28.6906,23.0313 L36.3156,23.0313 L36.3156,25.625 Q36.3156,26.2344 36.0813,26.5 Q35.8625,26.75 35.4719,26.75 Q35.0969,26.75 34.8625,26.5 Q34.6281,26.2344 34.6281,25.625 L34.6281,24.7344 L30.6594,24.7344 L30.6594,27.1875 L32.1438,27.1875 Q32.1438,26.5313 32.2688,26.3438 Q32.5344,25.9375 33.0031,25.9375 Q33.3781,25.9375 33.6125,26.2031 Q33.8469,26.4531 33.8469,27.0625 L33.8469,29.0313 Q33.8469,29.5781 33.7219,29.7656 Q33.4563,30.1563 33.0031,30.1563 Q32.5344,30.1563 32.2688,29.75 Q32.1438,29.5625 32.1438,28.8906 L30.6594,28.8906 Z "/><text fill="#000000" font-family="sans-serif" font-size="14" lengthAdjust="spacingAndGlyphs" textLength="34" x="97.7" y="27.5332">Color</text><text fill="#000000" font-family="sans-serif" font-size="10" lengthAdjust="spacingAndGlyphs" textLength="133" x="48.2" y="40.9902">it.polimi.ingsw.model.player</text><line style="stroke: #A80036; stroke-width: 1.5;" x1="7" x2="194" y1="48.1875" y2="48.1875"/><ellipse cx="17" cy="60.6055" fill="none" rx="3" ry="3" style="stroke: #038048; stroke-width: 1.0;"/><text fill="#000000" font-family="sans-serif" font-size="11" lengthAdjust="spacingAndGlyphs" text-decoration="underline" textLength="20" x="26" y="63.6064">RED</text><ellipse cx="17" cy="74.4414" fill="none" rx="3" ry="3" style="stroke: #038048; stroke-width: 1.0;"/><text fill="#000000" font-family="sans-serif" font-size="11" lengthAdjust="spacingAndGlyphs" text-decoration="underline" textLength="44" x="26" y="77.4424">YELLOW</text><ellipse cx="17" cy="88.2773" fill="none" rx="3" ry="3" style="stroke: #038048; stroke-width: 1.0;"/><text fill="#000000" font-family="sans-serif" font-size="11" lengthAdjust="spacingAndGlyphs" text-decoration="underline" textLength="26" x="26" y="91.2783">BLUE</text><line style="stroke: #A80036; stroke-width: 1.5;" x1="7" x2="194" y1="97.6953" y2="97.6953"/><ellipse cx="17" cy="110.1133" fill="#84BE84" rx="3" ry="3" style="stroke: #038048; stroke-width: 1.0;"/><text fill="#000000" font-family="sans-serif" font-size="11" lengthAdjust="spacingAndGlyphs" text-decoration="underline" textLength="88" x="26" y="113.1143">initialization(): void</text><ellipse cx="17" cy="123.9492" fill="#84BE84" rx="3" ry="3" style="stroke: #038048; stroke-width: 1.0;"/><text fill="#000000" font-family="sans-serif" font-size="11" lengthAdjust="spacingAndGlyphs" text-decoration="underline" textLength="144" x="26" y="126.9502">getAvailability(Color): Boolean</text><ellipse cx="17" cy="137.7852" fill="#84BE84" rx="3" ry="3" style="stroke: #038048; stroke-width: 1.0;"/><text fill="#000000" font-family="sans-serif" font-size="11" lengthAdjust="spacingAndGlyphs" text-decoration="underline" textLength="163" x="26" y="140.7861">setAvailabilityToFalse(Color): void</text></a><text fill="#888888" font-family="sans-serif" font-size="10" lengthAdjust="spacingAndGlyphs" textLength="190" x="11.5" y="167.3809">UMLDoclet 2.0.10, PlantUML 1.2019.08</text><!--
@startuml
    set namespaceSeparator none
    hide empty fields
    hide empty methods

    enum "<size:14>Color\n<size:10>it.polimi.ingsw.model.player" as it.polimi.ingsw.model.player.Color [[Color.html]] {
        {static} +RED
        {static} +YELLOW
        {static} +BLUE
        {static} +initialization(): void
        {static} +getAvailability(Color): Boolean
        {static} +setAvailabilityToFalse(Color): void
    }

    center footer UMLDoclet 2.0.10, PlantUML 1.2019.08
@enduml

PlantUML version 1.2019.08(Sat Jul 13 21:25:14 CEST 2019)
(APACHE source distribution)
Java Runtime: Java(TM) SE Runtime Environment
JVM: Java HotSpot(TM) 64-Bit Server VM
Java Version: 14.0.1+7
Operating System: Windows 10
OS Version: 10.0
Default Encoding: Cp1252
Language: it
Country: IT
--></g></svg>