<?xml version="1.0" encoding="UTF-8" standalone="no"?><svg xmlns="http://www.w3.org/2000/svg" xmlns:xlink="http://www.w3.org/1999/xlink" contentScriptType="application/ecmascript" contentStyleType="text/css" height="598px" preserveAspectRatio="none" style="width:381px;height:598px;" version="1.1" viewBox="0 0 381 598" width="381px" zoomAndPan="magnify"><defs><filter height="300%" id="f1xdnu926t3wsp" width="300%" x="-1" y="-1"><feGaussianBlur result="blurOut" stdDeviation="2.0"/><feColorMatrix in="blurOut" result="blurOut2" type="matrix" values="0 0 0 0 0 0 0 0 0 0 0 0 0 0 0 0 0 0 .4 0"/><feOffset dx="4.0" dy="4.0" in="blurOut2" result="blurOut3"/><feBlend in="SourceGraphic" in2="blurOut3" mode="normal"/></filter></defs><g><!--cluster it.polimi.ingsw.model.player--><polygon fill="#FFFFFF" filter="url(#f1xdnu926t3wsp)" points="22,157,222,157,229,180.6094,359,180.6094,359,549,22,549,22,157" style="stroke: #000000; stroke-width: 1.5;"/><line style="stroke: #000000; stroke-width: 1.5;" x1="22" x2="229" y1="180.6094" y2="180.6094"/><text fill="#000000" font-family="sans-serif" font-size="14" font-weight="bold" lengthAdjust="spacingAndGlyphs" textLength="194" x="26" y="173.5332">it.polimi.ingsw.model.player</text><!--cluster it.polimi.ingsw.observer--><polygon fill="#FFFFFF" filter="url(#f1xdnu926t3wsp)" points="40,24,215,24,222,47.6094,225,47.6094,225,124,40,124,40,24" style="stroke: #000000; stroke-width: 1.5;"/><line style="stroke: #000000; stroke-width: 1.5;" x1="40" x2="222" y1="47.6094" y2="47.6094"/><text fill="#000000" font-family="sans-serif" font-size="14" font-weight="bold" lengthAdjust="spacingAndGlyphs" textLength="169" x="44" y="40.5332">it.polimi.ingsw.observer</text><!--class it.polimi.ingsw.model.player.Color--><a href="Color.html" target="_top" xlink:actuate="onRequest" xlink:show="new" xlink:title="Color.html" xlink:type="simple"><rect fill="#FEFECE" filter="url(#f1xdnu926t3wsp)" height="117.1797" id="it.polimi.ingsw.model.player.Color" style="stroke: #A80036; stroke-width: 1.5;" width="170" x="38" y="416"/><ellipse cx="103.75" cy="432" fill="#EB937F" rx="11" ry="11" style="stroke: #A80036; stroke-width: 1.0;"/><path d="M102.6094,432.7969 L102.6094,435.2969 L106.9375,435.2969 L106.9375,434.375 Q106.9375,433.7656 107.1719,433.5 Q107.4219,433.2344 107.7969,433.2344 Q108.1719,433.2344 108.4063,433.5 Q108.6406,433.7656 108.6406,434.375 L108.6406,437 L100.6406,437 Q100.0156,437 99.75,436.7656 Q99.5,436.5313 99.5,436.1406 Q99.5,435.7656 99.7656,435.5313 Q100.0313,435.2969 100.6406,435.2969 L100.9063,435.2969 L100.9063,428.6406 L100.6406,428.6406 Q100.0156,428.6406 99.75,428.4063 Q99.5,428.1719 99.5,427.7813 Q99.5,427.4063 99.75,427.1719 Q100.0156,426.9375 100.6406,426.9375 L108.2656,426.9375 L108.2656,429.5313 Q108.2656,430.1406 108.0313,430.4063 Q107.8125,430.6563 107.4219,430.6563 Q107.0469,430.6563 106.8125,430.4063 Q106.5781,430.1406 106.5781,429.5313 L106.5781,428.6406 L102.6094,428.6406 L102.6094,431.0938 L104.0938,431.0938 Q104.0938,430.4375 104.2188,430.25 Q104.4844,429.8438 104.9531,429.8438 Q105.3281,429.8438 105.5625,430.1094 Q105.7969,430.3594 105.7969,430.9688 L105.7969,432.9375 Q105.7969,433.4844 105.6719,433.6719 Q105.4063,434.0625 104.9531,434.0625 Q104.4844,434.0625 104.2188,433.6563 Q104.0938,433.4688 104.0938,432.7969 L102.6094,432.7969 Z "/><text fill="#000000" font-family="sans-serif" font-size="12" lengthAdjust="spacingAndGlyphs" textLength="30" x="124.25" y="436.9102">Color</text><line style="stroke: #A80036; stroke-width: 1.5;" x1="39" x2="207" y1="448" y2="448"/><ellipse cx="49" cy="460.418" fill="none" rx="3" ry="3" style="stroke: #038048; stroke-width: 1.0;"/><text fill="#000000" font-family="sans-serif" font-size="11" lengthAdjust="spacingAndGlyphs" text-decoration="underline" textLength="20" x="58" y="463.4189">RED</text><ellipse cx="49" cy="474.2539" fill="none" rx="3" ry="3" style="stroke: #038048; stroke-width: 1.0;"/><text fill="#000000" font-family="sans-serif" font-size="11" lengthAdjust="spacingAndGlyphs" text-decoration="underline" textLength="44" x="58" y="477.2549">YELLOW</text><ellipse cx="49" cy="488.0898" fill="none" rx="3" ry="3" style="stroke: #038048; stroke-width: 1.0;"/><text fill="#000000" font-family="sans-serif" font-size="11" lengthAdjust="spacingAndGlyphs" text-decoration="underline" textLength="26" x="58" y="491.0908">BLUE</text><line style="stroke: #A80036; stroke-width: 1.5;" x1="39" x2="207" y1="497.5078" y2="497.5078"/><ellipse cx="49" cy="509.9258" fill="#84BE84" rx="3" ry="3" style="stroke: #038048; stroke-width: 1.0;"/><text fill="#000000" font-family="sans-serif" font-size="11" lengthAdjust="spacingAndGlyphs" text-decoration="underline" textLength="88" x="58" y="512.9268">initialization(): void</text><ellipse cx="49" cy="523.7617" fill="#84BE84" rx="3" ry="3" style="stroke: #038048; stroke-width: 1.0;"/><text fill="#000000" font-family="sans-serif" font-size="11" lengthAdjust="spacingAndGlyphs" text-decoration="underline" textLength="144" x="58" y="526.7627">getAvailability(Color): Boolean</text></a><!--class it.polimi.ingsw.model.player.Player--><a href="Player.html" target="_top" xlink:actuate="onRequest" xlink:show="new" xlink:title="Player.html" xlink:type="simple"><rect fill="#FEFECE" filter="url(#f1xdnu926t3wsp)" height="144.8516" id="it.polimi.ingsw.model.player.Player" style="stroke: #A80036; stroke-width: 1.5;" width="178" x="38" y="193"/><ellipse cx="105.75" cy="209" fill="#ADD1B2" rx="11" ry="11" style="stroke: #A80036; stroke-width: 1.0;"/><path d="M108.5156,204.875 Q108.6719,204.6563 108.8594,204.5469 Q109.0469,204.4375 109.2656,204.4375 Q109.6406,204.4375 109.875,204.7031 Q110.1094,204.9531 110.1094,205.5625 L110.1094,207.0156 Q110.1094,207.625 109.875,207.8906 Q109.6406,208.1563 109.2656,208.1563 Q108.9219,208.1563 108.7188,207.9531 Q108.5156,207.7656 108.4063,207.25 Q108.3594,206.8906 108.1719,206.7031 Q107.8438,206.3281 107.2344,206.1094 Q106.625,205.8906 106,205.8906 Q105.2344,205.8906 104.5938,206.2188 Q103.9688,206.5469 103.4688,207.2969 Q102.9844,208.0469 102.9844,209.0781 L102.9844,210.1719 Q102.9844,211.4063 103.875,212.2344 Q104.7656,213.0469 106.3594,213.0469 Q107.2969,213.0469 107.9531,212.7969 Q108.3438,212.6406 108.7656,212.2031 Q109.0313,211.9375 109.1719,211.8594 Q109.3281,211.7813 109.5313,211.7813 Q109.8594,211.7813 110.1094,212.0469 Q110.375,212.2969 110.375,212.6406 Q110.375,212.9844 110.0313,213.3906 Q109.5313,213.9688 108.7344,214.2969 Q107.6563,214.75 106.3594,214.75 Q104.8438,214.75 103.6406,214.125 Q102.6563,213.625 101.9688,212.5625 Q101.2813,211.4844 101.2813,210.2031 L101.2813,209.0469 Q101.2813,207.7188 101.8906,206.5781 Q102.5156,205.4219 103.6094,204.8125 Q104.7031,204.1875 105.9375,204.1875 Q106.6719,204.1875 107.3125,204.3594 Q107.9688,204.5156 108.5156,204.875 Z "/><text fill="#000000" font-family="sans-serif" font-size="12" lengthAdjust="spacingAndGlyphs" textLength="34" x="126.25" y="213.9102">Player</text><line style="stroke: #A80036; stroke-width: 1.5;" x1="39" x2="215" y1="225" y2="225"/><line style="stroke: #A80036; stroke-width: 1.5;" x1="39" x2="215" y1="233" y2="233"/><ellipse cx="49" cy="245.418" fill="#84BE84" rx="3" ry="3" style="stroke: #038048; stroke-width: 1.0;"/><text fill="#000000" font-family="sans-serif" font-size="11" lengthAdjust="spacingAndGlyphs" textLength="66" x="58" y="248.4189">Player(String)</text><ellipse cx="49" cy="259.2539" fill="#84BE84" rx="3" ry="3" style="stroke: #038048; stroke-width: 1.0;"/><text fill="#000000" font-family="sans-serif" font-size="11" lengthAdjust="spacingAndGlyphs" textLength="122" x="58" y="262.2549">setGodChoice(God): void</text><ellipse cx="49" cy="273.0898" fill="#84BE84" rx="3" ry="3" style="stroke: #038048; stroke-width: 1.0;"/><text fill="#000000" font-family="sans-serif" font-size="11" lengthAdjust="spacingAndGlyphs" textLength="136" x="58" y="276.0908">setWorker1(int, int): boolean</text><ellipse cx="49" cy="286.9258" fill="#84BE84" rx="3" ry="3" style="stroke: #038048; stroke-width: 1.0;"/><text fill="#000000" font-family="sans-serif" font-size="11" lengthAdjust="spacingAndGlyphs" textLength="136" x="58" y="289.9268">setWorker2(int, int): boolean</text><ellipse cx="49" cy="300.7617" fill="#84BE84" rx="3" ry="3" style="stroke: #038048; stroke-width: 1.0;"/><text fill="#000000" font-family="sans-serif" font-size="11" lengthAdjust="spacingAndGlyphs" textLength="103" x="58" y="303.7627">getNickname(): String</text><ellipse cx="49" cy="314.5977" fill="#84BE84" rx="3" ry="3" style="stroke: #038048; stroke-width: 1.0;"/><text fill="#000000" font-family="sans-serif" font-size="11" lengthAdjust="spacingAndGlyphs" textLength="102" x="58" y="317.5986">getGodChoice(): God</text><ellipse cx="49" cy="328.4336" fill="#84BE84" rx="3" ry="3" style="stroke: #038048; stroke-width: 1.0;"/><text fill="#000000" font-family="sans-serif" font-size="11" lengthAdjust="spacingAndGlyphs" textLength="152" x="58" y="331.4346">getWorkerSelected(int): Worker</text></a><!--class it.polimi.ingsw.observer.Observable--><a href="../../observer/Observable.html" target="_top" xlink:actuate="onRequest" xlink:show="new" xlink:title="../../observer/Observable.html" xlink:type="simple"><rect fill="#FEFECE" filter="url(#f1xdnu926t3wsp)" height="48" id="it.polimi.ingsw.observer.Observable" style="stroke: #A80036; stroke-width: 1.5;" width="106" x="74" y="60"/><ellipse cx="89" cy="76" fill="#ADD1B2" rx="11" ry="11" style="stroke: #A80036; stroke-width: 1.0;"/><path d="M91.7656,71.875 Q91.9219,71.6563 92.1094,71.5469 Q92.2969,71.4375 92.5156,71.4375 Q92.8906,71.4375 93.125,71.7031 Q93.3594,71.9531 93.3594,72.5625 L93.3594,74.0156 Q93.3594,74.625 93.125,74.8906 Q92.8906,75.1563 92.5156,75.1563 Q92.1719,75.1563 91.9688,74.9531 Q91.7656,74.7656 91.6563,74.25 Q91.6094,73.8906 91.4219,73.7031 Q91.0938,73.3281 90.4844,73.1094 Q89.875,72.8906 89.25,72.8906 Q88.4844,72.8906 87.8438,73.2188 Q87.2188,73.5469 86.7188,74.2969 Q86.2344,75.0469 86.2344,76.0781 L86.2344,77.1719 Q86.2344,78.4063 87.125,79.2344 Q88.0156,80.0469 89.6094,80.0469 Q90.5469,80.0469 91.2031,79.7969 Q91.5938,79.6406 92.0156,79.2031 Q92.2813,78.9375 92.4219,78.8594 Q92.5781,78.7813 92.7813,78.7813 Q93.1094,78.7813 93.3594,79.0469 Q93.625,79.2969 93.625,79.6406 Q93.625,79.9844 93.2813,80.3906 Q92.7813,80.9688 91.9844,81.2969 Q90.9063,81.75 89.6094,81.75 Q88.0938,81.75 86.8906,81.125 Q85.9063,80.625 85.2188,79.5625 Q84.5313,78.4844 84.5313,77.2031 L84.5313,76.0469 Q84.5313,74.7188 85.1406,73.5781 Q85.7656,72.4219 86.8594,71.8125 Q87.9531,71.1875 89.1875,71.1875 Q89.9219,71.1875 90.5625,71.3594 Q91.2188,71.5156 91.7656,71.875 Z "/><text fill="#000000" font-family="sans-serif" font-size="12" lengthAdjust="spacingAndGlyphs" textLength="63" x="103" y="80.9102">Observable</text><rect fill="#FFFFFF" height="17.0938" style="stroke: #000000; stroke-width: 1.0; stroke-dasharray: 2.0,2.0;" width="9" x="174" y="57"/><text fill="#000000" font-family="sans-serif" font-size="12" font-style="italic" lengthAdjust="spacingAndGlyphs" textLength="7" x="175" y="70.457">T</text><line style="stroke: #A80036; stroke-width: 1.5;" x1="75" x2="179" y1="92" y2="92"/><line style="stroke: #A80036; stroke-width: 1.5;" x1="75" x2="179" y1="100" y2="100"/></a><!--link it.polimi.ingsw.model.player.Color to it.polimi.ingsw.model.player.Color--><path d="M208.209,456.856 C228.229,458.306 243,464.187 243,474.5 C243,483.9263 230.659,489.6503 213.248,491.672 " fill="none" id="it.polimi.ingsw.model.player.Color-it.polimi.ingsw.model.player.Color" style="stroke: #A80036; stroke-width: 1.0;"/><polygon fill="#A80036" points="208.209,492.144,217.5433,495.2857,213.1871,491.6769,216.7959,487.3207,208.209,492.144" style="stroke: #A80036; stroke-width: 1.0;"/><text fill="#000000" font-family="sans-serif" font-size="13" lengthAdjust="spacingAndGlyphs" textLength="105" x="249" y="479.9951">availabilityToFalse</text><!--link it.polimi.ingsw.observer.Observable to it.polimi.ingsw.model.player.Player--><path d="M127,128.269 C127,147.576 127,170.846 127,192.648 " fill="none" id="it.polimi.ingsw.observer.Observable-it.polimi.ingsw.model.player.Player" style="stroke: #A80036; stroke-width: 1.0;"/><polygon fill="none" points="120,128.099,127,108.099,134,128.099,120,128.099" style="stroke: #A80036; stroke-width: 1.0;"/><!--link it.polimi.ingsw.model.player.Player to it.polimi.ingsw.model.player.Color--><path d="M125.618,338.028 C125.16,361.712 124.655,387.873 124.211,410.839 " fill="none" id="it.polimi.ingsw.model.player.Player-it.polimi.ingsw.model.player.Color" style="stroke: #A80036; stroke-width: 1.0;"/><polygon fill="#A80036" points="124.111,415.993,128.2825,407.0712,124.2067,410.9939,120.284,406.9181,124.111,415.993" style="stroke: #A80036; stroke-width: 1.0;"/><text fill="#000000" font-family="sans-serif" font-size="13" lengthAdjust="spacingAndGlyphs" textLength="28" x="126" y="382.4951">color</text><text fill="#888888" font-family="sans-serif" font-size="10" lengthAdjust="spacingAndGlyphs" textLength="190" x="101.5" y="585.3809">UMLDoclet 2.0.10, PlantUML 1.2019.08</text><!--
@startuml
    namespace it.polimi.ingsw.model.player {

        enum Color [[Color.html]] {
            {static} +RED
            {static} +YELLOW
            {static} +BLUE
            {static} +initialization(): void
            {static} +getAvailability(Color): Boolean
        }

        class Player [[Player.html]] {
            +Player(String)
            +setGodChoice(God): void
            +setWorker1(int, int): boolean
            +setWorker2(int, int): boolean
            +getNickname(): String
            +getGodChoice(): God
            +getWorkerSelected(int): Worker
        }

        Color - -> Color: availabilityToFalse
        it.polimi.ingsw.observer.Observable <|- - Player
        Player - -> Color: color
    }

    namespace it.polimi.ingsw.observer {
        class Observable<T> [[../../observer/Observable.html]] {
        }
    }

    center footer UMLDoclet 2.0.10, PlantUML 1.2019.08
@enduml

PlantUML version 1.2019.08(Sat Jul 13 21:25:14 CEST 2019)
(APACHE source distribution)
Java Runtime: Java(TM) SE Runtime Environment
JVM: Java HotSpot(TM) 64-Bit Server VM
Java Version: 14.0.1+7
Operating System: Windows 10
OS Version: 10.0
Default Encoding: Cp1252
Language: it
Country: IT
--></g></svg>