<?xml version="1.0" encoding="UTF-8" standalone="no"?><svg xmlns="http://www.w3.org/2000/svg" xmlns:xlink="http://www.w3.org/1999/xlink" contentScriptType="application/ecmascript" contentStyleType="text/css" height="300px" preserveAspectRatio="none" style="width:208px;height:300px;" version="1.1" viewBox="0 0 208 300" width="208px" zoomAndPan="magnify"><defs><filter height="300%" id="f5aqxsqr8o5js" width="300%" x="-1" y="-1"><feGaussianBlur result="blurOut" stdDeviation="2.0"/><feColorMatrix in="blurOut" result="blurOut2" type="matrix" values="0 0 0 0 0 0 0 0 0 0 0 0 0 0 0 0 0 0 .4 0"/><feOffset dx="4.0" dy="4.0" in="blurOut2" result="blurOut3"/><feBlend in="SourceGraphic" in2="blurOut3" mode="normal"/></filter></defs><g><!--class it.polimi.ingsw.model.player.Player--><a href="Player.html" target="_top" xlink:actuate="onRequest" xlink:show="new" xlink:title="Player.html" xlink:type="simple"><rect fill="#FEFECE" filter="url(#f5aqxsqr8o5js)" height="158.875" id="it.polimi.ingsw.model.player.Player" style="stroke: #A80036; stroke-width: 1.5;" width="178" x="6" y="108"/><ellipse cx="26.85" cy="128.0938" fill="#ADD1B2" rx="11" ry="11" style="stroke: #A80036; stroke-width: 1.0;"/><path d="M29.6156,123.9688 Q29.7719,123.75 29.9594,123.6406 Q30.1469,123.5313 30.3656,123.5313 Q30.7406,123.5313 30.975,123.7969 Q31.2094,124.0469 31.2094,124.6563 L31.2094,126.1094 Q31.2094,126.7188 30.975,126.9844 Q30.7406,127.25 30.3656,127.25 Q30.0219,127.25 29.8188,127.0469 Q29.6156,126.8594 29.5063,126.3438 Q29.4594,125.9844 29.2719,125.7969 Q28.9438,125.4219 28.3344,125.2031 Q27.725,124.9844 27.1,124.9844 Q26.3344,124.9844 25.6938,125.3125 Q25.0688,125.6406 24.5688,126.3906 Q24.0844,127.1406 24.0844,128.1719 L24.0844,129.2656 Q24.0844,130.5 24.975,131.3281 Q25.8656,132.1406 27.4594,132.1406 Q28.3969,132.1406 29.0531,131.8906 Q29.4438,131.7344 29.8656,131.2969 Q30.1313,131.0313 30.2719,130.9531 Q30.4281,130.875 30.6313,130.875 Q30.9594,130.875 31.2094,131.1406 Q31.475,131.3906 31.475,131.7344 Q31.475,132.0781 31.1313,132.4844 Q30.6313,133.0625 29.8344,133.3906 Q28.7563,133.8438 27.4594,133.8438 Q25.9438,133.8438 24.7406,133.2188 Q23.7563,132.7188 23.0688,131.6563 Q22.3813,130.5781 22.3813,129.2969 L22.3813,128.1406 Q22.3813,126.8125 22.9906,125.6719 Q23.6156,124.5156 24.7094,123.9063 Q25.8031,123.2813 27.0375,123.2813 Q27.7719,123.2813 28.4125,123.4531 Q29.0688,123.6094 29.6156,123.9688 Z "/><text fill="#000000" font-family="sans-serif" font-size="14" lengthAdjust="spacingAndGlyphs" textLength="40" x="88.65" y="127.5332">Player</text><text fill="#000000" font-family="sans-serif" font-size="10" lengthAdjust="spacingAndGlyphs" textLength="133" x="42.15" y="140.9902">it.polimi.ingsw.model.player</text><line style="stroke: #A80036; stroke-width: 1.5;" x1="7" x2="183" y1="148.1875" y2="148.1875"/><ellipse cx="17" cy="160.6055" fill="#84BE84" rx="3" ry="3" style="stroke: #038048; stroke-width: 1.0;"/><text fill="#000000" font-family="sans-serif" font-size="11" lengthAdjust="spacingAndGlyphs" textLength="66" x="26" y="163.6064">Player(String)</text><ellipse cx="17" cy="174.4414" fill="#84BE84" rx="3" ry="3" style="stroke: #038048; stroke-width: 1.0;"/><text fill="#000000" font-family="sans-serif" font-size="11" lengthAdjust="spacingAndGlyphs" textLength="122" x="26" y="177.4424">setGodChoice(God): void</text><ellipse cx="17" cy="188.2773" fill="#84BE84" rx="3" ry="3" style="stroke: #038048; stroke-width: 1.0;"/><text fill="#000000" font-family="sans-serif" font-size="11" lengthAdjust="spacingAndGlyphs" textLength="136" x="26" y="191.2783">setWorker1(int, int): boolean</text><ellipse cx="17" cy="202.1133" fill="#84BE84" rx="3" ry="3" style="stroke: #038048; stroke-width: 1.0;"/><text fill="#000000" font-family="sans-serif" font-size="11" lengthAdjust="spacingAndGlyphs" textLength="136" x="26" y="205.1143">setWorker2(int, int): boolean</text><ellipse cx="17" cy="215.9492" fill="#84BE84" rx="3" ry="3" style="stroke: #038048; stroke-width: 1.0;"/><text fill="#000000" font-family="sans-serif" font-size="11" lengthAdjust="spacingAndGlyphs" textLength="103" x="26" y="218.9502">getNickname(): String</text><ellipse cx="17" cy="229.7852" fill="#84BE84" rx="3" ry="3" style="stroke: #038048; stroke-width: 1.0;"/><text fill="#000000" font-family="sans-serif" font-size="11" lengthAdjust="spacingAndGlyphs" textLength="79" x="26" y="232.7861">getColor(): Color</text><ellipse cx="17" cy="243.6211" fill="#84BE84" rx="3" ry="3" style="stroke: #038048; stroke-width: 1.0;"/><text fill="#000000" font-family="sans-serif" font-size="11" lengthAdjust="spacingAndGlyphs" textLength="102" x="26" y="246.6221">getGodChoice(): God</text><ellipse cx="17" cy="257.457" fill="#84BE84" rx="3" ry="3" style="stroke: #038048; stroke-width: 1.0;"/><text fill="#000000" font-family="sans-serif" font-size="11" lengthAdjust="spacingAndGlyphs" textLength="152" x="26" y="260.458">getWorkerSelected(int): Worker</text></a><!--class it.polimi.ingsw.observer.Observable--><a href="../../observer/Observable.html" target="_top" xlink:actuate="onRequest" xlink:show="new" xlink:title="../../observer/Observable.html" xlink:type="simple"><rect fill="#FEFECE" filter="url(#f5aqxsqr8o5js)" height="40.1875" id="it.polimi.ingsw.observer.Observable" style="stroke: #A80036; stroke-width: 1.5;" width="169" x="10.5" y="8"/><ellipse cx="25.5" cy="28.0938" fill="#ADD1B2" rx="11" ry="11" style="stroke: #A80036; stroke-width: 1.0;"/><path d="M28.2656,23.9688 Q28.4219,23.75 28.6094,23.6406 Q28.7969,23.5313 29.0156,23.5313 Q29.3906,23.5313 29.625,23.7969 Q29.8594,24.0469 29.8594,24.6563 L29.8594,26.1094 Q29.8594,26.7188 29.625,26.9844 Q29.3906,27.25 29.0156,27.25 Q28.6719,27.25 28.4688,27.0469 Q28.2656,26.8594 28.1563,26.3438 Q28.1094,25.9844 27.9219,25.7969 Q27.5938,25.4219 26.9844,25.2031 Q26.375,24.9844 25.75,24.9844 Q24.9844,24.9844 24.3438,25.3125 Q23.7188,25.6406 23.2188,26.3906 Q22.7344,27.1406 22.7344,28.1719 L22.7344,29.2656 Q22.7344,30.5 23.625,31.3281 Q24.5156,32.1406 26.1094,32.1406 Q27.0469,32.1406 27.7031,31.8906 Q28.0938,31.7344 28.5156,31.2969 Q28.7813,31.0313 28.9219,30.9531 Q29.0781,30.875 29.2813,30.875 Q29.6094,30.875 29.8594,31.1406 Q30.125,31.3906 30.125,31.7344 Q30.125,32.0781 29.7813,32.4844 Q29.2813,33.0625 28.4844,33.3906 Q27.4063,33.8438 26.1094,33.8438 Q24.5938,33.8438 23.3906,33.2188 Q22.4063,32.7188 21.7188,31.6563 Q21.0313,30.5781 21.0313,29.2969 L21.0313,28.1406 Q21.0313,26.8125 21.6406,25.6719 Q22.2656,24.5156 23.3594,23.9063 Q24.4531,23.2813 25.6875,23.2813 Q26.4219,23.2813 27.0625,23.4531 Q27.7188,23.6094 28.2656,23.9688 Z "/><text fill="#000000" font-family="sans-serif" font-size="14" lengthAdjust="spacingAndGlyphs" textLength="73" x="58" y="27.5332">Observable</text><text fill="#000000" font-family="sans-serif" font-size="10" lengthAdjust="spacingAndGlyphs" textLength="110" x="39.5" y="40.9902">it.polimi.ingsw.observer</text><rect fill="#FFFFFF" height="17.0938" style="stroke: #000000; stroke-width: 1.0; stroke-dasharray: 2.0,2.0;" width="25" x="157.5" y="5"/><text fill="#000000" font-family="sans-serif" font-size="12" font-style="italic" lengthAdjust="spacingAndGlyphs" textLength="23" x="158.5" y="18.457">God</text></a><!--link it.polimi.ingsw.observer.Observable to it.polimi.ingsw.model.player.Player--><path d="M95,68.471 C95,80.545 95,94.275 95,107.995 " fill="none" id="it.polimi.ingsw.observer.Observable-it.polimi.ingsw.model.player.Player" style="stroke: #A80036; stroke-width: 1.0;"/><polygon fill="none" points="88.0001,68.313,95,48.313,102.0001,68.313,88.0001,68.313" style="stroke: #A80036; stroke-width: 1.0;"/><text fill="#888888" font-family="sans-serif" font-size="10" lengthAdjust="spacingAndGlyphs" textLength="190" x="6" y="287.3809">UMLDoclet 2.0.10, PlantUML 1.2019.08</text><!--
@startuml
    set namespaceSeparator none
    hide empty fields
    hide empty methods

    class "<size:14>Player\n<size:10>it.polimi.ingsw.model.player" as it.polimi.ingsw.model.player.Player [[Player.html]] {
        +Player(String)
        +setGodChoice(God): void
        +setWorker1(int, int): boolean
        +setWorker2(int, int): boolean
        +getNickname(): String
        +getColor(): Color
        +getGodChoice(): God
        +getWorkerSelected(int): Worker
    }

    class "<size:14>Observable\n<size:10>it.polimi.ingsw.observer" as it.polimi.ingsw.observer.Observable<God> [[../../observer/Observable.html]]

    it.polimi.ingsw.observer.Observable <|- - it.polimi.ingsw.model.player.Player

    center footer UMLDoclet 2.0.10, PlantUML 1.2019.08
@enduml

PlantUML version 1.2019.08(Sat Jul 13 21:25:14 CEST 2019)
(APACHE source distribution)
Java Runtime: Java(TM) SE Runtime Environment
JVM: Java HotSpot(TM) 64-Bit Server VM
Java Version: 14.0.1+7
Operating System: Windows 10
OS Version: 10.0
Default Encoding: Cp1252
Language: it
Country: IT
--></g></svg>