<?xml version="1.0" encoding="UTF-8" standalone="no"?><svg xmlns="http://www.w3.org/2000/svg" xmlns:xlink="http://www.w3.org/1999/xlink" contentScriptType="application/ecmascript" contentStyleType="text/css" height="217px" preserveAspectRatio="none" style="width:229px;height:217px;" version="1.1" viewBox="0 0 229 217" width="229px" zoomAndPan="magnify"><defs><filter height="300%" id="f1i2sspcc9nunw" width="300%" x="-1" y="-1"><feGaussianBlur result="blurOut" stdDeviation="2.0"/><feColorMatrix in="blurOut" result="blurOut2" type="matrix" values="0 0 0 0 0 0 0 0 0 0 0 0 0 0 0 0 0 0 .4 0"/><feOffset dx="4.0" dy="4.0" in="blurOut2" result="blurOut3"/><feBlend in="SourceGraphic" in2="blurOut3" mode="normal"/></filter></defs><g><!--class it.polimi.ingsw.view.gui.panels.CardChoice--><a href="CardChoice.html" target="_top" xlink:actuate="onRequest" xlink:show="new" xlink:title="CardChoice.html" xlink:type="simple"><rect fill="#FEFECE" filter="url(#f1i2sspcc9nunw)" height="75.8594" id="it.polimi.ingsw.view.gui.panels.CardChoice" style="stroke: #A80036; stroke-width: 1.5;" width="212" x="6" y="108"/><ellipse cx="37.2" cy="128.0938" fill="#ADD1B2" rx="11" ry="11" style="stroke: #A80036; stroke-width: 1.0;"/><path d="M39.9656,123.9688 Q40.1219,123.75 40.3094,123.6406 Q40.4969,123.5313 40.7156,123.5313 Q41.0906,123.5313 41.325,123.7969 Q41.5594,124.0469 41.5594,124.6563 L41.5594,126.1094 Q41.5594,126.7188 41.325,126.9844 Q41.0906,127.25 40.7156,127.25 Q40.3719,127.25 40.1688,127.0469 Q39.9656,126.8594 39.8563,126.3438 Q39.8094,125.9844 39.6219,125.7969 Q39.2938,125.4219 38.6844,125.2031 Q38.075,124.9844 37.45,124.9844 Q36.6844,124.9844 36.0438,125.3125 Q35.4188,125.6406 34.9188,126.3906 Q34.4344,127.1406 34.4344,128.1719 L34.4344,129.2656 Q34.4344,130.5 35.325,131.3281 Q36.2156,132.1406 37.8094,132.1406 Q38.7469,132.1406 39.4031,131.8906 Q39.7938,131.7344 40.2156,131.2969 Q40.4813,131.0313 40.6219,130.9531 Q40.7781,130.875 40.9813,130.875 Q41.3094,130.875 41.5594,131.1406 Q41.825,131.3906 41.825,131.7344 Q41.825,132.0781 41.4813,132.4844 Q40.9813,133.0625 40.1844,133.3906 Q39.1063,133.8438 37.8094,133.8438 Q36.2938,133.8438 35.0906,133.2188 Q34.1063,132.7188 33.4188,131.6563 Q32.7313,130.5781 32.7313,129.2969 L32.7313,128.1406 Q32.7313,126.8125 33.3406,125.6719 Q33.9656,124.5156 35.0594,123.9063 Q36.1531,123.2813 37.3875,123.2813 Q38.1219,123.2813 38.7625,123.4531 Q39.4188,123.6094 39.9656,123.9688 Z "/><text fill="#000000" font-family="sans-serif" font-size="14" lengthAdjust="spacingAndGlyphs" textLength="75" x="89.3" y="127.5332">CardChoice</text><text fill="#000000" font-family="sans-serif" font-size="10" lengthAdjust="spacingAndGlyphs" textLength="144" x="54.8" y="140.9902">it.polimi.ingsw.view.gui.panels</text><line style="stroke: #A80036; stroke-width: 1.5;" x1="7" x2="217" y1="148.1875" y2="148.1875"/><ellipse cx="17" cy="160.6055" fill="#84BE84" rx="3" ry="3" style="stroke: #038048; stroke-width: 1.0;"/><text fill="#000000" font-family="sans-serif" font-size="11" lengthAdjust="spacingAndGlyphs" textLength="186" x="26" y="163.6064">CardChoice(God, God, God, boolean[])</text><ellipse cx="17" cy="174.4414" fill="#84BE84" rx="3" ry="3" style="stroke: #038048; stroke-width: 1.0;"/><text fill="#000000" font-family="sans-serif" font-size="11" lengthAdjust="spacingAndGlyphs" textLength="160" x="26" y="177.4424">CardChoice(God, God, boolean[])</text></a><!--class javax.swing.JPanel--><rect fill="#FEFECE" filter="url(#f1i2sspcc9nunw)" height="40.1875" id="javax.swing.JPanel" style="stroke: #A80036; stroke-width: 1.5;" width="86" x="69" y="8"/><ellipse cx="84" cy="28.0938" fill="#ADD1B2" rx="11" ry="11" style="stroke: #A80036; stroke-width: 1.0;"/><path d="M86.7656,23.9688 Q86.9219,23.75 87.1094,23.6406 Q87.2969,23.5313 87.5156,23.5313 Q87.8906,23.5313 88.125,23.7969 Q88.3594,24.0469 88.3594,24.6563 L88.3594,26.1094 Q88.3594,26.7188 88.125,26.9844 Q87.8906,27.25 87.5156,27.25 Q87.1719,27.25 86.9688,27.0469 Q86.7656,26.8594 86.6563,26.3438 Q86.6094,25.9844 86.4219,25.7969 Q86.0938,25.4219 85.4844,25.2031 Q84.875,24.9844 84.25,24.9844 Q83.4844,24.9844 82.8438,25.3125 Q82.2188,25.6406 81.7188,26.3906 Q81.2344,27.1406 81.2344,28.1719 L81.2344,29.2656 Q81.2344,30.5 82.125,31.3281 Q83.0156,32.1406 84.6094,32.1406 Q85.5469,32.1406 86.2031,31.8906 Q86.5938,31.7344 87.0156,31.2969 Q87.2813,31.0313 87.4219,30.9531 Q87.5781,30.875 87.7813,30.875 Q88.1094,30.875 88.3594,31.1406 Q88.625,31.3906 88.625,31.7344 Q88.625,32.0781 88.2813,32.4844 Q87.7813,33.0625 86.9844,33.3906 Q85.9063,33.8438 84.6094,33.8438 Q83.0938,33.8438 81.8906,33.2188 Q80.9063,32.7188 80.2188,31.6563 Q79.5313,30.5781 79.5313,29.2969 L79.5313,28.1406 Q79.5313,26.8125 80.1406,25.6719 Q80.7656,24.5156 81.8594,23.9063 Q82.9531,23.2813 84.1875,23.2813 Q84.9219,23.2813 85.5625,23.4531 Q86.2188,23.6094 86.7656,23.9688 Z "/><text fill="#000000" font-family="sans-serif" font-size="14" lengthAdjust="spacingAndGlyphs" textLength="42" x="104" y="27.5332">JPanel</text><text fill="#000000" font-family="sans-serif" font-size="10" lengthAdjust="spacingAndGlyphs" textLength="54" x="98" y="40.9902">javax.swing</text><!--link javax.swing.JPanel to it.polimi.ingsw.view.gui.panels.CardChoice--><path d="M112,68.491 C112,81.272 112,95.3932 112,107.9879 " fill="none" id="javax.swing.JPanel-it.polimi.ingsw.view.gui.panels.CardChoice" style="stroke: #A80036; stroke-width: 1.0;"/><polygon fill="none" points="105.0001,68.155,112,48.155,119,68.155,105.0001,68.155" style="stroke: #A80036; stroke-width: 1.0;"/><text fill="#888888" font-family="sans-serif" font-size="10" lengthAdjust="spacingAndGlyphs" textLength="190" x="23" y="204.3809">UMLDoclet 2.0.10, PlantUML 1.2019.08</text><!--
@startuml
    set namespaceSeparator none
    hide empty fields
    hide empty methods

    class "<size:14>CardChoice\n<size:10>it.polimi.ingsw.view.gui.panels" as it.polimi.ingsw.view.gui.panels.CardChoice [[CardChoice.html]] {
        +CardChoice(God, God, God, boolean[])
        +CardChoice(God, God, boolean[])
    }

    class "<size:14>JPanel\n<size:10>javax.swing" as javax.swing.JPanel

    javax.swing.JPanel <|- - it.polimi.ingsw.view.gui.panels.CardChoice

    center footer UMLDoclet 2.0.10, PlantUML 1.2019.08
@enduml

PlantUML version 1.2019.08(Sat Jul 13 21:25:14 CEST 2019)
(APACHE source distribution)
Java Runtime: Java(TM) SE Runtime Environment
JVM: Java HotSpot(TM) 64-Bit Server VM
Java Version: 14.0.1+7
Operating System: Windows 10
OS Version: 10.0
Default Encoding: Cp1252
Language: it
Country: IT
--></g></svg>