<?xml version="1.0" encoding="UTF-8" standalone="no"?><svg xmlns="http://www.w3.org/2000/svg" xmlns:xlink="http://www.w3.org/1999/xlink" contentScriptType="application/ecmascript" contentStyleType="text/css" height="203px" preserveAspectRatio="none" style="width:214px;height:203px;" version="1.1" viewBox="0 0 214 203" width="214px" zoomAndPan="magnify"><defs><filter height="300%" id="f19e6209dbi4kv" width="300%" x="-1" y="-1"><feGaussianBlur result="blurOut" stdDeviation="2.0"/><feColorMatrix in="blurOut" result="blurOut2" type="matrix" values="0 0 0 0 0 0 0 0 0 0 0 0 0 0 0 0 0 0 .4 0"/><feOffset dx="4.0" dy="4.0" in="blurOut2" result="blurOut3"/><feBlend in="SourceGraphic" in2="blurOut3" mode="normal"/></filter></defs><g><!--class it.polimi.ingsw.view.gui.panels.FinalWindow--><a href="FinalWindow.html" target="_top" xlink:actuate="onRequest" xlink:show="new" xlink:title="FinalWindow.html" xlink:type="simple"><rect fill="#FEFECE" filter="url(#f19e6209dbi4kv)" height="62.0234" id="it.polimi.ingsw.view.gui.panels.FinalWindow" style="stroke: #A80036; stroke-width: 1.5;" width="190" x="6" y="108"/><ellipse cx="27.3" cy="128.0938" fill="#ADD1B2" rx="11" ry="11" style="stroke: #A80036; stroke-width: 1.0;"/><path d="M30.0656,123.9688 Q30.2219,123.75 30.4094,123.6406 Q30.5969,123.5313 30.8156,123.5313 Q31.1906,123.5313 31.425,123.7969 Q31.6594,124.0469 31.6594,124.6563 L31.6594,126.1094 Q31.6594,126.7188 31.425,126.9844 Q31.1906,127.25 30.8156,127.25 Q30.4719,127.25 30.2688,127.0469 Q30.0656,126.8594 29.9563,126.3438 Q29.9094,125.9844 29.7219,125.7969 Q29.3938,125.4219 28.7844,125.2031 Q28.175,124.9844 27.55,124.9844 Q26.7844,124.9844 26.1438,125.3125 Q25.5188,125.6406 25.0188,126.3906 Q24.5344,127.1406 24.5344,128.1719 L24.5344,129.2656 Q24.5344,130.5 25.425,131.3281 Q26.3156,132.1406 27.9094,132.1406 Q28.8469,132.1406 29.5031,131.8906 Q29.8938,131.7344 30.3156,131.2969 Q30.5813,131.0313 30.7219,130.9531 Q30.8781,130.875 31.0813,130.875 Q31.4094,130.875 31.6594,131.1406 Q31.925,131.3906 31.925,131.7344 Q31.925,132.0781 31.5813,132.4844 Q31.0813,133.0625 30.2844,133.3906 Q29.2063,133.8438 27.9094,133.8438 Q26.3938,133.8438 25.1906,133.2188 Q24.2063,132.7188 23.5188,131.6563 Q22.8313,130.5781 22.8313,129.2969 L22.8313,128.1406 Q22.8313,126.8125 23.4406,125.6719 Q24.0656,124.5156 25.1594,123.9063 Q26.2531,123.2813 27.4875,123.2813 Q28.2219,123.2813 28.8625,123.4531 Q29.5188,123.6094 30.0656,123.9688 Z "/><text fill="#000000" font-family="sans-serif" font-size="14" lengthAdjust="spacingAndGlyphs" textLength="80" x="74.7" y="127.5332">FinalWindow</text><text fill="#000000" font-family="sans-serif" font-size="10" lengthAdjust="spacingAndGlyphs" textLength="144" x="42.7" y="140.9902">it.polimi.ingsw.view.gui.panels</text><line style="stroke: #A80036; stroke-width: 1.5;" x1="7" x2="195" y1="148.1875" y2="148.1875"/><ellipse cx="17" cy="160.6055" fill="#84BE84" rx="3" ry="3" style="stroke: #038048; stroke-width: 1.0;"/><text fill="#000000" font-family="sans-serif" font-size="11" lengthAdjust="spacingAndGlyphs" textLength="164" x="26" y="163.6064">FinalWindow(JFrame, GameState)</text></a><!--class javax.swing.JWindow--><rect fill="#FEFECE" filter="url(#f19e6209dbi4kv)" height="40.1875" id="javax.swing.JWindow" style="stroke: #A80036; stroke-width: 1.5;" width="87" x="57.5" y="8"/><ellipse cx="72.5" cy="28.0938" fill="#ADD1B2" rx="11" ry="11" style="stroke: #A80036; stroke-width: 1.0;"/><path d="M75.2656,23.9688 Q75.4219,23.75 75.6094,23.6406 Q75.7969,23.5313 76.0156,23.5313 Q76.3906,23.5313 76.625,23.7969 Q76.8594,24.0469 76.8594,24.6563 L76.8594,26.1094 Q76.8594,26.7188 76.625,26.9844 Q76.3906,27.25 76.0156,27.25 Q75.6719,27.25 75.4688,27.0469 Q75.2656,26.8594 75.1563,26.3438 Q75.1094,25.9844 74.9219,25.7969 Q74.5938,25.4219 73.9844,25.2031 Q73.375,24.9844 72.75,24.9844 Q71.9844,24.9844 71.3438,25.3125 Q70.7188,25.6406 70.2188,26.3906 Q69.7344,27.1406 69.7344,28.1719 L69.7344,29.2656 Q69.7344,30.5 70.625,31.3281 Q71.5156,32.1406 73.1094,32.1406 Q74.0469,32.1406 74.7031,31.8906 Q75.0938,31.7344 75.5156,31.2969 Q75.7813,31.0313 75.9219,30.9531 Q76.0781,30.875 76.2813,30.875 Q76.6094,30.875 76.8594,31.1406 Q77.125,31.3906 77.125,31.7344 Q77.125,32.0781 76.7813,32.4844 Q76.2813,33.0625 75.4844,33.3906 Q74.4063,33.8438 73.1094,33.8438 Q71.5938,33.8438 70.3906,33.2188 Q69.4063,32.7188 68.7188,31.6563 Q68.0313,30.5781 68.0313,29.2969 L68.0313,28.1406 Q68.0313,26.8125 68.6406,25.6719 Q69.2656,24.5156 70.3594,23.9063 Q71.4531,23.2813 72.6875,23.2813 Q73.4219,23.2813 74.0625,23.4531 Q74.7188,23.6094 75.2656,23.9688 Z "/><text fill="#000000" font-family="sans-serif" font-size="14" lengthAdjust="spacingAndGlyphs" textLength="55" x="86.5" y="27.5332">JWindow</text><text fill="#000000" font-family="sans-serif" font-size="10" lengthAdjust="spacingAndGlyphs" textLength="54" x="87" y="40.9902">javax.swing</text><!--link javax.swing.JWindow to it.polimi.ingsw.view.gui.panels.FinalWindow--><path d="M101,68.372 C101,81.3848 101,95.6467 101,107.8556 " fill="none" id="javax.swing.JWindow-it.polimi.ingsw.view.gui.panels.FinalWindow" style="stroke: #A80036; stroke-width: 1.0;"/><polygon fill="none" points="94.0001,68.236,101,48.236,108,68.236,94.0001,68.236" style="stroke: #A80036; stroke-width: 1.0;"/><text fill="#888888" font-family="sans-serif" font-size="10" lengthAdjust="spacingAndGlyphs" textLength="190" x="12" y="190.3809">UMLDoclet 2.0.10, PlantUML 1.2019.08</text><!--
@startuml
    set namespaceSeparator none
    hide empty fields
    hide empty methods

    class "<size:14>FinalWindow\n<size:10>it.polimi.ingsw.view.gui.panels" as it.polimi.ingsw.view.gui.panels.FinalWindow [[FinalWindow.html]] {
        +FinalWindow(JFrame, GameState)
    }

    class "<size:14>JWindow\n<size:10>javax.swing" as javax.swing.JWindow

    javax.swing.JWindow <|- - it.polimi.ingsw.view.gui.panels.FinalWindow

    center footer UMLDoclet 2.0.10, PlantUML 1.2019.08
@enduml

PlantUML version 1.2019.08(Sat Jul 13 21:25:14 CEST 2019)
(APACHE source distribution)
Java Runtime: Java(TM) SE Runtime Environment
JVM: Java HotSpot(TM) 64-Bit Server VM
Java Version: 14.0.1+7
Operating System: Windows 10
OS Version: 10.0
Default Encoding: Cp1252
Language: it
Country: IT
--></g></svg>