<?xml version="1.0" encoding="UTF-8" standalone="no"?><svg xmlns="http://www.w3.org/2000/svg" xmlns:xlink="http://www.w3.org/1999/xlink" contentScriptType="application/ecmascript" contentStyleType="text/css" height="431px" preserveAspectRatio="none" style="width:1563px;height:431px;" version="1.1" viewBox="0 0 1563 431" width="1563px" zoomAndPan="magnify"><defs><filter height="300%" id="f1hsygc5sbu12h" width="300%" x="-1" y="-1"><feGaussianBlur result="blurOut" stdDeviation="2.0"/><feColorMatrix in="blurOut" result="blurOut2" type="matrix" values="0 0 0 0 0 0 0 0 0 0 0 0 0 0 0 0 0 0 .4 0"/><feOffset dx="4.0" dy="4.0" in="blurOut2" result="blurOut3"/><feBlend in="SourceGraphic" in2="blurOut3" mode="normal"/></filter></defs><g><!--cluster it.polimi.ingsw.view.gui.panels--><polygon fill="#FFFFFF" filter="url(#f1hsygc5sbu12h)" points="22,157,242,157,249,180.6094,1541,180.6094,1541,382,22,382,22,157" style="stroke: #000000; stroke-width: 1.5;"/><line style="stroke: #000000; stroke-width: 1.5;" x1="22" x2="249" y1="180.6094" y2="180.6094"/><text fill="#000000" font-family="sans-serif" font-size="14" font-weight="bold" lengthAdjust="spacingAndGlyphs" textLength="214" x="26" y="173.5332">it.polimi.ingsw.view.gui.panels</text><!--cluster javax.swing--><polygon fill="#FFFFFF" filter="url(#f1hsygc5sbu12h)" points="556,24,644,24,651,47.6094,775,47.6094,775,124,556,124,556,24" style="stroke: #000000; stroke-width: 1.5;"/><line style="stroke: #000000; stroke-width: 1.5;" x1="556" x2="651" y1="47.6094" y2="47.6094"/><text fill="#000000" font-family="sans-serif" font-size="14" font-weight="bold" lengthAdjust="spacingAndGlyphs" textLength="82" x="560" y="40.5332">javax.swing</text><!--class it.polimi.ingsw.view.gui.panels.CardChoice--><a href="CardChoice.html" target="_top" xlink:actuate="onRequest" xlink:show="new" xlink:title="CardChoice.html" xlink:type="simple"><rect fill="#FEFECE" filter="url(#f1hsygc5sbu12h)" height="75.6719" id="it.polimi.ingsw.view.gui.panels.CardChoice" style="stroke: #A80036; stroke-width: 1.5;" width="212" x="38" y="241.5"/><ellipse cx="106.75" cy="257.5" fill="#ADD1B2" rx="11" ry="11" style="stroke: #A80036; stroke-width: 1.0;"/><path d="M109.5156,253.375 Q109.6719,253.1563 109.8594,253.0469 Q110.0469,252.9375 110.2656,252.9375 Q110.6406,252.9375 110.875,253.2031 Q111.1094,253.4531 111.1094,254.0625 L111.1094,255.5156 Q111.1094,256.125 110.875,256.3906 Q110.6406,256.6563 110.2656,256.6563 Q109.9219,256.6563 109.7188,256.4531 Q109.5156,256.2656 109.4063,255.75 Q109.3594,255.3906 109.1719,255.2031 Q108.8438,254.8281 108.2344,254.6094 Q107.625,254.3906 107,254.3906 Q106.2344,254.3906 105.5938,254.7188 Q104.9688,255.0469 104.4688,255.7969 Q103.9844,256.5469 103.9844,257.5781 L103.9844,258.6719 Q103.9844,259.9063 104.875,260.7344 Q105.7656,261.5469 107.3594,261.5469 Q108.2969,261.5469 108.9531,261.2969 Q109.3438,261.1406 109.7656,260.7031 Q110.0313,260.4375 110.1719,260.3594 Q110.3281,260.2813 110.5313,260.2813 Q110.8594,260.2813 111.1094,260.5469 Q111.375,260.7969 111.375,261.1406 Q111.375,261.4844 111.0313,261.8906 Q110.5313,262.4688 109.7344,262.7969 Q108.6563,263.25 107.3594,263.25 Q105.8438,263.25 104.6406,262.625 Q103.6563,262.125 102.9688,261.0625 Q102.2813,259.9844 102.2813,258.7031 L102.2813,257.5469 Q102.2813,256.2188 102.8906,255.0781 Q103.5156,253.9219 104.6094,253.3125 Q105.7031,252.6875 106.9375,252.6875 Q107.6719,252.6875 108.3125,252.8594 Q108.9688,253.0156 109.5156,253.375 Z "/><text fill="#000000" font-family="sans-serif" font-size="12" lengthAdjust="spacingAndGlyphs" textLength="66" x="127.25" y="262.4102">CardChoice</text><line style="stroke: #A80036; stroke-width: 1.5;" x1="39" x2="249" y1="273.5" y2="273.5"/><line style="stroke: #A80036; stroke-width: 1.5;" x1="39" x2="249" y1="281.5" y2="281.5"/><ellipse cx="49" cy="293.918" fill="#84BE84" rx="3" ry="3" style="stroke: #038048; stroke-width: 1.0;"/><text fill="#000000" font-family="sans-serif" font-size="11" lengthAdjust="spacingAndGlyphs" textLength="186" x="58" y="296.9189">CardChoice(God, God, God, boolean[])</text><ellipse cx="49" cy="307.7539" fill="#84BE84" rx="3" ry="3" style="stroke: #038048; stroke-width: 1.0;"/><text fill="#000000" font-family="sans-serif" font-size="11" lengthAdjust="spacingAndGlyphs" textLength="160" x="58" y="310.7549">CardChoice(God, God, boolean[])</text></a><!--class it.polimi.ingsw.view.gui.panels.FinalWindow--><a href="FinalWindow.html" target="_top" xlink:actuate="onRequest" xlink:show="new" xlink:title="FinalWindow.html" xlink:type="simple"><rect fill="#FEFECE" filter="url(#f1hsygc5sbu12h)" height="61.8359" id="it.polimi.ingsw.view.gui.panels.FinalWindow" style="stroke: #A80036; stroke-width: 1.5;" width="190" x="1098" y="248.5"/><ellipse cx="1153.25" cy="264.5" fill="#ADD1B2" rx="11" ry="11" style="stroke: #A80036; stroke-width: 1.0;"/><path d="M1156.0156,260.375 Q1156.1719,260.1563 1156.3594,260.0469 Q1156.5469,259.9375 1156.7656,259.9375 Q1157.1406,259.9375 1157.375,260.2031 Q1157.6094,260.4531 1157.6094,261.0625 L1157.6094,262.5156 Q1157.6094,263.125 1157.375,263.3906 Q1157.1406,263.6563 1156.7656,263.6563 Q1156.4219,263.6563 1156.2188,263.4531 Q1156.0156,263.2656 1155.9063,262.75 Q1155.8594,262.3906 1155.6719,262.2031 Q1155.3438,261.8281 1154.7344,261.6094 Q1154.125,261.3906 1153.5,261.3906 Q1152.7344,261.3906 1152.0938,261.7188 Q1151.4688,262.0469 1150.9688,262.7969 Q1150.4844,263.5469 1150.4844,264.5781 L1150.4844,265.6719 Q1150.4844,266.9063 1151.375,267.7344 Q1152.2656,268.5469 1153.8594,268.5469 Q1154.7969,268.5469 1155.4531,268.2969 Q1155.8438,268.1406 1156.2656,267.7031 Q1156.5313,267.4375 1156.6719,267.3594 Q1156.8281,267.2813 1157.0313,267.2813 Q1157.3594,267.2813 1157.6094,267.5469 Q1157.875,267.7969 1157.875,268.1406 Q1157.875,268.4844 1157.5313,268.8906 Q1157.0313,269.4688 1156.2344,269.7969 Q1155.1563,270.25 1153.8594,270.25 Q1152.3438,270.25 1151.1406,269.625 Q1150.1563,269.125 1149.4688,268.0625 Q1148.7813,266.9844 1148.7813,265.7031 L1148.7813,264.5469 Q1148.7813,263.2188 1149.3906,262.0781 Q1150.0156,260.9219 1151.1094,260.3125 Q1152.2031,259.6875 1153.4375,259.6875 Q1154.1719,259.6875 1154.8125,259.8594 Q1155.4688,260.0156 1156.0156,260.375 Z "/><text fill="#000000" font-family="sans-serif" font-size="12" lengthAdjust="spacingAndGlyphs" textLength="71" x="1173.75" y="269.4102">FinalWindow</text><line style="stroke: #A80036; stroke-width: 1.5;" x1="1099" x2="1287" y1="280.5" y2="280.5"/><line style="stroke: #A80036; stroke-width: 1.5;" x1="1099" x2="1287" y1="288.5" y2="288.5"/><ellipse cx="1109" cy="300.918" fill="#84BE84" rx="3" ry="3" style="stroke: #038048; stroke-width: 1.0;"/><text fill="#000000" font-family="sans-serif" font-size="11" lengthAdjust="spacingAndGlyphs" textLength="164" x="1118" y="303.9189">FinalWindow(JFrame, GameState)</text></a><!--class it.polimi.ingsw.view.gui.panels.PanelManager--><a href="PanelManager.html" target="_top" xlink:actuate="onRequest" xlink:show="new" xlink:title="PanelManager.html" xlink:type="simple"><rect fill="#FEFECE" filter="url(#f1hsygc5sbu12h)" height="172.5234" id="it.polimi.ingsw.view.gui.panels.PanelManager" style="stroke: #A80036; stroke-width: 1.5;" width="188" x="796" y="193"/><ellipse cx="845.75" cy="209" fill="#ADD1B2" rx="11" ry="11" style="stroke: #A80036; stroke-width: 1.0;"/><path d="M848.5156,204.875 Q848.6719,204.6563 848.8594,204.5469 Q849.0469,204.4375 849.2656,204.4375 Q849.6406,204.4375 849.875,204.7031 Q850.1094,204.9531 850.1094,205.5625 L850.1094,207.0156 Q850.1094,207.625 849.875,207.8906 Q849.6406,208.1563 849.2656,208.1563 Q848.9219,208.1563 848.7188,207.9531 Q848.5156,207.7656 848.4063,207.25 Q848.3594,206.8906 848.1719,206.7031 Q847.8438,206.3281 847.2344,206.1094 Q846.625,205.8906 846,205.8906 Q845.2344,205.8906 844.5938,206.2188 Q843.9688,206.5469 843.4688,207.2969 Q842.9844,208.0469 842.9844,209.0781 L842.9844,210.1719 Q842.9844,211.4063 843.875,212.2344 Q844.7656,213.0469 846.3594,213.0469 Q847.2969,213.0469 847.9531,212.7969 Q848.3438,212.6406 848.7656,212.2031 Q849.0313,211.9375 849.1719,211.8594 Q849.3281,211.7813 849.5313,211.7813 Q849.8594,211.7813 850.1094,212.0469 Q850.375,212.2969 850.375,212.6406 Q850.375,212.9844 850.0313,213.3906 Q849.5313,213.9688 848.7344,214.2969 Q847.6563,214.75 846.3594,214.75 Q844.8438,214.75 843.6406,214.125 Q842.6563,213.625 841.9688,212.5625 Q841.2813,211.4844 841.2813,210.2031 L841.2813,209.0469 Q841.2813,207.7188 841.8906,206.5781 Q842.5156,205.4219 843.6094,204.8125 Q844.7031,204.1875 845.9375,204.1875 Q846.6719,204.1875 847.3125,204.3594 Q847.9688,204.5156 848.5156,204.875 Z "/><text fill="#000000" font-family="sans-serif" font-size="12" lengthAdjust="spacingAndGlyphs" textLength="80" x="866.25" y="213.9102">PanelManager</text><line style="stroke: #A80036; stroke-width: 1.5;" x1="797" x2="983" y1="225" y2="225"/><line style="stroke: #A80036; stroke-width: 1.5;" x1="797" x2="983" y1="233" y2="233"/><ellipse cx="807" cy="245.418" fill="#84BE84" rx="3" ry="3" style="stroke: #038048; stroke-width: 1.0;"/><text fill="#000000" font-family="sans-serif" font-size="11" lengthAdjust="spacingAndGlyphs" textLength="92" x="816" y="248.4189">PanelManager(Gui)</text><ellipse cx="807" cy="259.2539" fill="#84BE84" rx="3" ry="3" style="stroke: #038048; stroke-width: 1.0;"/><text fill="#000000" font-family="sans-serif" font-size="11" lengthAdjust="spacingAndGlyphs" textLength="162" x="816" y="262.2549">asyncWriteToSocket(String): void</text><ellipse cx="807" cy="273.0898" fill="#84BE84" rx="3" ry="3" style="stroke: #038048; stroke-width: 1.0;"/><text fill="#000000" font-family="sans-serif" font-size="11" lengthAdjust="spacingAndGlyphs" textLength="118" x="816" y="276.0908">readObject(Object): void</text><ellipse cx="807" cy="286.9258" fill="#84BE84" rx="3" ry="3" style="stroke: #038048; stroke-width: 1.0;"/><text fill="#000000" font-family="sans-serif" font-size="11" lengthAdjust="spacingAndGlyphs" textLength="56" x="816" y="289.9268">start(): void</text><ellipse cx="807" cy="300.7617" fill="#84BE84" rx="3" ry="3" style="stroke: #038048; stroke-width: 1.0;"/><text fill="#000000" font-family="sans-serif" font-size="11" lengthAdjust="spacingAndGlyphs" textLength="135" x="816" y="303.7627">getGameState(): GameState</text><ellipse cx="807" cy="314.5977" fill="#84BE84" rx="3" ry="3" style="stroke: #038048; stroke-width: 1.0;"/><text fill="#000000" font-family="sans-serif" font-size="11" lengthAdjust="spacingAndGlyphs" textLength="79" x="816" y="317.5986">getColor(): Color</text><ellipse cx="807" cy="328.4336" fill="#84BE84" rx="3" ry="3" style="stroke: #038048; stroke-width: 1.0;"/><text fill="#000000" font-family="sans-serif" font-size="11" lengthAdjust="spacingAndGlyphs" textLength="122" x="816" y="331.4346">setGodChoice(God): void</text><ellipse cx="807" cy="342.2695" fill="#84BE84" rx="3" ry="3" style="stroke: #038048; stroke-width: 1.0;"/><text fill="#000000" font-family="sans-serif" font-size="11" lengthAdjust="spacingAndGlyphs" textLength="102" x="816" y="345.2705">getGodChoice(): God</text><ellipse cx="807" cy="356.1055" fill="#84BE84" rx="3" ry="3" style="stroke: #038048; stroke-width: 1.0;"/><text fill="#000000" font-family="sans-serif" font-size="11" lengthAdjust="spacingAndGlyphs" textLength="94" x="816" y="359.1064">getMap(): MapCopy</text></a><!--class it.polimi.ingsw.view.gui.panels.QuestionWindow--><a href="QuestionWindow.html" target="_top" xlink:actuate="onRequest" xlink:show="new" xlink:title="QuestionWindow.html" xlink:type="simple"><rect fill="#FEFECE" filter="url(#f1hsygc5sbu12h)" height="61.8359" id="it.polimi.ingsw.view.gui.panels.QuestionWindow" style="stroke: #A80036; stroke-width: 1.5;" width="202" x="1323" y="248.5"/><ellipse cx="1372.75" cy="264.5" fill="#ADD1B2" rx="11" ry="11" style="stroke: #A80036; stroke-width: 1.0;"/><path d="M1375.5156,260.375 Q1375.6719,260.1563 1375.8594,260.0469 Q1376.0469,259.9375 1376.2656,259.9375 Q1376.6406,259.9375 1376.875,260.2031 Q1377.1094,260.4531 1377.1094,261.0625 L1377.1094,262.5156 Q1377.1094,263.125 1376.875,263.3906 Q1376.6406,263.6563 1376.2656,263.6563 Q1375.9219,263.6563 1375.7188,263.4531 Q1375.5156,263.2656 1375.4063,262.75 Q1375.3594,262.3906 1375.1719,262.2031 Q1374.8438,261.8281 1374.2344,261.6094 Q1373.625,261.3906 1373,261.3906 Q1372.2344,261.3906 1371.5938,261.7188 Q1370.9688,262.0469 1370.4688,262.7969 Q1369.9844,263.5469 1369.9844,264.5781 L1369.9844,265.6719 Q1369.9844,266.9063 1370.875,267.7344 Q1371.7656,268.5469 1373.3594,268.5469 Q1374.2969,268.5469 1374.9531,268.2969 Q1375.3438,268.1406 1375.7656,267.7031 Q1376.0313,267.4375 1376.1719,267.3594 Q1376.3281,267.2813 1376.5313,267.2813 Q1376.8594,267.2813 1377.1094,267.5469 Q1377.375,267.7969 1377.375,268.1406 Q1377.375,268.4844 1377.0313,268.8906 Q1376.5313,269.4688 1375.7344,269.7969 Q1374.6563,270.25 1373.3594,270.25 Q1371.8438,270.25 1370.6406,269.625 Q1369.6563,269.125 1368.9688,268.0625 Q1368.2813,266.9844 1368.2813,265.7031 L1368.2813,264.5469 Q1368.2813,263.2188 1368.8906,262.0781 Q1369.5156,260.9219 1370.6094,260.3125 Q1371.7031,259.6875 1372.9375,259.6875 Q1373.6719,259.6875 1374.3125,259.8594 Q1374.9688,260.0156 1375.5156,260.375 Z "/><text fill="#000000" font-family="sans-serif" font-size="12" lengthAdjust="spacingAndGlyphs" textLength="94" x="1393.25" y="269.4102">QuestionWindow</text><line style="stroke: #A80036; stroke-width: 1.5;" x1="1324" x2="1524" y1="280.5" y2="280.5"/><line style="stroke: #A80036; stroke-width: 1.5;" x1="1324" x2="1524" y1="288.5" y2="288.5"/><ellipse cx="1334" cy="300.918" fill="#84BE84" rx="3" ry="3" style="stroke: #038048; stroke-width: 1.0;"/><text fill="#000000" font-family="sans-serif" font-size="11" lengthAdjust="spacingAndGlyphs" textLength="176" x="1343" y="303.9189">QuestionWindow(JFrame, Message)</text></a><!--class it.polimi.ingsw.view.gui.panels.Table--><a href="Table.html" target="_top" xlink:actuate="onRequest" xlink:show="new" xlink:title="Table.html" xlink:type="simple"><rect fill="#FEFECE" filter="url(#f1hsygc5sbu12h)" height="75.6719" id="it.polimi.ingsw.view.gui.panels.Table" style="stroke: #A80036; stroke-width: 1.5;" width="127" x="285.5" y="241.5"/><ellipse cx="329.3" cy="257.5" fill="#ADD1B2" rx="11" ry="11" style="stroke: #A80036; stroke-width: 1.0;"/><path d="M332.0656,253.375 Q332.2219,253.1563 332.4094,253.0469 Q332.5969,252.9375 332.8156,252.9375 Q333.1906,252.9375 333.425,253.2031 Q333.6594,253.4531 333.6594,254.0625 L333.6594,255.5156 Q333.6594,256.125 333.425,256.3906 Q333.1906,256.6563 332.8156,256.6563 Q332.4719,256.6563 332.2688,256.4531 Q332.0656,256.2656 331.9563,255.75 Q331.9094,255.3906 331.7219,255.2031 Q331.3938,254.8281 330.7844,254.6094 Q330.175,254.3906 329.55,254.3906 Q328.7844,254.3906 328.1438,254.7188 Q327.5188,255.0469 327.0188,255.7969 Q326.5344,256.5469 326.5344,257.5781 L326.5344,258.6719 Q326.5344,259.9063 327.425,260.7344 Q328.3156,261.5469 329.9094,261.5469 Q330.8469,261.5469 331.5031,261.2969 Q331.8938,261.1406 332.3156,260.7031 Q332.5813,260.4375 332.7219,260.3594 Q332.8781,260.2813 333.0813,260.2813 Q333.4094,260.2813 333.6594,260.5469 Q333.925,260.7969 333.925,261.1406 Q333.925,261.4844 333.5813,261.8906 Q333.0813,262.4688 332.2844,262.7969 Q331.2063,263.25 329.9094,263.25 Q328.3938,263.25 327.1906,262.625 Q326.2063,262.125 325.5188,261.0625 Q324.8313,259.9844 324.8313,258.7031 L324.8313,257.5469 Q324.8313,256.2188 325.4406,255.0781 Q326.0656,253.9219 327.1594,253.3125 Q328.2531,252.6875 329.4875,252.6875 Q330.2219,252.6875 330.8625,252.8594 Q331.5188,253.0156 332.0656,253.375 Z "/><text fill="#000000" font-family="sans-serif" font-size="12" lengthAdjust="spacingAndGlyphs" textLength="31" x="349.7" y="262.4102">Table</text><line style="stroke: #A80036; stroke-width: 1.5;" x1="286.5" x2="411.5" y1="273.5" y2="273.5"/><line style="stroke: #A80036; stroke-width: 1.5;" x1="286.5" x2="411.5" y1="281.5" y2="281.5"/><ellipse cx="296.5" cy="293.918" fill="#84BE84" rx="3" ry="3" style="stroke: #038048; stroke-width: 1.0;"/><text fill="#000000" font-family="sans-serif" font-size="11" lengthAdjust="spacingAndGlyphs" textLength="87" x="305.5" y="296.9189">updateMap(): void</text><ellipse cx="296.5" cy="307.7539" fill="#84BE84" rx="3" ry="3" style="stroke: #038048; stroke-width: 1.0;"/><text fill="#000000" font-family="sans-serif" font-size="11" lengthAdjust="spacingAndGlyphs" textLength="101" x="305.5" y="310.7549">addText(String): void</text></a><!--class it.polimi.ingsw.view.gui.panels.Welcome--><a href="Welcome.html" target="_top" xlink:actuate="onRequest" xlink:show="new" xlink:title="Welcome.html" xlink:type="simple"><rect fill="#FEFECE" filter="url(#f1hsygc5sbu12h)" height="61.8359" id="it.polimi.ingsw.view.gui.panels.Welcome" style="stroke: #A80036; stroke-width: 1.5;" width="170" x="448" y="248.5"/><ellipse cx="502.75" cy="264.5" fill="#ADD1B2" rx="11" ry="11" style="stroke: #A80036; stroke-width: 1.0;"/><path d="M505.5156,260.375 Q505.6719,260.1563 505.8594,260.0469 Q506.0469,259.9375 506.2656,259.9375 Q506.6406,259.9375 506.875,260.2031 Q507.1094,260.4531 507.1094,261.0625 L507.1094,262.5156 Q507.1094,263.125 506.875,263.3906 Q506.6406,263.6563 506.2656,263.6563 Q505.9219,263.6563 505.7188,263.4531 Q505.5156,263.2656 505.4063,262.75 Q505.3594,262.3906 505.1719,262.2031 Q504.8438,261.8281 504.2344,261.6094 Q503.625,261.3906 503,261.3906 Q502.2344,261.3906 501.5938,261.7188 Q500.9688,262.0469 500.4688,262.7969 Q499.9844,263.5469 499.9844,264.5781 L499.9844,265.6719 Q499.9844,266.9063 500.875,267.7344 Q501.7656,268.5469 503.3594,268.5469 Q504.2969,268.5469 504.9531,268.2969 Q505.3438,268.1406 505.7656,267.7031 Q506.0313,267.4375 506.1719,267.3594 Q506.3281,267.2813 506.5313,267.2813 Q506.8594,267.2813 507.1094,267.5469 Q507.375,267.7969 507.375,268.1406 Q507.375,268.4844 507.0313,268.8906 Q506.5313,269.4688 505.7344,269.7969 Q504.6563,270.25 503.3594,270.25 Q501.8438,270.25 500.6406,269.625 Q499.6563,269.125 498.9688,268.0625 Q498.2813,266.9844 498.2813,265.7031 L498.2813,264.5469 Q498.2813,263.2188 498.8906,262.0781 Q499.5156,260.9219 500.6094,260.3125 Q501.7031,259.6875 502.9375,259.6875 Q503.6719,259.6875 504.3125,259.8594 Q504.9688,260.0156 505.5156,260.375 Z "/><text fill="#000000" font-family="sans-serif" font-size="12" lengthAdjust="spacingAndGlyphs" textLength="52" x="523.25" y="269.4102">Welcome</text><line style="stroke: #A80036; stroke-width: 1.5;" x1="449" x2="617" y1="280.5" y2="280.5"/><line style="stroke: #A80036; stroke-width: 1.5;" x1="449" x2="617" y1="288.5" y2="288.5"/><ellipse cx="459" cy="300.918" fill="#84BE84" rx="3" ry="3" style="stroke: #038048; stroke-width: 1.0;"/><text fill="#000000" font-family="sans-serif" font-size="11" lengthAdjust="spacingAndGlyphs" textLength="144" x="468" y="303.9189">changeNickname(String): void</text></a><!--class it.polimi.ingsw.view.gui.panels.WelcomeFirst--><a href="WelcomeFirst.html" target="_top" xlink:actuate="onRequest" xlink:show="new" xlink:title="WelcomeFirst.html" xlink:type="simple"><rect fill="#FEFECE" filter="url(#f1hsygc5sbu12h)" height="48" id="it.polimi.ingsw.view.gui.panels.WelcomeFirst" style="stroke: #A80036; stroke-width: 1.5;" width="108" x="653" y="255.5"/><ellipse cx="668" cy="271.5" fill="#ADD1B2" rx="11" ry="11" style="stroke: #A80036; stroke-width: 1.0;"/><path d="M670.7656,267.375 Q670.9219,267.1563 671.1094,267.0469 Q671.2969,266.9375 671.5156,266.9375 Q671.8906,266.9375 672.125,267.2031 Q672.3594,267.4531 672.3594,268.0625 L672.3594,269.5156 Q672.3594,270.125 672.125,270.3906 Q671.8906,270.6563 671.5156,270.6563 Q671.1719,270.6563 670.9688,270.4531 Q670.7656,270.2656 670.6563,269.75 Q670.6094,269.3906 670.4219,269.2031 Q670.0938,268.8281 669.4844,268.6094 Q668.875,268.3906 668.25,268.3906 Q667.4844,268.3906 666.8438,268.7188 Q666.2188,269.0469 665.7188,269.7969 Q665.2344,270.5469 665.2344,271.5781 L665.2344,272.6719 Q665.2344,273.9063 666.125,274.7344 Q667.0156,275.5469 668.6094,275.5469 Q669.5469,275.5469 670.2031,275.2969 Q670.5938,275.1406 671.0156,274.7031 Q671.2813,274.4375 671.4219,274.3594 Q671.5781,274.2813 671.7813,274.2813 Q672.1094,274.2813 672.3594,274.5469 Q672.625,274.7969 672.625,275.1406 Q672.625,275.4844 672.2813,275.8906 Q671.7813,276.4688 670.9844,276.7969 Q669.9063,277.25 668.6094,277.25 Q667.0938,277.25 665.8906,276.625 Q664.9063,276.125 664.2188,275.0625 Q663.5313,273.9844 663.5313,272.7031 L663.5313,271.5469 Q663.5313,270.2188 664.1406,269.0781 Q664.7656,267.9219 665.8594,267.3125 Q666.9531,266.6875 668.1875,266.6875 Q668.9219,266.6875 669.5625,266.8594 Q670.2188,267.0156 670.7656,267.375 Z "/><text fill="#000000" font-family="sans-serif" font-size="12" lengthAdjust="spacingAndGlyphs" textLength="76" x="682" y="276.4102">WelcomeFirst</text><line style="stroke: #A80036; stroke-width: 1.5;" x1="654" x2="760" y1="287.5" y2="287.5"/><line style="stroke: #A80036; stroke-width: 1.5;" x1="654" x2="760" y1="295.5" y2="295.5"/></a><!--class javax.swing.JPanel--><rect fill="#FEFECE" filter="url(#f1hsygc5sbu12h)" height="48" id="javax.swing.JPanel" style="stroke: #A80036; stroke-width: 1.5;" width="70" x="572" y="60"/><ellipse cx="587" cy="76" fill="#ADD1B2" rx="11" ry="11" style="stroke: #A80036; stroke-width: 1.0;"/><path d="M589.7656,71.875 Q589.9219,71.6563 590.1094,71.5469 Q590.2969,71.4375 590.5156,71.4375 Q590.8906,71.4375 591.125,71.7031 Q591.3594,71.9531 591.3594,72.5625 L591.3594,74.0156 Q591.3594,74.625 591.125,74.8906 Q590.8906,75.1563 590.5156,75.1563 Q590.1719,75.1563 589.9688,74.9531 Q589.7656,74.7656 589.6563,74.25 Q589.6094,73.8906 589.4219,73.7031 Q589.0938,73.3281 588.4844,73.1094 Q587.875,72.8906 587.25,72.8906 Q586.4844,72.8906 585.8438,73.2188 Q585.2188,73.5469 584.7188,74.2969 Q584.2344,75.0469 584.2344,76.0781 L584.2344,77.1719 Q584.2344,78.4063 585.125,79.2344 Q586.0156,80.0469 587.6094,80.0469 Q588.5469,80.0469 589.2031,79.7969 Q589.5938,79.6406 590.0156,79.2031 Q590.2813,78.9375 590.4219,78.8594 Q590.5781,78.7813 590.7813,78.7813 Q591.1094,78.7813 591.3594,79.0469 Q591.625,79.2969 591.625,79.6406 Q591.625,79.9844 591.2813,80.3906 Q590.7813,80.9688 589.9844,81.2969 Q588.9063,81.75 587.6094,81.75 Q586.0938,81.75 584.8906,81.125 Q583.9063,80.625 583.2188,79.5625 Q582.5313,78.4844 582.5313,77.2031 L582.5313,76.0469 Q582.5313,74.7188 583.1406,73.5781 Q583.7656,72.4219 584.8594,71.8125 Q585.9531,71.1875 587.1875,71.1875 Q587.9219,71.1875 588.5625,71.3594 Q589.2188,71.5156 589.7656,71.875 Z "/><text fill="#000000" font-family="sans-serif" font-size="12" lengthAdjust="spacingAndGlyphs" textLength="38" x="601" y="80.9102">JPanel</text><line style="stroke: #A80036; stroke-width: 1.5;" x1="573" x2="641" y1="92" y2="92"/><line style="stroke: #A80036; stroke-width: 1.5;" x1="573" x2="641" y1="100" y2="100"/><!--class javax.swing.JWindow--><rect fill="#FEFECE" filter="url(#f1hsygc5sbu12h)" height="48" id="javax.swing.JWindow" style="stroke: #A80036; stroke-width: 1.5;" width="82" x="677" y="60"/><ellipse cx="692" cy="76" fill="#ADD1B2" rx="11" ry="11" style="stroke: #A80036; stroke-width: 1.0;"/><path d="M694.7656,71.875 Q694.9219,71.6563 695.1094,71.5469 Q695.2969,71.4375 695.5156,71.4375 Q695.8906,71.4375 696.125,71.7031 Q696.3594,71.9531 696.3594,72.5625 L696.3594,74.0156 Q696.3594,74.625 696.125,74.8906 Q695.8906,75.1563 695.5156,75.1563 Q695.1719,75.1563 694.9688,74.9531 Q694.7656,74.7656 694.6563,74.25 Q694.6094,73.8906 694.4219,73.7031 Q694.0938,73.3281 693.4844,73.1094 Q692.875,72.8906 692.25,72.8906 Q691.4844,72.8906 690.8438,73.2188 Q690.2188,73.5469 689.7188,74.2969 Q689.2344,75.0469 689.2344,76.0781 L689.2344,77.1719 Q689.2344,78.4063 690.125,79.2344 Q691.0156,80.0469 692.6094,80.0469 Q693.5469,80.0469 694.2031,79.7969 Q694.5938,79.6406 695.0156,79.2031 Q695.2813,78.9375 695.4219,78.8594 Q695.5781,78.7813 695.7813,78.7813 Q696.1094,78.7813 696.3594,79.0469 Q696.625,79.2969 696.625,79.6406 Q696.625,79.9844 696.2813,80.3906 Q695.7813,80.9688 694.9844,81.2969 Q693.9063,81.75 692.6094,81.75 Q691.0938,81.75 689.8906,81.125 Q688.9063,80.625 688.2188,79.5625 Q687.5313,78.4844 687.5313,77.2031 L687.5313,76.0469 Q687.5313,74.7188 688.1406,73.5781 Q688.7656,72.4219 689.8594,71.8125 Q690.9531,71.1875 692.1875,71.1875 Q692.9219,71.1875 693.5625,71.3594 Q694.2188,71.5156 694.7656,71.875 Z "/><text fill="#000000" font-family="sans-serif" font-size="12" lengthAdjust="spacingAndGlyphs" textLength="50" x="706" y="80.9102">JWindow</text><line style="stroke: #A80036; stroke-width: 1.5;" x1="678" x2="758" y1="92" y2="92"/><line style="stroke: #A80036; stroke-width: 1.5;" x1="678" x2="758" y1="100" y2="100"/><!--link javax.swing.JPanel to it.polimi.ingsw.view.gui.panels.CardChoice--><path d="M551.588,85.257 C481.483,87.785 358.941,99.691 268,149 C227.091,171.181 191.674,211.62 169.286,241.427 " fill="none" id="javax.swing.JPanel-it.polimi.ingsw.view.gui.panels.CardChoice" style="stroke: #A80036; stroke-width: 1.0;"/><polygon fill="none" points="551.812,78.25,571.984,84.737,552.169,92.245,551.812,78.25" style="stroke: #A80036; stroke-width: 1.0;"/><!--link javax.swing.JWindow to it.polimi.ingsw.view.gui.panels.FinalWindow--><path d="M779.228,90.796 C868.809,100.108 1030.44,120.311 1081,149 C1122.75,172.691 1156.4,218.03 1175.55,248.274 " fill="none" id="javax.swing.JWindow-it.polimi.ingsw.view.gui.panels.FinalWindow" style="stroke: #A80036; stroke-width: 1.0;"/><polygon fill="none" points="778.362,97.744,759.167,88.767,779.77,83.815,778.362,97.744" style="stroke: #A80036; stroke-width: 1.0;"/><!--link it.polimi.ingsw.view.gui.panels.PanelManager to it.polimi.ingsw.view.gui.panels.PanelManager--><path d="M984.212,254.425 C1004.394,256.924 1019,265.282 1019,279.5 C1019,292.496 1006.8,300.5964 989.286,303.8013 " fill="none" id="it.polimi.ingsw.view.gui.panels.PanelManager-it.polimi.ingsw.view.gui.panels.PanelManager" style="stroke: #A80036; stroke-width: 1.0;"/><polygon fill="#A80036" points="984.212,304.5755,993.7124,307.172,989.1548,303.8212,992.5056,299.2636,984.212,304.5755" style="stroke: #A80036; stroke-width: 1.0;"/><text fill="#000000" font-family="sans-serif" font-size="13" lengthAdjust="spacingAndGlyphs" textLength="49" x="1025" y="284.9951">instance</text><!--link javax.swing.JWindow to it.polimi.ingsw.view.gui.panels.QuestionWindow--><path d="M779.54,86.238 C911.083,89.757 1215.05,102.788 1306,149 C1350.06,171.39 1385.73,217.534 1405.91,248.255 " fill="none" id="javax.swing.JWindow-it.polimi.ingsw.view.gui.panels.QuestionWindow" style="stroke: #A80036; stroke-width: 1.0;"/><polygon fill="none" points="779.061,93.229,759.24,85.735,779.408,79.233,779.061,93.229" style="stroke: #A80036; stroke-width: 1.0;"/><!--link javax.swing.JPanel to it.polimi.ingsw.view.gui.panels.Table--><path d="M552.297,95.153 C514.999,104.26 466.184,120.69 431,149 C400.523,173.522 378.009,212.582 364.362,241.398 " fill="none" id="javax.swing.JPanel-it.polimi.ingsw.view.gui.panels.Table" style="stroke: #A80036; stroke-width: 1.0;"/><polygon fill="none" points="550.892,88.294,571.938,90.763,553.946,101.957,550.892,88.294" style="stroke: #A80036; stroke-width: 1.0;"/><!--link javax.swing.JPanel to it.polimi.ingsw.view.gui.panels.Welcome--><path d="M590.899,127.103 C576.898,163.713 556.957,215.857 544.508,248.409 " fill="none" id="javax.swing.JPanel-it.polimi.ingsw.view.gui.panels.Welcome" style="stroke: #A80036; stroke-width: 1.0;"/><polygon fill="none" points="584.392,124.521,598.074,108.341,597.468,129.522,584.392,124.521" style="stroke: #A80036; stroke-width: 1.0;"/><!--link javax.swing.JPanel to it.polimi.ingsw.view.gui.panels.WelcomeFirst--><path d="M628.312,126.239 C648.66,165.612 678.587,223.521 695.051,255.378 " fill="none" id="javax.swing.JPanel-it.polimi.ingsw.view.gui.panels.WelcomeFirst" style="stroke: #A80036; stroke-width: 1.0;"/><polygon fill="none" points="622.026,129.322,619.062,108.341,634.463,122.894,622.026,129.322" style="stroke: #A80036; stroke-width: 1.0;"/><text fill="#888888" font-family="sans-serif" font-size="10" lengthAdjust="spacingAndGlyphs" textLength="190" x="692.5" y="418.3809">UMLDoclet 2.0.10, PlantUML 1.2019.08</text><!--
@startuml
    namespace it.polimi.ingsw.view.gui.panels {

        class CardChoice [[CardChoice.html]] {
            +CardChoice(God, God, God, boolean[])
            +CardChoice(God, God, boolean[])
        }

        class FinalWindow [[FinalWindow.html]] {
            +FinalWindow(JFrame, GameState)
        }

        class PanelManager [[PanelManager.html]] {
            +PanelManager(Gui)
            +asyncWriteToSocket(String): void
            +readObject(Object): void
            +start(): void
            +getGameState(): GameState
            +getColor(): Color
            +setGodChoice(God): void
            +getGodChoice(): God
            +getMap(): MapCopy
        }

        class QuestionWindow [[QuestionWindow.html]] {
            +QuestionWindow(JFrame, Message)
        }

        class Table [[Table.html]] {
            +updateMap(): void
            +addText(String): void
        }

        class Welcome [[Welcome.html]] {
            +changeNickname(String): void
        }

        class WelcomeFirst [[WelcomeFirst.html]] {
        }

        javax.swing.JPanel <|- - CardChoice
        javax.swing.JWindow <|- - FinalWindow
        PanelManager - -> PanelManager: instance
        javax.swing.JWindow <|- - QuestionWindow
        javax.swing.JPanel <|- - Table
        javax.swing.JPanel <|- - Welcome
        javax.swing.JPanel <|- - WelcomeFirst
    }

    namespace javax.swing {
        class JPanel {
        }
        class JWindow {
        }
    }

    center footer UMLDoclet 2.0.10, PlantUML 1.2019.08
@enduml

PlantUML version 1.2019.08(Sat Jul 13 21:25:14 CEST 2019)
(APACHE source distribution)
Java Runtime: Java(TM) SE Runtime Environment
JVM: Java HotSpot(TM) 64-Bit Server VM
Java Version: 14.0.1+7
Operating System: Windows 10
OS Version: 10.0
Default Encoding: Cp1252
Language: it
Country: IT
--></g></svg>