<?xml version="1.0" encoding="UTF-8" standalone="no"?><svg xmlns="http://www.w3.org/2000/svg" xmlns:xlink="http://www.w3.org/1999/xlink" contentScriptType="application/ecmascript" contentStyleType="text/css" height="228px" preserveAspectRatio="none" style="width:213px;height:228px;" version="1.1" viewBox="0 0 213 228" width="213px" zoomAndPan="magnify"><defs><filter height="300%" id="fmgiswtfaqzb4" width="300%" x="-1" y="-1"><feGaussianBlur result="blurOut" stdDeviation="2.0"/><feColorMatrix in="blurOut" result="blurOut2" type="matrix" values="0 0 0 0 0 0 0 0 0 0 0 0 0 0 0 0 0 0 .4 0"/><feOffset dx="4.0" dy="4.0" in="blurOut2" result="blurOut3"/><feBlend in="SourceGraphic" in2="blurOut3" mode="normal"/></filter></defs><g><!--class it.polimi.ingsw.view.gui.panels.PanelManager--><a href="PanelManager.html" target="_top" xlink:actuate="onRequest" xlink:show="new" xlink:title="PanelManager.html" xlink:type="simple"><rect fill="#FEFECE" filter="url(#fmgiswtfaqzb4)" height="186.5469" id="it.polimi.ingsw.view.gui.panels.PanelManager" style="stroke: #A80036; stroke-width: 1.5;" width="188" x="6" y="8"/><ellipse cx="26.4" cy="28.0938" fill="#ADD1B2" rx="11" ry="11" style="stroke: #A80036; stroke-width: 1.0;"/><path d="M29.1656,23.9688 Q29.3219,23.75 29.5094,23.6406 Q29.6969,23.5313 29.9156,23.5313 Q30.2906,23.5313 30.525,23.7969 Q30.7594,24.0469 30.7594,24.6563 L30.7594,26.1094 Q30.7594,26.7188 30.525,26.9844 Q30.2906,27.25 29.9156,27.25 Q29.5719,27.25 29.3688,27.0469 Q29.1656,26.8594 29.0563,26.3438 Q29.0094,25.9844 28.8219,25.7969 Q28.4938,25.4219 27.8844,25.2031 Q27.275,24.9844 26.65,24.9844 Q25.8844,24.9844 25.2438,25.3125 Q24.6188,25.6406 24.1188,26.3906 Q23.6344,27.1406 23.6344,28.1719 L23.6344,29.2656 Q23.6344,30.5 24.525,31.3281 Q25.4156,32.1406 27.0094,32.1406 Q27.9469,32.1406 28.6031,31.8906 Q28.9938,31.7344 29.4156,31.2969 Q29.6813,31.0313 29.8219,30.9531 Q29.9781,30.875 30.1813,30.875 Q30.5094,30.875 30.7594,31.1406 Q31.025,31.3906 31.025,31.7344 Q31.025,32.0781 30.6813,32.4844 Q30.1813,33.0625 29.3844,33.3906 Q28.3063,33.8438 27.0094,33.8438 Q25.4938,33.8438 24.2906,33.2188 Q23.3063,32.7188 22.6188,31.6563 Q21.9313,30.5781 21.9313,29.2969 L21.9313,28.1406 Q21.9313,26.8125 22.5406,25.6719 Q23.1656,24.5156 24.2594,23.9063 Q25.3531,23.2813 26.5875,23.2813 Q27.3219,23.2813 27.9625,23.4531 Q28.6188,23.6094 29.1656,23.9688 Z "/><text fill="#000000" font-family="sans-serif" font-size="14" lengthAdjust="spacingAndGlyphs" textLength="92" x="67.6" y="27.5332">PanelManager</text><text fill="#000000" font-family="sans-serif" font-size="10" lengthAdjust="spacingAndGlyphs" textLength="144" x="41.6" y="40.9902">it.polimi.ingsw.view.gui.panels</text><line style="stroke: #A80036; stroke-width: 1.5;" x1="7" x2="193" y1="48.1875" y2="48.1875"/><ellipse cx="17" cy="60.6055" fill="#84BE84" rx="3" ry="3" style="stroke: #038048; stroke-width: 1.0;"/><text fill="#000000" font-family="sans-serif" font-size="11" lengthAdjust="spacingAndGlyphs" textLength="92" x="26" y="63.6064">PanelManager(Gui)</text><ellipse cx="17" cy="74.4414" fill="#84BE84" rx="3" ry="3" style="stroke: #038048; stroke-width: 1.0;"/><text fill="#000000" font-family="sans-serif" font-size="11" lengthAdjust="spacingAndGlyphs" text-decoration="underline" textLength="138" x="26" y="77.4424">getInstance(): PanelManager</text><ellipse cx="17" cy="88.2773" fill="#84BE84" rx="3" ry="3" style="stroke: #038048; stroke-width: 1.0;"/><text fill="#000000" font-family="sans-serif" font-size="11" lengthAdjust="spacingAndGlyphs" textLength="162" x="26" y="91.2783">asyncWriteToSocket(String): void</text><ellipse cx="17" cy="102.1133" fill="#84BE84" rx="3" ry="3" style="stroke: #038048; stroke-width: 1.0;"/><text fill="#000000" font-family="sans-serif" font-size="11" lengthAdjust="spacingAndGlyphs" textLength="118" x="26" y="105.1143">readObject(Object): void</text><ellipse cx="17" cy="115.9492" fill="#84BE84" rx="3" ry="3" style="stroke: #038048; stroke-width: 1.0;"/><text fill="#000000" font-family="sans-serif" font-size="11" lengthAdjust="spacingAndGlyphs" textLength="56" x="26" y="118.9502">start(): void</text><ellipse cx="17" cy="129.7852" fill="#84BE84" rx="3" ry="3" style="stroke: #038048; stroke-width: 1.0;"/><text fill="#000000" font-family="sans-serif" font-size="11" lengthAdjust="spacingAndGlyphs" textLength="135" x="26" y="132.7861">getGameState(): GameState</text><ellipse cx="17" cy="143.6211" fill="#84BE84" rx="3" ry="3" style="stroke: #038048; stroke-width: 1.0;"/><text fill="#000000" font-family="sans-serif" font-size="11" lengthAdjust="spacingAndGlyphs" textLength="79" x="26" y="146.6221">getColor(): Color</text><ellipse cx="17" cy="157.457" fill="#84BE84" rx="3" ry="3" style="stroke: #038048; stroke-width: 1.0;"/><text fill="#000000" font-family="sans-serif" font-size="11" lengthAdjust="spacingAndGlyphs" textLength="122" x="26" y="160.458">setGodChoice(God): void</text><ellipse cx="17" cy="171.293" fill="#84BE84" rx="3" ry="3" style="stroke: #038048; stroke-width: 1.0;"/><text fill="#000000" font-family="sans-serif" font-size="11" lengthAdjust="spacingAndGlyphs" textLength="102" x="26" y="174.2939">getGodChoice(): God</text><ellipse cx="17" cy="185.1289" fill="#84BE84" rx="3" ry="3" style="stroke: #038048; stroke-width: 1.0;"/><text fill="#000000" font-family="sans-serif" font-size="11" lengthAdjust="spacingAndGlyphs" textLength="94" x="26" y="188.1299">getMap(): MapCopy</text></a><text fill="#888888" font-family="sans-serif" font-size="10" lengthAdjust="spacingAndGlyphs" textLength="190" x="11" y="215.3809">UMLDoclet 2.0.10, PlantUML 1.2019.08</text><!--
@startuml
    set namespaceSeparator none
    hide empty fields
    hide empty methods

    class "<size:14>PanelManager\n<size:10>it.polimi.ingsw.view.gui.panels" as it.polimi.ingsw.view.gui.panels.PanelManager [[PanelManager.html]] {
        +PanelManager(Gui)
        {static} +getInstance(): PanelManager
        +asyncWriteToSocket(String): void
        +readObject(Object): void
        +start(): void
        +getGameState(): GameState
        +getColor(): Color
        +setGodChoice(God): void
        +getGodChoice(): God
        +getMap(): MapCopy
    }

    center footer UMLDoclet 2.0.10, PlantUML 1.2019.08
@enduml

PlantUML version 1.2019.08(Sat Jul 13 21:25:14 CEST 2019)
(APACHE source distribution)
Java Runtime: Java(TM) SE Runtime Environment
JVM: Java HotSpot(TM) 64-Bit Server VM
Java Version: 14.0.1+7
Operating System: Windows 10
OS Version: 10.0
Default Encoding: Cp1252
Language: it
Country: IT
--></g></svg>