<?xml version="1.0" encoding="UTF-8" standalone="no"?><svg xmlns="http://www.w3.org/2000/svg" xmlns:xlink="http://www.w3.org/1999/xlink" contentScriptType="application/ecmascript" contentStyleType="text/css" height="203px" preserveAspectRatio="none" style="width:220px;height:203px;" version="1.1" viewBox="0 0 220 203" width="220px" zoomAndPan="magnify"><defs><filter height="300%" id="f1i4e19yfn6vnj" width="300%" x="-1" y="-1"><feGaussianBlur result="blurOut" stdDeviation="2.0"/><feColorMatrix in="blurOut" result="blurOut2" type="matrix" values="0 0 0 0 0 0 0 0 0 0 0 0 0 0 0 0 0 0 .4 0"/><feOffset dx="4.0" dy="4.0" in="blurOut2" result="blurOut3"/><feBlend in="SourceGraphic" in2="blurOut3" mode="normal"/></filter></defs><g><!--class it.polimi.ingsw.view.gui.panels.QuestionWindow--><a href="QuestionWindow.html" target="_top" xlink:actuate="onRequest" xlink:show="new" xlink:title="QuestionWindow.html" xlink:type="simple"><rect fill="#FEFECE" filter="url(#f1i4e19yfn6vnj)" height="62.0234" id="it.polimi.ingsw.view.gui.panels.QuestionWindow" style="stroke: #A80036; stroke-width: 1.5;" width="202" x="6" y="108"/><ellipse cx="32.7" cy="128.0938" fill="#ADD1B2" rx="11" ry="11" style="stroke: #A80036; stroke-width: 1.0;"/><path d="M35.4656,123.9688 Q35.6219,123.75 35.8094,123.6406 Q35.9969,123.5313 36.2156,123.5313 Q36.5906,123.5313 36.825,123.7969 Q37.0594,124.0469 37.0594,124.6563 L37.0594,126.1094 Q37.0594,126.7188 36.825,126.9844 Q36.5906,127.25 36.2156,127.25 Q35.8719,127.25 35.6688,127.0469 Q35.4656,126.8594 35.3563,126.3438 Q35.3094,125.9844 35.1219,125.7969 Q34.7938,125.4219 34.1844,125.2031 Q33.575,124.9844 32.95,124.9844 Q32.1844,124.9844 31.5438,125.3125 Q30.9188,125.6406 30.4188,126.3906 Q29.9344,127.1406 29.9344,128.1719 L29.9344,129.2656 Q29.9344,130.5 30.825,131.3281 Q31.7156,132.1406 33.3094,132.1406 Q34.2469,132.1406 34.9031,131.8906 Q35.2938,131.7344 35.7156,131.2969 Q35.9813,131.0313 36.1219,130.9531 Q36.2781,130.875 36.4813,130.875 Q36.8094,130.875 37.0594,131.1406 Q37.325,131.3906 37.325,131.7344 Q37.325,132.0781 36.9813,132.4844 Q36.4813,133.0625 35.6844,133.3906 Q34.6063,133.8438 33.3094,133.8438 Q31.7938,133.8438 30.5906,133.2188 Q29.6063,132.7188 28.9188,131.6563 Q28.2313,130.5781 28.2313,129.2969 L28.2313,128.1406 Q28.2313,126.8125 28.8406,125.6719 Q29.4656,124.5156 30.5594,123.9063 Q31.6531,123.2813 32.8875,123.2813 Q33.6219,123.2813 34.2625,123.4531 Q34.9188,123.6094 35.4656,123.9688 Z "/><text fill="#000000" font-family="sans-serif" font-size="14" lengthAdjust="spacingAndGlyphs" textLength="106" x="68.3" y="127.5332">QuestionWindow</text><text fill="#000000" font-family="sans-serif" font-size="10" lengthAdjust="spacingAndGlyphs" textLength="144" x="49.3" y="140.9902">it.polimi.ingsw.view.gui.panels</text><line style="stroke: #A80036; stroke-width: 1.5;" x1="7" x2="207" y1="148.1875" y2="148.1875"/><ellipse cx="17" cy="160.6055" fill="#84BE84" rx="3" ry="3" style="stroke: #038048; stroke-width: 1.0;"/><text fill="#000000" font-family="sans-serif" font-size="11" lengthAdjust="spacingAndGlyphs" textLength="176" x="26" y="163.6064">QuestionWindow(JFrame, Message)</text></a><!--class javax.swing.JWindow--><rect fill="#FEFECE" filter="url(#f1i4e19yfn6vnj)" height="40.1875" id="javax.swing.JWindow" style="stroke: #A80036; stroke-width: 1.5;" width="87" x="63.5" y="8"/><ellipse cx="78.5" cy="28.0938" fill="#ADD1B2" rx="11" ry="11" style="stroke: #A80036; stroke-width: 1.0;"/><path d="M81.2656,23.9688 Q81.4219,23.75 81.6094,23.6406 Q81.7969,23.5313 82.0156,23.5313 Q82.3906,23.5313 82.625,23.7969 Q82.8594,24.0469 82.8594,24.6563 L82.8594,26.1094 Q82.8594,26.7188 82.625,26.9844 Q82.3906,27.25 82.0156,27.25 Q81.6719,27.25 81.4688,27.0469 Q81.2656,26.8594 81.1563,26.3438 Q81.1094,25.9844 80.9219,25.7969 Q80.5938,25.4219 79.9844,25.2031 Q79.375,24.9844 78.75,24.9844 Q77.9844,24.9844 77.3438,25.3125 Q76.7188,25.6406 76.2188,26.3906 Q75.7344,27.1406 75.7344,28.1719 L75.7344,29.2656 Q75.7344,30.5 76.625,31.3281 Q77.5156,32.1406 79.1094,32.1406 Q80.0469,32.1406 80.7031,31.8906 Q81.0938,31.7344 81.5156,31.2969 Q81.7813,31.0313 81.9219,30.9531 Q82.0781,30.875 82.2813,30.875 Q82.6094,30.875 82.8594,31.1406 Q83.125,31.3906 83.125,31.7344 Q83.125,32.0781 82.7813,32.4844 Q82.2813,33.0625 81.4844,33.3906 Q80.4063,33.8438 79.1094,33.8438 Q77.5938,33.8438 76.3906,33.2188 Q75.4063,32.7188 74.7188,31.6563 Q74.0313,30.5781 74.0313,29.2969 L74.0313,28.1406 Q74.0313,26.8125 74.6406,25.6719 Q75.2656,24.5156 76.3594,23.9063 Q77.4531,23.2813 78.6875,23.2813 Q79.4219,23.2813 80.0625,23.4531 Q80.7188,23.6094 81.2656,23.9688 Z "/><text fill="#000000" font-family="sans-serif" font-size="14" lengthAdjust="spacingAndGlyphs" textLength="55" x="92.5" y="27.5332">JWindow</text><text fill="#000000" font-family="sans-serif" font-size="10" lengthAdjust="spacingAndGlyphs" textLength="54" x="93" y="40.9902">javax.swing</text><!--link javax.swing.JWindow to it.polimi.ingsw.view.gui.panels.QuestionWindow--><path d="M107,68.372 C107,81.3848 107,95.6467 107,107.8556 " fill="none" id="javax.swing.JWindow-it.polimi.ingsw.view.gui.panels.QuestionWindow" style="stroke: #A80036; stroke-width: 1.0;"/><polygon fill="none" points="100.0001,68.236,107,48.236,114,68.236,100.0001,68.236" style="stroke: #A80036; stroke-width: 1.0;"/><text fill="#888888" font-family="sans-serif" font-size="10" lengthAdjust="spacingAndGlyphs" textLength="190" x="18" y="190.3809">UMLDoclet 2.0.10, PlantUML 1.2019.08</text><!--
@startuml
    set namespaceSeparator none
    hide empty fields
    hide empty methods

    class "<size:14>QuestionWindow\n<size:10>it.polimi.ingsw.view.gui.panels" as it.polimi.ingsw.view.gui.panels.QuestionWindow [[QuestionWindow.html]] {
        +QuestionWindow(JFrame, Message)
    }

    class "<size:14>JWindow\n<size:10>javax.swing" as javax.swing.JWindow

    javax.swing.JWindow <|- - it.polimi.ingsw.view.gui.panels.QuestionWindow

    center footer UMLDoclet 2.0.10, PlantUML 1.2019.08
@enduml

PlantUML version 1.2019.08(Sat Jul 13 21:25:14 CEST 2019)
(APACHE source distribution)
Java Runtime: Java(TM) SE Runtime Environment
JVM: Java HotSpot(TM) 64-Bit Server VM
Java Version: 14.0.1+7
Operating System: Windows 10
OS Version: 10.0
Default Encoding: Cp1252
Language: it
Country: IT
--></g></svg>