<?xml version="1.0" encoding="UTF-8" standalone="no"?><svg xmlns="http://www.w3.org/2000/svg" xmlns:xlink="http://www.w3.org/1999/xlink" contentScriptType="application/ecmascript" contentStyleType="text/css" height="103px" preserveAspectRatio="none" style="width:202px;height:103px;" version="1.1" viewBox="0 0 202 103" width="202px" zoomAndPan="magnify"><defs><filter height="300%" id="f1sapj4mzf3lq7" width="300%" x="-1" y="-1"><feGaussianBlur result="blurOut" stdDeviation="2.0"/><feColorMatrix in="blurOut" result="blurOut2" type="matrix" values="0 0 0 0 0 0 0 0 0 0 0 0 0 0 0 0 0 0 .4 0"/><feOffset dx="4.0" dy="4.0" in="blurOut2" result="blurOut3"/><feBlend in="SourceGraphic" in2="blurOut3" mode="normal"/></filter></defs><g><!--class it.polimi.ingsw.observer.Observer--><a href="Observer.html" target="_top" xlink:actuate="onRequest" xlink:show="new" xlink:title="Observer.html" xlink:type="simple"><rect fill="#FEFECE" filter="url(#f1sapj4mzf3lq7)" height="62.0234" id="it.polimi.ingsw.observer.Observer" style="stroke: #A80036; stroke-width: 1.5;" width="154" x="12" y="8"/><ellipse cx="27" cy="28.0938" fill="#B4A7E5" rx="11" ry="11" style="stroke: #A80036; stroke-width: 1.0;"/><path d="M27.9531,24.7344 L27.9531,31.3906 L29.6719,31.3906 Q30.2813,31.3906 30.5469,31.625 Q30.8125,31.8594 30.8125,32.25 Q30.8125,32.625 30.5469,32.8594 Q30.2813,33.0938 29.6719,33.0938 L24.5313,33.0938 Q23.9219,33.0938 23.6563,32.8594 Q23.3906,32.625 23.3906,32.2344 Q23.3906,31.8594 23.6563,31.625 Q23.9219,31.3906 24.5313,31.3906 L26.25,31.3906 L26.25,24.7344 L24.5313,24.7344 Q23.9219,24.7344 23.6563,24.5 Q23.3906,24.2656 23.3906,23.875 Q23.3906,23.5 23.6563,23.2656 Q23.9219,23.0313 24.5313,23.0313 L29.6719,23.0313 Q30.2813,23.0313 30.5469,23.2656 Q30.8125,23.5 30.8125,23.875 Q30.8125,24.2656 30.5469,24.5 Q30.2813,24.7344 29.6719,24.7344 L27.9531,24.7344 Z "/><text fill="#000000" font-family="sans-serif" font-size="14" font-style="italic" lengthAdjust="spacingAndGlyphs" textLength="58" x="67.5" y="27.5332">Observer</text><text fill="#000000" font-family="sans-serif" font-size="10" font-style="italic" lengthAdjust="spacingAndGlyphs" textLength="111" x="41" y="40.9902">it.polimi.ingsw.observer</text><rect fill="#FFFFFF" height="17.0938" style="stroke: #000000; stroke-width: 1.0; stroke-dasharray: 2.0,2.0;" width="9" x="160" y="5"/><text fill="#000000" font-family="sans-serif" font-size="12" font-style="italic" lengthAdjust="spacingAndGlyphs" textLength="7" x="161" y="18.457">T</text><line style="stroke: #A80036; stroke-width: 1.5;" x1="13" x2="165" y1="48.1875" y2="48.1875"/><ellipse cx="23" cy="60.6055" fill="#84BE84" rx="3" ry="3" style="stroke: #038048; stroke-width: 1.0;"/><text fill="#000000" font-family="sans-serif" font-size="11" font-style="italic" lengthAdjust="spacingAndGlyphs" textLength="74" x="32" y="63.6064">update(T): void</text></a><text fill="#888888" font-family="sans-serif" font-size="10" lengthAdjust="spacingAndGlyphs" textLength="190" x="0" y="90.3809">UMLDoclet 2.0.10, PlantUML 1.2019.08</text><!--
@startuml
    set namespaceSeparator none
    hide empty fields
    hide empty methods

    interface "<size:14>Observer\n<size:10>it.polimi.ingsw.observer" as it.polimi.ingsw.observer.Observer<T> [[Observer.html]] {
        {abstract} +update(T): void
    }

    center footer UMLDoclet 2.0.10, PlantUML 1.2019.08
@enduml

PlantUML version 1.2019.08(Sat Jul 13 21:25:14 CEST 2019)
(APACHE source distribution)
Java Runtime: Java(TM) SE Runtime Environment
JVM: Java HotSpot(TM) 64-Bit Server VM
Java Version: 14.0.1+7
Operating System: Windows 10
OS Version: 10.0
Default Encoding: Cp1252
Language: it
Country: IT
--></g></svg>