<?xml version="1.0" encoding="UTF-8" standalone="no"?><svg xmlns="http://www.w3.org/2000/svg" xmlns:xlink="http://www.w3.org/1999/xlink" contentScriptType="application/ecmascript" contentStyleType="text/css" height="103px" preserveAspectRatio="none" style="width:213px;height:103px;" version="1.1" viewBox="0 0 213 103" width="213px" zoomAndPan="magnify"><defs><filter height="300%" id="f5oqkti8vxv0n" width="300%" x="-1" y="-1"><feGaussianBlur result="blurOut" stdDeviation="2.0"/><feColorMatrix in="blurOut" result="blurOut2" type="matrix" values="0 0 0 0 0 0 0 0 0 0 0 0 0 0 0 0 0 0 .4 0"/><feOffset dx="4.0" dy="4.0" in="blurOut2" result="blurOut3"/><feBlend in="SourceGraphic" in2="blurOut3" mode="normal"/></filter></defs><g><!--class it.polimi.ingsw.observer.Observable--><a href="Observable.html" target="_top" xlink:actuate="onRequest" xlink:show="new" xlink:title="Observable.html" xlink:type="simple"><rect fill="#FEFECE" filter="url(#f5oqkti8vxv0n)" height="62.0234" id="it.polimi.ingsw.observer.Observable" style="stroke: #A80036; stroke-width: 1.5;" width="188" x="6" y="8"/><ellipse cx="36.75" cy="28.0938" fill="#ADD1B2" rx="11" ry="11" style="stroke: #A80036; stroke-width: 1.0;"/><path d="M39.5156,23.9688 Q39.6719,23.75 39.8594,23.6406 Q40.0469,23.5313 40.2656,23.5313 Q40.6406,23.5313 40.875,23.7969 Q41.1094,24.0469 41.1094,24.6563 L41.1094,26.1094 Q41.1094,26.7188 40.875,26.9844 Q40.6406,27.25 40.2656,27.25 Q39.9219,27.25 39.7188,27.0469 Q39.5156,26.8594 39.4063,26.3438 Q39.3594,25.9844 39.1719,25.7969 Q38.8438,25.4219 38.2344,25.2031 Q37.625,24.9844 37,24.9844 Q36.2344,24.9844 35.5938,25.3125 Q34.9688,25.6406 34.4688,26.3906 Q33.9844,27.1406 33.9844,28.1719 L33.9844,29.2656 Q33.9844,30.5 34.875,31.3281 Q35.7656,32.1406 37.3594,32.1406 Q38.2969,32.1406 38.9531,31.8906 Q39.3438,31.7344 39.7656,31.2969 Q40.0313,31.0313 40.1719,30.9531 Q40.3281,30.875 40.5313,30.875 Q40.8594,30.875 41.1094,31.1406 Q41.375,31.3906 41.375,31.7344 Q41.375,32.0781 41.0313,32.4844 Q40.5313,33.0625 39.7344,33.3906 Q38.6563,33.8438 37.3594,33.8438 Q35.8438,33.8438 34.6406,33.2188 Q33.6563,32.7188 32.9688,31.6563 Q32.2813,30.5781 32.2813,29.2969 L32.2813,28.1406 Q32.2813,26.8125 32.8906,25.6719 Q33.5156,24.5156 34.6094,23.9063 Q35.7031,23.2813 36.9375,23.2813 Q37.6719,23.2813 38.3125,23.4531 Q38.9688,23.6094 39.5156,23.9688 Z "/><text fill="#000000" font-family="sans-serif" font-size="14" lengthAdjust="spacingAndGlyphs" textLength="73" x="72.75" y="27.5332">Observable</text><text fill="#000000" font-family="sans-serif" font-size="10" lengthAdjust="spacingAndGlyphs" textLength="110" x="54.25" y="40.9902">it.polimi.ingsw.observer</text><rect fill="#FFFFFF" height="17.0938" style="stroke: #000000; stroke-width: 1.0; stroke-dasharray: 2.0,2.0;" width="9" x="188" y="5"/><text fill="#000000" font-family="sans-serif" font-size="12" font-style="italic" lengthAdjust="spacingAndGlyphs" textLength="7" x="189" y="18.457">T</text><line style="stroke: #A80036; stroke-width: 1.5;" x1="7" x2="193" y1="48.1875" y2="48.1875"/><ellipse cx="17" cy="60.6055" fill="#84BE84" rx="3" ry="3" style="stroke: #038048; stroke-width: 1.0;"/><text fill="#000000" font-family="sans-serif" font-size="11" lengthAdjust="spacingAndGlyphs" textLength="162" x="26" y="63.6064">addObserver(Observer&lt;T&gt;): void</text></a><text fill="#888888" font-family="sans-serif" font-size="10" lengthAdjust="spacingAndGlyphs" textLength="190" x="11" y="90.3809">UMLDoclet 2.0.10, PlantUML 1.2019.08</text><!--
@startuml
    set namespaceSeparator none
    hide empty fields
    hide empty methods

    class "<size:14>Observable\n<size:10>it.polimi.ingsw.observer" as it.polimi.ingsw.observer.Observable<T> [[Observable.html]] {
        +addObserver(Observer<T>): void
    }

    center footer UMLDoclet 2.0.10, PlantUML 1.2019.08
@enduml

PlantUML version 1.2019.08(Sat Jul 13 21:25:14 CEST 2019)
(APACHE source distribution)
Java Runtime: Java(TM) SE Runtime Environment
JVM: Java HotSpot(TM) 64-Bit Server VM
Java Version: 14.0.1+7
Operating System: Windows 10
OS Version: 10.0
Default Encoding: Cp1252
Language: it
Country: IT
--></g></svg>