<?xml version="1.0" encoding="UTF-8" standalone="no"?><svg xmlns="http://www.w3.org/2000/svg" xmlns:xlink="http://www.w3.org/1999/xlink" contentScriptType="application/ecmascript" contentStyleType="text/css" height="201px" preserveAspectRatio="none" style="width:399px;height:201px;" version="1.1" viewBox="0 0 399 201" width="399px" zoomAndPan="magnify"><defs><filter height="300%" id="f1fb7kh7jzjpdy" width="300%" x="-1" y="-1"><feGaussianBlur result="blurOut" stdDeviation="2.0"/><feColorMatrix in="blurOut" result="blurOut2" type="matrix" values="0 0 0 0 0 0 0 0 0 0 0 0 0 0 0 0 0 0 .4 0"/><feOffset dx="4.0" dy="4.0" in="blurOut2" result="blurOut3"/><feBlend in="SourceGraphic" in2="blurOut3" mode="normal"/></filter></defs><g><!--cluster it.polimi.ingsw.observer--><polygon fill="#FFFFFF" filter="url(#f1fb7kh7jzjpdy)" points="22,24,197,24,204,47.6094,377,47.6094,377,152,22,152,22,24" style="stroke: #000000; stroke-width: 1.5;"/><line style="stroke: #000000; stroke-width: 1.5;" x1="22" x2="204" y1="47.6094" y2="47.6094"/><text fill="#000000" font-family="sans-serif" font-size="14" font-weight="bold" lengthAdjust="spacingAndGlyphs" textLength="169" x="26" y="40.5332">it.polimi.ingsw.observer</text><!--class it.polimi.ingsw.observer.Observable--><a href="Observable.html" target="_top" xlink:actuate="onRequest" xlink:show="new" xlink:title="Observable.html" xlink:type="simple"><rect fill="#FEFECE" filter="url(#f1fb7kh7jzjpdy)" height="75.6719" id="it.polimi.ingsw.observer.Observable" style="stroke: #A80036; stroke-width: 1.5;" width="188" x="173" y="60"/><ellipse cx="225.75" cy="76" fill="#ADD1B2" rx="11" ry="11" style="stroke: #A80036; stroke-width: 1.0;"/><path d="M228.5156,71.875 Q228.6719,71.6563 228.8594,71.5469 Q229.0469,71.4375 229.2656,71.4375 Q229.6406,71.4375 229.875,71.7031 Q230.1094,71.9531 230.1094,72.5625 L230.1094,74.0156 Q230.1094,74.625 229.875,74.8906 Q229.6406,75.1563 229.2656,75.1563 Q228.9219,75.1563 228.7188,74.9531 Q228.5156,74.7656 228.4063,74.25 Q228.3594,73.8906 228.1719,73.7031 Q227.8438,73.3281 227.2344,73.1094 Q226.625,72.8906 226,72.8906 Q225.2344,72.8906 224.5938,73.2188 Q223.9688,73.5469 223.4688,74.2969 Q222.9844,75.0469 222.9844,76.0781 L222.9844,77.1719 Q222.9844,78.4063 223.875,79.2344 Q224.7656,80.0469 226.3594,80.0469 Q227.2969,80.0469 227.9531,79.7969 Q228.3438,79.6406 228.7656,79.2031 Q229.0313,78.9375 229.1719,78.8594 Q229.3281,78.7813 229.5313,78.7813 Q229.8594,78.7813 230.1094,79.0469 Q230.375,79.2969 230.375,79.6406 Q230.375,79.9844 230.0313,80.3906 Q229.5313,80.9688 228.7344,81.2969 Q227.6563,81.75 226.3594,81.75 Q224.8438,81.75 223.6406,81.125 Q222.6563,80.625 221.9688,79.5625 Q221.2813,78.4844 221.2813,77.2031 L221.2813,76.0469 Q221.2813,74.7188 221.8906,73.5781 Q222.5156,72.4219 223.6094,71.8125 Q224.7031,71.1875 225.9375,71.1875 Q226.6719,71.1875 227.3125,71.3594 Q227.9688,71.5156 228.5156,71.875 Z "/><text fill="#000000" font-family="sans-serif" font-size="12" lengthAdjust="spacingAndGlyphs" textLength="63" x="246.25" y="80.9102">Observable</text><rect fill="#FFFFFF" height="17.0938" style="stroke: #000000; stroke-width: 1.0; stroke-dasharray: 2.0,2.0;" width="9" x="355" y="57"/><text fill="#000000" font-family="sans-serif" font-size="12" font-style="italic" lengthAdjust="spacingAndGlyphs" textLength="7" x="356" y="70.457">T</text><line style="stroke: #A80036; stroke-width: 1.5;" x1="174" x2="360" y1="92" y2="92"/><line style="stroke: #A80036; stroke-width: 1.5;" x1="174" x2="360" y1="100" y2="100"/><ellipse cx="184" cy="112.418" fill="#84BE84" rx="3" ry="3" style="stroke: #038048; stroke-width: 1.0;"/><text fill="#000000" font-family="sans-serif" font-size="11" lengthAdjust="spacingAndGlyphs" textLength="162" x="193" y="115.4189">addObserver(Observer&lt;T&gt;): void</text><polygon fill="#FFFF44" points="184,121.2539,188,125.2539,184,129.2539,180,125.2539" style="stroke: #B38D22; stroke-width: 1.0;"/><text fill="#000000" font-family="sans-serif" font-size="11" lengthAdjust="spacingAndGlyphs" textLength="67" x="193" y="129.2549">notify(T): void</text></a><!--class it.polimi.ingsw.observer.Observer--><a href="Observer.html" target="_top" xlink:actuate="onRequest" xlink:show="new" xlink:title="Observer.html" xlink:type="simple"><rect fill="#FEFECE" filter="url(#f1fb7kh7jzjpdy)" height="61.8359" id="it.polimi.ingsw.observer.Observer" style="stroke: #A80036; stroke-width: 1.5;" width="100" x="38" y="67"/><ellipse cx="55.7" cy="83" fill="#B4A7E5" rx="11" ry="11" style="stroke: #A80036; stroke-width: 1.0;"/><path d="M56.6531,79.6406 L56.6531,86.2969 L58.3719,86.2969 Q58.9813,86.2969 59.2469,86.5313 Q59.5125,86.7656 59.5125,87.1563 Q59.5125,87.5313 59.2469,87.7656 Q58.9813,88 58.3719,88 L53.2313,88 Q52.6219,88 52.3563,87.7656 Q52.0906,87.5313 52.0906,87.1406 Q52.0906,86.7656 52.3563,86.5313 Q52.6219,86.2969 53.2313,86.2969 L54.95,86.2969 L54.95,79.6406 L53.2313,79.6406 Q52.6219,79.6406 52.3563,79.4063 Q52.0906,79.1719 52.0906,78.7813 Q52.0906,78.4063 52.3563,78.1719 Q52.6219,77.9375 53.2313,77.9375 L58.3719,77.9375 Q58.9813,77.9375 59.2469,78.1719 Q59.5125,78.4063 59.5125,78.7813 Q59.5125,79.1719 59.2469,79.4063 Q58.9813,79.6406 58.3719,79.6406 L56.6531,79.6406 Z "/><text fill="#000000" font-family="sans-serif" font-size="12" font-style="italic" lengthAdjust="spacingAndGlyphs" textLength="51" x="70.3" y="87.9102">Observer</text><rect fill="#FFFFFF" height="17.0938" style="stroke: #000000; stroke-width: 1.0; stroke-dasharray: 2.0,2.0;" width="9" x="132" y="64"/><text fill="#000000" font-family="sans-serif" font-size="12" font-style="italic" lengthAdjust="spacingAndGlyphs" textLength="7" x="133" y="77.457">T</text><line style="stroke: #A80036; stroke-width: 1.5;" x1="39" x2="137" y1="99" y2="99"/><line style="stroke: #A80036; stroke-width: 1.5;" x1="39" x2="137" y1="107" y2="107"/><ellipse cx="49" cy="119.418" fill="#84BE84" rx="3" ry="3" style="stroke: #038048; stroke-width: 1.0;"/><text fill="#000000" font-family="sans-serif" font-size="11" font-style="italic" lengthAdjust="spacingAndGlyphs" textLength="74" x="58" y="122.4189">update(T): void</text></a><text fill="#888888" font-family="sans-serif" font-size="10" lengthAdjust="spacingAndGlyphs" textLength="190" x="110.5" y="188.3809">UMLDoclet 2.0.10, PlantUML 1.2019.08</text><!--
@startuml
    namespace it.polimi.ingsw.observer {

        class Observable<T> [[Observable.html]] {
            +addObserver(Observer<T>): void
            #notify(T): void
        }

        interface Observer<T> [[Observer.html]] {
            {abstract} +update(T): void
        }

    }

    center footer UMLDoclet 2.0.10, PlantUML 1.2019.08
@enduml

PlantUML version 1.2019.08(Sat Jul 13 21:25:14 CEST 2019)
(APACHE source distribution)
Java Runtime: Java(TM) SE Runtime Environment
JVM: Java HotSpot(TM) 64-Bit Server VM
Java Version: 14.0.1+7
Operating System: Windows 10
OS Version: 10.0
Default Encoding: Cp1252
Language: it
Country: IT
--></g></svg>