<?xml version="1.0" encoding="UTF-8" standalone="no"?><svg xmlns="http://www.w3.org/2000/svg" xmlns:xlink="http://www.w3.org/1999/xlink" contentScriptType="application/ecmascript" contentStyleType="text/css" height="295px" preserveAspectRatio="none" style="width:227px;height:295px;" version="1.1" viewBox="0 0 227 295" width="227px" zoomAndPan="magnify"><defs><filter height="300%" id="f10992okle8551" width="300%" x="-1" y="-1"><feGaussianBlur result="blurOut" stdDeviation="2.0"/><feColorMatrix in="blurOut" result="blurOut2" type="matrix" values="0 0 0 0 0 0 0 0 0 0 0 0 0 0 0 0 0 0 .4 0"/><feOffset dx="4.0" dy="4.0" in="blurOut2" result="blurOut3"/><feBlend in="SourceGraphic" in2="blurOut3" mode="normal"/></filter></defs><g><!--class it.polimi.ingsw.view.gui.Gui--><a href="Gui.html" target="_top" xlink:actuate="onRequest" xlink:show="new" xlink:title="Gui.html" xlink:type="simple"><rect fill="#FEFECE" filter="url(#f10992okle8551)" height="103.5313" id="it.polimi.ingsw.view.gui.Gui" style="stroke: #A80036; stroke-width: 1.5;" width="202" x="8.5" y="158"/><ellipse cx="50.5" cy="178.0938" fill="#ADD1B2" rx="11" ry="11" style="stroke: #A80036; stroke-width: 1.0;"/><path d="M53.2656,173.9688 Q53.4219,173.75 53.6094,173.6406 Q53.7969,173.5313 54.0156,173.5313 Q54.3906,173.5313 54.625,173.7969 Q54.8594,174.0469 54.8594,174.6563 L54.8594,176.1094 Q54.8594,176.7188 54.625,176.9844 Q54.3906,177.25 54.0156,177.25 Q53.6719,177.25 53.4688,177.0469 Q53.2656,176.8594 53.1563,176.3438 Q53.1094,175.9844 52.9219,175.7969 Q52.5938,175.4219 51.9844,175.2031 Q51.375,174.9844 50.75,174.9844 Q49.9844,174.9844 49.3438,175.3125 Q48.7188,175.6406 48.2188,176.3906 Q47.7344,177.1406 47.7344,178.1719 L47.7344,179.2656 Q47.7344,180.5 48.625,181.3281 Q49.5156,182.1406 51.1094,182.1406 Q52.0469,182.1406 52.7031,181.8906 Q53.0938,181.7344 53.5156,181.2969 Q53.7813,181.0313 53.9219,180.9531 Q54.0781,180.875 54.2813,180.875 Q54.6094,180.875 54.8594,181.1406 Q55.125,181.3906 55.125,181.7344 Q55.125,182.0781 54.7813,182.4844 Q54.2813,183.0625 53.4844,183.3906 Q52.4063,183.8438 51.1094,183.8438 Q49.5938,183.8438 48.3906,183.2188 Q47.4063,182.7188 46.7188,181.6563 Q46.0313,180.5781 46.0313,179.2969 L46.0313,178.1406 Q46.0313,176.8125 46.6406,175.6719 Q47.2656,174.5156 48.3594,173.9063 Q49.4531,173.2813 50.6875,173.2813 Q51.4219,173.2813 52.0625,173.4531 Q52.7188,173.6094 53.2656,173.9688 Z "/><text fill="#000000" font-family="sans-serif" font-size="14" lengthAdjust="spacingAndGlyphs" textLength="22" x="114.5" y="177.5332">Gui</text><text fill="#000000" font-family="sans-serif" font-size="10" lengthAdjust="spacingAndGlyphs" textLength="110" x="70.5" y="190.9902">it.polimi.ingsw.view.gui</text><line style="stroke: #A80036; stroke-width: 1.5;" x1="9.5" x2="209.5" y1="198.1875" y2="198.1875"/><ellipse cx="19.5" cy="210.6055" fill="#84BE84" rx="3" ry="3" style="stroke: #038048; stroke-width: 1.0;"/><text fill="#000000" font-family="sans-serif" font-size="11" lengthAdjust="spacingAndGlyphs" textLength="69" x="28.5" y="213.6064">Gui(String, int)</text><ellipse cx="19.5" cy="224.4414" fill="#84BE84" rx="3" ry="3" style="stroke: #038048; stroke-width: 1.0;"/><text fill="#000000" font-family="sans-serif" font-size="11" lengthAdjust="spacingAndGlyphs" textLength="160" x="28.5" y="227.4424">asyncReadFromSocket(): Thread</text><ellipse cx="19.5" cy="238.2773" fill="#84BE84" rx="3" ry="3" style="stroke: #038048; stroke-width: 1.0;"/><text fill="#000000" font-family="sans-serif" font-size="11" lengthAdjust="spacingAndGlyphs" textLength="176" x="28.5" y="241.2783">asyncWriteToSocket(String): Thread</text><ellipse cx="19.5" cy="252.1133" fill="#84BE84" rx="3" ry="3" style="stroke: #038048; stroke-width: 1.0;"/><text fill="#000000" font-family="sans-serif" font-size="11" lengthAdjust="spacingAndGlyphs" textLength="50" x="28.5" y="255.1143">run(): void</text></a><!--class it.polimi.ingsw.network.client.Client--><a href="../../network/client/Client.html" target="_top" xlink:actuate="onRequest" xlink:show="new" xlink:title="../../network/client/Client.html" xlink:type="simple"><rect fill="#FEFECE" filter="url(#f10992okle8551)" height="89.6953" id="it.polimi.ingsw.network.client.Client" style="stroke: #A80036; stroke-width: 1.5;" width="207" x="6" y="8"/><ellipse cx="21.9" cy="28.0938" fill="#A9DCDF" rx="11" ry="11" style="stroke: #A80036; stroke-width: 1.0;"/><path d="M24.0875,29.8594 L19.9469,29.8594 L19.525,30.8906 L19.9469,30.8906 Q20.5563,30.8906 20.8219,31.125 Q21.0875,31.3594 21.0875,31.75 Q21.0875,32.125 20.8219,32.3594 Q20.5563,32.5938 19.9469,32.5938 L17.65,32.5938 Q17.0406,32.5938 16.7906,32.3594 Q16.525,32.125 16.525,31.7344 Q16.525,31.3594 16.8063,31.125 Q17.0719,30.875 17.6969,30.8906 L20.3688,24.2344 L19.2594,24.2344 Q18.65,24.2344 18.3844,24 Q18.1188,23.7656 18.1188,23.375 Q18.1188,23 18.3844,22.7656 Q18.65,22.5313 19.2594,22.5313 L22.9313,22.5313 L26.3219,30.8906 Q26.9156,30.8906 27.1031,31.0313 Q27.4938,31.2969 27.4938,31.75 Q27.4938,32.125 27.2281,32.3594 Q26.9781,32.5938 26.3688,32.5938 L24.0719,32.5938 Q23.4625,32.5938 23.1969,32.3594 Q22.9313,32.125 22.9313,31.7344 Q22.9313,31.3594 23.1969,31.125 Q23.4625,30.8906 24.0719,30.8906 L24.4938,30.8906 L24.0875,29.8594 Z M23.3688,28.1563 L22.0094,24.7813 L20.6344,28.1563 L23.3688,28.1563 Z "/><text fill="#000000" font-family="sans-serif" font-size="14" font-style="italic" lengthAdjust="spacingAndGlyphs" textLength="36" x="86.6" y="27.5332">Client</text><text fill="#000000" font-family="sans-serif" font-size="10" font-style="italic" lengthAdjust="spacingAndGlyphs" textLength="137" x="36.1" y="40.9902">it.polimi.ingsw.network.client</text><rect fill="#FFFFFF" height="17.0938" style="stroke: #000000; stroke-width: 1.0; stroke-dasharray: 2.0,2.0;" width="34" x="182" y="5"/><text fill="#000000" font-family="sans-serif" font-size="12" font-style="italic" lengthAdjust="spacingAndGlyphs" textLength="32" x="183" y="18.457">String</text><line style="stroke: #A80036; stroke-width: 1.5;" x1="7" x2="212" y1="48.1875" y2="48.1875"/><ellipse cx="17" cy="60.6055" fill="#84BE84" rx="3" ry="3" style="stroke: #038048; stroke-width: 1.0;"/><text fill="#000000" font-family="sans-serif" font-size="11" font-style="italic" lengthAdjust="spacingAndGlyphs" textLength="164" x="26" y="63.6064">asyncReadFromSocket(): Thread</text><ellipse cx="17" cy="74.4414" fill="#84BE84" rx="3" ry="3" style="stroke: #038048; stroke-width: 1.0;"/><text fill="#000000" font-family="sans-serif" font-size="11" font-style="italic" lengthAdjust="spacingAndGlyphs" textLength="181" x="26" y="77.4424">asyncWriteToSocket(String): Thread</text><ellipse cx="17" cy="88.2773" fill="#84BE84" rx="3" ry="3" style="stroke: #038048; stroke-width: 1.0;"/><text fill="#000000" font-family="sans-serif" font-size="11" font-style="italic" lengthAdjust="spacingAndGlyphs" textLength="50" x="26" y="91.2783">run(): void</text></a><!--link it.polimi.ingsw.network.client.Client to it.polimi.ingsw.view.gui.Gui--><path d="M109.5,118.102 C109.5,131.32 109.5,145.075 109.5,157.764 " fill="none" id="it.polimi.ingsw.network.client.Client-it.polimi.ingsw.view.gui.Gui" style="stroke: #A80036; stroke-width: 1.0;"/><polygon fill="none" points="102.5001,118.002,109.5,98.002,116.5,118.002,102.5001,118.002" style="stroke: #A80036; stroke-width: 1.0;"/><text fill="#888888" font-family="sans-serif" font-size="10" lengthAdjust="spacingAndGlyphs" textLength="190" x="20.5" y="282.3809">UMLDoclet 2.0.10, PlantUML 1.2019.08</text><!--
@startuml
    set namespaceSeparator none
    hide empty fields
    hide empty methods

    class "<size:14>Gui\n<size:10>it.polimi.ingsw.view.gui" as it.polimi.ingsw.view.gui.Gui [[Gui.html]] {
        +Gui(String, int)
        +asyncReadFromSocket(): Thread
        +asyncWriteToSocket(String): Thread
        +run(): void
    }

    abstract class "<size:14>Client\n<size:10>it.polimi.ingsw.network.client" as it.polimi.ingsw.network.client.Client<String> [[../../network/client/Client.html]] {
        {abstract} +asyncReadFromSocket(): Thread
        {abstract} +asyncWriteToSocket(String): Thread
        {abstract} +run(): void
    }

    it.polimi.ingsw.network.client.Client <|- - it.polimi.ingsw.view.gui.Gui

    center footer UMLDoclet 2.0.10, PlantUML 1.2019.08
@enduml

PlantUML version 1.2019.08(Sat Jul 13 21:25:14 CEST 2019)
(APACHE source distribution)
Java Runtime: Java(TM) SE Runtime Environment
JVM: Java HotSpot(TM) 64-Bit Server VM
Java Version: 14.0.1+7
Operating System: Windows 10
OS Version: 10.0
Default Encoding: Cp1252
Language: it
Country: IT
--></g></svg>