<?xml version="1.0" encoding="UTF-8" standalone="no"?><svg xmlns="http://www.w3.org/2000/svg" xmlns:xlink="http://www.w3.org/1999/xlink" contentScriptType="application/ecmascript" contentStyleType="text/css" height="394px" preserveAspectRatio="none" style="width:278px;height:394px;" version="1.1" viewBox="0 0 278 394" width="278px" zoomAndPan="magnify"><defs><filter height="300%" id="fr70idtz8ltad" width="300%" x="-1" y="-1"><feGaussianBlur result="blurOut" stdDeviation="2.0"/><feColorMatrix in="blurOut" result="blurOut2" type="matrix" values="0 0 0 0 0 0 0 0 0 0 0 0 0 0 0 0 0 0 .4 0"/><feOffset dx="4.0" dy="4.0" in="blurOut2" result="blurOut3"/><feBlend in="SourceGraphic" in2="blurOut3" mode="normal"/></filter></defs><g><!--cluster it.polimi.ingsw.view.gui--><polygon fill="#FFFFFF" filter="url(#fr70idtz8ltad)" points="22,190,191,190,198,213.6094,256,213.6094,256,345,22,345,22,190" style="stroke: #000000; stroke-width: 1.5;"/><line style="stroke: #000000; stroke-width: 1.5;" x1="22" x2="198" y1="213.6094" y2="213.6094"/><text fill="#000000" font-family="sans-serif" font-size="14" font-weight="bold" lengthAdjust="spacingAndGlyphs" textLength="163" x="26" y="206.5332">it.polimi.ingsw.view.gui</text><!--cluster it.polimi.ingsw.network.client--><polygon fill="#FFFFFF" filter="url(#fr70idtz8ltad)" points="28,24,238,24,245,47.6094,250,47.6094,250,166,28,166,28,24" style="stroke: #000000; stroke-width: 1.5;"/><line style="stroke: #000000; stroke-width: 1.5;" x1="28" x2="245" y1="47.6094" y2="47.6094"/><text fill="#000000" font-family="sans-serif" font-size="14" font-weight="bold" lengthAdjust="spacingAndGlyphs" textLength="204" x="32" y="40.5332">it.polimi.ingsw.network.client</text><!--class it.polimi.ingsw.view.gui.Gui--><a href="Gui.html" target="_top" xlink:actuate="onRequest" xlink:show="new" xlink:title="Gui.html" xlink:type="simple"><rect fill="#FEFECE" filter="url(#fr70idtz8ltad)" height="103.3438" id="it.polimi.ingsw.view.gui.Gui" style="stroke: #A80036; stroke-width: 1.5;" width="202" x="38" y="226"/><ellipse cx="125.25" cy="242" fill="#ADD1B2" rx="11" ry="11" style="stroke: #A80036; stroke-width: 1.0;"/><path d="M128.0156,237.875 Q128.1719,237.6563 128.3594,237.5469 Q128.5469,237.4375 128.7656,237.4375 Q129.1406,237.4375 129.375,237.7031 Q129.6094,237.9531 129.6094,238.5625 L129.6094,240.0156 Q129.6094,240.625 129.375,240.8906 Q129.1406,241.1563 128.7656,241.1563 Q128.4219,241.1563 128.2188,240.9531 Q128.0156,240.7656 127.9063,240.25 Q127.8594,239.8906 127.6719,239.7031 Q127.3438,239.3281 126.7344,239.1094 Q126.125,238.8906 125.5,238.8906 Q124.7344,238.8906 124.0938,239.2188 Q123.4688,239.5469 122.9688,240.2969 Q122.4844,241.0469 122.4844,242.0781 L122.4844,243.1719 Q122.4844,244.4063 123.375,245.2344 Q124.2656,246.0469 125.8594,246.0469 Q126.7969,246.0469 127.4531,245.7969 Q127.8438,245.6406 128.2656,245.2031 Q128.5313,244.9375 128.6719,244.8594 Q128.8281,244.7813 129.0313,244.7813 Q129.3594,244.7813 129.6094,245.0469 Q129.875,245.2969 129.875,245.6406 Q129.875,245.9844 129.5313,246.3906 Q129.0313,246.9688 128.2344,247.2969 Q127.1563,247.75 125.8594,247.75 Q124.3438,247.75 123.1406,247.125 Q122.1563,246.625 121.4688,245.5625 Q120.7813,244.4844 120.7813,243.2031 L120.7813,242.0469 Q120.7813,240.7188 121.3906,239.5781 Q122.0156,238.4219 123.1094,237.8125 Q124.2031,237.1875 125.4375,237.1875 Q126.1719,237.1875 126.8125,237.3594 Q127.4688,237.5156 128.0156,237.875 Z "/><text fill="#000000" font-family="sans-serif" font-size="12" lengthAdjust="spacingAndGlyphs" textLength="19" x="145.75" y="246.9102">Gui</text><line style="stroke: #A80036; stroke-width: 1.5;" x1="39" x2="239" y1="258" y2="258"/><line style="stroke: #A80036; stroke-width: 1.5;" x1="39" x2="239" y1="266" y2="266"/><ellipse cx="49" cy="278.418" fill="#84BE84" rx="3" ry="3" style="stroke: #038048; stroke-width: 1.0;"/><text fill="#000000" font-family="sans-serif" font-size="11" lengthAdjust="spacingAndGlyphs" textLength="69" x="58" y="281.4189">Gui(String, int)</text><ellipse cx="49" cy="292.2539" fill="#84BE84" rx="3" ry="3" style="stroke: #038048; stroke-width: 1.0;"/><text fill="#000000" font-family="sans-serif" font-size="11" lengthAdjust="spacingAndGlyphs" textLength="160" x="58" y="295.2549">asyncReadFromSocket(): Thread</text><ellipse cx="49" cy="306.0898" fill="#84BE84" rx="3" ry="3" style="stroke: #038048; stroke-width: 1.0;"/><text fill="#000000" font-family="sans-serif" font-size="11" lengthAdjust="spacingAndGlyphs" textLength="176" x="58" y="309.0908">asyncWriteToSocket(String): Thread</text><ellipse cx="49" cy="319.9258" fill="#84BE84" rx="3" ry="3" style="stroke: #038048; stroke-width: 1.0;"/><text fill="#000000" font-family="sans-serif" font-size="11" lengthAdjust="spacingAndGlyphs" textLength="50" x="58" y="322.9268">run(): void</text></a><!--class it.polimi.ingsw.network.client.Client--><a href="../../network/client/Client.html" target="_top" xlink:actuate="onRequest" xlink:show="new" xlink:title="../../network/client/Client.html" xlink:type="simple"><rect fill="#FEFECE" filter="url(#fr70idtz8ltad)" height="89.5078" id="it.polimi.ingsw.network.client.Client" style="stroke: #A80036; stroke-width: 1.5;" width="190" x="44" y="60"/><ellipse cx="113.25" cy="76" fill="#A9DCDF" rx="11" ry="11" style="stroke: #A80036; stroke-width: 1.0;"/><path d="M115.4375,77.7656 L111.2969,77.7656 L110.875,78.7969 L111.2969,78.7969 Q111.9063,78.7969 112.1719,79.0313 Q112.4375,79.2656 112.4375,79.6563 Q112.4375,80.0313 112.1719,80.2656 Q111.9063,80.5 111.2969,80.5 L109,80.5 Q108.3906,80.5 108.1406,80.2656 Q107.875,80.0313 107.875,79.6406 Q107.875,79.2656 108.1563,79.0313 Q108.4219,78.7813 109.0469,78.7969 L111.7188,72.1406 L110.6094,72.1406 Q110,72.1406 109.7344,71.9063 Q109.4688,71.6719 109.4688,71.2813 Q109.4688,70.9063 109.7344,70.6719 Q110,70.4375 110.6094,70.4375 L114.2813,70.4375 L117.6719,78.7969 Q118.2656,78.7969 118.4531,78.9375 Q118.8438,79.2031 118.8438,79.6563 Q118.8438,80.0313 118.5781,80.2656 Q118.3281,80.5 117.7188,80.5 L115.4219,80.5 Q114.8125,80.5 114.5469,80.2656 Q114.2813,80.0313 114.2813,79.6406 Q114.2813,79.2656 114.5469,79.0313 Q114.8125,78.7969 115.4219,78.7969 L115.8438,78.7969 L115.4375,77.7656 Z M114.7188,76.0625 L113.3594,72.6875 L111.9844,76.0625 L114.7188,76.0625 Z "/><text fill="#000000" font-family="sans-serif" font-size="12" font-style="italic" lengthAdjust="spacingAndGlyphs" textLength="32" x="133.75" y="80.9102">Client</text><rect fill="#FFFFFF" height="17.0938" style="stroke: #000000; stroke-width: 1.0; stroke-dasharray: 2.0,2.0;" width="9" x="228" y="57"/><text fill="#000000" font-family="sans-serif" font-size="12" font-style="italic" lengthAdjust="spacingAndGlyphs" textLength="7" x="229" y="70.457">T</text><line style="stroke: #A80036; stroke-width: 1.5;" x1="45" x2="233" y1="92" y2="92"/><line style="stroke: #A80036; stroke-width: 1.5;" x1="45" x2="233" y1="100" y2="100"/><ellipse cx="55" cy="112.418" fill="#84BE84" rx="3" ry="3" style="stroke: #038048; stroke-width: 1.0;"/><text fill="#000000" font-family="sans-serif" font-size="11" font-style="italic" lengthAdjust="spacingAndGlyphs" textLength="164" x="64" y="115.4189">asyncReadFromSocket(): Thread</text><ellipse cx="55" cy="126.2539" fill="#84BE84" rx="3" ry="3" style="stroke: #038048; stroke-width: 1.0;"/><text fill="#000000" font-family="sans-serif" font-size="11" font-style="italic" lengthAdjust="spacingAndGlyphs" textLength="159" x="64" y="129.2549">asyncWriteToSocket(T): Thread</text><ellipse cx="55" cy="140.0898" fill="#84BE84" rx="3" ry="3" style="stroke: #038048; stroke-width: 1.0;"/><text fill="#000000" font-family="sans-serif" font-size="11" font-style="italic" lengthAdjust="spacingAndGlyphs" textLength="50" x="64" y="143.0908">run(): void</text></a><!--link it.polimi.ingsw.network.client.Client to it.polimi.ingsw.view.gui.Gui--><path d="M139,170.567 C139,188.82 139,208.42 139,225.736 " fill="none" id="it.polimi.ingsw.network.client.Client-it.polimi.ingsw.view.gui.Gui" style="stroke: #A80036; stroke-width: 1.0;"/><polygon fill="none" points="132,170.352,139,150.352,146,170.352,132,170.352" style="stroke: #A80036; stroke-width: 1.0;"/><text fill="#888888" font-family="sans-serif" font-size="10" lengthAdjust="spacingAndGlyphs" textLength="190" x="50" y="381.3809">UMLDoclet 2.0.10, PlantUML 1.2019.08</text><!--
@startuml
    namespace it.polimi.ingsw.view.gui {

        class Gui [[Gui.html]] {
            +Gui(String, int)
            +asyncReadFromSocket(): Thread
            +asyncWriteToSocket(String): Thread
            +run(): void
        }

        it.polimi.ingsw.network.client.Client <|- - Gui
    }

    namespace it.polimi.ingsw.network.client {
        abstract class Client<T> [[../../network/client/Client.html]] {
            {abstract} +asyncReadFromSocket(): Thread
            {abstract} +asyncWriteToSocket(T): Thread
            {abstract} +run(): void
        }
    }

    center footer UMLDoclet 2.0.10, PlantUML 1.2019.08
@enduml

PlantUML version 1.2019.08(Sat Jul 13 21:25:14 CEST 2019)
(APACHE source distribution)
Java Runtime: Java(TM) SE Runtime Environment
JVM: Java HotSpot(TM) 64-Bit Server VM
Java Version: 14.0.1+7
Operating System: Windows 10
OS Version: 10.0
Default Encoding: Cp1252
Language: it
Country: IT
--></g></svg>