<?xml version="1.0" encoding="UTF-8" standalone="no"?><svg xmlns="http://www.w3.org/2000/svg" xmlns:xlink="http://www.w3.org/1999/xlink" contentScriptType="application/ecmascript" contentStyleType="text/css" height="180px" preserveAspectRatio="none" style="width:202px;height:180px;" version="1.1" viewBox="0 0 202 180" width="202px" zoomAndPan="magnify"><defs><filter height="300%" id="f3jqk2vfgk3og" width="300%" x="-1" y="-1"><feGaussianBlur result="blurOut" stdDeviation="2.0"/><feColorMatrix in="blurOut" result="blurOut2" type="matrix" values="0 0 0 0 0 0 0 0 0 0 0 0 0 0 0 0 0 0 .4 0"/><feOffset dx="4.0" dy="4.0" in="blurOut2" result="blurOut3"/><feBlend in="SourceGraphic" in2="blurOut3" mode="normal"/></filter></defs><g><!--class it.polimi.ingsw.model.board.BlockType--><a href="BlockType.html" target="_top" xlink:actuate="onRequest" xlink:show="new" xlink:title="BlockType.html" xlink:type="simple"><rect fill="#FEFECE" filter="url(#f3jqk2vfgk3og)" height="139.2031" id="it.polimi.ingsw.model.board.BlockType" style="stroke: #A80036; stroke-width: 1.5;" width="163" x="7.5" y="8"/><ellipse cx="22.5" cy="28.0938" fill="#EB937F" rx="11" ry="11" style="stroke: #A80036; stroke-width: 1.0;"/><path d="M21.3594,28.8906 L21.3594,31.3906 L25.6875,31.3906 L25.6875,30.4688 Q25.6875,29.8594 25.9219,29.5938 Q26.1719,29.3281 26.5469,29.3281 Q26.9219,29.3281 27.1563,29.5938 Q27.3906,29.8594 27.3906,30.4688 L27.3906,33.0938 L19.3906,33.0938 Q18.7656,33.0938 18.5,32.8594 Q18.25,32.625 18.25,32.2344 Q18.25,31.8594 18.5156,31.625 Q18.7813,31.3906 19.3906,31.3906 L19.6563,31.3906 L19.6563,24.7344 L19.3906,24.7344 Q18.7656,24.7344 18.5,24.5 Q18.25,24.2656 18.25,23.875 Q18.25,23.5 18.5,23.2656 Q18.7656,23.0313 19.3906,23.0313 L27.0156,23.0313 L27.0156,25.625 Q27.0156,26.2344 26.7813,26.5 Q26.5625,26.75 26.1719,26.75 Q25.7969,26.75 25.5625,26.5 Q25.3281,26.2344 25.3281,25.625 L25.3281,24.7344 L21.3594,24.7344 L21.3594,27.1875 L22.8438,27.1875 Q22.8438,26.5313 22.9688,26.3438 Q23.2344,25.9375 23.7031,25.9375 Q24.0781,25.9375 24.3125,26.2031 Q24.5469,26.4531 24.5469,27.0625 L24.5469,29.0313 Q24.5469,29.5781 24.4219,29.7656 Q24.1563,30.1563 23.7031,30.1563 Q23.2344,30.1563 22.9688,29.75 Q22.8438,29.5625 22.8438,28.8906 L21.3594,28.8906 Z "/><text fill="#000000" font-family="sans-serif" font-size="14" lengthAdjust="spacingAndGlyphs" textLength="66" x="69" y="27.5332">BlockType</text><text fill="#000000" font-family="sans-serif" font-size="10" lengthAdjust="spacingAndGlyphs" textLength="131" x="36.5" y="40.9902">it.polimi.ingsw.model.board</text><line style="stroke: #A80036; stroke-width: 1.5;" x1="8.5" x2="169.5" y1="48.1875" y2="48.1875"/><ellipse cx="18.5" cy="60.6055" fill="none" rx="3" ry="3" style="stroke: #038048; stroke-width: 1.0;"/><text fill="#000000" font-family="sans-serif" font-size="11" lengthAdjust="spacingAndGlyphs" text-decoration="underline" textLength="44" x="27.5" y="63.6064">GROUND</text><ellipse cx="18.5" cy="74.4414" fill="none" rx="3" ry="3" style="stroke: #038048; stroke-width: 1.0;"/><text fill="#000000" font-family="sans-serif" font-size="11" lengthAdjust="spacingAndGlyphs" text-decoration="underline" textLength="41" x="27.5" y="77.4424">BLOCK1</text><ellipse cx="18.5" cy="88.2773" fill="none" rx="3" ry="3" style="stroke: #038048; stroke-width: 1.0;"/><text fill="#000000" font-family="sans-serif" font-size="11" lengthAdjust="spacingAndGlyphs" text-decoration="underline" textLength="41" x="27.5" y="91.2783">BLOCK2</text><ellipse cx="18.5" cy="102.1133" fill="none" rx="3" ry="3" style="stroke: #038048; stroke-width: 1.0;"/><text fill="#000000" font-family="sans-serif" font-size="11" lengthAdjust="spacingAndGlyphs" text-decoration="underline" textLength="41" x="27.5" y="105.1143">BLOCK3</text><ellipse cx="18.5" cy="115.9492" fill="none" rx="3" ry="3" style="stroke: #038048; stroke-width: 1.0;"/><text fill="#000000" font-family="sans-serif" font-size="11" lengthAdjust="spacingAndGlyphs" text-decoration="underline" textLength="42" x="27.5" y="118.9502">CUPOLA</text><line style="stroke: #A80036; stroke-width: 1.5;" x1="8.5" x2="169.5" y1="125.3672" y2="125.3672"/><ellipse cx="18.5" cy="137.7852" fill="#84BE84" rx="3" ry="3" style="stroke: #038048; stroke-width: 1.0;"/><text fill="#000000" font-family="sans-serif" font-size="11" lengthAdjust="spacingAndGlyphs" textLength="101" x="27.5" y="140.7861">getAbbreviation(): int</text></a><text fill="#888888" font-family="sans-serif" font-size="10" lengthAdjust="spacingAndGlyphs" textLength="190" x="0" y="167.3809">UMLDoclet 2.0.10, PlantUML 1.2019.08</text><!--
@startuml
    set namespaceSeparator none
    hide empty fields
    hide empty methods

    enum "<size:14>BlockType\n<size:10>it.polimi.ingsw.model.board" as it.polimi.ingsw.model.board.BlockType [[BlockType.html]] {
        {static} +GROUND
        {static} +BLOCK1
        {static} +BLOCK2
        {static} +BLOCK3
        {static} +CUPOLA
        +getAbbreviation(): int
    }

    center footer UMLDoclet 2.0.10, PlantUML 1.2019.08
@enduml

PlantUML version 1.2019.08(Sat Jul 13 21:25:14 CEST 2019)
(APACHE source distribution)
Java Runtime: Java(TM) SE Runtime Environment
JVM: Java HotSpot(TM) 64-Bit Server VM
Java Version: 14.0.1+7
Operating System: Windows 10
OS Version: 10.0
Default Encoding: Cp1252
Language: it
Country: IT
--></g></svg>