<?xml version="1.0" encoding="UTF-8" standalone="no"?><svg xmlns="http://www.w3.org/2000/svg" xmlns:xlink="http://www.w3.org/1999/xlink" contentScriptType="application/ecmascript" contentStyleType="text/css" height="245px" preserveAspectRatio="none" style="width:214px;height:245px;" version="1.1" viewBox="0 0 214 245" width="214px" zoomAndPan="magnify"><defs><filter height="300%" id="fbyh1nybphctw" width="300%" x="-1" y="-1"><feGaussianBlur result="blurOut" stdDeviation="2.0"/><feColorMatrix in="blurOut" result="blurOut2" type="matrix" values="0 0 0 0 0 0 0 0 0 0 0 0 0 0 0 0 0 0 .4 0"/><feOffset dx="4.0" dy="4.0" in="blurOut2" result="blurOut3"/><feBlend in="SourceGraphic" in2="blurOut3" mode="normal"/></filter></defs><g><!--class it.polimi.ingsw.model.board.Cell--><a href="Cell.html" target="_top" xlink:actuate="onRequest" xlink:show="new" xlink:title="Cell.html" xlink:type="simple"><rect fill="#FEFECE" filter="url(#fbyh1nybphctw)" height="103.5313" id="it.polimi.ingsw.model.board.Cell" style="stroke: #A80036; stroke-width: 1.5;" width="191" x="6" y="108"/><ellipse cx="33.6" cy="128.0938" fill="#ADD1B2" rx="11" ry="11" style="stroke: #A80036; stroke-width: 1.0;"/><path d="M36.3656,123.9688 Q36.5219,123.75 36.7094,123.6406 Q36.8969,123.5313 37.1156,123.5313 Q37.4906,123.5313 37.725,123.7969 Q37.9594,124.0469 37.9594,124.6563 L37.9594,126.1094 Q37.9594,126.7188 37.725,126.9844 Q37.4906,127.25 37.1156,127.25 Q36.7719,127.25 36.5688,127.0469 Q36.3656,126.8594 36.2563,126.3438 Q36.2094,125.9844 36.0219,125.7969 Q35.6938,125.4219 35.0844,125.2031 Q34.475,124.9844 33.85,124.9844 Q33.0844,124.9844 32.4438,125.3125 Q31.8188,125.6406 31.3188,126.3906 Q30.8344,127.1406 30.8344,128.1719 L30.8344,129.2656 Q30.8344,130.5 31.725,131.3281 Q32.6156,132.1406 34.2094,132.1406 Q35.1469,132.1406 35.8031,131.8906 Q36.1938,131.7344 36.6156,131.2969 Q36.8813,131.0313 37.0219,130.9531 Q37.1781,130.875 37.3813,130.875 Q37.7094,130.875 37.9594,131.1406 Q38.225,131.3906 38.225,131.7344 Q38.225,132.0781 37.8813,132.4844 Q37.3813,133.0625 36.5844,133.3906 Q35.5063,133.8438 34.2094,133.8438 Q32.6938,133.8438 31.4906,133.2188 Q30.5063,132.7188 29.8188,131.6563 Q29.1313,130.5781 29.1313,129.2969 L29.1313,128.1406 Q29.1313,126.8125 29.7406,125.6719 Q30.3656,124.5156 31.4594,123.9063 Q32.5531,123.2813 33.7875,123.2813 Q34.5219,123.2813 35.1625,123.4531 Q35.8188,123.6094 36.3656,123.9688 Z "/><text fill="#000000" font-family="sans-serif" font-size="14" lengthAdjust="spacingAndGlyphs" textLength="24" x="103.9" y="127.5332">Cell</text><text fill="#000000" font-family="sans-serif" font-size="10" lengthAdjust="spacingAndGlyphs" textLength="131" x="50.4" y="140.9902">it.polimi.ingsw.model.board</text><line style="stroke: #A80036; stroke-width: 1.5;" x1="7" x2="196" y1="148.1875" y2="148.1875"/><ellipse cx="17" cy="160.6055" fill="#84BE84" rx="3" ry="3" style="stroke: #038048; stroke-width: 1.0;"/><text fill="#000000" font-family="sans-serif" font-size="11" lengthAdjust="spacingAndGlyphs" textLength="149" x="26" y="163.6064">setBlockType(BlockType): void</text><ellipse cx="17" cy="174.4414" fill="#84BE84" rx="3" ry="3" style="stroke: #038048; stroke-width: 1.0;"/><text fill="#000000" font-family="sans-serif" font-size="11" lengthAdjust="spacingAndGlyphs" textLength="129" x="26" y="177.4424">getBlockType(): BlockType</text><ellipse cx="17" cy="188.2773" fill="#84BE84" rx="3" ry="3" style="stroke: #038048; stroke-width: 1.0;"/><text fill="#000000" font-family="sans-serif" font-size="11" lengthAdjust="spacingAndGlyphs" textLength="165" x="26" y="191.2783">setWorkerPresence(Worker): void</text><ellipse cx="17" cy="202.1133" fill="#84BE84" rx="3" ry="3" style="stroke: #038048; stroke-width: 1.0;"/><text fill="#000000" font-family="sans-serif" font-size="11" lengthAdjust="spacingAndGlyphs" textLength="145" x="26" y="205.1143">getWorkerPresence(): Worker</text></a><!--class java.io.Serializable--><rect fill="#FEFECE" filter="url(#fbyh1nybphctw)" height="40.1875" id="java.io.Serializable" style="stroke: #A80036; stroke-width: 1.5;" width="105" x="49" y="8"/><ellipse cx="64" cy="28.0938" fill="#B4A7E5" rx="11" ry="11" style="stroke: #A80036; stroke-width: 1.0;"/><path d="M64.9531,24.7344 L64.9531,31.3906 L66.6719,31.3906 Q67.2813,31.3906 67.5469,31.625 Q67.8125,31.8594 67.8125,32.25 Q67.8125,32.625 67.5469,32.8594 Q67.2813,33.0938 66.6719,33.0938 L61.5313,33.0938 Q60.9219,33.0938 60.6563,32.8594 Q60.3906,32.625 60.3906,32.2344 Q60.3906,31.8594 60.6563,31.625 Q60.9219,31.3906 61.5313,31.3906 L63.25,31.3906 L63.25,24.7344 L61.5313,24.7344 Q60.9219,24.7344 60.6563,24.5 Q60.3906,24.2656 60.3906,23.875 Q60.3906,23.5 60.6563,23.2656 Q60.9219,23.0313 61.5313,23.0313 L66.6719,23.0313 Q67.2813,23.0313 67.5469,23.2656 Q67.8125,23.5 67.8125,23.875 Q67.8125,24.2656 67.5469,24.5 Q67.2813,24.7344 66.6719,24.7344 L64.9531,24.7344 Z "/><text fill="#000000" font-family="sans-serif" font-size="14" font-style="italic" lengthAdjust="spacingAndGlyphs" textLength="73" x="78" y="27.5332">Serializable</text><text fill="#000000" font-family="sans-serif" font-size="10" font-style="italic" lengthAdjust="spacingAndGlyphs" textLength="31" x="99" y="40.9902">java.io</text><!--link java.io.Serializable to it.polimi.ingsw.model.board.Cell--><path d="M101.5,68.489 C101.5,80.934 101.5,94.862 101.5,107.991 " fill="none" id="java.io.Serializable-it.polimi.ingsw.model.board.Cell" style="stroke: #A80036; stroke-width: 1.0; stroke-dasharray: 7.0,7.0;"/><polygon fill="none" points="94.5001,68.182,101.5,48.182,108.5,68.182,94.5001,68.182" style="stroke: #A80036; stroke-width: 1.0;"/><text fill="#888888" font-family="sans-serif" font-size="10" lengthAdjust="spacingAndGlyphs" textLength="190" x="12.5" y="232.3809">UMLDoclet 2.0.10, PlantUML 1.2019.08</text><!--
@startuml
    set namespaceSeparator none
    hide empty fields
    hide empty methods

    class "<size:14>Cell\n<size:10>it.polimi.ingsw.model.board" as it.polimi.ingsw.model.board.Cell [[Cell.html]] {
        +setBlockType(BlockType): void
        +getBlockType(): BlockType
        +setWorkerPresence(Worker): void
        +getWorkerPresence(): Worker
    }

    interface "<size:14>Serializable\n<size:10>java.io" as java.io.Serializable

    java.io.Serializable <|.. it.polimi.ingsw.model.board.Cell

    center footer UMLDoclet 2.0.10, PlantUML 1.2019.08
@enduml

PlantUML version 1.2019.08(Sat Jul 13 21:25:14 CEST 2019)
(APACHE source distribution)
Java Runtime: Java(TM) SE Runtime Environment
JVM: Java HotSpot(TM) 64-Bit Server VM
Java Version: 14.0.1+7
Operating System: Windows 10
OS Version: 10.0
Default Encoding: Cp1252
Language: it
Country: IT
--></g></svg>