<?xml version="1.0" encoding="UTF-8" standalone="no"?><svg xmlns="http://www.w3.org/2000/svg" xmlns:xlink="http://www.w3.org/1999/xlink" contentScriptType="application/ecmascript" contentStyleType="text/css" height="328px" preserveAspectRatio="none" style="width:243px;height:328px;" version="1.1" viewBox="0 0 243 328" width="243px" zoomAndPan="magnify"><defs><filter height="300%" id="fbwuggsp6bgeu" width="300%" x="-1" y="-1"><feGaussianBlur result="blurOut" stdDeviation="2.0"/><feColorMatrix in="blurOut" result="blurOut2" type="matrix" values="0 0 0 0 0 0 0 0 0 0 0 0 0 0 0 0 0 0 .4 0"/><feOffset dx="4.0" dy="4.0" in="blurOut2" result="blurOut3"/><feBlend in="SourceGraphic" in2="blurOut3" mode="normal"/></filter></defs><g><!--class it.polimi.ingsw.model.board.Map--><a href="Map.html" target="_top" xlink:actuate="onRequest" xlink:show="new" xlink:title="Map.html" xlink:type="simple"><rect fill="#FEFECE" filter="url(#fbwuggsp6bgeu)" height="186.5469" id="it.polimi.ingsw.model.board.Map" style="stroke: #A80036; stroke-width: 1.5;" width="226" x="6" y="108"/><ellipse cx="49.35" cy="128.0938" fill="#ADD1B2" rx="11" ry="11" style="stroke: #A80036; stroke-width: 1.0;"/><path d="M52.1156,123.9688 Q52.2719,123.75 52.4594,123.6406 Q52.6469,123.5313 52.8656,123.5313 Q53.2406,123.5313 53.475,123.7969 Q53.7094,124.0469 53.7094,124.6563 L53.7094,126.1094 Q53.7094,126.7188 53.475,126.9844 Q53.2406,127.25 52.8656,127.25 Q52.5219,127.25 52.3188,127.0469 Q52.1156,126.8594 52.0063,126.3438 Q51.9594,125.9844 51.7719,125.7969 Q51.4438,125.4219 50.8344,125.2031 Q50.225,124.9844 49.6,124.9844 Q48.8344,124.9844 48.1938,125.3125 Q47.5688,125.6406 47.0688,126.3906 Q46.5844,127.1406 46.5844,128.1719 L46.5844,129.2656 Q46.5844,130.5 47.475,131.3281 Q48.3656,132.1406 49.9594,132.1406 Q50.8969,132.1406 51.5531,131.8906 Q51.9438,131.7344 52.3656,131.2969 Q52.6313,131.0313 52.7719,130.9531 Q52.9281,130.875 53.1313,130.875 Q53.4594,130.875 53.7094,131.1406 Q53.975,131.3906 53.975,131.7344 Q53.975,132.0781 53.6313,132.4844 Q53.1313,133.0625 52.3344,133.3906 Q51.2563,133.8438 49.9594,133.8438 Q48.4438,133.8438 47.2406,133.2188 Q46.2563,132.7188 45.5688,131.6563 Q44.8813,130.5781 44.8813,129.2969 L44.8813,128.1406 Q44.8813,126.8125 45.4906,125.6719 Q46.1156,124.5156 47.2094,123.9063 Q48.3031,123.2813 49.5375,123.2813 Q50.2719,123.2813 50.9125,123.4531 Q51.5688,123.6094 52.1156,123.9688 Z "/><text fill="#000000" font-family="sans-serif" font-size="14" lengthAdjust="spacingAndGlyphs" textLength="27" x="121.65" y="127.5332">Map</text><text fill="#000000" font-family="sans-serif" font-size="10" lengthAdjust="spacingAndGlyphs" textLength="131" x="69.65" y="140.9902">it.polimi.ingsw.model.board</text><line style="stroke: #A80036; stroke-width: 1.5;" x1="7" x2="231" y1="148.1875" y2="148.1875"/><ellipse cx="17" cy="160.6055" fill="#84BE84" rx="3" ry="3" style="stroke: #038048; stroke-width: 1.0;"/><text fill="#000000" font-family="sans-serif" font-size="11" lengthAdjust="spacingAndGlyphs" text-decoration="underline" textLength="90" x="26" y="163.6064">getInstance(): Map</text><polygon fill="#FFFF44" points="17,169.4414,21,173.4414,17,177.4414,13,173.4414" style="stroke: #B38D22; stroke-width: 1.0;"/><text fill="#000000" font-family="sans-serif" font-size="11" lengthAdjust="spacingAndGlyphs" textLength="72" x="26" y="177.4424">getMap(): Cell[]</text><ellipse cx="17" cy="188.2773" fill="#84BE84" rx="3" ry="3" style="stroke: #038048; stroke-width: 1.0;"/><text fill="#000000" font-family="sans-serif" font-size="11" lengthAdjust="spacingAndGlyphs" textLength="200" x="26" y="191.2783">setCellBlockType(int, int, BlockType): void</text><ellipse cx="17" cy="202.1133" fill="#84BE84" rx="3" ry="3" style="stroke: #038048; stroke-width: 1.0;"/><text fill="#000000" font-family="sans-serif" font-size="11" lengthAdjust="spacingAndGlyphs" textLength="174" x="26" y="205.1143">getCellBlockType(int, int): BlockType</text><ellipse cx="17" cy="215.9492" fill="#84BE84" rx="3" ry="3" style="stroke: #038048; stroke-width: 1.0;"/><text fill="#000000" font-family="sans-serif" font-size="11" lengthAdjust="spacingAndGlyphs" textLength="178" x="26" y="218.9502">setWorkerInCell(int, int, Worker): void</text><ellipse cx="17" cy="229.7852" fill="#84BE84" rx="3" ry="3" style="stroke: #038048; stroke-width: 1.0;"/><text fill="#000000" font-family="sans-serif" font-size="11" lengthAdjust="spacingAndGlyphs" textLength="152" x="26" y="232.7861">getWorkerInCell(int, int): Worker</text><ellipse cx="17" cy="243.6211" fill="#84BE84" rx="3" ry="3" style="stroke: #038048; stroke-width: 1.0;"/><text fill="#000000" font-family="sans-serif" font-size="11" lengthAdjust="spacingAndGlyphs" textLength="180" x="26" y="246.6221">addNumberOfCompleteTurrets(): void</text><ellipse cx="17" cy="257.457" fill="#84BE84" rx="3" ry="3" style="stroke: #038048; stroke-width: 1.0;"/><text fill="#000000" font-family="sans-serif" font-size="11" lengthAdjust="spacingAndGlyphs" textLength="168" x="26" y="260.458">getNumberOfCompleteTurrets(): int</text><ellipse cx="17" cy="271.293" fill="#84BE84" rx="3" ry="3" style="stroke: #038048; stroke-width: 1.0;"/><text fill="#000000" font-family="sans-serif" font-size="11" lengthAdjust="spacingAndGlyphs" textLength="158" x="26" y="274.2939">deleteWorkerInCell(Worker): void</text><ellipse cx="17" cy="285.1289" fill="#84BE84" rx="3" ry="3" style="stroke: #038048; stroke-width: 1.0;"/><text fill="#000000" font-family="sans-serif" font-size="11" lengthAdjust="spacingAndGlyphs" textLength="150" x="26" y="288.1299">noWorkerHere(int, int): boolean</text></a><!--class it.polimi.ingsw.observer.Observable--><a href="../../observer/Observable.html" target="_top" xlink:actuate="onRequest" xlink:show="new" xlink:title="../../observer/Observable.html" xlink:type="simple"><rect fill="#FEFECE" filter="url(#fbwuggsp6bgeu)" height="40.1875" id="it.polimi.ingsw.observer.Observable" style="stroke: #A80036; stroke-width: 1.5;" width="181" x="28.5" y="8"/><ellipse cx="43.5" cy="28.0938" fill="#ADD1B2" rx="11" ry="11" style="stroke: #A80036; stroke-width: 1.0;"/><path d="M46.2656,23.9688 Q46.4219,23.75 46.6094,23.6406 Q46.7969,23.5313 47.0156,23.5313 Q47.3906,23.5313 47.625,23.7969 Q47.8594,24.0469 47.8594,24.6563 L47.8594,26.1094 Q47.8594,26.7188 47.625,26.9844 Q47.3906,27.25 47.0156,27.25 Q46.6719,27.25 46.4688,27.0469 Q46.2656,26.8594 46.1563,26.3438 Q46.1094,25.9844 45.9219,25.7969 Q45.5938,25.4219 44.9844,25.2031 Q44.375,24.9844 43.75,24.9844 Q42.9844,24.9844 42.3438,25.3125 Q41.7188,25.6406 41.2188,26.3906 Q40.7344,27.1406 40.7344,28.1719 L40.7344,29.2656 Q40.7344,30.5 41.625,31.3281 Q42.5156,32.1406 44.1094,32.1406 Q45.0469,32.1406 45.7031,31.8906 Q46.0938,31.7344 46.5156,31.2969 Q46.7813,31.0313 46.9219,30.9531 Q47.0781,30.875 47.2813,30.875 Q47.6094,30.875 47.8594,31.1406 Q48.125,31.3906 48.125,31.7344 Q48.125,32.0781 47.7813,32.4844 Q47.2813,33.0625 46.4844,33.3906 Q45.4063,33.8438 44.1094,33.8438 Q42.5938,33.8438 41.3906,33.2188 Q40.4063,32.7188 39.7188,31.6563 Q39.0313,30.5781 39.0313,29.2969 L39.0313,28.1406 Q39.0313,26.8125 39.6406,25.6719 Q40.2656,24.5156 41.3594,23.9063 Q42.4531,23.2813 43.6875,23.2813 Q44.4219,23.2813 45.0625,23.4531 Q45.7188,23.6094 46.2656,23.9688 Z "/><text fill="#000000" font-family="sans-serif" font-size="14" lengthAdjust="spacingAndGlyphs" textLength="73" x="76" y="27.5332">Observable</text><text fill="#000000" font-family="sans-serif" font-size="10" lengthAdjust="spacingAndGlyphs" textLength="110" x="57.5" y="40.9902">it.polimi.ingsw.observer</text><rect fill="#FFFFFF" height="17.0938" style="stroke: #000000; stroke-width: 1.0; stroke-dasharray: 2.0,2.0;" width="37" x="175.5" y="5"/><text fill="#000000" font-family="sans-serif" font-size="12" font-style="italic" lengthAdjust="spacingAndGlyphs" textLength="35" x="176.5" y="18.457">Player</text></a><!--link it.polimi.ingsw.observer.Observable to it.polimi.ingsw.model.board.Map--><path d="M119,68.465 C119,80.398 119,94.038 119,107.919 " fill="none" id="it.polimi.ingsw.observer.Observable-it.polimi.ingsw.model.board.Map" style="stroke: #A80036; stroke-width: 1.0;"/><polygon fill="none" points="112,68.009,119,48.009,126,68.009,112,68.009" style="stroke: #A80036; stroke-width: 1.0;"/><text fill="#888888" font-family="sans-serif" font-size="10" lengthAdjust="spacingAndGlyphs" textLength="190" x="30" y="315.3809">UMLDoclet 2.0.10, PlantUML 1.2019.08</text><!--
@startuml
    set namespaceSeparator none
    hide empty fields
    hide empty methods

    class "<size:14>Map\n<size:10>it.polimi.ingsw.model.board" as it.polimi.ingsw.model.board.Map [[Map.html]] {
        {static} +getInstance(): Map
        #getMap(): Cell[]
        +setCellBlockType(int, int, BlockType): void
        +getCellBlockType(int, int): BlockType
        +setWorkerInCell(int, int, Worker): void
        +getWorkerInCell(int, int): Worker
        +addNumberOfCompleteTurrets(): void
        +getNumberOfCompleteTurrets(): int
        +deleteWorkerInCell(Worker): void
        +noWorkerHere(int, int): boolean
    }

    class "<size:14>Observable\n<size:10>it.polimi.ingsw.observer" as it.polimi.ingsw.observer.Observable<Player> [[../../observer/Observable.html]]

    it.polimi.ingsw.observer.Observable <|- - it.polimi.ingsw.model.board.Map

    center footer UMLDoclet 2.0.10, PlantUML 1.2019.08
@enduml

PlantUML version 1.2019.08(Sat Jul 13 21:25:14 CEST 2019)
(APACHE source distribution)
Java Runtime: Java(TM) SE Runtime Environment
JVM: Java HotSpot(TM) 64-Bit Server VM
Java Version: 14.0.1+7
Operating System: Windows 10
OS Version: 10.0
Default Encoding: Cp1252
Language: it
Country: IT
--></g></svg>