<?xml version="1.0" encoding="UTF-8" standalone="no"?><svg xmlns="http://www.w3.org/2000/svg" xmlns:xlink="http://www.w3.org/1999/xlink" contentScriptType="application/ecmascript" contentStyleType="text/css" height="245px" preserveAspectRatio="none" style="width:219px;height:245px;" version="1.1" viewBox="0 0 219 245" width="219px" zoomAndPan="magnify"><defs><filter height="300%" id="f1km5w2ot4hrnz" width="300%" x="-1" y="-1"><feGaussianBlur result="blurOut" stdDeviation="2.0"/><feColorMatrix in="blurOut" result="blurOut2" type="matrix" values="0 0 0 0 0 0 0 0 0 0 0 0 0 0 0 0 0 0 .4 0"/><feOffset dx="4.0" dy="4.0" in="blurOut2" result="blurOut3"/><feBlend in="SourceGraphic" in2="blurOut3" mode="normal"/></filter></defs><g><!--class it.polimi.ingsw.model.board.MapCopy--><a href="MapCopy.html" target="_top" xlink:actuate="onRequest" xlink:show="new" xlink:title="MapCopy.html" xlink:type="simple"><rect fill="#FEFECE" filter="url(#f1km5w2ot4hrnz)" height="103.5313" id="it.polimi.ingsw.model.board.MapCopy" style="stroke: #A80036; stroke-width: 1.5;" width="200" x="6" y="108"/><ellipse cx="37.65" cy="128.0938" fill="#ADD1B2" rx="11" ry="11" style="stroke: #A80036; stroke-width: 1.0;"/><path d="M40.4156,123.9688 Q40.5719,123.75 40.7594,123.6406 Q40.9469,123.5313 41.1656,123.5313 Q41.5406,123.5313 41.775,123.7969 Q42.0094,124.0469 42.0094,124.6563 L42.0094,126.1094 Q42.0094,126.7188 41.775,126.9844 Q41.5406,127.25 41.1656,127.25 Q40.8219,127.25 40.6188,127.0469 Q40.4156,126.8594 40.3063,126.3438 Q40.2594,125.9844 40.0719,125.7969 Q39.7438,125.4219 39.1344,125.2031 Q38.525,124.9844 37.9,124.9844 Q37.1344,124.9844 36.4938,125.3125 Q35.8688,125.6406 35.3688,126.3906 Q34.8844,127.1406 34.8844,128.1719 L34.8844,129.2656 Q34.8844,130.5 35.775,131.3281 Q36.6656,132.1406 38.2594,132.1406 Q39.1969,132.1406 39.8531,131.8906 Q40.2438,131.7344 40.6656,131.2969 Q40.9313,131.0313 41.0719,130.9531 Q41.2281,130.875 41.4313,130.875 Q41.7594,130.875 42.0094,131.1406 Q42.275,131.3906 42.275,131.7344 Q42.275,132.0781 41.9313,132.4844 Q41.4313,133.0625 40.6344,133.3906 Q39.5563,133.8438 38.2594,133.8438 Q36.7438,133.8438 35.5406,133.2188 Q34.5563,132.7188 33.8688,131.6563 Q33.1813,130.5781 33.1813,129.2969 L33.1813,128.1406 Q33.1813,126.8125 33.7906,125.6719 Q34.4156,124.5156 35.5094,123.9063 Q36.6031,123.2813 37.8375,123.2813 Q38.5719,123.2813 39.2125,123.4531 Q39.8688,123.6094 40.4156,123.9688 Z "/><text fill="#000000" font-family="sans-serif" font-size="14" lengthAdjust="spacingAndGlyphs" textLength="60" x="90.85" y="127.5332">MapCopy</text><text fill="#000000" font-family="sans-serif" font-size="10" lengthAdjust="spacingAndGlyphs" textLength="131" x="55.35" y="140.9902">it.polimi.ingsw.model.board</text><line style="stroke: #A80036; stroke-width: 1.5;" x1="7" x2="205" y1="148.1875" y2="148.1875"/><ellipse cx="17" cy="160.6055" fill="#84BE84" rx="3" ry="3" style="stroke: #038048; stroke-width: 1.0;"/><text fill="#000000" font-family="sans-serif" font-size="11" lengthAdjust="spacingAndGlyphs" textLength="174" x="26" y="163.6064">getCellBlockType(int, int): BlockType</text><ellipse cx="17" cy="174.4414" fill="#84BE84" rx="3" ry="3" style="stroke: #038048; stroke-width: 1.0;"/><text fill="#000000" font-family="sans-serif" font-size="11" lengthAdjust="spacingAndGlyphs" textLength="152" x="26" y="177.4424">getWorkerInCell(int, int): Worker</text><ellipse cx="17" cy="188.2773" fill="#84BE84" rx="3" ry="3" style="stroke: #038048; stroke-width: 1.0;"/><text fill="#000000" font-family="sans-serif" font-size="11" lengthAdjust="spacingAndGlyphs" textLength="150" x="26" y="191.2783">noWorkerHere(int, int): boolean</text><ellipse cx="17" cy="202.1133" fill="#84BE84" rx="3" ry="3" style="stroke: #038048; stroke-width: 1.0;"/><text fill="#000000" font-family="sans-serif" font-size="11" lengthAdjust="spacingAndGlyphs" textLength="55" x="26" y="205.1143">print(): void</text></a><!--class java.io.Serializable--><rect fill="#FEFECE" filter="url(#f1km5w2ot4hrnz)" height="40.1875" id="java.io.Serializable" style="stroke: #A80036; stroke-width: 1.5;" width="105" x="53.5" y="8"/><ellipse cx="68.5" cy="28.0938" fill="#B4A7E5" rx="11" ry="11" style="stroke: #A80036; stroke-width: 1.0;"/><path d="M69.4531,24.7344 L69.4531,31.3906 L71.1719,31.3906 Q71.7813,31.3906 72.0469,31.625 Q72.3125,31.8594 72.3125,32.25 Q72.3125,32.625 72.0469,32.8594 Q71.7813,33.0938 71.1719,33.0938 L66.0313,33.0938 Q65.4219,33.0938 65.1563,32.8594 Q64.8906,32.625 64.8906,32.2344 Q64.8906,31.8594 65.1563,31.625 Q65.4219,31.3906 66.0313,31.3906 L67.75,31.3906 L67.75,24.7344 L66.0313,24.7344 Q65.4219,24.7344 65.1563,24.5 Q64.8906,24.2656 64.8906,23.875 Q64.8906,23.5 65.1563,23.2656 Q65.4219,23.0313 66.0313,23.0313 L71.1719,23.0313 Q71.7813,23.0313 72.0469,23.2656 Q72.3125,23.5 72.3125,23.875 Q72.3125,24.2656 72.0469,24.5 Q71.7813,24.7344 71.1719,24.7344 L69.4531,24.7344 Z "/><text fill="#000000" font-family="sans-serif" font-size="14" font-style="italic" lengthAdjust="spacingAndGlyphs" textLength="73" x="82.5" y="27.5332">Serializable</text><text fill="#000000" font-family="sans-serif" font-size="10" font-style="italic" lengthAdjust="spacingAndGlyphs" textLength="31" x="103.5" y="40.9902">java.io</text><!--link java.io.Serializable to it.polimi.ingsw.model.board.MapCopy--><path d="M106,68.489 C106,80.934 106,94.862 106,107.991 " fill="none" id="java.io.Serializable-it.polimi.ingsw.model.board.MapCopy" style="stroke: #A80036; stroke-width: 1.0; stroke-dasharray: 7.0,7.0;"/><polygon fill="none" points="99.0001,68.182,106,48.182,113,68.182,99.0001,68.182" style="stroke: #A80036; stroke-width: 1.0;"/><text fill="#888888" font-family="sans-serif" font-size="10" lengthAdjust="spacingAndGlyphs" textLength="190" x="17" y="232.3809">UMLDoclet 2.0.10, PlantUML 1.2019.08</text><!--
@startuml
    set namespaceSeparator none
    hide empty fields
    hide empty methods

    class "<size:14>MapCopy\n<size:10>it.polimi.ingsw.model.board" as it.polimi.ingsw.model.board.MapCopy [[MapCopy.html]] {
        +getCellBlockType(int, int): BlockType
        +getWorkerInCell(int, int): Worker
        +noWorkerHere(int, int): boolean
        +print(): void
    }

    interface "<size:14>Serializable\n<size:10>java.io" as java.io.Serializable

    java.io.Serializable <|.. it.polimi.ingsw.model.board.MapCopy

    center footer UMLDoclet 2.0.10, PlantUML 1.2019.08
@enduml

PlantUML version 1.2019.08(Sat Jul 13 21:25:14 CEST 2019)
(APACHE source distribution)
Java Runtime: Java(TM) SE Runtime Environment
JVM: Java HotSpot(TM) 64-Bit Server VM
Java Version: 14.0.1+7
Operating System: Windows 10
OS Version: 10.0
Default Encoding: Cp1252
Language: it
Country: IT
--></g></svg>