<?xml version="1.0" encoding="UTF-8" standalone="no"?><svg xmlns="http://www.w3.org/2000/svg" xmlns:xlink="http://www.w3.org/1999/xlink" contentScriptType="application/ecmascript" contentStyleType="text/css" height="780px" preserveAspectRatio="none" style="width:633px;height:780px;" version="1.1" viewBox="0 0 633 780" width="633px" zoomAndPan="magnify"><defs><filter height="300%" id="frww2yushtj" width="300%" x="-1" y="-1"><feGaussianBlur result="blurOut" stdDeviation="2.0"/><feColorMatrix in="blurOut" result="blurOut2" type="matrix" values="0 0 0 0 0 0 0 0 0 0 0 0 0 0 0 0 0 0 .4 0"/><feOffset dx="4.0" dy="4.0" in="blurOut2" result="blurOut3"/><feBlend in="SourceGraphic" in2="blurOut3" mode="normal"/></filter></defs><g><!--cluster it.polimi.ingsw.model.board--><polygon fill="#FFFFFF" filter="url(#frww2yushtj)" points="39.0051,157,237.0051,157,244.0051,180.6094,611.005,180.6094,611.005,731,39.0051,731,39.0051,157" style="stroke: #000000; stroke-width: 1.5;"/><line style="stroke: #000000; stroke-width: 1.5;" x1="39.0051" x2="244.0051" y1="180.6094" y2="180.6094"/><text fill="#000000" font-family="sans-serif" font-size="14" font-weight="bold" lengthAdjust="spacingAndGlyphs" textLength="192" x="43.0051" y="173.5332">it.polimi.ingsw.model.board</text><!--cluster java.io--><polygon fill="#FFFFFF" filter="url(#frww2yushtj)" points="52.0051,24,104.0051,24,111.0051,47.6094,184.005,47.6094,184.005,124,52.0051,124,52.0051,24" style="stroke: #000000; stroke-width: 1.5;"/><line style="stroke: #000000; stroke-width: 1.5;" x1="52.0051" x2="111.0051" y1="47.6094" y2="47.6094"/><text fill="#000000" font-family="sans-serif" font-size="14" font-weight="bold" lengthAdjust="spacingAndGlyphs" textLength="46" x="56.0051" y="40.5332">java.io</text><!--cluster it.polimi.ingsw.observer--><polygon fill="#FFFFFF" filter="url(#frww2yushtj)" points="311.005,24,486.005,24,493.005,47.6094,496.005,47.6094,496.005,124,311.005,124,311.005,24" style="stroke: #000000; stroke-width: 1.5;"/><line style="stroke: #000000; stroke-width: 1.5;" x1="311.005" x2="493.005" y1="47.6094" y2="47.6094"/><text fill="#000000" font-family="sans-serif" font-size="14" font-weight="bold" lengthAdjust="spacingAndGlyphs" textLength="169" x="315.005" y="40.5332">it.polimi.ingsw.observer</text><!--class it.polimi.ingsw.model.board.BlockType--><a href="BlockType.html" target="_top" xlink:actuate="onRequest" xlink:show="new" xlink:title="BlockType.html" xlink:type="simple"><rect fill="#FEFECE" filter="url(#frww2yushtj)" height="131.0156" id="it.polimi.ingsw.model.board.BlockType" style="stroke: #A80036; stroke-width: 1.5;" width="127" x="150.505" y="584"/><ellipse cx="183.055" cy="600" fill="#EB937F" rx="11" ry="11" style="stroke: #A80036; stroke-width: 1.0;"/><path d="M181.9144,600.7969 L181.9144,603.2969 L186.2425,603.2969 L186.2425,602.375 Q186.2425,601.7656 186.4769,601.5 Q186.7269,601.2344 187.1019,601.2344 Q187.4769,601.2344 187.7113,601.5 Q187.9456,601.7656 187.9456,602.375 L187.9456,605 L179.9456,605 Q179.3206,605 179.055,604.7656 Q178.805,604.5313 178.805,604.1406 Q178.805,603.7656 179.0706,603.5313 Q179.3363,603.2969 179.9456,603.2969 L180.2113,603.2969 L180.2113,596.6406 L179.9456,596.6406 Q179.3206,596.6406 179.055,596.4063 Q178.805,596.1719 178.805,595.7813 Q178.805,595.4063 179.055,595.1719 Q179.3206,594.9375 179.9456,594.9375 L187.5706,594.9375 L187.5706,597.5313 Q187.5706,598.1406 187.3363,598.4063 Q187.1175,598.6563 186.7269,598.6563 Q186.3519,598.6563 186.1175,598.4063 Q185.8831,598.1406 185.8831,597.5313 L185.8831,596.6406 L181.9144,596.6406 L181.9144,599.0938 L183.3988,599.0938 Q183.3988,598.4375 183.5238,598.25 Q183.7894,597.8438 184.2581,597.8438 Q184.6331,597.8438 184.8675,598.1094 Q185.1019,598.3594 185.1019,598.9688 L185.1019,600.9375 Q185.1019,601.4844 184.9769,601.6719 Q184.7113,602.0625 184.2581,602.0625 Q183.7894,602.0625 183.5238,601.6563 Q183.3988,601.4688 183.3988,600.7969 L181.9144,600.7969 Z "/><text fill="#000000" font-family="sans-serif" font-size="12" lengthAdjust="spacingAndGlyphs" textLength="56" x="200.955" y="604.9102">BlockType</text><line style="stroke: #A80036; stroke-width: 1.5;" x1="151.505" x2="276.505" y1="616" y2="616"/><ellipse cx="161.505" cy="628.418" fill="none" rx="3" ry="3" style="stroke: #038048; stroke-width: 1.0;"/><text fill="#000000" font-family="sans-serif" font-size="11" lengthAdjust="spacingAndGlyphs" text-decoration="underline" textLength="44" x="170.505" y="631.4189">GROUND</text><ellipse cx="161.505" cy="642.2539" fill="none" rx="3" ry="3" style="stroke: #038048; stroke-width: 1.0;"/><text fill="#000000" font-family="sans-serif" font-size="11" lengthAdjust="spacingAndGlyphs" text-decoration="underline" textLength="41" x="170.505" y="645.2549">BLOCK1</text><ellipse cx="161.505" cy="656.0898" fill="none" rx="3" ry="3" style="stroke: #038048; stroke-width: 1.0;"/><text fill="#000000" font-family="sans-serif" font-size="11" lengthAdjust="spacingAndGlyphs" text-decoration="underline" textLength="41" x="170.505" y="659.0908">BLOCK2</text><ellipse cx="161.505" cy="669.9258" fill="none" rx="3" ry="3" style="stroke: #038048; stroke-width: 1.0;"/><text fill="#000000" font-family="sans-serif" font-size="11" lengthAdjust="spacingAndGlyphs" text-decoration="underline" textLength="41" x="170.505" y="672.9268">BLOCK3</text><ellipse cx="161.505" cy="683.7617" fill="none" rx="3" ry="3" style="stroke: #038048; stroke-width: 1.0;"/><text fill="#000000" font-family="sans-serif" font-size="11" lengthAdjust="spacingAndGlyphs" text-decoration="underline" textLength="42" x="170.505" y="686.7627">CUPOLA</text><line style="stroke: #A80036; stroke-width: 1.5;" x1="151.505" x2="276.505" y1="693.1797" y2="693.1797"/><ellipse cx="161.505" cy="705.5977" fill="#84BE84" rx="3" ry="3" style="stroke: #038048; stroke-width: 1.0;"/><text fill="#000000" font-family="sans-serif" font-size="11" lengthAdjust="spacingAndGlyphs" textLength="101" x="170.505" y="708.5986">getAbbreviation(): int</text></a><!--class it.polimi.ingsw.model.board.Cell--><a href="Cell.html" target="_top" xlink:actuate="onRequest" xlink:show="new" xlink:title="Cell.html" xlink:type="simple"><rect fill="#FEFECE" filter="url(#frww2yushtj)" height="75.6719" id="it.polimi.ingsw.model.board.Cell" style="stroke: #A80036; stroke-width: 1.5;" width="191" x="118.505" y="430"/><ellipse cx="198.755" cy="446" fill="#ADD1B2" rx="11" ry="11" style="stroke: #A80036; stroke-width: 1.0;"/><path d="M201.5206,441.875 Q201.6769,441.6563 201.8644,441.5469 Q202.0519,441.4375 202.2706,441.4375 Q202.6456,441.4375 202.88,441.7031 Q203.1144,441.9531 203.1144,442.5625 L203.1144,444.0156 Q203.1144,444.625 202.88,444.8906 Q202.6456,445.1563 202.2706,445.1563 Q201.9269,445.1563 201.7238,444.9531 Q201.5206,444.7656 201.4113,444.25 Q201.3644,443.8906 201.1769,443.7031 Q200.8488,443.3281 200.2394,443.1094 Q199.63,442.8906 199.005,442.8906 Q198.2394,442.8906 197.5988,443.2188 Q196.9738,443.5469 196.4738,444.2969 Q195.9894,445.0469 195.9894,446.0781 L195.9894,447.1719 Q195.9894,448.4063 196.88,449.2344 Q197.7706,450.0469 199.3644,450.0469 Q200.3019,450.0469 200.9581,449.7969 Q201.3488,449.6406 201.7706,449.2031 Q202.0363,448.9375 202.1769,448.8594 Q202.3331,448.7813 202.5363,448.7813 Q202.8644,448.7813 203.1144,449.0469 Q203.38,449.2969 203.38,449.6406 Q203.38,449.9844 203.0363,450.3906 Q202.5363,450.9688 201.7394,451.2969 Q200.6613,451.75 199.3644,451.75 Q197.8488,451.75 196.6456,451.125 Q195.6613,450.625 194.9738,449.5625 Q194.2863,448.4844 194.2863,447.2031 L194.2863,446.0469 Q194.2863,444.7188 194.8956,443.5781 Q195.5206,442.4219 196.6144,441.8125 Q197.7081,441.1875 198.9425,441.1875 Q199.6769,441.1875 200.3175,441.3594 Q200.9738,441.5156 201.5206,441.875 Z "/><text fill="#000000" font-family="sans-serif" font-size="12" lengthAdjust="spacingAndGlyphs" textLength="22" x="219.255" y="450.9102">Cell</text><line style="stroke: #A80036; stroke-width: 1.5;" x1="119.505" x2="308.505" y1="462" y2="462"/><line style="stroke: #A80036; stroke-width: 1.5;" x1="119.505" x2="308.505" y1="470" y2="470"/><ellipse cx="129.505" cy="482.418" fill="#84BE84" rx="3" ry="3" style="stroke: #038048; stroke-width: 1.0;"/><text fill="#000000" font-family="sans-serif" font-size="11" lengthAdjust="spacingAndGlyphs" textLength="165" x="138.505" y="485.4189">setWorkerPresence(Worker): void</text><ellipse cx="129.505" cy="496.2539" fill="#84BE84" rx="3" ry="3" style="stroke: #038048; stroke-width: 1.0;"/><text fill="#000000" font-family="sans-serif" font-size="11" lengthAdjust="spacingAndGlyphs" textLength="145" x="138.505" y="499.2549">getWorkerPresence(): Worker</text></a><!--class it.polimi.ingsw.model.board.Map--><a href="Map.html" target="_top" xlink:actuate="onRequest" xlink:show="new" xlink:title="Map.html" xlink:type="simple"><rect fill="#FEFECE" filter="url(#frww2yushtj)" height="158.6875" id="it.polimi.ingsw.model.board.Map" style="stroke: #A80036; stroke-width: 1.5;" width="226" x="290.005" y="193"/><ellipse cx="387.255" cy="209" fill="#ADD1B2" rx="11" ry="11" style="stroke: #A80036; stroke-width: 1.0;"/><path d="M390.0206,204.875 Q390.1769,204.6563 390.3644,204.5469 Q390.5519,204.4375 390.7706,204.4375 Q391.1456,204.4375 391.38,204.7031 Q391.6144,204.9531 391.6144,205.5625 L391.6144,207.0156 Q391.6144,207.625 391.38,207.8906 Q391.1456,208.1563 390.7706,208.1563 Q390.4269,208.1563 390.2238,207.9531 Q390.0206,207.7656 389.9113,207.25 Q389.8644,206.8906 389.6769,206.7031 Q389.3488,206.3281 388.7394,206.1094 Q388.13,205.8906 387.505,205.8906 Q386.7394,205.8906 386.0988,206.2188 Q385.4738,206.5469 384.9738,207.2969 Q384.4894,208.0469 384.4894,209.0781 L384.4894,210.1719 Q384.4894,211.4063 385.38,212.2344 Q386.2706,213.0469 387.8644,213.0469 Q388.8019,213.0469 389.4581,212.7969 Q389.8488,212.6406 390.2706,212.2031 Q390.5363,211.9375 390.6769,211.8594 Q390.8331,211.7813 391.0363,211.7813 Q391.3644,211.7813 391.6144,212.0469 Q391.88,212.2969 391.88,212.6406 Q391.88,212.9844 391.5363,213.3906 Q391.0363,213.9688 390.2394,214.2969 Q389.1613,214.75 387.8644,214.75 Q386.3488,214.75 385.1456,214.125 Q384.1613,213.625 383.4738,212.5625 Q382.7863,211.4844 382.7863,210.2031 L382.7863,209.0469 Q382.7863,207.7188 383.3956,206.5781 Q384.0206,205.4219 385.1144,204.8125 Q386.2081,204.1875 387.4425,204.1875 Q388.1769,204.1875 388.8175,204.3594 Q389.4738,204.5156 390.0206,204.875 Z "/><text fill="#000000" font-family="sans-serif" font-size="12" lengthAdjust="spacingAndGlyphs" textLength="23" x="407.755" y="213.9102">Map</text><line style="stroke: #A80036; stroke-width: 1.5;" x1="291.005" x2="515.005" y1="225" y2="225"/><line style="stroke: #A80036; stroke-width: 1.5;" x1="291.005" x2="515.005" y1="233" y2="233"/><ellipse cx="301.005" cy="245.418" fill="#84BE84" rx="3" ry="3" style="stroke: #038048; stroke-width: 1.0;"/><text fill="#000000" font-family="sans-serif" font-size="11" lengthAdjust="spacingAndGlyphs" textLength="200" x="310.005" y="248.4189">setCellBlockType(int, int, BlockType): void</text><ellipse cx="301.005" cy="259.2539" fill="#84BE84" rx="3" ry="3" style="stroke: #038048; stroke-width: 1.0;"/><text fill="#000000" font-family="sans-serif" font-size="11" lengthAdjust="spacingAndGlyphs" textLength="174" x="310.005" y="262.2549">getCellBlockType(int, int): BlockType</text><ellipse cx="301.005" cy="273.0898" fill="#84BE84" rx="3" ry="3" style="stroke: #038048; stroke-width: 1.0;"/><text fill="#000000" font-family="sans-serif" font-size="11" lengthAdjust="spacingAndGlyphs" textLength="178" x="310.005" y="276.0908">setWorkerInCell(int, int, Worker): void</text><ellipse cx="301.005" cy="286.9258" fill="#84BE84" rx="3" ry="3" style="stroke: #038048; stroke-width: 1.0;"/><text fill="#000000" font-family="sans-serif" font-size="11" lengthAdjust="spacingAndGlyphs" textLength="152" x="310.005" y="289.9268">getWorkerInCell(int, int): Worker</text><ellipse cx="301.005" cy="300.7617" fill="#84BE84" rx="3" ry="3" style="stroke: #038048; stroke-width: 1.0;"/><text fill="#000000" font-family="sans-serif" font-size="11" lengthAdjust="spacingAndGlyphs" textLength="180" x="310.005" y="303.7627">addNumberOfCompleteTurrets(): void</text><ellipse cx="301.005" cy="314.5977" fill="#84BE84" rx="3" ry="3" style="stroke: #038048; stroke-width: 1.0;"/><text fill="#000000" font-family="sans-serif" font-size="11" lengthAdjust="spacingAndGlyphs" textLength="168" x="310.005" y="317.5986">getNumberOfCompleteTurrets(): int</text><ellipse cx="301.005" cy="328.4336" fill="#84BE84" rx="3" ry="3" style="stroke: #038048; stroke-width: 1.0;"/><text fill="#000000" font-family="sans-serif" font-size="11" lengthAdjust="spacingAndGlyphs" textLength="158" x="310.005" y="331.4346">deleteWorkerInCell(Worker): void</text><ellipse cx="301.005" cy="342.2695" fill="#84BE84" rx="3" ry="3" style="stroke: #038048; stroke-width: 1.0;"/><text fill="#000000" font-family="sans-serif" font-size="11" lengthAdjust="spacingAndGlyphs" textLength="150" x="310.005" y="345.2705">noWorkerHere(int, int): boolean</text></a><!--class it.polimi.ingsw.model.board.MapCopy--><a href="MapCopy.html" target="_top" xlink:actuate="onRequest" xlink:show="new" xlink:title="MapCopy.html" xlink:type="simple"><rect fill="#FEFECE" filter="url(#frww2yushtj)" height="103.3438" id="it.polimi.ingsw.model.board.MapCopy" style="stroke: #A80036; stroke-width: 1.5;" width="200" x="55.0051" y="221"/><ellipse cx="125.2551" cy="237" fill="#ADD1B2" rx="11" ry="11" style="stroke: #A80036; stroke-width: 1.0;"/><path d="M128.0207,232.875 Q128.177,232.6563 128.3645,232.5469 Q128.552,232.4375 128.7707,232.4375 Q129.1457,232.4375 129.3801,232.7031 Q129.6145,232.9531 129.6145,233.5625 L129.6145,235.0156 Q129.6145,235.625 129.3801,235.8906 Q129.1457,236.1563 128.7707,236.1563 Q128.427,236.1563 128.2239,235.9531 Q128.0207,235.7656 127.9114,235.25 Q127.8645,234.8906 127.677,234.7031 Q127.3489,234.3281 126.7395,234.1094 Q126.1301,233.8906 125.5051,233.8906 Q124.7395,233.8906 124.0989,234.2188 Q123.4739,234.5469 122.9739,235.2969 Q122.4895,236.0469 122.4895,237.0781 L122.4895,238.1719 Q122.4895,239.4063 123.3801,240.2344 Q124.2707,241.0469 125.8645,241.0469 Q126.802,241.0469 127.4582,240.7969 Q127.8489,240.6406 128.2707,240.2031 Q128.5364,239.9375 128.677,239.8594 Q128.8332,239.7813 129.0364,239.7813 Q129.3645,239.7813 129.6145,240.0469 Q129.8801,240.2969 129.8801,240.6406 Q129.8801,240.9844 129.5364,241.3906 Q129.0364,241.9688 128.2395,242.2969 Q127.1614,242.75 125.8645,242.75 Q124.3489,242.75 123.1457,242.125 Q122.1614,241.625 121.4739,240.5625 Q120.7864,239.4844 120.7864,238.2031 L120.7864,237.0469 Q120.7864,235.7188 121.3957,234.5781 Q122.0207,233.4219 123.1145,232.8125 Q124.2082,232.1875 125.4426,232.1875 Q126.177,232.1875 126.8176,232.3594 Q127.4739,232.5156 128.0207,232.875 Z "/><text fill="#000000" font-family="sans-serif" font-size="12" lengthAdjust="spacingAndGlyphs" textLength="51" x="145.7551" y="241.9102">MapCopy</text><line style="stroke: #A80036; stroke-width: 1.5;" x1="56.0051" x2="254.0051" y1="253" y2="253"/><line style="stroke: #A80036; stroke-width: 1.5;" x1="56.0051" x2="254.0051" y1="261" y2="261"/><ellipse cx="66.0051" cy="273.418" fill="#84BE84" rx="3" ry="3" style="stroke: #038048; stroke-width: 1.0;"/><text fill="#000000" font-family="sans-serif" font-size="11" lengthAdjust="spacingAndGlyphs" textLength="174" x="75.0051" y="276.4189">getCellBlockType(int, int): BlockType</text><ellipse cx="66.0051" cy="287.2539" fill="#84BE84" rx="3" ry="3" style="stroke: #038048; stroke-width: 1.0;"/><text fill="#000000" font-family="sans-serif" font-size="11" lengthAdjust="spacingAndGlyphs" textLength="152" x="75.0051" y="290.2549">getWorkerInCell(int, int): Worker</text><ellipse cx="66.0051" cy="301.0898" fill="#84BE84" rx="3" ry="3" style="stroke: #038048; stroke-width: 1.0;"/><text fill="#000000" font-family="sans-serif" font-size="11" lengthAdjust="spacingAndGlyphs" textLength="150" x="75.0051" y="304.0908">noWorkerHere(int, int): boolean</text><ellipse cx="66.0051" cy="314.9258" fill="#84BE84" rx="3" ry="3" style="stroke: #038048; stroke-width: 1.0;"/><text fill="#000000" font-family="sans-serif" font-size="11" lengthAdjust="spacingAndGlyphs" textLength="55" x="75.0051" y="317.9268">print(): void</text></a><!--class java.io.Serializable--><rect fill="#FEFECE" filter="url(#frww2yushtj)" height="48" id="java.io.Serializable" style="stroke: #A80036; stroke-width: 1.5;" width="99" x="68.5051" y="60"/><ellipse cx="83.5051" cy="76" fill="#B4A7E5" rx="11" ry="11" style="stroke: #A80036; stroke-width: 1.0;"/><path d="M84.4582,72.6406 L84.4582,79.2969 L86.177,79.2969 Q86.7864,79.2969 87.052,79.5313 Q87.3176,79.7656 87.3176,80.1563 Q87.3176,80.5313 87.052,80.7656 Q86.7864,81 86.177,81 L81.0364,81 Q80.427,81 80.1614,80.7656 Q79.8957,80.5313 79.8957,80.1406 Q79.8957,79.7656 80.1614,79.5313 Q80.427,79.2969 81.0364,79.2969 L82.7551,79.2969 L82.7551,72.6406 L81.0364,72.6406 Q80.427,72.6406 80.1614,72.4063 Q79.8957,72.1719 79.8957,71.7813 Q79.8957,71.4063 80.1614,71.1719 Q80.427,70.9375 81.0364,70.9375 L86.177,70.9375 Q86.7864,70.9375 87.052,71.1719 Q87.3176,71.4063 87.3176,71.7813 Q87.3176,72.1719 87.052,72.4063 Q86.7864,72.6406 86.177,72.6406 L84.4582,72.6406 Z "/><text fill="#000000" font-family="sans-serif" font-size="12" font-style="italic" lengthAdjust="spacingAndGlyphs" textLength="67" x="97.5051" y="80.9102">Serializable</text><line style="stroke: #A80036; stroke-width: 1.5;" x1="69.5051" x2="166.5051" y1="92" y2="92"/><line style="stroke: #A80036; stroke-width: 1.5;" x1="69.5051" x2="166.5051" y1="100" y2="100"/><!--class it.polimi.ingsw.observer.Observable--><a href="../../observer/Observable.html" target="_top" xlink:actuate="onRequest" xlink:show="new" xlink:title="../../observer/Observable.html" xlink:type="simple"><rect fill="#FEFECE" filter="url(#frww2yushtj)" height="48" id="it.polimi.ingsw.observer.Observable" style="stroke: #A80036; stroke-width: 1.5;" width="106" x="350.005" y="60"/><ellipse cx="365.005" cy="76" fill="#ADD1B2" rx="11" ry="11" style="stroke: #A80036; stroke-width: 1.0;"/><path d="M367.7706,71.875 Q367.9269,71.6563 368.1144,71.5469 Q368.3019,71.4375 368.5206,71.4375 Q368.8956,71.4375 369.13,71.7031 Q369.3644,71.9531 369.3644,72.5625 L369.3644,74.0156 Q369.3644,74.625 369.13,74.8906 Q368.8956,75.1563 368.5206,75.1563 Q368.1769,75.1563 367.9738,74.9531 Q367.7706,74.7656 367.6613,74.25 Q367.6144,73.8906 367.4269,73.7031 Q367.0988,73.3281 366.4894,73.1094 Q365.88,72.8906 365.255,72.8906 Q364.4894,72.8906 363.8488,73.2188 Q363.2238,73.5469 362.7238,74.2969 Q362.2394,75.0469 362.2394,76.0781 L362.2394,77.1719 Q362.2394,78.4063 363.13,79.2344 Q364.0206,80.0469 365.6144,80.0469 Q366.5519,80.0469 367.2081,79.7969 Q367.5988,79.6406 368.0206,79.2031 Q368.2863,78.9375 368.4269,78.8594 Q368.5831,78.7813 368.7863,78.7813 Q369.1144,78.7813 369.3644,79.0469 Q369.63,79.2969 369.63,79.6406 Q369.63,79.9844 369.2863,80.3906 Q368.7863,80.9688 367.9894,81.2969 Q366.9113,81.75 365.6144,81.75 Q364.0988,81.75 362.8956,81.125 Q361.9113,80.625 361.2238,79.5625 Q360.5363,78.4844 360.5363,77.2031 L360.5363,76.0469 Q360.5363,74.7188 361.1456,73.5781 Q361.7706,72.4219 362.8644,71.8125 Q363.9581,71.1875 365.1925,71.1875 Q365.9269,71.1875 366.5675,71.3594 Q367.2238,71.5156 367.7706,71.875 Z "/><text fill="#000000" font-family="sans-serif" font-size="12" lengthAdjust="spacingAndGlyphs" textLength="63" x="379.005" y="80.9102">Observable</text><rect fill="#FFFFFF" height="17.0938" style="stroke: #000000; stroke-width: 1.0; stroke-dasharray: 2.0,2.0;" width="9" x="450.005" y="57"/><text fill="#000000" font-family="sans-serif" font-size="12" font-style="italic" lengthAdjust="spacingAndGlyphs" textLength="7" x="451.005" y="70.457">T</text><line style="stroke: #A80036; stroke-width: 1.5;" x1="351.005" x2="455.005" y1="92" y2="92"/><line style="stroke: #A80036; stroke-width: 1.5;" x1="351.005" x2="455.005" y1="100" y2="100"/></a><!--link java.io.Serializable to it.polimi.ingsw.model.board.Cell--><path d="M59.1534,120.609 C50.1923,128.766 42.2102,138.253 37.0051,149 C-2.324,230.199 -6.0366,272.706 37.0051,352 C55.5362,386.139 89.0675,411.723 122,429.984 " fill="none" id="java.io.Serializable-it.polimi.ingsw.model.board.Cell" style="stroke: #A80036; stroke-width: 1.0; stroke-dasharray: 7.0,7.0;"/><polygon fill="none" points="54.8254,115.108,74.8412,108.153,63.5312,126.072,54.8254,115.108" style="stroke: #A80036; stroke-width: 1.0;"/><!--link it.polimi.ingsw.model.board.Cell to it.polimi.ingsw.model.board.BlockType--><path d="M214.005,506.193 C214.005,527.092 214.005,553.862 214.005,578.534 " fill="none" id="it.polimi.ingsw.model.board.Cell-it.polimi.ingsw.model.board.BlockType" style="stroke: #A80036; stroke-width: 1.0;"/><polygon fill="#A80036" points="214.005,583.764,218.005,574.764,214.005,578.764,210.005,574.764,214.005,583.764" style="stroke: #A80036; stroke-width: 1.0;"/><text fill="#000000" font-family="sans-serif" font-size="13" lengthAdjust="spacingAndGlyphs" textLength="59" x="215.005" y="550.4951">blockType</text><!--link it.polimi.ingsw.observer.Observable to it.polimi.ingsw.model.board.Map--><path d="M403.005,128.311 C403.005,147.534 403.005,170.773 403.005,192.887 " fill="none" id="it.polimi.ingsw.observer.Observable-it.polimi.ingsw.model.board.Map" style="stroke: #A80036; stroke-width: 1.0;"/><polygon fill="none" points="396.005,128.243,403.005,108.243,410.005,128.243,396.005,128.243" style="stroke: #A80036; stroke-width: 1.0;"/><!--link it.polimi.ingsw.model.board.Map to it.polimi.ingsw.model.board.Map--><path d="M516.245,251.631 C536.693,254.308 551.005,261.265 551.005,272.5 C551.005,282.77 539.047,289.464 521.376,292.584 " fill="none" id="it.polimi.ingsw.model.board.Map-it.polimi.ingsw.model.board.Map" style="stroke: #A80036; stroke-width: 1.0;"/><polygon fill="#A80036" points="516.245,293.369,525.747,295.9598,521.1873,292.6117,524.5354,288.052,516.245,293.369" style="stroke: #A80036; stroke-width: 1.0;"/><text fill="#000000" font-family="sans-serif" font-size="13" lengthAdjust="spacingAndGlyphs" textLength="49" x="557.005" y="277.9951">instance</text><!--link it.polimi.ingsw.model.board.Map to it.polimi.ingsw.model.board.Cell--><path d="M326.132,352.204 C301.303,377.624 274.791,404.767 253.784,426.274 " fill="none" id="it.polimi.ingsw.model.board.Map-it.polimi.ingsw.model.board.Cell" style="stroke: #A80036; stroke-width: 1.0;"/><polygon fill="#A80036" points="250.195,429.949,259.3453,426.306,253.6889,426.3723,253.6226,420.7158,250.195,429.949" style="stroke: #A80036; stroke-width: 1.0;"/><text fill="#000000" font-family="sans-serif" font-size="13" lengthAdjust="spacingAndGlyphs" textLength="25" x="292.005" y="396.4951">map</text><text fill="#000000" font-family="sans-serif" font-size="13" lengthAdjust="spacingAndGlyphs" textLength="5" x="251.4066" y="419.0161">*</text><!--link java.io.Serializable to it.polimi.ingsw.model.board.MapCopy--><path d="M126.522,127.929 C132.016,155.622 139.187,191.768 144.959,220.862 " fill="none" id="java.io.Serializable-it.polimi.ingsw.model.board.MapCopy" style="stroke: #A80036; stroke-width: 1.0; stroke-dasharray: 7.0,7.0;"/><polygon fill="none" points="119.642,129.223,122.616,108.243,133.375,126.499,119.642,129.223" style="stroke: #A80036; stroke-width: 1.0;"/><text fill="#888888" font-family="sans-serif" font-size="10" lengthAdjust="spacingAndGlyphs" textLength="190" x="227.5" y="767.3809">UMLDoclet 2.0.10, PlantUML 1.2019.08</text><!--
@startuml
    namespace it.polimi.ingsw.model.board {

        enum BlockType [[BlockType.html]] {
            {static} +GROUND
            {static} +BLOCK1
            {static} +BLOCK2
            {static} +BLOCK3
            {static} +CUPOLA
            +getAbbreviation(): int
        }

        class Cell [[Cell.html]] {
            +setWorkerPresence(Worker): void
            +getWorkerPresence(): Worker
        }

        class Map [[Map.html]] {
            +setCellBlockType(int, int, BlockType): void
            +getCellBlockType(int, int): BlockType
            +setWorkerInCell(int, int, Worker): void
            +getWorkerInCell(int, int): Worker
            +addNumberOfCompleteTurrets(): void
            +getNumberOfCompleteTurrets(): int
            +deleteWorkerInCell(Worker): void
            +noWorkerHere(int, int): boolean
        }

        class MapCopy [[MapCopy.html]] {
            +getCellBlockType(int, int): BlockType
            +getWorkerInCell(int, int): Worker
            +noWorkerHere(int, int): boolean
            +print(): void
        }

        java.io.Serializable <|.. Cell
        Cell - -> BlockType: blockType
        it.polimi.ingsw.observer.Observable <|- - Map
        Map - -> Map: instance
        Map - -> "*" Cell: map
        java.io.Serializable <|.. MapCopy
    }

    namespace java.io {
        interface Serializable
    }

    namespace it.polimi.ingsw.observer {
        class Observable<T> [[../../observer/Observable.html]] {
        }
    }

    center footer UMLDoclet 2.0.10, PlantUML 1.2019.08
@enduml

PlantUML version 1.2019.08(Sat Jul 13 21:25:14 CEST 2019)
(APACHE source distribution)
Java Runtime: Java(TM) SE Runtime Environment
JVM: Java HotSpot(TM) 64-Bit Server VM
Java Version: 14.0.1+7
Operating System: Windows 10
OS Version: 10.0
Default Encoding: Cp1252
Language: it
Country: IT
--></g></svg>