<?xml version="1.0" encoding="UTF-8" standalone="no"?><svg xmlns="http://www.w3.org/2000/svg" xmlns:xlink="http://www.w3.org/1999/xlink" contentScriptType="application/ecmascript" contentStyleType="text/css" height="626px" preserveAspectRatio="none" style="width:843px;height:626px;" version="1.1" viewBox="0 0 843 626" width="843px" zoomAndPan="magnify"><defs><filter height="300%" id="fxw1z0xknxlxg" width="300%" x="-1" y="-1"><feGaussianBlur result="blurOut" stdDeviation="2.0"/><feColorMatrix in="blurOut" result="blurOut2" type="matrix" values="0 0 0 0 0 0 0 0 0 0 0 0 0 0 0 0 0 0 .4 0"/><feOffset dx="4.0" dy="4.0" in="blurOut2" result="blurOut3"/><feBlend in="SourceGraphic" in2="blurOut3" mode="normal"/></filter></defs><g><!--cluster it.polimi.ingsw.model.board--><polygon fill="#FFFFFF" filter="url(#fxw1z0xknxlxg)" points="22,157,220,157,227,180.6094,821,180.6094,821,577,22,577,22,157" style="stroke: #000000; stroke-width: 1.5;"/><line style="stroke: #000000; stroke-width: 1.5;" x1="22" x2="227" y1="180.6094" y2="180.6094"/><text fill="#000000" font-family="sans-serif" font-size="14" font-weight="bold" lengthAdjust="spacingAndGlyphs" textLength="192" x="26" y="173.5332">it.polimi.ingsw.model.board</text><!--cluster java.io--><polygon fill="#FFFFFF" filter="url(#fxw1z0xknxlxg)" points="170,24,222,24,229,47.6094,302,47.6094,302,124,170,124,170,24" style="stroke: #000000; stroke-width: 1.5;"/><line style="stroke: #000000; stroke-width: 1.5;" x1="170" x2="229" y1="47.6094" y2="47.6094"/><text fill="#000000" font-family="sans-serif" font-size="14" font-weight="bold" lengthAdjust="spacingAndGlyphs" textLength="46" x="174" y="40.5332">java.io</text><!--cluster it.polimi.ingsw.observer--><polygon fill="#FFFFFF" filter="url(#fxw1z0xknxlxg)" points="521,24,696,24,703,47.6094,706,47.6094,706,124,521,124,521,24" style="stroke: #000000; stroke-width: 1.5;"/><line style="stroke: #000000; stroke-width: 1.5;" x1="521" x2="703" y1="47.6094" y2="47.6094"/><text fill="#000000" font-family="sans-serif" font-size="14" font-weight="bold" lengthAdjust="spacingAndGlyphs" textLength="169" x="525" y="40.5332">it.polimi.ingsw.observer</text><!--class it.polimi.ingsw.model.board.BlockType--><a href="BlockType.html" target="_top" xlink:actuate="onRequest" xlink:show="new" xlink:title="BlockType.html" xlink:type="simple"><rect fill="#FEFECE" filter="url(#fxw1z0xknxlxg)" height="131.0156" id="it.polimi.ingsw.model.board.BlockType" style="stroke: #A80036; stroke-width: 1.5;" width="127" x="70.5" y="430"/><ellipse cx="103.05" cy="446" fill="#EB937F" rx="11" ry="11" style="stroke: #A80036; stroke-width: 1.0;"/><path d="M101.9094,446.7969 L101.9094,449.2969 L106.2375,449.2969 L106.2375,448.375 Q106.2375,447.7656 106.4719,447.5 Q106.7219,447.2344 107.0969,447.2344 Q107.4719,447.2344 107.7063,447.5 Q107.9406,447.7656 107.9406,448.375 L107.9406,451 L99.9406,451 Q99.3156,451 99.05,450.7656 Q98.8,450.5313 98.8,450.1406 Q98.8,449.7656 99.0656,449.5313 Q99.3313,449.2969 99.9406,449.2969 L100.2063,449.2969 L100.2063,442.6406 L99.9406,442.6406 Q99.3156,442.6406 99.05,442.4063 Q98.8,442.1719 98.8,441.7813 Q98.8,441.4063 99.05,441.1719 Q99.3156,440.9375 99.9406,440.9375 L107.5656,440.9375 L107.5656,443.5313 Q107.5656,444.1406 107.3313,444.4063 Q107.1125,444.6563 106.7219,444.6563 Q106.3469,444.6563 106.1125,444.4063 Q105.8781,444.1406 105.8781,443.5313 L105.8781,442.6406 L101.9094,442.6406 L101.9094,445.0938 L103.3938,445.0938 Q103.3938,444.4375 103.5188,444.25 Q103.7844,443.8438 104.2531,443.8438 Q104.6281,443.8438 104.8625,444.1094 Q105.0969,444.3594 105.0969,444.9688 L105.0969,446.9375 Q105.0969,447.4844 104.9719,447.6719 Q104.7063,448.0625 104.2531,448.0625 Q103.7844,448.0625 103.5188,447.6563 Q103.3938,447.4688 103.3938,446.7969 L101.9094,446.7969 Z "/><text fill="#000000" font-family="sans-serif" font-size="12" lengthAdjust="spacingAndGlyphs" textLength="56" x="120.95" y="450.9102">BlockType</text><line style="stroke: #A80036; stroke-width: 1.5;" x1="71.5" x2="196.5" y1="462" y2="462"/><ellipse cx="81.5" cy="474.418" fill="none" rx="3" ry="3" style="stroke: #038048; stroke-width: 1.0;"/><text fill="#000000" font-family="sans-serif" font-size="11" lengthAdjust="spacingAndGlyphs" text-decoration="underline" textLength="44" x="90.5" y="477.4189">GROUND</text><ellipse cx="81.5" cy="488.2539" fill="none" rx="3" ry="3" style="stroke: #038048; stroke-width: 1.0;"/><text fill="#000000" font-family="sans-serif" font-size="11" lengthAdjust="spacingAndGlyphs" text-decoration="underline" textLength="41" x="90.5" y="491.2549">BLOCK1</text><ellipse cx="81.5" cy="502.0898" fill="none" rx="3" ry="3" style="stroke: #038048; stroke-width: 1.0;"/><text fill="#000000" font-family="sans-serif" font-size="11" lengthAdjust="spacingAndGlyphs" text-decoration="underline" textLength="41" x="90.5" y="505.0908">BLOCK2</text><ellipse cx="81.5" cy="515.9258" fill="none" rx="3" ry="3" style="stroke: #038048; stroke-width: 1.0;"/><text fill="#000000" font-family="sans-serif" font-size="11" lengthAdjust="spacingAndGlyphs" text-decoration="underline" textLength="41" x="90.5" y="518.9268">BLOCK3</text><ellipse cx="81.5" cy="529.7617" fill="none" rx="3" ry="3" style="stroke: #038048; stroke-width: 1.0;"/><text fill="#000000" font-family="sans-serif" font-size="11" lengthAdjust="spacingAndGlyphs" text-decoration="underline" textLength="42" x="90.5" y="532.7627">CUPOLA</text><line style="stroke: #A80036; stroke-width: 1.5;" x1="71.5" x2="196.5" y1="539.1797" y2="539.1797"/><ellipse cx="81.5" cy="551.5977" fill="#84BE84" rx="3" ry="3" style="stroke: #038048; stroke-width: 1.0;"/><text fill="#000000" font-family="sans-serif" font-size="11" lengthAdjust="spacingAndGlyphs" textLength="101" x="90.5" y="554.5986">getAbbreviation(): int</text></a><!--class it.polimi.ingsw.model.board.Cell--><a href="Cell.html" target="_top" xlink:actuate="onRequest" xlink:show="new" xlink:title="Cell.html" xlink:type="simple"><rect fill="#FEFECE" filter="url(#fxw1z0xknxlxg)" height="75.6719" id="it.polimi.ingsw.model.board.Cell" style="stroke: #A80036; stroke-width: 1.5;" width="191" x="38.5" y="234.5"/><ellipse cx="118.75" cy="250.5" fill="#ADD1B2" rx="11" ry="11" style="stroke: #A80036; stroke-width: 1.0;"/><path d="M121.5156,246.375 Q121.6719,246.1563 121.8594,246.0469 Q122.0469,245.9375 122.2656,245.9375 Q122.6406,245.9375 122.875,246.2031 Q123.1094,246.4531 123.1094,247.0625 L123.1094,248.5156 Q123.1094,249.125 122.875,249.3906 Q122.6406,249.6563 122.2656,249.6563 Q121.9219,249.6563 121.7188,249.4531 Q121.5156,249.2656 121.4063,248.75 Q121.3594,248.3906 121.1719,248.2031 Q120.8438,247.8281 120.2344,247.6094 Q119.625,247.3906 119,247.3906 Q118.2344,247.3906 117.5938,247.7188 Q116.9688,248.0469 116.4688,248.7969 Q115.9844,249.5469 115.9844,250.5781 L115.9844,251.6719 Q115.9844,252.9063 116.875,253.7344 Q117.7656,254.5469 119.3594,254.5469 Q120.2969,254.5469 120.9531,254.2969 Q121.3438,254.1406 121.7656,253.7031 Q122.0313,253.4375 122.1719,253.3594 Q122.3281,253.2813 122.5313,253.2813 Q122.8594,253.2813 123.1094,253.5469 Q123.375,253.7969 123.375,254.1406 Q123.375,254.4844 123.0313,254.8906 Q122.5313,255.4688 121.7344,255.7969 Q120.6563,256.25 119.3594,256.25 Q117.8438,256.25 116.6406,255.625 Q115.6563,255.125 114.9688,254.0625 Q114.2813,252.9844 114.2813,251.7031 L114.2813,250.5469 Q114.2813,249.2188 114.8906,248.0781 Q115.5156,246.9219 116.6094,246.3125 Q117.7031,245.6875 118.9375,245.6875 Q119.6719,245.6875 120.3125,245.8594 Q120.9688,246.0156 121.5156,246.375 Z "/><text fill="#000000" font-family="sans-serif" font-size="12" lengthAdjust="spacingAndGlyphs" textLength="22" x="139.25" y="255.4102">Cell</text><line style="stroke: #A80036; stroke-width: 1.5;" x1="39.5" x2="228.5" y1="266.5" y2="266.5"/><line style="stroke: #A80036; stroke-width: 1.5;" x1="39.5" x2="228.5" y1="274.5" y2="274.5"/><ellipse cx="49.5" cy="286.918" fill="#84BE84" rx="3" ry="3" style="stroke: #038048; stroke-width: 1.0;"/><text fill="#000000" font-family="sans-serif" font-size="11" lengthAdjust="spacingAndGlyphs" textLength="165" x="58.5" y="289.9189">setWorkerPresence(Worker): void</text><ellipse cx="49.5" cy="300.7539" fill="#84BE84" rx="3" ry="3" style="stroke: #038048; stroke-width: 1.0;"/><text fill="#000000" font-family="sans-serif" font-size="11" lengthAdjust="spacingAndGlyphs" textLength="145" x="58.5" y="303.7549">getWorkerPresence(): Worker</text></a><!--class it.polimi.ingsw.model.board.Map--><a href="Map.html" target="_top" xlink:actuate="onRequest" xlink:show="new" xlink:title="Map.html" xlink:type="simple"><rect fill="#FEFECE" filter="url(#fxw1z0xknxlxg)" height="158.6875" id="it.polimi.ingsw.model.board.Map" style="stroke: #A80036; stroke-width: 1.5;" width="226" x="500" y="193"/><ellipse cx="597.25" cy="209" fill="#ADD1B2" rx="11" ry="11" style="stroke: #A80036; stroke-width: 1.0;"/><path d="M600.0156,204.875 Q600.1719,204.6563 600.3594,204.5469 Q600.5469,204.4375 600.7656,204.4375 Q601.1406,204.4375 601.375,204.7031 Q601.6094,204.9531 601.6094,205.5625 L601.6094,207.0156 Q601.6094,207.625 601.375,207.8906 Q601.1406,208.1563 600.7656,208.1563 Q600.4219,208.1563 600.2188,207.9531 Q600.0156,207.7656 599.9063,207.25 Q599.8594,206.8906 599.6719,206.7031 Q599.3438,206.3281 598.7344,206.1094 Q598.125,205.8906 597.5,205.8906 Q596.7344,205.8906 596.0938,206.2188 Q595.4688,206.5469 594.9688,207.2969 Q594.4844,208.0469 594.4844,209.0781 L594.4844,210.1719 Q594.4844,211.4063 595.375,212.2344 Q596.2656,213.0469 597.8594,213.0469 Q598.7969,213.0469 599.4531,212.7969 Q599.8438,212.6406 600.2656,212.2031 Q600.5313,211.9375 600.6719,211.8594 Q600.8281,211.7813 601.0313,211.7813 Q601.3594,211.7813 601.6094,212.0469 Q601.875,212.2969 601.875,212.6406 Q601.875,212.9844 601.5313,213.3906 Q601.0313,213.9688 600.2344,214.2969 Q599.1563,214.75 597.8594,214.75 Q596.3438,214.75 595.1406,214.125 Q594.1563,213.625 593.4688,212.5625 Q592.7813,211.4844 592.7813,210.2031 L592.7813,209.0469 Q592.7813,207.7188 593.3906,206.5781 Q594.0156,205.4219 595.1094,204.8125 Q596.2031,204.1875 597.4375,204.1875 Q598.1719,204.1875 598.8125,204.3594 Q599.4688,204.5156 600.0156,204.875 Z "/><text fill="#000000" font-family="sans-serif" font-size="12" lengthAdjust="spacingAndGlyphs" textLength="23" x="617.75" y="213.9102">Map</text><line style="stroke: #A80036; stroke-width: 1.5;" x1="501" x2="725" y1="225" y2="225"/><line style="stroke: #A80036; stroke-width: 1.5;" x1="501" x2="725" y1="233" y2="233"/><ellipse cx="511" cy="245.418" fill="#84BE84" rx="3" ry="3" style="stroke: #038048; stroke-width: 1.0;"/><text fill="#000000" font-family="sans-serif" font-size="11" lengthAdjust="spacingAndGlyphs" textLength="200" x="520" y="248.4189">setCellBlockType(int, int, BlockType): void</text><ellipse cx="511" cy="259.2539" fill="#84BE84" rx="3" ry="3" style="stroke: #038048; stroke-width: 1.0;"/><text fill="#000000" font-family="sans-serif" font-size="11" lengthAdjust="spacingAndGlyphs" textLength="174" x="520" y="262.2549">getCellBlockType(int, int): BlockType</text><ellipse cx="511" cy="273.0898" fill="#84BE84" rx="3" ry="3" style="stroke: #038048; stroke-width: 1.0;"/><text fill="#000000" font-family="sans-serif" font-size="11" lengthAdjust="spacingAndGlyphs" textLength="178" x="520" y="276.0908">setWorkerInCell(int, int, Worker): void</text><ellipse cx="511" cy="286.9258" fill="#84BE84" rx="3" ry="3" style="stroke: #038048; stroke-width: 1.0;"/><text fill="#000000" font-family="sans-serif" font-size="11" lengthAdjust="spacingAndGlyphs" textLength="152" x="520" y="289.9268">getWorkerInCell(int, int): Worker</text><ellipse cx="511" cy="300.7617" fill="#84BE84" rx="3" ry="3" style="stroke: #038048; stroke-width: 1.0;"/><text fill="#000000" font-family="sans-serif" font-size="11" lengthAdjust="spacingAndGlyphs" textLength="180" x="520" y="303.7627">addNumberOfCompleteTurrets(): void</text><ellipse cx="511" cy="314.5977" fill="#84BE84" rx="3" ry="3" style="stroke: #038048; stroke-width: 1.0;"/><text fill="#000000" font-family="sans-serif" font-size="11" lengthAdjust="spacingAndGlyphs" textLength="168" x="520" y="317.5986">getNumberOfCompleteTurrets(): int</text><ellipse cx="511" cy="328.4336" fill="#84BE84" rx="3" ry="3" style="stroke: #038048; stroke-width: 1.0;"/><text fill="#000000" font-family="sans-serif" font-size="11" lengthAdjust="spacingAndGlyphs" textLength="158" x="520" y="331.4346">deleteWorkerInCell(Worker): void</text><ellipse cx="511" cy="342.2695" fill="#84BE84" rx="3" ry="3" style="stroke: #038048; stroke-width: 1.0;"/><text fill="#000000" font-family="sans-serif" font-size="11" lengthAdjust="spacingAndGlyphs" textLength="150" x="520" y="345.2705">noWorkerHere(int, int): boolean</text></a><!--class it.polimi.ingsw.model.board.MapCopy--><a href="MapCopy.html" target="_top" xlink:actuate="onRequest" xlink:show="new" xlink:title="MapCopy.html" xlink:type="simple"><rect fill="#FEFECE" filter="url(#fxw1z0xknxlxg)" height="103.3438" id="it.polimi.ingsw.model.board.MapCopy" style="stroke: #A80036; stroke-width: 1.5;" width="200" x="265" y="221"/><ellipse cx="335.25" cy="237" fill="#ADD1B2" rx="11" ry="11" style="stroke: #A80036; stroke-width: 1.0;"/><path d="M338.0156,232.875 Q338.1719,232.6563 338.3594,232.5469 Q338.5469,232.4375 338.7656,232.4375 Q339.1406,232.4375 339.375,232.7031 Q339.6094,232.9531 339.6094,233.5625 L339.6094,235.0156 Q339.6094,235.625 339.375,235.8906 Q339.1406,236.1563 338.7656,236.1563 Q338.4219,236.1563 338.2188,235.9531 Q338.0156,235.7656 337.9063,235.25 Q337.8594,234.8906 337.6719,234.7031 Q337.3438,234.3281 336.7344,234.1094 Q336.125,233.8906 335.5,233.8906 Q334.7344,233.8906 334.0938,234.2188 Q333.4688,234.5469 332.9688,235.2969 Q332.4844,236.0469 332.4844,237.0781 L332.4844,238.1719 Q332.4844,239.4063 333.375,240.2344 Q334.2656,241.0469 335.8594,241.0469 Q336.7969,241.0469 337.4531,240.7969 Q337.8438,240.6406 338.2656,240.2031 Q338.5313,239.9375 338.6719,239.8594 Q338.8281,239.7813 339.0313,239.7813 Q339.3594,239.7813 339.6094,240.0469 Q339.875,240.2969 339.875,240.6406 Q339.875,240.9844 339.5313,241.3906 Q339.0313,241.9688 338.2344,242.2969 Q337.1563,242.75 335.8594,242.75 Q334.3438,242.75 333.1406,242.125 Q332.1563,241.625 331.4688,240.5625 Q330.7813,239.4844 330.7813,238.2031 L330.7813,237.0469 Q330.7813,235.7188 331.3906,234.5781 Q332.0156,233.4219 333.1094,232.8125 Q334.2031,232.1875 335.4375,232.1875 Q336.1719,232.1875 336.8125,232.3594 Q337.4688,232.5156 338.0156,232.875 Z "/><text fill="#000000" font-family="sans-serif" font-size="12" lengthAdjust="spacingAndGlyphs" textLength="51" x="355.75" y="241.9102">MapCopy</text><line style="stroke: #A80036; stroke-width: 1.5;" x1="266" x2="464" y1="253" y2="253"/><line style="stroke: #A80036; stroke-width: 1.5;" x1="266" x2="464" y1="261" y2="261"/><ellipse cx="276" cy="273.418" fill="#84BE84" rx="3" ry="3" style="stroke: #038048; stroke-width: 1.0;"/><text fill="#000000" font-family="sans-serif" font-size="11" lengthAdjust="spacingAndGlyphs" textLength="174" x="285" y="276.4189">getCellBlockType(int, int): BlockType</text><ellipse cx="276" cy="287.2539" fill="#84BE84" rx="3" ry="3" style="stroke: #038048; stroke-width: 1.0;"/><text fill="#000000" font-family="sans-serif" font-size="11" lengthAdjust="spacingAndGlyphs" textLength="152" x="285" y="290.2549">getWorkerInCell(int, int): Worker</text><ellipse cx="276" cy="301.0898" fill="#84BE84" rx="3" ry="3" style="stroke: #038048; stroke-width: 1.0;"/><text fill="#000000" font-family="sans-serif" font-size="11" lengthAdjust="spacingAndGlyphs" textLength="150" x="285" y="304.0908">noWorkerHere(int, int): boolean</text><ellipse cx="276" cy="314.9258" fill="#84BE84" rx="3" ry="3" style="stroke: #038048; stroke-width: 1.0;"/><text fill="#000000" font-family="sans-serif" font-size="11" lengthAdjust="spacingAndGlyphs" textLength="55" x="285" y="317.9268">print(): void</text></a><!--class java.io.Serializable--><rect fill="#FEFECE" filter="url(#fxw1z0xknxlxg)" height="48" id="java.io.Serializable" style="stroke: #A80036; stroke-width: 1.5;" width="99" x="186.5" y="60"/><ellipse cx="201.5" cy="76" fill="#B4A7E5" rx="11" ry="11" style="stroke: #A80036; stroke-width: 1.0;"/><path d="M202.4531,72.6406 L202.4531,79.2969 L204.1719,79.2969 Q204.7813,79.2969 205.0469,79.5313 Q205.3125,79.7656 205.3125,80.1563 Q205.3125,80.5313 205.0469,80.7656 Q204.7813,81 204.1719,81 L199.0313,81 Q198.4219,81 198.1563,80.7656 Q197.8906,80.5313 197.8906,80.1406 Q197.8906,79.7656 198.1563,79.5313 Q198.4219,79.2969 199.0313,79.2969 L200.75,79.2969 L200.75,72.6406 L199.0313,72.6406 Q198.4219,72.6406 198.1563,72.4063 Q197.8906,72.1719 197.8906,71.7813 Q197.8906,71.4063 198.1563,71.1719 Q198.4219,70.9375 199.0313,70.9375 L204.1719,70.9375 Q204.7813,70.9375 205.0469,71.1719 Q205.3125,71.4063 205.3125,71.7813 Q205.3125,72.1719 205.0469,72.4063 Q204.7813,72.6406 204.1719,72.6406 L202.4531,72.6406 Z "/><text fill="#000000" font-family="sans-serif" font-size="12" font-style="italic" lengthAdjust="spacingAndGlyphs" textLength="67" x="215.5" y="80.9102">Serializable</text><line style="stroke: #A80036; stroke-width: 1.5;" x1="187.5" x2="284.5" y1="92" y2="92"/><line style="stroke: #A80036; stroke-width: 1.5;" x1="187.5" x2="284.5" y1="100" y2="100"/><!--class it.polimi.ingsw.observer.Observable--><a href="../../observer/Observable.html" target="_top" xlink:actuate="onRequest" xlink:show="new" xlink:title="../../observer/Observable.html" xlink:type="simple"><rect fill="#FEFECE" filter="url(#fxw1z0xknxlxg)" height="48" id="it.polimi.ingsw.observer.Observable" style="stroke: #A80036; stroke-width: 1.5;" width="106" x="560" y="60"/><ellipse cx="575" cy="76" fill="#ADD1B2" rx="11" ry="11" style="stroke: #A80036; stroke-width: 1.0;"/><path d="M577.7656,71.875 Q577.9219,71.6563 578.1094,71.5469 Q578.2969,71.4375 578.5156,71.4375 Q578.8906,71.4375 579.125,71.7031 Q579.3594,71.9531 579.3594,72.5625 L579.3594,74.0156 Q579.3594,74.625 579.125,74.8906 Q578.8906,75.1563 578.5156,75.1563 Q578.1719,75.1563 577.9688,74.9531 Q577.7656,74.7656 577.6563,74.25 Q577.6094,73.8906 577.4219,73.7031 Q577.0938,73.3281 576.4844,73.1094 Q575.875,72.8906 575.25,72.8906 Q574.4844,72.8906 573.8438,73.2188 Q573.2188,73.5469 572.7188,74.2969 Q572.2344,75.0469 572.2344,76.0781 L572.2344,77.1719 Q572.2344,78.4063 573.125,79.2344 Q574.0156,80.0469 575.6094,80.0469 Q576.5469,80.0469 577.2031,79.7969 Q577.5938,79.6406 578.0156,79.2031 Q578.2813,78.9375 578.4219,78.8594 Q578.5781,78.7813 578.7813,78.7813 Q579.1094,78.7813 579.3594,79.0469 Q579.625,79.2969 579.625,79.6406 Q579.625,79.9844 579.2813,80.3906 Q578.7813,80.9688 577.9844,81.2969 Q576.9063,81.75 575.6094,81.75 Q574.0938,81.75 572.8906,81.125 Q571.9063,80.625 571.2188,79.5625 Q570.5313,78.4844 570.5313,77.2031 L570.5313,76.0469 Q570.5313,74.7188 571.1406,73.5781 Q571.7656,72.4219 572.8594,71.8125 Q573.9531,71.1875 575.1875,71.1875 Q575.9219,71.1875 576.5625,71.3594 Q577.2188,71.5156 577.7656,71.875 Z "/><text fill="#000000" font-family="sans-serif" font-size="12" lengthAdjust="spacingAndGlyphs" textLength="63" x="589" y="80.9102">Observable</text><rect fill="#FFFFFF" height="17.0938" style="stroke: #000000; stroke-width: 1.0; stroke-dasharray: 2.0,2.0;" width="9" x="660" y="57"/><text fill="#000000" font-family="sans-serif" font-size="12" font-style="italic" lengthAdjust="spacingAndGlyphs" textLength="7" x="661" y="70.457">T</text><line style="stroke: #A80036; stroke-width: 1.5;" x1="561" x2="665" y1="92" y2="92"/><line style="stroke: #A80036; stroke-width: 1.5;" x1="561" x2="665" y1="100" y2="100"/></a><!--link java.io.Serializable to it.polimi.ingsw.model.board.Cell--><path d="M213.512,126.118 C195.817,158.472 171.374,203.165 154.276,234.427 " fill="none" id="java.io.Serializable-it.polimi.ingsw.model.board.Cell" style="stroke: #A80036; stroke-width: 1.0; stroke-dasharray: 7.0,7.0;"/><polygon fill="none" points="207.55,122.431,223.288,108.243,219.832,129.149,207.55,122.431" style="stroke: #A80036; stroke-width: 1.0;"/><!--link it.polimi.ingsw.model.board.Cell to it.polimi.ingsw.model.board.BlockType--><path d="M134,310.99 C134,342.104 134,387.197 134,424.897 " fill="none" id="it.polimi.ingsw.model.board.Cell-it.polimi.ingsw.model.board.BlockType" style="stroke: #A80036; stroke-width: 1.0;"/><polygon fill="#A80036" points="134,429.928,138,420.928,134,424.928,130,420.928,134,429.928" style="stroke: #A80036; stroke-width: 1.0;"/><text fill="#000000" font-family="sans-serif" font-size="13" lengthAdjust="spacingAndGlyphs" textLength="59" x="135" y="396.4951">blockType</text><!--link it.polimi.ingsw.observer.Observable to it.polimi.ingsw.model.board.Map--><path d="M613,128.311 C613,147.534 613,170.773 613,192.887 " fill="none" id="it.polimi.ingsw.observer.Observable-it.polimi.ingsw.model.board.Map" style="stroke: #A80036; stroke-width: 1.0;"/><polygon fill="none" points="606,128.243,613,108.243,620,128.243,606,128.243" style="stroke: #A80036; stroke-width: 1.0;"/><!--link it.polimi.ingsw.model.board.Map to it.polimi.ingsw.model.board.Map--><path d="M726.24,251.631 C746.688,254.308 761,261.265 761,272.5 C761,282.77 749.042,289.464 731.371,292.584 " fill="none" id="it.polimi.ingsw.model.board.Map-it.polimi.ingsw.model.board.Map" style="stroke: #A80036; stroke-width: 1.0;"/><polygon fill="#A80036" points="726.24,293.369,735.742,295.9598,731.1823,292.6117,734.5304,288.052,726.24,293.369" style="stroke: #A80036; stroke-width: 1.0;"/><text fill="#000000" font-family="sans-serif" font-size="13" lengthAdjust="spacingAndGlyphs" textLength="49" x="767" y="277.9951">instance</text><!--link java.io.Serializable to it.polimi.ingsw.model.board.MapCopy--><path d="M263.457,124.696 C282.87,152.762 309.057,190.621 329.974,220.862 " fill="none" id="java.io.Serializable-it.polimi.ingsw.model.board.MapCopy" style="stroke: #A80036; stroke-width: 1.0; stroke-dasharray: 7.0,7.0;"/><polygon fill="none" points="257.697,128.674,252.077,108.243,269.211,120.71,257.697,128.674" style="stroke: #A80036; stroke-width: 1.0;"/><text fill="#888888" font-family="sans-serif" font-size="10" lengthAdjust="spacingAndGlyphs" textLength="190" x="332.5" y="613.3809">UMLDoclet 2.0.10, PlantUML 1.2019.08</text><!--
@startuml
    namespace it.polimi.ingsw.model.board {

        enum BlockType [[BlockType.html]] {
            {static} +GROUND
            {static} +BLOCK1
            {static} +BLOCK2
            {static} +BLOCK3
            {static} +CUPOLA
            +getAbbreviation(): int
        }

        class Cell [[Cell.html]] {
            +setWorkerPresence(Worker): void
            +getWorkerPresence(): Worker
        }

        class Map [[Map.html]] {
            +setCellBlockType(int, int, BlockType): void
            +getCellBlockType(int, int): BlockType
            +setWorkerInCell(int, int, Worker): void
            +getWorkerInCell(int, int): Worker
            +addNumberOfCompleteTurrets(): void
            +getNumberOfCompleteTurrets(): int
            +deleteWorkerInCell(Worker): void
            +noWorkerHere(int, int): boolean
        }

        class MapCopy [[MapCopy.html]] {
            +getCellBlockType(int, int): BlockType
            +getWorkerInCell(int, int): Worker
            +noWorkerHere(int, int): boolean
            +print(): void
        }

        java.io.Serializable <|.. Cell
        Cell - -> BlockType: blockType
        it.polimi.ingsw.observer.Observable <|- - Map
        Map - -> Map: instance
        java.io.Serializable <|.. MapCopy
    }

    namespace java.io {
        interface Serializable
    }

    namespace it.polimi.ingsw.observer {
        class Observable<T> [[../../observer/Observable.html]] {
        }
    }

    center footer UMLDoclet 2.0.10, PlantUML 1.2019.08
@enduml

PlantUML version 1.2019.08(Sat Jul 13 21:25:14 CEST 2019)
(APACHE source distribution)
Java Runtime: Java(TM) SE Runtime Environment
JVM: Java HotSpot(TM) 64-Bit Server VM
Java Version: 14.0.1+7
Operating System: Windows 10
OS Version: 10.0
Default Encoding: Cp1252
Language: it
Country: IT
--></g></svg>