<?xml version="1.0" encoding="UTF-8" standalone="no"?><svg xmlns="http://www.w3.org/2000/svg" xmlns:xlink="http://www.w3.org/1999/xlink" contentScriptType="application/ecmascript" contentStyleType="text/css" height="557px" preserveAspectRatio="none" style="width:574px;height:557px;" version="1.1" viewBox="0 0 574 557" width="574px" zoomAndPan="magnify"><defs><filter height="300%" id="f1iimh2l542uuo" width="300%" x="-1" y="-1"><feGaussianBlur result="blurOut" stdDeviation="2.0"/><feColorMatrix in="blurOut" result="blurOut2" type="matrix" values="0 0 0 0 0 0 0 0 0 0 0 0 0 0 0 0 0 0 .4 0"/><feOffset dx="4.0" dy="4.0" in="blurOut2" result="blurOut3"/><feBlend in="SourceGraphic" in2="blurOut3" mode="normal"/></filter></defs><g><!--cluster it.polimi.ingsw.network.server--><polygon fill="#FFFFFF" filter="url(#f1iimh2l542uuo)" points="22,171,240,171,247,194.6094,552,194.6094,552,508,22,508,22,171" style="stroke: #000000; stroke-width: 1.5;"/><line style="stroke: #000000; stroke-width: 1.5;" x1="22" x2="247" y1="194.6094" y2="194.6094"/><text fill="#000000" font-family="sans-serif" font-size="14" font-weight="bold" lengthAdjust="spacingAndGlyphs" textLength="212" x="26" y="187.5332">it.polimi.ingsw.network.server</text><!--cluster java.lang--><polygon fill="#FFFFFF" filter="url(#f1iimh2l542uuo)" points="88,24,157,24,164,47.6094,208,47.6094,208,138,88,138,88,24" style="stroke: #000000; stroke-width: 1.5;"/><line style="stroke: #000000; stroke-width: 1.5;" x1="88" x2="164" y1="47.6094" y2="47.6094"/><text fill="#000000" font-family="sans-serif" font-size="14" font-weight="bold" lengthAdjust="spacingAndGlyphs" textLength="63" x="92" y="40.5332">java.lang</text><!--class it.polimi.ingsw.network.server.Server--><a href="Server.html" target="_top" xlink:actuate="onRequest" xlink:show="new" xlink:title="Server.html" xlink:type="simple"><rect fill="#FEFECE" filter="url(#f1iimh2l542uuo)" height="117.1797" id="it.polimi.ingsw.network.server.Server" style="stroke: #A80036; stroke-width: 1.5;" width="243" x="292.5" y="207"/><ellipse cx="392.25" cy="223" fill="#ADD1B2" rx="11" ry="11" style="stroke: #A80036; stroke-width: 1.0;"/><path d="M395.0156,218.875 Q395.1719,218.6563 395.3594,218.5469 Q395.5469,218.4375 395.7656,218.4375 Q396.1406,218.4375 396.375,218.7031 Q396.6094,218.9531 396.6094,219.5625 L396.6094,221.0156 Q396.6094,221.625 396.375,221.8906 Q396.1406,222.1563 395.7656,222.1563 Q395.4219,222.1563 395.2188,221.9531 Q395.0156,221.7656 394.9063,221.25 Q394.8594,220.8906 394.6719,220.7031 Q394.3438,220.3281 393.7344,220.1094 Q393.125,219.8906 392.5,219.8906 Q391.7344,219.8906 391.0938,220.2188 Q390.4688,220.5469 389.9688,221.2969 Q389.4844,222.0469 389.4844,223.0781 L389.4844,224.1719 Q389.4844,225.4063 390.375,226.2344 Q391.2656,227.0469 392.8594,227.0469 Q393.7969,227.0469 394.4531,226.7969 Q394.8438,226.6406 395.2656,226.2031 Q395.5313,225.9375 395.6719,225.8594 Q395.8281,225.7813 396.0313,225.7813 Q396.3594,225.7813 396.6094,226.0469 Q396.875,226.2969 396.875,226.6406 Q396.875,226.9844 396.5313,227.3906 Q396.0313,227.9688 395.2344,228.2969 Q394.1563,228.75 392.8594,228.75 Q391.3438,228.75 390.1406,228.125 Q389.1563,227.625 388.4688,226.5625 Q387.7813,225.4844 387.7813,224.2031 L387.7813,223.0469 Q387.7813,221.7188 388.3906,220.5781 Q389.0156,219.4219 390.1094,218.8125 Q391.2031,218.1875 392.4375,218.1875 Q393.1719,218.1875 393.8125,218.3594 Q394.4688,218.5156 395.0156,218.875 Z "/><text fill="#000000" font-family="sans-serif" font-size="12" lengthAdjust="spacingAndGlyphs" textLength="35" x="412.75" y="227.9102">Server</text><line style="stroke: #A80036; stroke-width: 1.5;" x1="293.5" x2="534.5" y1="239" y2="239"/><line style="stroke: #A80036; stroke-width: 1.5;" x1="293.5" x2="534.5" y1="247" y2="247"/><ellipse cx="303.5" cy="259.418" fill="#84BE84" rx="3" ry="3" style="stroke: #038048; stroke-width: 1.0;"/><text fill="#000000" font-family="sans-serif" font-size="11" lengthAdjust="spacingAndGlyphs" textLength="52" x="312.5" y="262.4189">Server(int)</text><ellipse cx="303.5" cy="273.2539" fill="#84BE84" rx="3" ry="3" style="stroke: #038048; stroke-width: 1.0;"/><text fill="#000000" font-family="sans-serif" font-size="11" lengthAdjust="spacingAndGlyphs" text-decoration="underline" textLength="171" x="312.5" y="276.2549">setServerAvailability(boolean): void</text><ellipse cx="303.5" cy="287.0898" fill="#84BE84" rx="3" ry="3" style="stroke: #038048; stroke-width: 1.0;"/><text fill="#000000" font-family="sans-serif" font-size="11" lengthAdjust="spacingAndGlyphs" text-decoration="underline" textLength="70" x="312.5" y="290.0908">refresh(): void</text><ellipse cx="303.5" cy="300.9258" fill="#84BE84" rx="3" ry="3" style="stroke: #038048; stroke-width: 1.0;"/><text fill="#000000" font-family="sans-serif" font-size="11" lengthAdjust="spacingAndGlyphs" textLength="217" x="312.5" y="303.9268">lobby(String, SocketClientConnection): Player</text><ellipse cx="303.5" cy="314.7617" fill="#84BE84" rx="3" ry="3" style="stroke: #038048; stroke-width: 1.0;"/><text fill="#000000" font-family="sans-serif" font-size="11" lengthAdjust="spacingAndGlyphs" textLength="50" x="312.5" y="317.7627">run(): void</text></a><!--class it.polimi.ingsw.network.server.SocketClientConnection--><a href="SocketClientConnection.html" target="_top" xlink:actuate="onRequest" xlink:show="new" xlink:title="SocketClientConnection.html" xlink:type="simple"><rect fill="#FEFECE" filter="url(#f1iimh2l542uuo)" height="103.3438" id="it.polimi.ingsw.network.server.SocketClientConnection" style="stroke: #A80036; stroke-width: 1.5;" width="219" x="38.5" y="214"/><ellipse cx="78.25" cy="230" fill="#ADD1B2" rx="11" ry="11" style="stroke: #A80036; stroke-width: 1.0;"/><path d="M81.0156,225.875 Q81.1719,225.6563 81.3594,225.5469 Q81.5469,225.4375 81.7656,225.4375 Q82.1406,225.4375 82.375,225.7031 Q82.6094,225.9531 82.6094,226.5625 L82.6094,228.0156 Q82.6094,228.625 82.375,228.8906 Q82.1406,229.1563 81.7656,229.1563 Q81.4219,229.1563 81.2188,228.9531 Q81.0156,228.7656 80.9063,228.25 Q80.8594,227.8906 80.6719,227.7031 Q80.3438,227.3281 79.7344,227.1094 Q79.125,226.8906 78.5,226.8906 Q77.7344,226.8906 77.0938,227.2188 Q76.4688,227.5469 75.9688,228.2969 Q75.4844,229.0469 75.4844,230.0781 L75.4844,231.1719 Q75.4844,232.4063 76.375,233.2344 Q77.2656,234.0469 78.8594,234.0469 Q79.7969,234.0469 80.4531,233.7969 Q80.8438,233.6406 81.2656,233.2031 Q81.5313,232.9375 81.6719,232.8594 Q81.8281,232.7813 82.0313,232.7813 Q82.3594,232.7813 82.6094,233.0469 Q82.875,233.2969 82.875,233.6406 Q82.875,233.9844 82.5313,234.3906 Q82.0313,234.9688 81.2344,235.2969 Q80.1563,235.75 78.8594,235.75 Q77.3438,235.75 76.1406,235.125 Q75.1563,234.625 74.4688,233.5625 Q73.7813,232.4844 73.7813,231.2031 L73.7813,230.0469 Q73.7813,228.7188 74.3906,227.5781 Q75.0156,226.4219 76.1094,225.8125 Q77.2031,225.1875 78.4375,225.1875 Q79.1719,225.1875 79.8125,225.3594 Q80.4688,225.5156 81.0156,225.875 Z "/><text fill="#000000" font-family="sans-serif" font-size="12" lengthAdjust="spacingAndGlyphs" textLength="132" x="97.75" y="234.9102">SocketClientConnection</text><line style="stroke: #A80036; stroke-width: 1.5;" x1="39.5" x2="256.5" y1="246" y2="246"/><line style="stroke: #A80036; stroke-width: 1.5;" x1="39.5" x2="256.5" y1="254" y2="254"/><ellipse cx="49.5" cy="266.418" fill="#84BE84" rx="3" ry="3" style="stroke: #038048; stroke-width: 1.0;"/><text fill="#000000" font-family="sans-serif" font-size="11" lengthAdjust="spacingAndGlyphs" textLength="193" x="58.5" y="269.4189">SocketClientConnection(Socket, Server)</text><ellipse cx="49.5" cy="280.2539" fill="#84BE84" rx="3" ry="3" style="stroke: #038048; stroke-width: 1.0;"/><text fill="#000000" font-family="sans-serif" font-size="11" lengthAdjust="spacingAndGlyphs" textLength="120" x="58.5" y="283.2549">asyncSend(Object): void</text><ellipse cx="49.5" cy="294.0898" fill="#84BE84" rx="3" ry="3" style="stroke: #038048; stroke-width: 1.0;"/><text fill="#000000" font-family="sans-serif" font-size="11" lengthAdjust="spacingAndGlyphs" textLength="114" x="58.5" y="297.0908">closeConnection(): void</text><ellipse cx="49.5" cy="307.9258" fill="#84BE84" rx="3" ry="3" style="stroke: #038048; stroke-width: 1.0;"/><text fill="#000000" font-family="sans-serif" font-size="11" lengthAdjust="spacingAndGlyphs" textLength="50" x="58.5" y="310.9268">run(): void</text></a><!--class it.polimi.ingsw.network.server.SocketRemoteView--><a href="SocketRemoteView.html" target="_top" xlink:actuate="onRequest" xlink:show="new" xlink:title="SocketRemoteView.html" xlink:type="simple"><rect fill="#FEFECE" filter="url(#f1iimh2l542uuo)" height="89.5078" id="it.polimi.ingsw.network.server.SocketRemoteView" style="stroke: #A80036; stroke-width: 1.5;" width="278" x="38" y="402"/><ellipse cx="119.25" cy="418" fill="#ADD1B2" rx="11" ry="11" style="stroke: #A80036; stroke-width: 1.0;"/><path d="M122.0156,413.875 Q122.1719,413.6563 122.3594,413.5469 Q122.5469,413.4375 122.7656,413.4375 Q123.1406,413.4375 123.375,413.7031 Q123.6094,413.9531 123.6094,414.5625 L123.6094,416.0156 Q123.6094,416.625 123.375,416.8906 Q123.1406,417.1563 122.7656,417.1563 Q122.4219,417.1563 122.2188,416.9531 Q122.0156,416.7656 121.9063,416.25 Q121.8594,415.8906 121.6719,415.7031 Q121.3438,415.3281 120.7344,415.1094 Q120.125,414.8906 119.5,414.8906 Q118.7344,414.8906 118.0938,415.2188 Q117.4688,415.5469 116.9688,416.2969 Q116.4844,417.0469 116.4844,418.0781 L116.4844,419.1719 Q116.4844,420.4063 117.375,421.2344 Q118.2656,422.0469 119.8594,422.0469 Q120.7969,422.0469 121.4531,421.7969 Q121.8438,421.6406 122.2656,421.2031 Q122.5313,420.9375 122.6719,420.8594 Q122.8281,420.7813 123.0313,420.7813 Q123.3594,420.7813 123.6094,421.0469 Q123.875,421.2969 123.875,421.6406 Q123.875,421.9844 123.5313,422.3906 Q123.0313,422.9688 122.2344,423.2969 Q121.1563,423.75 119.8594,423.75 Q118.3438,423.75 117.1406,423.125 Q116.1563,422.625 115.4688,421.5625 Q114.7813,420.4844 114.7813,419.2031 L114.7813,418.0469 Q114.7813,416.7188 115.3906,415.5781 Q116.0156,414.4219 117.1094,413.8125 Q118.2031,413.1875 119.4375,413.1875 Q120.1719,413.1875 120.8125,413.3594 Q121.4688,413.5156 122.0156,413.875 Z "/><text fill="#000000" font-family="sans-serif" font-size="12" lengthAdjust="spacingAndGlyphs" textLength="107" x="139.75" y="422.9102">SocketRemoteView</text><line style="stroke: #A80036; stroke-width: 1.5;" x1="39" x2="315" y1="434" y2="434"/><line style="stroke: #A80036; stroke-width: 1.5;" x1="39" x2="315" y1="442" y2="442"/><ellipse cx="49" cy="454.418" fill="#84BE84" rx="3" ry="3" style="stroke: #038048; stroke-width: 1.0;"/><text fill="#000000" font-family="sans-serif" font-size="11" lengthAdjust="spacingAndGlyphs" textLength="252" x="58" y="457.4189">SocketRemoteView(Player, SocketClientConnection)</text><ellipse cx="49" cy="468.2539" fill="#84BE84" rx="3" ry="3" style="stroke: #038048; stroke-width: 1.0;"/><text fill="#000000" font-family="sans-serif" font-size="11" lengthAdjust="spacingAndGlyphs" textLength="183" x="58" y="471.2549">createChangeInDeck(): ChangeInDeck</text><ellipse cx="49" cy="482.0898" fill="#84BE84" rx="3" ry="3" style="stroke: #038048; stroke-width: 1.0;"/><text fill="#000000" font-family="sans-serif" font-size="11" lengthAdjust="spacingAndGlyphs" textLength="191" x="58" y="485.0908">messageReceiver(ClientMessage): void</text></a><!--class java.lang.Runnable--><rect fill="#FEFECE" filter="url(#f1iimh2l542uuo)" height="61.8359" id="java.lang.Runnable" style="stroke: #A80036; stroke-width: 1.5;" width="87" x="104.5" y="60"/><ellipse cx="119.5" cy="76" fill="#B4A7E5" rx="11" ry="11" style="stroke: #A80036; stroke-width: 1.0;"/><path d="M120.4531,72.6406 L120.4531,79.2969 L122.1719,79.2969 Q122.7813,79.2969 123.0469,79.5313 Q123.3125,79.7656 123.3125,80.1563 Q123.3125,80.5313 123.0469,80.7656 Q122.7813,81 122.1719,81 L117.0313,81 Q116.4219,81 116.1563,80.7656 Q115.8906,80.5313 115.8906,80.1406 Q115.8906,79.7656 116.1563,79.5313 Q116.4219,79.2969 117.0313,79.2969 L118.75,79.2969 L118.75,72.6406 L117.0313,72.6406 Q116.4219,72.6406 116.1563,72.4063 Q115.8906,72.1719 115.8906,71.7813 Q115.8906,71.4063 116.1563,71.1719 Q116.4219,70.9375 117.0313,70.9375 L122.1719,70.9375 Q122.7813,70.9375 123.0469,71.1719 Q123.3125,71.4063 123.3125,71.7813 Q123.3125,72.1719 123.0469,72.4063 Q122.7813,72.6406 122.1719,72.6406 L120.4531,72.6406 Z "/><text fill="#000000" font-family="sans-serif" font-size="12" font-style="italic" lengthAdjust="spacingAndGlyphs" textLength="55" x="133.5" y="80.9102">Runnable</text><line style="stroke: #A80036; stroke-width: 1.5;" x1="105.5" x2="190.5" y1="92" y2="92"/><line style="stroke: #A80036; stroke-width: 1.5;" x1="105.5" x2="190.5" y1="100" y2="100"/><ellipse cx="115.5" cy="112.418" fill="#84BE84" rx="3" ry="3" style="stroke: #038048; stroke-width: 1.0;"/><text fill="#000000" font-family="sans-serif" font-size="11" font-style="italic" lengthAdjust="spacingAndGlyphs" textLength="50" x="124.5" y="115.4189">run(): void</text><!--link java.lang.Runnable to it.polimi.ingsw.network.server.SocketClientConnection--><path d="M148,142.171 C148,164.715 148,191.269 148,213.866 " fill="none" id="java.lang.Runnable-it.polimi.ingsw.network.server.SocketClientConnection" style="stroke: #A80036; stroke-width: 1.0; stroke-dasharray: 7.0,7.0;"/><polygon fill="none" points="141,142.047,148,122.047,155,142.047,141,142.047" style="stroke: #A80036; stroke-width: 1.0;"/><!--link it.polimi.ingsw.network.server.SocketClientConnection to it.polimi.ingsw.network.server.SocketRemoteView--><path d="M156.233,317.457 C160.25,342.326 165.063,372.115 169.044,396.752 " fill="none" id="it.polimi.ingsw.network.server.SocketClientConnection-it.polimi.ingsw.network.server.SocketRemoteView" style="stroke: #A80036; stroke-width: 1.0;"/><polygon fill="#A80036" points="169.88,401.928,172.3939,392.4054,169.0828,396.992,164.4962,393.6809,169.88,401.928" style="stroke: #A80036; stroke-width: 1.0;"/><text fill="#000000" font-family="sans-serif" font-size="13" lengthAdjust="spacingAndGlyphs" textLength="65" x="165" y="368.4951">viewSocket</text><text fill="#888888" font-family="sans-serif" font-size="10" lengthAdjust="spacingAndGlyphs" textLength="190" x="198" y="544.3809">UMLDoclet 2.0.10, PlantUML 1.2019.08</text><!--
@startuml
    namespace it.polimi.ingsw.network.server {

        class Server [[Server.html]] {
            +Server(int)
            {static} +setServerAvailability(boolean): void
            {static} +refresh(): void
            +lobby(String, SocketClientConnection): Player
            +run(): void
        }

        class SocketClientConnection [[SocketClientConnection.html]] {
            +SocketClientConnection(Socket, Server)
            +asyncSend(Object): void
            +closeConnection(): void
            +run(): void
        }

        class SocketRemoteView [[SocketRemoteView.html]] {
            +SocketRemoteView(Player, SocketClientConnection)
            +createChangeInDeck(): ChangeInDeck
            +messageReceiver(ClientMessage): void
        }

        java.lang.Runnable <|.. SocketClientConnection
        SocketClientConnection - -> SocketRemoteView: viewSocket
    }

    namespace java.lang {
        interface Runnable {
            {abstract} +run(): void
        }
    }

    center footer UMLDoclet 2.0.10, PlantUML 1.2019.08
@enduml

PlantUML version 1.2019.08(Sat Jul 13 21:25:14 CEST 2019)
(APACHE source distribution)
Java Runtime: Java(TM) SE Runtime Environment
JVM: Java HotSpot(TM) 64-Bit Server VM
Java Version: 14.0.1+7
Operating System: Windows 10
OS Version: 10.0
Default Encoding: Cp1252
Language: it
Country: IT
--></g></svg>