<?xml version="1.0" encoding="UTF-8" standalone="no"?><svg xmlns="http://www.w3.org/2000/svg" xmlns:xlink="http://www.w3.org/1999/xlink" contentScriptType="application/ecmascript" contentStyleType="text/css" height="158px" preserveAspectRatio="none" style="width:260px;height:158px;" version="1.1" viewBox="0 0 260 158" width="260px" zoomAndPan="magnify"><defs><filter height="300%" id="f17tmxzeixiy7s" width="300%" x="-1" y="-1"><feGaussianBlur result="blurOut" stdDeviation="2.0"/><feColorMatrix in="blurOut" result="blurOut2" type="matrix" values="0 0 0 0 0 0 0 0 0 0 0 0 0 0 0 0 0 0 .4 0"/><feOffset dx="4.0" dy="4.0" in="blurOut2" result="blurOut3"/><feBlend in="SourceGraphic" in2="blurOut3" mode="normal"/></filter></defs><g><!--class it.polimi.ingsw.network.server.Server--><a href="Server.html" target="_top" xlink:actuate="onRequest" xlink:show="new" xlink:title="Server.html" xlink:type="simple"><rect fill="#FEFECE" filter="url(#f17tmxzeixiy7s)" height="117.3672" id="it.polimi.ingsw.network.server.Server" style="stroke: #A80036; stroke-width: 1.5;" width="243" x="6" y="8"/><ellipse cx="55.25" cy="28.0938" fill="#ADD1B2" rx="11" ry="11" style="stroke: #A80036; stroke-width: 1.0;"/><path d="M58.0156,23.9688 Q58.1719,23.75 58.3594,23.6406 Q58.5469,23.5313 58.7656,23.5313 Q59.1406,23.5313 59.375,23.7969 Q59.6094,24.0469 59.6094,24.6563 L59.6094,26.1094 Q59.6094,26.7188 59.375,26.9844 Q59.1406,27.25 58.7656,27.25 Q58.4219,27.25 58.2188,27.0469 Q58.0156,26.8594 57.9063,26.3438 Q57.8594,25.9844 57.6719,25.7969 Q57.3438,25.4219 56.7344,25.2031 Q56.125,24.9844 55.5,24.9844 Q54.7344,24.9844 54.0938,25.3125 Q53.4688,25.6406 52.9688,26.3906 Q52.4844,27.1406 52.4844,28.1719 L52.4844,29.2656 Q52.4844,30.5 53.375,31.3281 Q54.2656,32.1406 55.8594,32.1406 Q56.7969,32.1406 57.4531,31.8906 Q57.8438,31.7344 58.2656,31.2969 Q58.5313,31.0313 58.6719,30.9531 Q58.8281,30.875 59.0313,30.875 Q59.3594,30.875 59.6094,31.1406 Q59.875,31.3906 59.875,31.7344 Q59.875,32.0781 59.5313,32.4844 Q59.0313,33.0625 58.2344,33.3906 Q57.1563,33.8438 55.8594,33.8438 Q54.3438,33.8438 53.1406,33.2188 Q52.1563,32.7188 51.4688,31.6563 Q50.7813,30.5781 50.7813,29.2969 L50.7813,28.1406 Q50.7813,26.8125 51.3906,25.6719 Q52.0156,24.5156 53.1094,23.9063 Q54.2031,23.2813 55.4375,23.2813 Q56.1719,23.2813 56.8125,23.4531 Q57.4688,23.6094 58.0156,23.9688 Z "/><text fill="#000000" font-family="sans-serif" font-size="14" lengthAdjust="spacingAndGlyphs" textLength="42" x="122.75" y="27.5332">Server</text><text fill="#000000" font-family="sans-serif" font-size="10" lengthAdjust="spacingAndGlyphs" textLength="136" x="75.75" y="40.9902">it.polimi.ingsw.network.server</text><line style="stroke: #A80036; stroke-width: 1.5;" x1="7" x2="248" y1="48.1875" y2="48.1875"/><ellipse cx="17" cy="60.6055" fill="#84BE84" rx="3" ry="3" style="stroke: #038048; stroke-width: 1.0;"/><text fill="#000000" font-family="sans-serif" font-size="11" lengthAdjust="spacingAndGlyphs" textLength="52" x="26" y="63.6064">Server(int)</text><ellipse cx="17" cy="74.4414" fill="#84BE84" rx="3" ry="3" style="stroke: #038048; stroke-width: 1.0;"/><text fill="#000000" font-family="sans-serif" font-size="11" lengthAdjust="spacingAndGlyphs" text-decoration="underline" textLength="171" x="26" y="77.4424">setServerAvailability(boolean): void</text><ellipse cx="17" cy="88.2773" fill="#84BE84" rx="3" ry="3" style="stroke: #038048; stroke-width: 1.0;"/><text fill="#000000" font-family="sans-serif" font-size="11" lengthAdjust="spacingAndGlyphs" text-decoration="underline" textLength="70" x="26" y="91.2783">refresh(): void</text><ellipse cx="17" cy="102.1133" fill="#84BE84" rx="3" ry="3" style="stroke: #038048; stroke-width: 1.0;"/><text fill="#000000" font-family="sans-serif" font-size="11" lengthAdjust="spacingAndGlyphs" textLength="217" x="26" y="105.1143">lobby(String, SocketClientConnection): Player</text><ellipse cx="17" cy="115.9492" fill="#84BE84" rx="3" ry="3" style="stroke: #038048; stroke-width: 1.0;"/><text fill="#000000" font-family="sans-serif" font-size="11" lengthAdjust="spacingAndGlyphs" textLength="50" x="26" y="118.9502">run(): void</text></a><text fill="#888888" font-family="sans-serif" font-size="10" lengthAdjust="spacingAndGlyphs" textLength="190" x="38.5" y="145.3809">UMLDoclet 2.0.10, PlantUML 1.2019.08</text><!--
@startuml
    set namespaceSeparator none
    hide empty fields
    hide empty methods

    class "<size:14>Server\n<size:10>it.polimi.ingsw.network.server" as it.polimi.ingsw.network.server.Server [[Server.html]] {
        +Server(int)
        {static} +setServerAvailability(boolean): void
        {static} +refresh(): void
        +lobby(String, SocketClientConnection): Player
        +run(): void
    }

    center footer UMLDoclet 2.0.10, PlantUML 1.2019.08
@enduml

PlantUML version 1.2019.08(Sat Jul 13 21:25:14 CEST 2019)
(APACHE source distribution)
Java Runtime: Java(TM) SE Runtime Environment
JVM: Java HotSpot(TM) 64-Bit Server VM
Java Version: 14.0.1+7
Operating System: Windows 10
OS Version: 10.0
Default Encoding: Cp1252
Language: it
Country: IT
--></g></svg>