<?xml version="1.0" encoding="UTF-8" standalone="no"?><svg xmlns="http://www.w3.org/2000/svg" xmlns:xlink="http://www.w3.org/1999/xlink" contentScriptType="application/ecmascript" contentStyleType="text/css" height="294px" preserveAspectRatio="none" style="width:246px;height:294px;" version="1.1" viewBox="0 0 246 294" width="246px" zoomAndPan="magnify"><defs><filter height="300%" id="f1txm2wz7xqa91" width="300%" x="-1" y="-1"><feGaussianBlur result="blurOut" stdDeviation="2.0"/><feColorMatrix in="blurOut" result="blurOut2" type="matrix" values="0 0 0 0 0 0 0 0 0 0 0 0 0 0 0 0 0 0 .4 0"/><feOffset dx="4.0" dy="4.0" in="blurOut2" result="blurOut3"/><feBlend in="SourceGraphic" in2="blurOut3" mode="normal"/></filter></defs><g><!--class it.polimi.ingsw.network.server.SocketClientConnection--><a href="SocketClientConnection.html" target="_top" xlink:actuate="onRequest" xlink:show="new" xlink:title="SocketClientConnection.html" xlink:type="simple"><rect fill="#FEFECE" filter="url(#f1txm2wz7xqa91)" height="131.2031" id="it.polimi.ingsw.network.server.SocketClientConnection" style="stroke: #A80036; stroke-width: 1.5;" width="229" x="6" y="130"/><ellipse cx="41.7" cy="150.0938" fill="#ADD1B2" rx="11" ry="11" style="stroke: #A80036; stroke-width: 1.0;"/><path d="M44.4656,145.9688 Q44.6219,145.75 44.8094,145.6406 Q44.9969,145.5313 45.2156,145.5313 Q45.5906,145.5313 45.825,145.7969 Q46.0594,146.0469 46.0594,146.6563 L46.0594,148.1094 Q46.0594,148.7188 45.825,148.9844 Q45.5906,149.25 45.2156,149.25 Q44.8719,149.25 44.6688,149.0469 Q44.4656,148.8594 44.3563,148.3438 Q44.3094,147.9844 44.1219,147.7969 Q43.7938,147.4219 43.1844,147.2031 Q42.575,146.9844 41.95,146.9844 Q41.1844,146.9844 40.5438,147.3125 Q39.9188,147.6406 39.4188,148.3906 Q38.9344,149.1406 38.9344,150.1719 L38.9344,151.2656 Q38.9344,152.5 39.825,153.3281 Q40.7156,154.1406 42.3094,154.1406 Q43.2469,154.1406 43.9031,153.8906 Q44.2938,153.7344 44.7156,153.2969 Q44.9813,153.0313 45.1219,152.9531 Q45.2781,152.875 45.4813,152.875 Q45.8094,152.875 46.0594,153.1406 Q46.325,153.3906 46.325,153.7344 Q46.325,154.0781 45.9813,154.4844 Q45.4813,155.0625 44.6844,155.3906 Q43.6063,155.8438 42.3094,155.8438 Q40.7938,155.8438 39.5906,155.2188 Q38.6063,154.7188 37.9188,153.6563 Q37.2313,152.5781 37.2313,151.2969 L37.2313,150.1406 Q37.2313,148.8125 37.8406,147.6719 Q38.4656,146.5156 39.5594,145.9063 Q40.6531,145.2813 41.8875,145.2813 Q42.6219,145.2813 43.2625,145.4531 Q43.9188,145.6094 44.4656,145.9688 Z "/><text fill="#000000" font-family="sans-serif" font-size="14" lengthAdjust="spacingAndGlyphs" textLength="151" x="60.3" y="149.5332">SocketClientConnection</text><text fill="#000000" font-family="sans-serif" font-size="10" lengthAdjust="spacingAndGlyphs" textLength="136" x="67.8" y="162.9902">it.polimi.ingsw.network.server</text><line style="stroke: #A80036; stroke-width: 1.5;" x1="7" x2="234" y1="170.1875" y2="170.1875"/><ellipse cx="17" cy="182.6055" fill="#84BE84" rx="3" ry="3" style="stroke: #038048; stroke-width: 1.0;"/><text fill="#000000" font-family="sans-serif" font-size="11" lengthAdjust="spacingAndGlyphs" textLength="193" x="26" y="185.6064">SocketClientConnection(Socket, Server)</text><ellipse cx="17" cy="196.4414" fill="#84BE84" rx="3" ry="3" style="stroke: #038048; stroke-width: 1.0;"/><text fill="#000000" font-family="sans-serif" font-size="11" lengthAdjust="spacingAndGlyphs" textLength="203" x="26" y="199.4424">setViewSocket(SocketRemoteView): void</text><ellipse cx="17" cy="210.2773" fill="#84BE84" rx="3" ry="3" style="stroke: #038048; stroke-width: 1.0;"/><text fill="#000000" font-family="sans-serif" font-size="11" lengthAdjust="spacingAndGlyphs" textLength="183" x="26" y="213.2783">getViewSocket(): SocketRemoteView</text><ellipse cx="17" cy="224.1133" fill="#84BE84" rx="3" ry="3" style="stroke: #038048; stroke-width: 1.0;"/><text fill="#000000" font-family="sans-serif" font-size="11" lengthAdjust="spacingAndGlyphs" textLength="120" x="26" y="227.1143">asyncSend(Object): void</text><ellipse cx="17" cy="237.9492" fill="#84BE84" rx="3" ry="3" style="stroke: #038048; stroke-width: 1.0;"/><text fill="#000000" font-family="sans-serif" font-size="11" lengthAdjust="spacingAndGlyphs" textLength="114" x="26" y="240.9502">closeConnection(): void</text><ellipse cx="17" cy="251.7852" fill="#84BE84" rx="3" ry="3" style="stroke: #038048; stroke-width: 1.0;"/><text fill="#000000" font-family="sans-serif" font-size="11" lengthAdjust="spacingAndGlyphs" textLength="50" x="26" y="254.7861">run(): void</text></a><!--class java.lang.Runnable--><rect fill="#FEFECE" filter="url(#f1txm2wz7xqa91)" height="62.0234" id="java.lang.Runnable" style="stroke: #A80036; stroke-width: 1.5;" width="93" x="74" y="8"/><ellipse cx="89" cy="28.0938" fill="#B4A7E5" rx="11" ry="11" style="stroke: #A80036; stroke-width: 1.0;"/><path d="M89.9531,24.7344 L89.9531,31.3906 L91.6719,31.3906 Q92.2813,31.3906 92.5469,31.625 Q92.8125,31.8594 92.8125,32.25 Q92.8125,32.625 92.5469,32.8594 Q92.2813,33.0938 91.6719,33.0938 L86.5313,33.0938 Q85.9219,33.0938 85.6563,32.8594 Q85.3906,32.625 85.3906,32.2344 Q85.3906,31.8594 85.6563,31.625 Q85.9219,31.3906 86.5313,31.3906 L88.25,31.3906 L88.25,24.7344 L86.5313,24.7344 Q85.9219,24.7344 85.6563,24.5 Q85.3906,24.2656 85.3906,23.875 Q85.3906,23.5 85.6563,23.2656 Q85.9219,23.0313 86.5313,23.0313 L91.6719,23.0313 Q92.2813,23.0313 92.5469,23.2656 Q92.8125,23.5 92.8125,23.875 Q92.8125,24.2656 92.5469,24.5 Q92.2813,24.7344 91.6719,24.7344 L89.9531,24.7344 Z "/><text fill="#000000" font-family="sans-serif" font-size="14" font-style="italic" lengthAdjust="spacingAndGlyphs" textLength="61" x="103" y="27.5332">Runnable</text><text fill="#000000" font-family="sans-serif" font-size="10" font-style="italic" lengthAdjust="spacingAndGlyphs" textLength="43" x="112" y="40.9902">java.lang</text><line style="stroke: #A80036; stroke-width: 1.5;" x1="75" x2="166" y1="48.1875" y2="48.1875"/><ellipse cx="85" cy="60.6055" fill="#84BE84" rx="3" ry="3" style="stroke: #038048; stroke-width: 1.0;"/><text fill="#000000" font-family="sans-serif" font-size="11" font-style="italic" lengthAdjust="spacingAndGlyphs" textLength="50" x="94" y="63.6064">run(): void</text><!--link java.lang.Runnable to it.polimi.ingsw.network.server.SocketClientConnection--><path d="M120.5,90.615 C120.5,103.164 120.5,116.782 120.5,129.899 " fill="none" id="java.lang.Runnable-it.polimi.ingsw.network.server.SocketClientConnection" style="stroke: #A80036; stroke-width: 1.0; stroke-dasharray: 7.0,7.0;"/><polygon fill="none" points="113.5,90.156,120.5,70.156,127.5,90.156,113.5,90.156" style="stroke: #A80036; stroke-width: 1.0;"/><text fill="#888888" font-family="sans-serif" font-size="10" lengthAdjust="spacingAndGlyphs" textLength="190" x="31.5" y="281.3809">UMLDoclet 2.0.10, PlantUML 1.2019.08</text><!--
@startuml
    set namespaceSeparator none
    hide empty fields
    hide empty methods

    class "<size:14>SocketClientConnection\n<size:10>it.polimi.ingsw.network.server" as it.polimi.ingsw.network.server.SocketClientConnection [[SocketClientConnection.html]] {
        +SocketClientConnection(Socket, Server)
        +setViewSocket(SocketRemoteView): void
        +getViewSocket(): SocketRemoteView
        +asyncSend(Object): void
        +closeConnection(): void
        +run(): void
    }

    interface "<size:14>Runnable\n<size:10>java.lang" as java.lang.Runnable {
        {abstract} +run(): void
    }

    java.lang.Runnable <|.. it.polimi.ingsw.network.server.SocketClientConnection

    center footer UMLDoclet 2.0.10, PlantUML 1.2019.08
@enduml

PlantUML version 1.2019.08(Sat Jul 13 21:25:14 CEST 2019)
(APACHE source distribution)
Java Runtime: Java(TM) SE Runtime Environment
JVM: Java HotSpot(TM) 64-Bit Server VM
Java Version: 14.0.1+7
Operating System: Windows 10
OS Version: 10.0
Default Encoding: Cp1252
Language: it
Country: IT
--></g></svg>