<?xml version="1.0" encoding="UTF-8" standalone="no"?><svg xmlns="http://www.w3.org/2000/svg" xmlns:xlink="http://www.w3.org/1999/xlink" contentScriptType="application/ecmascript" contentStyleType="text/css" height="231px" preserveAspectRatio="none" style="width:234px;height:231px;" version="1.1" viewBox="0 0 234 231" width="234px" zoomAndPan="magnify"><defs><filter height="300%" id="f1ojqhhttiseh2" width="300%" x="-1" y="-1"><feGaussianBlur result="blurOut" stdDeviation="2.0"/><feColorMatrix in="blurOut" result="blurOut2" type="matrix" values="0 0 0 0 0 0 0 0 0 0 0 0 0 0 0 0 0 0 .4 0"/><feOffset dx="4.0" dy="4.0" in="blurOut2" result="blurOut3"/><feBlend in="SourceGraphic" in2="blurOut3" mode="normal"/></filter></defs><g><!--class it.polimi.ingsw.model.game.Game--><a href="Game.html" target="_top" xlink:actuate="onRequest" xlink:show="new" xlink:title="Game.html" xlink:type="simple"><rect fill="#FEFECE" filter="url(#f1ojqhhttiseh2)" height="89.6953" id="it.polimi.ingsw.model.game.Game" style="stroke: #A80036; stroke-width: 1.5;" width="217" x="6" y="108"/><ellipse cx="45.3" cy="128.0938" fill="#ADD1B2" rx="11" ry="11" style="stroke: #A80036; stroke-width: 1.0;"/><path d="M48.0656,123.9688 Q48.2219,123.75 48.4094,123.6406 Q48.5969,123.5313 48.8156,123.5313 Q49.1906,123.5313 49.425,123.7969 Q49.6594,124.0469 49.6594,124.6563 L49.6594,126.1094 Q49.6594,126.7188 49.425,126.9844 Q49.1906,127.25 48.8156,127.25 Q48.4719,127.25 48.2688,127.0469 Q48.0656,126.8594 47.9563,126.3438 Q47.9094,125.9844 47.7219,125.7969 Q47.3938,125.4219 46.7844,125.2031 Q46.175,124.9844 45.55,124.9844 Q44.7844,124.9844 44.1438,125.3125 Q43.5188,125.6406 43.0188,126.3906 Q42.5344,127.1406 42.5344,128.1719 L42.5344,129.2656 Q42.5344,130.5 43.425,131.3281 Q44.3156,132.1406 45.9094,132.1406 Q46.8469,132.1406 47.5031,131.8906 Q47.8938,131.7344 48.3156,131.2969 Q48.5813,131.0313 48.7219,130.9531 Q48.8781,130.875 49.0813,130.875 Q49.4094,130.875 49.6594,131.1406 Q49.925,131.3906 49.925,131.7344 Q49.925,132.0781 49.5813,132.4844 Q49.0813,133.0625 48.2844,133.3906 Q47.2063,133.8438 45.9094,133.8438 Q44.3938,133.8438 43.1906,133.2188 Q42.2063,132.7188 41.5188,131.6563 Q40.8313,130.5781 40.8313,129.2969 L40.8313,128.1406 Q40.8313,126.8125 41.4406,125.6719 Q42.0656,124.5156 43.1594,123.9063 Q44.2531,123.2813 45.4875,123.2813 Q46.2219,123.2813 46.8625,123.4531 Q47.5188,123.6094 48.0656,123.9688 Z "/><text fill="#000000" font-family="sans-serif" font-size="14" lengthAdjust="spacingAndGlyphs" textLength="38" x="111.2" y="127.5332">Game</text><text fill="#000000" font-family="sans-serif" font-size="10" lengthAdjust="spacingAndGlyphs" textLength="131" x="64.7" y="140.9902">it.polimi.ingsw.model.game</text><line style="stroke: #A80036; stroke-width: 1.5;" x1="7" x2="222" y1="148.1875" y2="148.1875"/><ellipse cx="17" cy="160.6055" fill="#84BE84" rx="3" ry="3" style="stroke: #038048; stroke-width: 1.0;"/><text fill="#000000" font-family="sans-serif" font-size="11" lengthAdjust="spacingAndGlyphs" text-decoration="underline" textLength="98" x="26" y="163.6064">getInstance(): Game</text><ellipse cx="17" cy="174.4414" fill="#84BE84" rx="3" ry="3" style="stroke: #038048; stroke-width: 1.0;"/><text fill="#000000" font-family="sans-serif" font-size="11" lengthAdjust="spacingAndGlyphs" textLength="191" x="26" y="177.4424">setGameState(Player, GameState): void</text><ellipse cx="17" cy="188.2773" fill="#84BE84" rx="3" ry="3" style="stroke: #038048; stroke-width: 1.0;"/><text fill="#000000" font-family="sans-serif" font-size="11" lengthAdjust="spacingAndGlyphs" textLength="165" x="26" y="191.2783">getGameState(Player): GameState</text></a><!--class it.polimi.ingsw.observer.Observable--><a href="../../observer/Observable.html" target="_top" xlink:actuate="onRequest" xlink:show="new" xlink:title="../../observer/Observable.html" xlink:type="simple"><rect fill="#FEFECE" filter="url(#f1ojqhhttiseh2)" height="40.1875" id="it.polimi.ingsw.observer.Observable" style="stroke: #A80036; stroke-width: 1.5;" width="208" x="10.5" y="8"/><ellipse cx="25.5" cy="28.0938" fill="#ADD1B2" rx="11" ry="11" style="stroke: #A80036; stroke-width: 1.0;"/><path d="M28.2656,23.9688 Q28.4219,23.75 28.6094,23.6406 Q28.7969,23.5313 29.0156,23.5313 Q29.3906,23.5313 29.625,23.7969 Q29.8594,24.0469 29.8594,24.6563 L29.8594,26.1094 Q29.8594,26.7188 29.625,26.9844 Q29.3906,27.25 29.0156,27.25 Q28.6719,27.25 28.4688,27.0469 Q28.2656,26.8594 28.1563,26.3438 Q28.1094,25.9844 27.9219,25.7969 Q27.5938,25.4219 26.9844,25.2031 Q26.375,24.9844 25.75,24.9844 Q24.9844,24.9844 24.3438,25.3125 Q23.7188,25.6406 23.2188,26.3906 Q22.7344,27.1406 22.7344,28.1719 L22.7344,29.2656 Q22.7344,30.5 23.625,31.3281 Q24.5156,32.1406 26.1094,32.1406 Q27.0469,32.1406 27.7031,31.8906 Q28.0938,31.7344 28.5156,31.2969 Q28.7813,31.0313 28.9219,30.9531 Q29.0781,30.875 29.2813,30.875 Q29.6094,30.875 29.8594,31.1406 Q30.125,31.3906 30.125,31.7344 Q30.125,32.0781 29.7813,32.4844 Q29.2813,33.0625 28.4844,33.3906 Q27.4063,33.8438 26.1094,33.8438 Q24.5938,33.8438 23.3906,33.2188 Q22.4063,32.7188 21.7188,31.6563 Q21.0313,30.5781 21.0313,29.2969 L21.0313,28.1406 Q21.0313,26.8125 21.6406,25.6719 Q22.2656,24.5156 23.3594,23.9063 Q24.4531,23.2813 25.6875,23.2813 Q26.4219,23.2813 27.0625,23.4531 Q27.7188,23.6094 28.2656,23.9688 Z "/><text fill="#000000" font-family="sans-serif" font-size="14" lengthAdjust="spacingAndGlyphs" textLength="73" x="58" y="27.5332">Observable</text><text fill="#000000" font-family="sans-serif" font-size="10" lengthAdjust="spacingAndGlyphs" textLength="110" x="39.5" y="40.9902">it.polimi.ingsw.observer</text><rect fill="#FFFFFF" height="17.0938" style="stroke: #000000; stroke-width: 1.0; stroke-dasharray: 2.0,2.0;" width="64" x="157.5" y="5"/><text fill="#000000" font-family="sans-serif" font-size="12" font-style="italic" lengthAdjust="spacingAndGlyphs" textLength="62" x="158.5" y="18.457">GameState</text></a><!--link it.polimi.ingsw.observer.Observable to it.polimi.ingsw.model.game.Game--><path d="M114.5,68.254 C114.5,80.893 114.5,94.98 114.5,107.9416 " fill="none" id="it.polimi.ingsw.observer.Observable-it.polimi.ingsw.model.game.Game" style="stroke: #A80036; stroke-width: 1.0;"/><polygon fill="none" points="107.5,68.219,114.5,48.219,121.5,68.219,107.5,68.219" style="stroke: #A80036; stroke-width: 1.0;"/><text fill="#888888" font-family="sans-serif" font-size="10" lengthAdjust="spacingAndGlyphs" textLength="190" x="25.5" y="218.3809">UMLDoclet 2.0.10, PlantUML 1.2019.08</text><!--
@startuml
    set namespaceSeparator none
    hide empty fields
    hide empty methods

    class "<size:14>Game\n<size:10>it.polimi.ingsw.model.game" as it.polimi.ingsw.model.game.Game [[Game.html]] {
        {static} +getInstance(): Game
        +setGameState(Player, GameState): void
        +getGameState(Player): GameState
    }

    class "<size:14>Observable\n<size:10>it.polimi.ingsw.observer" as it.polimi.ingsw.observer.Observable<GameState> [[../../observer/Observable.html]]

    it.polimi.ingsw.observer.Observable <|- - it.polimi.ingsw.model.game.Game

    center footer UMLDoclet 2.0.10, PlantUML 1.2019.08
@enduml

PlantUML version 1.2019.08(Sat Jul 13 21:25:14 CEST 2019)
(APACHE source distribution)
Java Runtime: Java(TM) SE Runtime Environment
JVM: Java HotSpot(TM) 64-Bit Server VM
Java Version: 14.0.1+7
Operating System: Windows 10
OS Version: 10.0
Default Encoding: Cp1252
Language: it
Country: IT
--></g></svg>