<?xml version="1.0" encoding="UTF-8" standalone="no"?><svg xmlns="http://www.w3.org/2000/svg" xmlns:xlink="http://www.w3.org/1999/xlink" contentScriptType="application/ecmascript" contentStyleType="text/css" height="463px" preserveAspectRatio="none" style="width:222px;height:463px;" version="1.1" viewBox="0 0 222 463" width="222px" zoomAndPan="magnify"><defs><filter height="300%" id="f1ql3qzkfo17v2" width="300%" x="-1" y="-1"><feGaussianBlur result="blurOut" stdDeviation="2.0"/><feColorMatrix in="blurOut" result="blurOut2" type="matrix" values="0 0 0 0 0 0 0 0 0 0 0 0 0 0 0 0 0 0 .4 0"/><feOffset dx="4.0" dy="4.0" in="blurOut2" result="blurOut3"/><feBlend in="SourceGraphic" in2="blurOut3" mode="normal"/></filter></defs><g><!--class it.polimi.ingsw.model.game.GameState--><a href="GameState.html" target="_top" xlink:actuate="onRequest" xlink:show="new" xlink:title="GameState.html" xlink:type="simple"><rect fill="#FEFECE" filter="url(#f1ql3qzkfo17v2)" height="421.7578" id="it.polimi.ingsw.model.game.GameState" style="stroke: #A80036; stroke-width: 1.5;" width="205" x="6" y="8"/><ellipse cx="39.9" cy="28.0938" fill="#EB937F" rx="11" ry="11" style="stroke: #A80036; stroke-width: 1.0;"/><path d="M38.7594,28.8906 L38.7594,31.3906 L43.0875,31.3906 L43.0875,30.4688 Q43.0875,29.8594 43.3219,29.5938 Q43.5719,29.3281 43.9469,29.3281 Q44.3219,29.3281 44.5563,29.5938 Q44.7906,29.8594 44.7906,30.4688 L44.7906,33.0938 L36.7906,33.0938 Q36.1656,33.0938 35.9,32.8594 Q35.65,32.625 35.65,32.2344 Q35.65,31.8594 35.9156,31.625 Q36.1813,31.3906 36.7906,31.3906 L37.0563,31.3906 L37.0563,24.7344 L36.7906,24.7344 Q36.1656,24.7344 35.9,24.5 Q35.65,24.2656 35.65,23.875 Q35.65,23.5 35.9,23.2656 Q36.1656,23.0313 36.7906,23.0313 L44.4156,23.0313 L44.4156,25.625 Q44.4156,26.2344 44.1813,26.5 Q43.9625,26.75 43.5719,26.75 Q43.1969,26.75 42.9625,26.5 Q42.7281,26.2344 42.7281,25.625 L42.7281,24.7344 L38.7594,24.7344 L38.7594,27.1875 L40.2438,27.1875 Q40.2438,26.5313 40.3688,26.3438 Q40.6344,25.9375 41.1031,25.9375 Q41.4781,25.9375 41.7125,26.2031 Q41.9469,26.4531 41.9469,27.0625 L41.9469,29.0313 Q41.9469,29.5781 41.8219,29.7656 Q41.5563,30.1563 41.1031,30.1563 Q40.6344,30.1563 40.3688,29.75 Q40.2438,29.5625 40.2438,28.8906 L38.7594,28.8906 Z "/><text fill="#000000" font-family="sans-serif" font-size="14" lengthAdjust="spacingAndGlyphs" textLength="71" x="88.1" y="27.5332">GameState</text><text fill="#000000" font-family="sans-serif" font-size="10" lengthAdjust="spacingAndGlyphs" textLength="131" x="58.1" y="40.9902">it.polimi.ingsw.model.game</text><line style="stroke: #A80036; stroke-width: 1.5;" x1="7" x2="210" y1="48.1875" y2="48.1875"/><ellipse cx="17" cy="60.6055" fill="none" rx="3" ry="3" style="stroke: #038048; stroke-width: 1.0;"/><text fill="#000000" font-family="sans-serif" font-size="11" lengthAdjust="spacingAndGlyphs" text-decoration="underline" textLength="51" x="26" y="63.6064">WELCOME</text><ellipse cx="17" cy="74.4414" fill="none" rx="3" ry="3" style="stroke: #038048; stroke-width: 1.0;"/><text fill="#000000" font-family="sans-serif" font-size="11" lengthAdjust="spacingAndGlyphs" text-decoration="underline" textLength="85" x="26" y="77.4424">WELCOME_FIRST</text><ellipse cx="17" cy="88.2773" fill="none" rx="3" ry="3" style="stroke: #038048; stroke-width: 1.0;"/><text fill="#000000" font-family="sans-serif" font-size="11" lengthAdjust="spacingAndGlyphs" text-decoration="underline" textLength="80" x="26" y="91.2783">WAIT_PLAYERS</text><ellipse cx="17" cy="102.1133" fill="none" rx="3" ry="3" style="stroke: #038048; stroke-width: 1.0;"/><text fill="#000000" font-family="sans-serif" font-size="11" lengthAdjust="spacingAndGlyphs" text-decoration="underline" textLength="104" x="26" y="105.1143">WAIT_CARD_CHOICE</text><ellipse cx="17" cy="115.9492" fill="none" rx="3" ry="3" style="stroke: #038048; stroke-width: 1.0;"/><text fill="#000000" font-family="sans-serif" font-size="11" lengthAdjust="spacingAndGlyphs" text-decoration="underline" textLength="59" x="26" y="118.9502">WAIT_TURN</text><ellipse cx="17" cy="129.7852" fill="none" rx="3" ry="3" style="stroke: #038048; stroke-width: 1.0;"/><text fill="#000000" font-family="sans-serif" font-size="11" lengthAdjust="spacingAndGlyphs" text-decoration="underline" textLength="72" x="26" y="132.7861">CARD_CHOICE</text><ellipse cx="17" cy="143.6211" fill="none" rx="3" ry="3" style="stroke: #038048; stroke-width: 1.0;"/><text fill="#000000" font-family="sans-serif" font-size="11" lengthAdjust="spacingAndGlyphs" text-decoration="underline" textLength="70" x="26" y="146.6221">SET_WORKER</text><ellipse cx="17" cy="157.457" fill="none" rx="3" ry="3" style="stroke: #038048; stroke-width: 1.0;"/><text fill="#000000" font-family="sans-serif" font-size="11" lengthAdjust="spacingAndGlyphs" text-decoration="underline" textLength="88" x="26" y="160.458">WORKER_CHOICE</text><ellipse cx="17" cy="171.293" fill="none" rx="3" ry="3" style="stroke: #038048; stroke-width: 1.0;"/><text fill="#000000" font-family="sans-serif" font-size="11" lengthAdjust="spacingAndGlyphs" text-decoration="underline" textLength="125" x="26" y="174.2939">QUESTION_PROMETHEUS</text><ellipse cx="17" cy="185.1289" fill="none" rx="3" ry="3" style="stroke: #038048; stroke-width: 1.0;"/><text fill="#000000" font-family="sans-serif" font-size="11" lengthAdjust="spacingAndGlyphs" text-decoration="underline" textLength="122" x="26" y="188.1299">PREBUILD_PROMETHEUS</text><ellipse cx="17" cy="198.9648" fill="none" rx="3" ry="3" style="stroke: #038048; stroke-width: 1.0;"/><text fill="#000000" font-family="sans-serif" font-size="11" lengthAdjust="spacingAndGlyphs" text-decoration="underline" textLength="57" x="26" y="201.9658">MOVEMENT</text><ellipse cx="17" cy="212.8008" fill="none" rx="3" ry="3" style="stroke: #038048; stroke-width: 1.0;"/><text fill="#000000" font-family="sans-serif" font-size="11" lengthAdjust="spacingAndGlyphs" text-decoration="underline" textLength="101" x="26" y="215.8018">QUESTION_ARTEMIS</text><ellipse cx="17" cy="226.6367" fill="none" rx="3" ry="3" style="stroke: #038048; stroke-width: 1.0;"/><text fill="#000000" font-family="sans-serif" font-size="11" lengthAdjust="spacingAndGlyphs" text-decoration="underline" textLength="78" x="26" y="229.6377">SECOND_MOVE</text><ellipse cx="17" cy="240.4727" fill="none" rx="3" ry="3" style="stroke: #038048; stroke-width: 1.0;"/><text fill="#000000" font-family="sans-serif" font-size="11" lengthAdjust="spacingAndGlyphs" text-decoration="underline" textLength="93" x="26" y="243.4736">QUESTION_TRITON</text><ellipse cx="17" cy="254.3086" fill="none" rx="3" ry="3" style="stroke: #038048; stroke-width: 1.0;"/><text fill="#000000" font-family="sans-serif" font-size="11" lengthAdjust="spacingAndGlyphs" text-decoration="underline" textLength="92" x="26" y="257.3096">QUESTION_ATLAS</text><ellipse cx="17" cy="268.1445" fill="none" rx="3" ry="3" style="stroke: #038048; stroke-width: 1.0;"/><text fill="#000000" font-family="sans-serif" font-size="11" lengthAdjust="spacingAndGlyphs" text-decoration="underline" textLength="127" x="26" y="271.1455">CONSTRUCTION_CUPOLA</text><ellipse cx="17" cy="281.9805" fill="none" rx="3" ry="3" style="stroke: #038048; stroke-width: 1.0;"/><text fill="#000000" font-family="sans-serif" font-size="11" lengthAdjust="spacingAndGlyphs" text-decoration="underline" textLength="124" x="26" y="284.9814">QUESTION_HEPHAESTUS</text><ellipse cx="17" cy="295.8164" fill="none" rx="3" ry="3" style="stroke: #038048; stroke-width: 1.0;"/><text fill="#000000" font-family="sans-serif" font-size="11" lengthAdjust="spacingAndGlyphs" text-decoration="underline" textLength="126" x="26" y="298.8174">DOUBLE_CONSTRUCTION</text><ellipse cx="17" cy="309.6523" fill="none" rx="3" ry="3" style="stroke: #038048; stroke-width: 1.0;"/><text fill="#000000" font-family="sans-serif" font-size="11" lengthAdjust="spacingAndGlyphs" text-decoration="underline" textLength="103" x="26" y="312.6533">QUESTION_DEMETER</text><ellipse cx="17" cy="323.4883" fill="none" rx="3" ry="3" style="stroke: #038048; stroke-width: 1.0;"/><text fill="#000000" font-family="sans-serif" font-size="11" lengthAdjust="spacingAndGlyphs" text-decoration="underline" textLength="179" x="26" y="326.4893">SECOND_CONSTRUCTION_DEMETER</text><ellipse cx="17" cy="337.3242" fill="none" rx="3" ry="3" style="stroke: #038048; stroke-width: 1.0;"/><text fill="#000000" font-family="sans-serif" font-size="11" lengthAdjust="spacingAndGlyphs" text-decoration="underline" textLength="93" x="26" y="340.3252">QUESTION_HESTIA</text><ellipse cx="17" cy="351.1602" fill="none" rx="3" ry="3" style="stroke: #038048; stroke-width: 1.0;"/><text fill="#000000" font-family="sans-serif" font-size="11" lengthAdjust="spacingAndGlyphs" text-decoration="underline" textLength="169" x="26" y="354.1611">SECOND_CONSTRUCTION_HESTIA</text><ellipse cx="17" cy="364.9961" fill="none" rx="3" ry="3" style="stroke: #038048; stroke-width: 1.0;"/><text fill="#000000" font-family="sans-serif" font-size="11" lengthAdjust="spacingAndGlyphs" text-decoration="underline" textLength="79" x="26" y="367.9971">CONSTRUCTION</text><ellipse cx="17" cy="378.832" fill="none" rx="3" ry="3" style="stroke: #038048; stroke-width: 1.0;"/><text fill="#000000" font-family="sans-serif" font-size="11" lengthAdjust="spacingAndGlyphs" text-decoration="underline" textLength="19" x="26" y="381.833">WIN</text><ellipse cx="17" cy="392.668" fill="none" rx="3" ry="3" style="stroke: #038048; stroke-width: 1.0;"/><text fill="#000000" font-family="sans-serif" font-size="11" lengthAdjust="spacingAndGlyphs" text-decoration="underline" textLength="27" x="26" y="395.6689">LOSE</text><ellipse cx="17" cy="406.5039" fill="none" rx="3" ry="3" style="stroke: #038048; stroke-width: 1.0;"/><text fill="#000000" font-family="sans-serif" font-size="11" lengthAdjust="spacingAndGlyphs" text-decoration="underline" textLength="71" x="26" y="409.5049">INVALIDATION</text><ellipse cx="17" cy="420.3398" fill="none" rx="3" ry="3" style="stroke: #038048; stroke-width: 1.0;"/><text fill="#000000" font-family="sans-serif" font-size="11" lengthAdjust="spacingAndGlyphs" text-decoration="underline" textLength="35" x="26" y="423.3408">ERROR</text></a><text fill="#888888" font-family="sans-serif" font-size="10" lengthAdjust="spacingAndGlyphs" textLength="190" x="19.5" y="450.3809">UMLDoclet 2.0.10, PlantUML 1.2019.08</text><!--
@startuml
    set namespaceSeparator none
    hide empty fields
    hide empty methods

    enum "<size:14>GameState\n<size:10>it.polimi.ingsw.model.game" as it.polimi.ingsw.model.game.GameState [[GameState.html]] {
        {static} +WELCOME
        {static} +WELCOME_FIRST
        {static} +WAIT_PLAYERS
        {static} +WAIT_CARD_CHOICE
        {static} +WAIT_TURN
        {static} +CARD_CHOICE
        {static} +SET_WORKER
        {static} +WORKER_CHOICE
        {static} +QUESTION_PROMETHEUS
        {static} +PREBUILD_PROMETHEUS
        {static} +MOVEMENT
        {static} +QUESTION_ARTEMIS
        {static} +SECOND_MOVE
        {static} +QUESTION_TRITON
        {static} +QUESTION_ATLAS
        {static} +CONSTRUCTION_CUPOLA
        {static} +QUESTION_HEPHAESTUS
        {static} +DOUBLE_CONSTRUCTION
        {static} +QUESTION_DEMETER
        {static} +SECOND_CONSTRUCTION_DEMETER
        {static} +QUESTION_HESTIA
        {static} +SECOND_CONSTRUCTION_HESTIA
        {static} +CONSTRUCTION
        {static} +WIN
        {static} +LOSE
        {static} +INVALIDATION
        {static} +ERROR
    }

    center footer UMLDoclet 2.0.10, PlantUML 1.2019.08
@enduml

PlantUML version 1.2019.08(Sat Jul 13 21:25:14 CEST 2019)
(APACHE source distribution)
Java Runtime: Java(TM) SE Runtime Environment
JVM: Java HotSpot(TM) 64-Bit Server VM
Java Version: 14.0.1+7
Operating System: Windows 10
OS Version: 10.0
Default Encoding: Cp1252
Language: it
Country: IT
--></g></svg>