<?xml version="1.0" encoding="UTF-8" standalone="no"?><svg xmlns="http://www.w3.org/2000/svg" xmlns:xlink="http://www.w3.org/1999/xlink" contentScriptType="application/ecmascript" contentStyleType="text/css" height="680px" preserveAspectRatio="none" style="width:891px;height:680px;" version="1.1" viewBox="0 0 891 680" width="891px" zoomAndPan="magnify"><defs><filter height="300%" id="f1slao1zmpfryq" width="300%" x="-1" y="-1"><feGaussianBlur result="blurOut" stdDeviation="2.0"/><feColorMatrix in="blurOut" result="blurOut2" type="matrix" values="0 0 0 0 0 0 0 0 0 0 0 0 0 0 0 0 0 0 .4 0"/><feOffset dx="4.0" dy="4.0" in="blurOut2" result="blurOut3"/><feBlend in="SourceGraphic" in2="blurOut3" mode="normal"/></filter></defs><g><!--cluster it.polimi.ingsw.model.game--><polygon fill="#FFFFFF" filter="url(#f1slao1zmpfryq)" points="22,157,217,157,224,180.6094,869,180.6094,869,631,22,631,22,157" style="stroke: #000000; stroke-width: 1.5;"/><line style="stroke: #000000; stroke-width: 1.5;" x1="22" x2="224" y1="180.6094" y2="180.6094"/><text fill="#000000" font-family="sans-serif" font-size="14" font-weight="bold" lengthAdjust="spacingAndGlyphs" textLength="189" x="26" y="173.5332">it.polimi.ingsw.model.game</text><!--cluster it.polimi.ingsw.observer--><polygon fill="#FFFFFF" filter="url(#f1slao1zmpfryq)" points="201,24,376,24,383,47.6094,386,47.6094,386,124,201,124,201,24" style="stroke: #000000; stroke-width: 1.5;"/><line style="stroke: #000000; stroke-width: 1.5;" x1="201" x2="383" y1="47.6094" y2="47.6094"/><text fill="#000000" font-family="sans-serif" font-size="14" font-weight="bold" lengthAdjust="spacingAndGlyphs" textLength="169" x="205" y="40.5332">it.polimi.ingsw.observer</text><!--class it.polimi.ingsw.model.game.Game--><a href="Game.html" target="_top" xlink:actuate="onRequest" xlink:show="new" xlink:title="Game.html" xlink:type="simple"><rect fill="#FEFECE" filter="url(#f1slao1zmpfryq)" height="75.6719" id="it.polimi.ingsw.model.game.Game" style="stroke: #A80036; stroke-width: 1.5;" width="217" x="38.5" y="366"/><ellipse cx="125.75" cy="382" fill="#ADD1B2" rx="11" ry="11" style="stroke: #A80036; stroke-width: 1.0;"/><path d="M128.5156,377.875 Q128.6719,377.6563 128.8594,377.5469 Q129.0469,377.4375 129.2656,377.4375 Q129.6406,377.4375 129.875,377.7031 Q130.1094,377.9531 130.1094,378.5625 L130.1094,380.0156 Q130.1094,380.625 129.875,380.8906 Q129.6406,381.1563 129.2656,381.1563 Q128.9219,381.1563 128.7188,380.9531 Q128.5156,380.7656 128.4063,380.25 Q128.3594,379.8906 128.1719,379.7031 Q127.8438,379.3281 127.2344,379.1094 Q126.625,378.8906 126,378.8906 Q125.2344,378.8906 124.5938,379.2188 Q123.9688,379.5469 123.4688,380.2969 Q122.9844,381.0469 122.9844,382.0781 L122.9844,383.1719 Q122.9844,384.4063 123.875,385.2344 Q124.7656,386.0469 126.3594,386.0469 Q127.2969,386.0469 127.9531,385.7969 Q128.3438,385.6406 128.7656,385.2031 Q129.0313,384.9375 129.1719,384.8594 Q129.3281,384.7813 129.5313,384.7813 Q129.8594,384.7813 130.1094,385.0469 Q130.375,385.2969 130.375,385.6406 Q130.375,385.9844 130.0313,386.3906 Q129.5313,386.9688 128.7344,387.2969 Q127.6563,387.75 126.3594,387.75 Q124.8438,387.75 123.6406,387.125 Q122.6563,386.625 121.9688,385.5625 Q121.2813,384.4844 121.2813,383.2031 L121.2813,382.0469 Q121.2813,380.7188 121.8906,379.5781 Q122.5156,378.4219 123.6094,377.8125 Q124.7031,377.1875 125.9375,377.1875 Q126.6719,377.1875 127.3125,377.3594 Q127.9688,377.5156 128.5156,377.875 Z "/><text fill="#000000" font-family="sans-serif" font-size="12" lengthAdjust="spacingAndGlyphs" textLength="34" x="146.25" y="386.9102">Game</text><line style="stroke: #A80036; stroke-width: 1.5;" x1="39.5" x2="254.5" y1="398" y2="398"/><line style="stroke: #A80036; stroke-width: 1.5;" x1="39.5" x2="254.5" y1="406" y2="406"/><ellipse cx="49.5" cy="418.418" fill="#84BE84" rx="3" ry="3" style="stroke: #038048; stroke-width: 1.0;"/><text fill="#000000" font-family="sans-serif" font-size="11" lengthAdjust="spacingAndGlyphs" textLength="191" x="58.5" y="421.4189">setGameState(Player, GameState): void</text><ellipse cx="49.5" cy="432.2539" fill="#84BE84" rx="3" ry="3" style="stroke: #038048; stroke-width: 1.0;"/><text fill="#000000" font-family="sans-serif" font-size="11" lengthAdjust="spacingAndGlyphs" textLength="165" x="58.5" y="435.2549">getGameState(Player): GameState</text></a><!--class it.polimi.ingsw.model.game.GameState--><a href="GameState.html" target="_top" xlink:actuate="onRequest" xlink:show="new" xlink:title="GameState.html" xlink:type="simple"><rect fill="#FEFECE" filter="url(#f1slao1zmpfryq)" height="421.5703" id="it.polimi.ingsw.model.game.GameState" style="stroke: #A80036; stroke-width: 1.5;" width="205" x="369.5" y="193"/><ellipse cx="436.75" cy="209" fill="#EB937F" rx="11" ry="11" style="stroke: #A80036; stroke-width: 1.0;"/><path d="M435.6094,209.7969 L435.6094,212.2969 L439.9375,212.2969 L439.9375,211.375 Q439.9375,210.7656 440.1719,210.5 Q440.4219,210.2344 440.7969,210.2344 Q441.1719,210.2344 441.4063,210.5 Q441.6406,210.7656 441.6406,211.375 L441.6406,214 L433.6406,214 Q433.0156,214 432.75,213.7656 Q432.5,213.5313 432.5,213.1406 Q432.5,212.7656 432.7656,212.5313 Q433.0313,212.2969 433.6406,212.2969 L433.9063,212.2969 L433.9063,205.6406 L433.6406,205.6406 Q433.0156,205.6406 432.75,205.4063 Q432.5,205.1719 432.5,204.7813 Q432.5,204.4063 432.75,204.1719 Q433.0156,203.9375 433.6406,203.9375 L441.2656,203.9375 L441.2656,206.5313 Q441.2656,207.1406 441.0313,207.4063 Q440.8125,207.6563 440.4219,207.6563 Q440.0469,207.6563 439.8125,207.4063 Q439.5781,207.1406 439.5781,206.5313 L439.5781,205.6406 L435.6094,205.6406 L435.6094,208.0938 L437.0938,208.0938 Q437.0938,207.4375 437.2188,207.25 Q437.4844,206.8438 437.9531,206.8438 Q438.3281,206.8438 438.5625,207.1094 Q438.7969,207.3594 438.7969,207.9688 L438.7969,209.9375 Q438.7969,210.4844 438.6719,210.6719 Q438.4063,211.0625 437.9531,211.0625 Q437.4844,211.0625 437.2188,210.6563 Q437.0938,210.4688 437.0938,209.7969 L435.6094,209.7969 Z "/><text fill="#000000" font-family="sans-serif" font-size="12" lengthAdjust="spacingAndGlyphs" textLength="62" x="457.25" y="213.9102">GameState</text><line style="stroke: #A80036; stroke-width: 1.5;" x1="370.5" x2="573.5" y1="225" y2="225"/><ellipse cx="380.5" cy="237.418" fill="none" rx="3" ry="3" style="stroke: #038048; stroke-width: 1.0;"/><text fill="#000000" font-family="sans-serif" font-size="11" lengthAdjust="spacingAndGlyphs" text-decoration="underline" textLength="51" x="389.5" y="240.4189">WELCOME</text><ellipse cx="380.5" cy="251.2539" fill="none" rx="3" ry="3" style="stroke: #038048; stroke-width: 1.0;"/><text fill="#000000" font-family="sans-serif" font-size="11" lengthAdjust="spacingAndGlyphs" text-decoration="underline" textLength="85" x="389.5" y="254.2549">WELCOME_FIRST</text><ellipse cx="380.5" cy="265.0898" fill="none" rx="3" ry="3" style="stroke: #038048; stroke-width: 1.0;"/><text fill="#000000" font-family="sans-serif" font-size="11" lengthAdjust="spacingAndGlyphs" text-decoration="underline" textLength="80" x="389.5" y="268.0908">WAIT_PLAYERS</text><ellipse cx="380.5" cy="278.9258" fill="none" rx="3" ry="3" style="stroke: #038048; stroke-width: 1.0;"/><text fill="#000000" font-family="sans-serif" font-size="11" lengthAdjust="spacingAndGlyphs" text-decoration="underline" textLength="104" x="389.5" y="281.9268">WAIT_CARD_CHOICE</text><ellipse cx="380.5" cy="292.7617" fill="none" rx="3" ry="3" style="stroke: #038048; stroke-width: 1.0;"/><text fill="#000000" font-family="sans-serif" font-size="11" lengthAdjust="spacingAndGlyphs" text-decoration="underline" textLength="59" x="389.5" y="295.7627">WAIT_TURN</text><ellipse cx="380.5" cy="306.5977" fill="none" rx="3" ry="3" style="stroke: #038048; stroke-width: 1.0;"/><text fill="#000000" font-family="sans-serif" font-size="11" lengthAdjust="spacingAndGlyphs" text-decoration="underline" textLength="72" x="389.5" y="309.5986">CARD_CHOICE</text><ellipse cx="380.5" cy="320.4336" fill="none" rx="3" ry="3" style="stroke: #038048; stroke-width: 1.0;"/><text fill="#000000" font-family="sans-serif" font-size="11" lengthAdjust="spacingAndGlyphs" text-decoration="underline" textLength="70" x="389.5" y="323.4346">SET_WORKER</text><ellipse cx="380.5" cy="334.2695" fill="none" rx="3" ry="3" style="stroke: #038048; stroke-width: 1.0;"/><text fill="#000000" font-family="sans-serif" font-size="11" lengthAdjust="spacingAndGlyphs" text-decoration="underline" textLength="88" x="389.5" y="337.2705">WORKER_CHOICE</text><ellipse cx="380.5" cy="348.1055" fill="none" rx="3" ry="3" style="stroke: #038048; stroke-width: 1.0;"/><text fill="#000000" font-family="sans-serif" font-size="11" lengthAdjust="spacingAndGlyphs" text-decoration="underline" textLength="125" x="389.5" y="351.1064">QUESTION_PROMETHEUS</text><ellipse cx="380.5" cy="361.9414" fill="none" rx="3" ry="3" style="stroke: #038048; stroke-width: 1.0;"/><text fill="#000000" font-family="sans-serif" font-size="11" lengthAdjust="spacingAndGlyphs" text-decoration="underline" textLength="122" x="389.5" y="364.9424">PREBUILD_PROMETHEUS</text><ellipse cx="380.5" cy="375.7773" fill="none" rx="3" ry="3" style="stroke: #038048; stroke-width: 1.0;"/><text fill="#000000" font-family="sans-serif" font-size="11" lengthAdjust="spacingAndGlyphs" text-decoration="underline" textLength="57" x="389.5" y="378.7783">MOVEMENT</text><ellipse cx="380.5" cy="389.6133" fill="none" rx="3" ry="3" style="stroke: #038048; stroke-width: 1.0;"/><text fill="#000000" font-family="sans-serif" font-size="11" lengthAdjust="spacingAndGlyphs" text-decoration="underline" textLength="101" x="389.5" y="392.6143">QUESTION_ARTEMIS</text><ellipse cx="380.5" cy="403.4492" fill="none" rx="3" ry="3" style="stroke: #038048; stroke-width: 1.0;"/><text fill="#000000" font-family="sans-serif" font-size="11" lengthAdjust="spacingAndGlyphs" text-decoration="underline" textLength="78" x="389.5" y="406.4502">SECOND_MOVE</text><ellipse cx="380.5" cy="417.2852" fill="none" rx="3" ry="3" style="stroke: #038048; stroke-width: 1.0;"/><text fill="#000000" font-family="sans-serif" font-size="11" lengthAdjust="spacingAndGlyphs" text-decoration="underline" textLength="93" x="389.5" y="420.2861">QUESTION_TRITON</text><ellipse cx="380.5" cy="431.1211" fill="none" rx="3" ry="3" style="stroke: #038048; stroke-width: 1.0;"/><text fill="#000000" font-family="sans-serif" font-size="11" lengthAdjust="spacingAndGlyphs" text-decoration="underline" textLength="92" x="389.5" y="434.1221">QUESTION_ATLAS</text><ellipse cx="380.5" cy="444.957" fill="none" rx="3" ry="3" style="stroke: #038048; stroke-width: 1.0;"/><text fill="#000000" font-family="sans-serif" font-size="11" lengthAdjust="spacingAndGlyphs" text-decoration="underline" textLength="127" x="389.5" y="447.958">CONSTRUCTION_CUPOLA</text><ellipse cx="380.5" cy="458.793" fill="none" rx="3" ry="3" style="stroke: #038048; stroke-width: 1.0;"/><text fill="#000000" font-family="sans-serif" font-size="11" lengthAdjust="spacingAndGlyphs" text-decoration="underline" textLength="124" x="389.5" y="461.7939">QUESTION_HEPHAESTUS</text><ellipse cx="380.5" cy="472.6289" fill="none" rx="3" ry="3" style="stroke: #038048; stroke-width: 1.0;"/><text fill="#000000" font-family="sans-serif" font-size="11" lengthAdjust="spacingAndGlyphs" text-decoration="underline" textLength="126" x="389.5" y="475.6299">DOUBLE_CONSTRUCTION</text><ellipse cx="380.5" cy="486.4648" fill="none" rx="3" ry="3" style="stroke: #038048; stroke-width: 1.0;"/><text fill="#000000" font-family="sans-serif" font-size="11" lengthAdjust="spacingAndGlyphs" text-decoration="underline" textLength="103" x="389.5" y="489.4658">QUESTION_DEMETER</text><ellipse cx="380.5" cy="500.3008" fill="none" rx="3" ry="3" style="stroke: #038048; stroke-width: 1.0;"/><text fill="#000000" font-family="sans-serif" font-size="11" lengthAdjust="spacingAndGlyphs" text-decoration="underline" textLength="179" x="389.5" y="503.3018">SECOND_CONSTRUCTION_DEMETER</text><ellipse cx="380.5" cy="514.1367" fill="none" rx="3" ry="3" style="stroke: #038048; stroke-width: 1.0;"/><text fill="#000000" font-family="sans-serif" font-size="11" lengthAdjust="spacingAndGlyphs" text-decoration="underline" textLength="93" x="389.5" y="517.1377">QUESTION_HESTIA</text><ellipse cx="380.5" cy="527.9727" fill="none" rx="3" ry="3" style="stroke: #038048; stroke-width: 1.0;"/><text fill="#000000" font-family="sans-serif" font-size="11" lengthAdjust="spacingAndGlyphs" text-decoration="underline" textLength="169" x="389.5" y="530.9736">SECOND_CONSTRUCTION_HESTIA</text><ellipse cx="380.5" cy="541.8086" fill="none" rx="3" ry="3" style="stroke: #038048; stroke-width: 1.0;"/><text fill="#000000" font-family="sans-serif" font-size="11" lengthAdjust="spacingAndGlyphs" text-decoration="underline" textLength="79" x="389.5" y="544.8096">CONSTRUCTION</text><ellipse cx="380.5" cy="555.6445" fill="none" rx="3" ry="3" style="stroke: #038048; stroke-width: 1.0;"/><text fill="#000000" font-family="sans-serif" font-size="11" lengthAdjust="spacingAndGlyphs" text-decoration="underline" textLength="19" x="389.5" y="558.6455">WIN</text><ellipse cx="380.5" cy="569.4805" fill="none" rx="3" ry="3" style="stroke: #038048; stroke-width: 1.0;"/><text fill="#000000" font-family="sans-serif" font-size="11" lengthAdjust="spacingAndGlyphs" text-decoration="underline" textLength="27" x="389.5" y="572.4814">LOSE</text><ellipse cx="380.5" cy="583.3164" fill="none" rx="3" ry="3" style="stroke: #038048; stroke-width: 1.0;"/><text fill="#000000" font-family="sans-serif" font-size="11" lengthAdjust="spacingAndGlyphs" text-decoration="underline" textLength="71" x="389.5" y="586.3174">INVALIDATION</text><ellipse cx="380.5" cy="597.1523" fill="none" rx="3" ry="3" style="stroke: #038048; stroke-width: 1.0;"/><text fill="#000000" font-family="sans-serif" font-size="11" lengthAdjust="spacingAndGlyphs" text-decoration="underline" textLength="35" x="389.5" y="600.1533">ERROR</text><line style="stroke: #A80036; stroke-width: 1.5;" x1="370.5" x2="573.5" y1="606.5703" y2="606.5703"/></a><!--class it.polimi.ingsw.model.game.SystemMessage--><a href="SystemMessage.html" target="_top" xlink:actuate="onRequest" xlink:show="new" xlink:title="SystemMessage.html" xlink:type="simple"><rect fill="#FEFECE" filter="url(#f1slao1zmpfryq)" height="338.5547" id="it.polimi.ingsw.model.game.SystemMessage" style="stroke: #A80036; stroke-width: 1.5;" width="164" x="610" y="234.5"/><ellipse cx="643" cy="250.5" fill="#ADD1B2" rx="11" ry="11" style="stroke: #A80036; stroke-width: 1.0;"/><path d="M645.7656,246.375 Q645.9219,246.1563 646.1094,246.0469 Q646.2969,245.9375 646.5156,245.9375 Q646.8906,245.9375 647.125,246.2031 Q647.3594,246.4531 647.3594,247.0625 L647.3594,248.5156 Q647.3594,249.125 647.125,249.3906 Q646.8906,249.6563 646.5156,249.6563 Q646.1719,249.6563 645.9688,249.4531 Q645.7656,249.2656 645.6563,248.75 Q645.6094,248.3906 645.4219,248.2031 Q645.0938,247.8281 644.4844,247.6094 Q643.875,247.3906 643.25,247.3906 Q642.4844,247.3906 641.8438,247.7188 Q641.2188,248.0469 640.7188,248.7969 Q640.2344,249.5469 640.2344,250.5781 L640.2344,251.6719 Q640.2344,252.9063 641.125,253.7344 Q642.0156,254.5469 643.6094,254.5469 Q644.5469,254.5469 645.2031,254.2969 Q645.5938,254.1406 646.0156,253.7031 Q646.2813,253.4375 646.4219,253.3594 Q646.5781,253.2813 646.7813,253.2813 Q647.1094,253.2813 647.3594,253.5469 Q647.625,253.7969 647.625,254.1406 Q647.625,254.4844 647.2813,254.8906 Q646.7813,255.4688 645.9844,255.7969 Q644.9063,256.25 643.6094,256.25 Q642.0938,256.25 640.8906,255.625 Q639.9063,255.125 639.2188,254.0625 Q638.5313,252.9844 638.5313,251.7031 L638.5313,250.5469 Q638.5313,249.2188 639.1406,248.0781 Q639.7656,246.9219 640.8594,246.3125 Q641.9531,245.6875 643.1875,245.6875 Q643.9219,245.6875 644.5625,245.8594 Q645.2188,246.0156 645.7656,246.375 Z "/><text fill="#000000" font-family="sans-serif" font-size="12" lengthAdjust="spacingAndGlyphs" textLength="92" x="661" y="255.4102">SystemMessage</text><line style="stroke: #A80036; stroke-width: 1.5;" x1="611" x2="773" y1="266.5" y2="266.5"/><ellipse cx="621" cy="278.918" fill="none" rx="3" ry="3" style="stroke: #038048; stroke-width: 1.0;"/><text fill="#000000" font-family="sans-serif" font-size="11" lengthAdjust="spacingAndGlyphs" textLength="94" x="630" y="281.9189">contentError: String</text><ellipse cx="621" cy="292.7539" fill="none" rx="3" ry="3" style="stroke: #038048; stroke-width: 1.0;"/><text fill="#000000" font-family="sans-serif" font-size="11" lengthAdjust="spacingAndGlyphs" textLength="116" x="630" y="295.7549">cardNotAvailable: String</text><ellipse cx="621" cy="306.5898" fill="none" rx="3" ry="3" style="stroke: #038048; stroke-width: 1.0;"/><text fill="#000000" font-family="sans-serif" font-size="11" lengthAdjust="spacingAndGlyphs" textLength="115" x="630" y="309.5908">workerPresence: String</text><ellipse cx="621" cy="320.4258" fill="none" rx="3" ry="3" style="stroke: #038048; stroke-width: 1.0;"/><text fill="#000000" font-family="sans-serif" font-size="11" lengthAdjust="spacingAndGlyphs" textLength="90" x="630" y="323.4268">exceedMap: String</text><ellipse cx="621" cy="334.2617" fill="none" rx="3" ry="3" style="stroke: #038048; stroke-width: 1.0;"/><text fill="#000000" font-family="sans-serif" font-size="11" lengthAdjust="spacingAndGlyphs" textLength="101" x="630" y="337.2627">powerAthena: String</text><ellipse cx="621" cy="348.0977" fill="none" rx="3" ry="3" style="stroke: #038048; stroke-width: 1.0;"/><text fill="#000000" font-family="sans-serif" font-size="11" lengthAdjust="spacingAndGlyphs" textLength="123" x="630" y="351.0986">powerPrometheus: String</text><ellipse cx="621" cy="361.9336" fill="none" rx="3" ry="3" style="stroke: #038048; stroke-width: 1.0;"/><text fill="#000000" font-family="sans-serif" font-size="11" lengthAdjust="spacingAndGlyphs" textLength="93" x="630" y="364.9346">doubleGoUp: String</text><ellipse cx="621" cy="375.7695" fill="none" rx="3" ry="3" style="stroke: #038048; stroke-width: 1.0;"/><text fill="#000000" font-family="sans-serif" font-size="11" lengthAdjust="spacingAndGlyphs" textLength="112" x="630" y="378.7705">cupolaPresence: String</text><ellipse cx="621" cy="389.6055" fill="none" rx="3" ry="3" style="stroke: #038048; stroke-width: 1.0;"/><text fill="#000000" font-family="sans-serif" font-size="11" lengthAdjust="spacingAndGlyphs" textLength="91" x="630" y="392.6064">yourWorker: String</text><ellipse cx="621" cy="403.4414" fill="none" rx="3" ry="3" style="stroke: #038048; stroke-width: 1.0;"/><text fill="#000000" font-family="sans-serif" font-size="11" lengthAdjust="spacingAndGlyphs" textLength="79" x="630" y="406.4424">cantPush: String</text><ellipse cx="621" cy="417.2773" fill="none" rx="3" ry="3" style="stroke: #038048; stroke-width: 1.0;"/><text fill="#000000" font-family="sans-serif" font-size="11" lengthAdjust="spacingAndGlyphs" textLength="93" x="630" y="420.2783">yourPosition: String</text><ellipse cx="621" cy="431.1133" fill="none" rx="3" ry="3" style="stroke: #038048; stroke-width: 1.0;"/><text fill="#000000" font-family="sans-serif" font-size="11" lengthAdjust="spacingAndGlyphs" textLength="83" x="630" y="434.1143">distantCell: String</text><ellipse cx="621" cy="444.9492" fill="none" rx="3" ry="3" style="stroke: #038048; stroke-width: 1.0;"/><text fill="#000000" font-family="sans-serif" font-size="11" lengthAdjust="spacingAndGlyphs" textLength="110" x="630" y="447.9502">youHephaestus: String</text><ellipse cx="621" cy="458.7852" fill="none" rx="3" ry="3" style="stroke: #038048; stroke-width: 1.0;"/><text fill="#000000" font-family="sans-serif" font-size="11" lengthAdjust="spacingAndGlyphs" textLength="81" x="630" y="461.7861">cantMove: String</text><ellipse cx="621" cy="472.6211" fill="none" rx="3" ry="3" style="stroke: #038048; stroke-width: 1.0;"/><text fill="#000000" font-family="sans-serif" font-size="11" lengthAdjust="spacingAndGlyphs" textLength="78" x="630" y="475.6221">cantBuild: String</text><ellipse cx="621" cy="486.457" fill="none" rx="3" ry="3" style="stroke: #038048; stroke-width: 1.0;"/><text fill="#000000" font-family="sans-serif" font-size="11" lengthAdjust="spacingAndGlyphs" textLength="104" x="630" y="489.458">cantDoNothing: String</text><ellipse cx="621" cy="500.293" fill="none" rx="3" ry="3" style="stroke: #038048; stroke-width: 1.0;"/><text fill="#000000" font-family="sans-serif" font-size="11" lengthAdjust="spacingAndGlyphs" textLength="106" x="630" y="503.2939">cantComeBack: String</text><ellipse cx="621" cy="514.1289" fill="none" rx="3" ry="3" style="stroke: #038048; stroke-width: 1.0;"/><text fill="#000000" font-family="sans-serif" font-size="11" lengthAdjust="spacingAndGlyphs" textLength="111" x="630" y="517.1299">cantDoubleBuild: String</text><ellipse cx="621" cy="527.9648" fill="none" rx="3" ry="3" style="stroke: #038048; stroke-width: 1.0;"/><text fill="#000000" font-family="sans-serif" font-size="11" lengthAdjust="spacingAndGlyphs" textLength="130" x="630" y="530.9658">cantRebuildDemeter: String</text><ellipse cx="621" cy="541.8008" fill="none" rx="3" ry="3" style="stroke: #038048; stroke-width: 1.0;"/><text fill="#000000" font-family="sans-serif" font-size="11" lengthAdjust="spacingAndGlyphs" textLength="120" x="630" y="544.8018">cantRebuildHestia: String</text><line style="stroke: #A80036; stroke-width: 1.5;" x1="611" x2="773" y1="551.2188" y2="551.2188"/><ellipse cx="621" cy="563.6367" fill="#84BE84" rx="3" ry="3" style="stroke: #038048; stroke-width: 1.0;"/><text fill="#000000" font-family="sans-serif" font-size="11" lengthAdjust="spacingAndGlyphs" textLength="138" x="630" y="566.6377">serverMessage(String): void</text></a><!--class it.polimi.ingsw.observer.Observable--><a href="../../observer/Observable.html" target="_top" xlink:actuate="onRequest" xlink:show="new" xlink:title="../../observer/Observable.html" xlink:type="simple"><rect fill="#FEFECE" filter="url(#f1slao1zmpfryq)" height="48" id="it.polimi.ingsw.observer.Observable" style="stroke: #A80036; stroke-width: 1.5;" width="106" x="240" y="60"/><ellipse cx="255" cy="76" fill="#ADD1B2" rx="11" ry="11" style="stroke: #A80036; stroke-width: 1.0;"/><path d="M257.7656,71.875 Q257.9219,71.6563 258.1094,71.5469 Q258.2969,71.4375 258.5156,71.4375 Q258.8906,71.4375 259.125,71.7031 Q259.3594,71.9531 259.3594,72.5625 L259.3594,74.0156 Q259.3594,74.625 259.125,74.8906 Q258.8906,75.1563 258.5156,75.1563 Q258.1719,75.1563 257.9688,74.9531 Q257.7656,74.7656 257.6563,74.25 Q257.6094,73.8906 257.4219,73.7031 Q257.0938,73.3281 256.4844,73.1094 Q255.875,72.8906 255.25,72.8906 Q254.4844,72.8906 253.8438,73.2188 Q253.2188,73.5469 252.7188,74.2969 Q252.2344,75.0469 252.2344,76.0781 L252.2344,77.1719 Q252.2344,78.4063 253.125,79.2344 Q254.0156,80.0469 255.6094,80.0469 Q256.5469,80.0469 257.2031,79.7969 Q257.5938,79.6406 258.0156,79.2031 Q258.2813,78.9375 258.4219,78.8594 Q258.5781,78.7813 258.7813,78.7813 Q259.1094,78.7813 259.3594,79.0469 Q259.625,79.2969 259.625,79.6406 Q259.625,79.9844 259.2813,80.3906 Q258.7813,80.9688 257.9844,81.2969 Q256.9063,81.75 255.6094,81.75 Q254.0938,81.75 252.8906,81.125 Q251.9063,80.625 251.2188,79.5625 Q250.5313,78.4844 250.5313,77.2031 L250.5313,76.0469 Q250.5313,74.7188 251.1406,73.5781 Q251.7656,72.4219 252.8594,71.8125 Q253.9531,71.1875 255.1875,71.1875 Q255.9219,71.1875 256.5625,71.3594 Q257.2188,71.5156 257.7656,71.875 Z "/><text fill="#000000" font-family="sans-serif" font-size="12" lengthAdjust="spacingAndGlyphs" textLength="63" x="269" y="80.9102">Observable</text><rect fill="#FFFFFF" height="17.0938" style="stroke: #000000; stroke-width: 1.0; stroke-dasharray: 2.0,2.0;" width="9" x="340" y="57"/><text fill="#000000" font-family="sans-serif" font-size="12" font-style="italic" lengthAdjust="spacingAndGlyphs" textLength="7" x="341" y="70.457">T</text><line style="stroke: #A80036; stroke-width: 1.5;" x1="241" x2="345" y1="92" y2="92"/><line style="stroke: #A80036; stroke-width: 1.5;" x1="241" x2="345" y1="100" y2="100"/></a><!--link it.polimi.ingsw.observer.Observable to it.polimi.ingsw.model.game.Game--><path d="M274.031,126.317 C245.375,188.732 191.485,306.109 164.023,365.922 " fill="none" id="it.polimi.ingsw.observer.Observable-it.polimi.ingsw.model.game.Game" style="stroke: #A80036; stroke-width: 1.0;"/><polygon fill="none" points="267.676,123.381,282.382,108.126,280.399,129.223,267.676,123.381" style="stroke: #A80036; stroke-width: 1.0;"/><!--link it.polimi.ingsw.model.game.Game to it.polimi.ingsw.model.game.Game--><path d="M192.183,365.85 C238.632,343.054 290.5,355.771 290.5,404 C290.5,450.628 242.019,464.063 196.825,444.304 " fill="none" id="it.polimi.ingsw.model.game.Game-it.polimi.ingsw.model.game.Game" style="stroke: #A80036; stroke-width: 1.0;"/><polygon fill="#A80036" points="192.183,442.15,198.6638,449.5662,196.7186,444.2543,202.0306,442.3091,192.183,442.15" style="stroke: #A80036; stroke-width: 1.0;"/><text fill="#000000" font-family="sans-serif" font-size="13" lengthAdjust="spacingAndGlyphs" textLength="49" x="296.5" y="409.4951">instance</text><!--link it.polimi.ingsw.observer.Observable to it.polimi.ingsw.model.game.SystemMessage--><path d="M366.343,92.716 C443.568,102.2 558.528,120.617 592,149 C618.658,171.604 638.256,202.265 652.649,234.464 " fill="none" id="it.polimi.ingsw.observer.Observable-it.polimi.ingsw.model.game.SystemMessage" style="stroke: #A80036; stroke-width: 1.0;"/><polygon fill="none" points="365.187,99.628,346.145,90.331,366.828,85.724,365.187,99.628" style="stroke: #A80036; stroke-width: 1.0;"/><!--link it.polimi.ingsw.model.game.SystemMessage to it.polimi.ingsw.model.game.SystemMessage--><path d="M774.009,355.643 C794.07,359.225 809,375.344 809,404 C809,430.194 796.526,445.912 779.061,451.156 " fill="none" id="it.polimi.ingsw.model.game.SystemMessage-it.polimi.ingsw.model.game.SystemMessage" style="stroke: #A80036; stroke-width: 1.0;"/><polygon fill="#A80036" points="774.009,452.357,783.6904,454.1656,778.8733,451.1999,781.839,446.3827,774.009,452.357" style="stroke: #A80036; stroke-width: 1.0;"/><text fill="#000000" font-family="sans-serif" font-size="13" lengthAdjust="spacingAndGlyphs" textLength="49" x="815" y="409.4951">instance</text><text fill="#888888" font-family="sans-serif" font-size="10" lengthAdjust="spacingAndGlyphs" textLength="190" x="356.5" y="667.3809">UMLDoclet 2.0.10, PlantUML 1.2019.08</text><!--
@startuml
    namespace it.polimi.ingsw.model.game {

        class Game [[Game.html]] {
            +setGameState(Player, GameState): void
            +getGameState(Player): GameState
        }

        enum GameState [[GameState.html]] {
            {static} +WELCOME
            {static} +WELCOME_FIRST
            {static} +WAIT_PLAYERS
            {static} +WAIT_CARD_CHOICE
            {static} +WAIT_TURN
            {static} +CARD_CHOICE
            {static} +SET_WORKER
            {static} +WORKER_CHOICE
            {static} +QUESTION_PROMETHEUS
            {static} +PREBUILD_PROMETHEUS
            {static} +MOVEMENT
            {static} +QUESTION_ARTEMIS
            {static} +SECOND_MOVE
            {static} +QUESTION_TRITON
            {static} +QUESTION_ATLAS
            {static} +CONSTRUCTION_CUPOLA
            {static} +QUESTION_HEPHAESTUS
            {static} +DOUBLE_CONSTRUCTION
            {static} +QUESTION_DEMETER
            {static} +SECOND_CONSTRUCTION_DEMETER
            {static} +QUESTION_HESTIA
            {static} +SECOND_CONSTRUCTION_HESTIA
            {static} +CONSTRUCTION
            {static} +WIN
            {static} +LOSE
            {static} +INVALIDATION
            {static} +ERROR
        }

        class SystemMessage [[SystemMessage.html]] {
            +contentError: String
            +cardNotAvailable: String
            +workerPresence: String
            +exceedMap: String
            +powerAthena: String
            +powerPrometheus: String
            +doubleGoUp: String
            +cupolaPresence: String
            +yourWorker: String
            +cantPush: String
            +yourPosition: String
            +distantCell: String
            +youHephaestus: String
            +cantMove: String
            +cantBuild: String
            +cantDoNothing: String
            +cantComeBack: String
            +cantDoubleBuild: String
            +cantRebuildDemeter: String
            +cantRebuildHestia: String
            +serverMessage(String): void
        }

        it.polimi.ingsw.observer.Observable <|- - Game
        Game - -> Game: instance
        it.polimi.ingsw.observer.Observable <|- - SystemMessage
        SystemMessage - -> SystemMessage: instance
    }

    namespace it.polimi.ingsw.observer {
        class Observable<T> [[../../observer/Observable.html]] {
        }
    }

    center footer UMLDoclet 2.0.10, PlantUML 1.2019.08
@enduml

PlantUML version 1.2019.08(Sat Jul 13 21:25:14 CEST 2019)
(APACHE source distribution)
Java Runtime: Java(TM) SE Runtime Environment
JVM: Java HotSpot(TM) 64-Bit Server VM
Java Version: 14.0.1+7
Operating System: Windows 10
OS Version: 10.0
Default Encoding: Cp1252
Language: it
Country: IT
--></g></svg>