<?xml version="1.0" encoding="UTF-8" standalone="no"?><svg xmlns="http://www.w3.org/2000/svg" xmlns:xlink="http://www.w3.org/1999/xlink" contentScriptType="application/ecmascript" contentStyleType="text/css" height="502px" preserveAspectRatio="none" style="width:208px;height:502px;" version="1.1" viewBox="0 0 208 502" width="208px" zoomAndPan="magnify"><defs><filter height="300%" id="fyp961lcgfdv4" width="300%" x="-1" y="-1"><feGaussianBlur result="blurOut" stdDeviation="2.0"/><feColorMatrix in="blurOut" result="blurOut2" type="matrix" values="0 0 0 0 0 0 0 0 0 0 0 0 0 0 0 0 0 0 .4 0"/><feOffset dx="4.0" dy="4.0" in="blurOut2" result="blurOut3"/><feBlend in="SourceGraphic" in2="blurOut3" mode="normal"/></filter></defs><g><!--class it.polimi.ingsw.model.game.SystemMessage--><a href="SystemMessage.html" target="_top" xlink:actuate="onRequest" xlink:show="new" xlink:title="SystemMessage.html" xlink:type="simple"><rect fill="#FEFECE" filter="url(#fyp961lcgfdv4)" height="360.5781" id="it.polimi.ingsw.model.game.SystemMessage" style="stroke: #A80036; stroke-width: 1.5;" width="176" x="7" y="108"/><ellipse cx="27.85" cy="128.0938" fill="#ADD1B2" rx="11" ry="11" style="stroke: #A80036; stroke-width: 1.0;"/><path d="M30.6156,123.9688 Q30.7719,123.75 30.9594,123.6406 Q31.1469,123.5313 31.3656,123.5313 Q31.7406,123.5313 31.975,123.7969 Q32.2094,124.0469 32.2094,124.6563 L32.2094,126.1094 Q32.2094,126.7188 31.975,126.9844 Q31.7406,127.25 31.3656,127.25 Q31.0219,127.25 30.8188,127.0469 Q30.6156,126.8594 30.5063,126.3438 Q30.4594,125.9844 30.2719,125.7969 Q29.9438,125.4219 29.3344,125.2031 Q28.725,124.9844 28.1,124.9844 Q27.3344,124.9844 26.6938,125.3125 Q26.0688,125.6406 25.5688,126.3906 Q25.0844,127.1406 25.0844,128.1719 L25.0844,129.2656 Q25.0844,130.5 25.975,131.3281 Q26.8656,132.1406 28.4594,132.1406 Q29.3969,132.1406 30.0531,131.8906 Q30.4438,131.7344 30.8656,131.2969 Q31.1313,131.0313 31.2719,130.9531 Q31.4281,130.875 31.6313,130.875 Q31.9594,130.875 32.2094,131.1406 Q32.475,131.3906 32.475,131.7344 Q32.475,132.0781 32.1313,132.4844 Q31.6313,133.0625 30.8344,133.3906 Q29.7563,133.8438 28.4594,133.8438 Q26.9438,133.8438 25.7406,133.2188 Q24.7563,132.7188 24.0688,131.6563 Q23.3813,130.5781 23.3813,129.2969 L23.3813,128.1406 Q23.3813,126.8125 23.9906,125.6719 Q24.6156,124.5156 25.7094,123.9063 Q26.8031,123.2813 28.0375,123.2813 Q28.7719,123.2813 29.4125,123.4531 Q30.0688,123.6094 30.6156,123.9688 Z "/><text fill="#000000" font-family="sans-serif" font-size="14" lengthAdjust="spacingAndGlyphs" textLength="103" x="57.15" y="127.5332">SystemMessage</text><text fill="#000000" font-family="sans-serif" font-size="10" lengthAdjust="spacingAndGlyphs" textLength="131" x="43.15" y="140.9902">it.polimi.ingsw.model.game</text><line style="stroke: #A80036; stroke-width: 1.5;" x1="8" x2="182" y1="148.1875" y2="148.1875"/><ellipse cx="18" cy="160.6055" fill="none" rx="3" ry="3" style="stroke: #038048; stroke-width: 1.0;"/><text fill="#000000" font-family="sans-serif" font-size="11" lengthAdjust="spacingAndGlyphs" textLength="94" x="27" y="163.6064">contentError: String</text><ellipse cx="18" cy="174.4414" fill="none" rx="3" ry="3" style="stroke: #038048; stroke-width: 1.0;"/><text fill="#000000" font-family="sans-serif" font-size="11" lengthAdjust="spacingAndGlyphs" textLength="116" x="27" y="177.4424">cardNotAvailable: String</text><ellipse cx="18" cy="188.2773" fill="none" rx="3" ry="3" style="stroke: #038048; stroke-width: 1.0;"/><text fill="#000000" font-family="sans-serif" font-size="11" lengthAdjust="spacingAndGlyphs" textLength="115" x="27" y="191.2783">workerPresence: String</text><ellipse cx="18" cy="202.1133" fill="none" rx="3" ry="3" style="stroke: #038048; stroke-width: 1.0;"/><text fill="#000000" font-family="sans-serif" font-size="11" lengthAdjust="spacingAndGlyphs" textLength="90" x="27" y="205.1143">exceedMap: String</text><ellipse cx="18" cy="215.9492" fill="none" rx="3" ry="3" style="stroke: #038048; stroke-width: 1.0;"/><text fill="#000000" font-family="sans-serif" font-size="11" lengthAdjust="spacingAndGlyphs" textLength="101" x="27" y="218.9502">powerAthena: String</text><ellipse cx="18" cy="229.7852" fill="none" rx="3" ry="3" style="stroke: #038048; stroke-width: 1.0;"/><text fill="#000000" font-family="sans-serif" font-size="11" lengthAdjust="spacingAndGlyphs" textLength="123" x="27" y="232.7861">powerPrometheus: String</text><ellipse cx="18" cy="243.6211" fill="none" rx="3" ry="3" style="stroke: #038048; stroke-width: 1.0;"/><text fill="#000000" font-family="sans-serif" font-size="11" lengthAdjust="spacingAndGlyphs" textLength="93" x="27" y="246.6221">doubleGoUp: String</text><ellipse cx="18" cy="257.457" fill="none" rx="3" ry="3" style="stroke: #038048; stroke-width: 1.0;"/><text fill="#000000" font-family="sans-serif" font-size="11" lengthAdjust="spacingAndGlyphs" textLength="112" x="27" y="260.458">cupolaPresence: String</text><ellipse cx="18" cy="271.293" fill="none" rx="3" ry="3" style="stroke: #038048; stroke-width: 1.0;"/><text fill="#000000" font-family="sans-serif" font-size="11" lengthAdjust="spacingAndGlyphs" textLength="91" x="27" y="274.2939">yourWorker: String</text><ellipse cx="18" cy="285.1289" fill="none" rx="3" ry="3" style="stroke: #038048; stroke-width: 1.0;"/><text fill="#000000" font-family="sans-serif" font-size="11" lengthAdjust="spacingAndGlyphs" textLength="79" x="27" y="288.1299">cantPush: String</text><ellipse cx="18" cy="298.9648" fill="none" rx="3" ry="3" style="stroke: #038048; stroke-width: 1.0;"/><text fill="#000000" font-family="sans-serif" font-size="11" lengthAdjust="spacingAndGlyphs" textLength="93" x="27" y="301.9658">yourPosition: String</text><ellipse cx="18" cy="312.8008" fill="none" rx="3" ry="3" style="stroke: #038048; stroke-width: 1.0;"/><text fill="#000000" font-family="sans-serif" font-size="11" lengthAdjust="spacingAndGlyphs" textLength="83" x="27" y="315.8018">distantCell: String</text><ellipse cx="18" cy="326.6367" fill="none" rx="3" ry="3" style="stroke: #038048; stroke-width: 1.0;"/><text fill="#000000" font-family="sans-serif" font-size="11" lengthAdjust="spacingAndGlyphs" textLength="110" x="27" y="329.6377">youHephaestus: String</text><ellipse cx="18" cy="340.4727" fill="none" rx="3" ry="3" style="stroke: #038048; stroke-width: 1.0;"/><text fill="#000000" font-family="sans-serif" font-size="11" lengthAdjust="spacingAndGlyphs" textLength="81" x="27" y="343.4736">cantMove: String</text><ellipse cx="18" cy="354.3086" fill="none" rx="3" ry="3" style="stroke: #038048; stroke-width: 1.0;"/><text fill="#000000" font-family="sans-serif" font-size="11" lengthAdjust="spacingAndGlyphs" textLength="78" x="27" y="357.3096">cantBuild: String</text><ellipse cx="18" cy="368.1445" fill="none" rx="3" ry="3" style="stroke: #038048; stroke-width: 1.0;"/><text fill="#000000" font-family="sans-serif" font-size="11" lengthAdjust="spacingAndGlyphs" textLength="104" x="27" y="371.1455">cantDoNothing: String</text><ellipse cx="18" cy="381.9805" fill="none" rx="3" ry="3" style="stroke: #038048; stroke-width: 1.0;"/><text fill="#000000" font-family="sans-serif" font-size="11" lengthAdjust="spacingAndGlyphs" textLength="106" x="27" y="384.9814">cantComeBack: String</text><ellipse cx="18" cy="395.8164" fill="none" rx="3" ry="3" style="stroke: #038048; stroke-width: 1.0;"/><text fill="#000000" font-family="sans-serif" font-size="11" lengthAdjust="spacingAndGlyphs" textLength="111" x="27" y="398.8174">cantDoubleBuild: String</text><ellipse cx="18" cy="409.6523" fill="none" rx="3" ry="3" style="stroke: #038048; stroke-width: 1.0;"/><text fill="#000000" font-family="sans-serif" font-size="11" lengthAdjust="spacingAndGlyphs" textLength="130" x="27" y="412.6533">cantRebuildDemeter: String</text><ellipse cx="18" cy="423.4883" fill="none" rx="3" ry="3" style="stroke: #038048; stroke-width: 1.0;"/><text fill="#000000" font-family="sans-serif" font-size="11" lengthAdjust="spacingAndGlyphs" textLength="120" x="27" y="426.4893">cantRebuildHestia: String</text><line style="stroke: #A80036; stroke-width: 1.5;" x1="8" x2="182" y1="432.9063" y2="432.9063"/><ellipse cx="18" cy="445.3242" fill="#84BE84" rx="3" ry="3" style="stroke: #038048; stroke-width: 1.0;"/><text fill="#000000" font-family="sans-serif" font-size="11" lengthAdjust="spacingAndGlyphs" text-decoration="underline" textLength="150" x="27" y="448.3252">getInstance(): SystemMessage</text><ellipse cx="18" cy="459.1602" fill="#84BE84" rx="3" ry="3" style="stroke: #038048; stroke-width: 1.0;"/><text fill="#000000" font-family="sans-serif" font-size="11" lengthAdjust="spacingAndGlyphs" textLength="138" x="27" y="462.1611">serverMessage(String): void</text></a><!--class it.polimi.ingsw.observer.Observable--><a href="../../observer/Observable.html" target="_top" xlink:actuate="onRequest" xlink:show="new" xlink:title="../../observer/Observable.html" xlink:type="simple"><rect fill="#FEFECE" filter="url(#fyp961lcgfdv4)" height="40.1875" id="it.polimi.ingsw.observer.Observable" style="stroke: #A80036; stroke-width: 1.5;" width="178" x="6" y="8"/><ellipse cx="21" cy="28.0938" fill="#ADD1B2" rx="11" ry="11" style="stroke: #A80036; stroke-width: 1.0;"/><path d="M23.7656,23.9688 Q23.9219,23.75 24.1094,23.6406 Q24.2969,23.5313 24.5156,23.5313 Q24.8906,23.5313 25.125,23.7969 Q25.3594,24.0469 25.3594,24.6563 L25.3594,26.1094 Q25.3594,26.7188 25.125,26.9844 Q24.8906,27.25 24.5156,27.25 Q24.1719,27.25 23.9688,27.0469 Q23.7656,26.8594 23.6563,26.3438 Q23.6094,25.9844 23.4219,25.7969 Q23.0938,25.4219 22.4844,25.2031 Q21.875,24.9844 21.25,24.9844 Q20.4844,24.9844 19.8438,25.3125 Q19.2188,25.6406 18.7188,26.3906 Q18.2344,27.1406 18.2344,28.1719 L18.2344,29.2656 Q18.2344,30.5 19.125,31.3281 Q20.0156,32.1406 21.6094,32.1406 Q22.5469,32.1406 23.2031,31.8906 Q23.5938,31.7344 24.0156,31.2969 Q24.2813,31.0313 24.4219,30.9531 Q24.5781,30.875 24.7813,30.875 Q25.1094,30.875 25.3594,31.1406 Q25.625,31.3906 25.625,31.7344 Q25.625,32.0781 25.2813,32.4844 Q24.7813,33.0625 23.9844,33.3906 Q22.9063,33.8438 21.6094,33.8438 Q20.0938,33.8438 18.8906,33.2188 Q17.9063,32.7188 17.2188,31.6563 Q16.5313,30.5781 16.5313,29.2969 L16.5313,28.1406 Q16.5313,26.8125 17.1406,25.6719 Q17.7656,24.5156 18.8594,23.9063 Q19.9531,23.2813 21.1875,23.2813 Q21.9219,23.2813 22.5625,23.4531 Q23.2188,23.6094 23.7656,23.9688 Z "/><text fill="#000000" font-family="sans-serif" font-size="14" lengthAdjust="spacingAndGlyphs" textLength="73" x="53.5" y="27.5332">Observable</text><text fill="#000000" font-family="sans-serif" font-size="10" lengthAdjust="spacingAndGlyphs" textLength="110" x="35" y="40.9902">it.polimi.ingsw.observer</text><rect fill="#FFFFFF" height="17.0938" style="stroke: #000000; stroke-width: 1.0; stroke-dasharray: 2.0,2.0;" width="34" x="153" y="5"/><text fill="#000000" font-family="sans-serif" font-size="12" font-style="italic" lengthAdjust="spacingAndGlyphs" textLength="32" x="154" y="18.457">String</text></a><!--link it.polimi.ingsw.observer.Observable to it.polimi.ingsw.model.game.SystemMessage--><path d="M95,68.282 C95,79.892 95,93.424 95,107.961 " fill="none" id="it.polimi.ingsw.observer.Observable-it.polimi.ingsw.model.game.SystemMessage" style="stroke: #A80036; stroke-width: 1.0;"/><polygon fill="none" points="88.0001,68.008,95,48.008,102.0001,68.008,88.0001,68.008" style="stroke: #A80036; stroke-width: 1.0;"/><text fill="#888888" font-family="sans-serif" font-size="10" lengthAdjust="spacingAndGlyphs" textLength="190" x="6" y="489.3809">UMLDoclet 2.0.10, PlantUML 1.2019.08</text><!--
@startuml
    set namespaceSeparator none
    hide empty fields
    hide empty methods

    class "<size:14>SystemMessage\n<size:10>it.polimi.ingsw.model.game" as it.polimi.ingsw.model.game.SystemMessage [[SystemMessage.html]] {
        +contentError: String
        +cardNotAvailable: String
        +workerPresence: String
        +exceedMap: String
        +powerAthena: String
        +powerPrometheus: String
        +doubleGoUp: String
        +cupolaPresence: String
        +yourWorker: String
        +cantPush: String
        +yourPosition: String
        +distantCell: String
        +youHephaestus: String
        +cantMove: String
        +cantBuild: String
        +cantDoNothing: String
        +cantComeBack: String
        +cantDoubleBuild: String
        +cantRebuildDemeter: String
        +cantRebuildHestia: String
        {static} +getInstance(): SystemMessage
        +serverMessage(String): void
    }

    class "<size:14>Observable\n<size:10>it.polimi.ingsw.observer" as it.polimi.ingsw.observer.Observable<String> [[../../observer/Observable.html]]

    it.polimi.ingsw.observer.Observable <|- - it.polimi.ingsw.model.game.SystemMessage

    center footer UMLDoclet 2.0.10, PlantUML 1.2019.08
@enduml

PlantUML version 1.2019.08(Sat Jul 13 21:25:14 CEST 2019)
(APACHE source distribution)
Java Runtime: Java(TM) SE Runtime Environment
JVM: Java HotSpot(TM) 64-Bit Server VM
Java Version: 14.0.1+7
Operating System: Windows 10
OS Version: 10.0
Default Encoding: Cp1252
Language: it
Country: IT
--></g></svg>