<?xml version="1.0" encoding="UTF-8" standalone="no"?><svg xmlns="http://www.w3.org/2000/svg" xmlns:xlink="http://www.w3.org/1999/xlink" contentScriptType="application/ecmascript" contentStyleType="text/css" height="491px" preserveAspectRatio="none" style="width:1064px;height:491px;" version="1.1" viewBox="0 0 1064 491" width="1064px" zoomAndPan="magnify"><defs><filter height="300%" id="f11hfkl04mfwhy" width="300%" x="-1" y="-1"><feGaussianBlur result="blurOut" stdDeviation="2.0"/><feColorMatrix in="blurOut" result="blurOut2" type="matrix" values="0 0 0 0 0 0 0 0 0 0 0 0 0 0 0 0 0 0 .4 0"/><feOffset dx="4.0" dy="4.0" in="blurOut2" result="blurOut3"/><feBlend in="SourceGraphic" in2="blurOut3" mode="normal"/></filter></defs><g><!--class it.polimi.ingsw.controller--><a href="it/polimi/ingsw/controller/package-summary.html" target="_top" xlink:actuate="onRequest" xlink:show="new" xlink:title="it/polimi/ingsw/controller/package-summary.html" xlink:type="simple"><rect fill="#FEFECE" filter="url(#f11hfkl04mfwhy)" height="25.0938" id="it.polimi.ingsw.controller" style="stroke: #A80036; stroke-width: 1.5;" width="139" x="42.5" y="8"/><text fill="#000000" font-family="sans-serif" font-size="12" lengthAdjust="spacingAndGlyphs" textLength="133" x="45.5" y="25.457">it.polimi.ingsw.controller</text></a><!--class it.polimi.ingsw.model.workers--><a href="it/polimi/ingsw/model/workers/package-summary.html" target="_top" xlink:actuate="onRequest" xlink:show="new" xlink:title="it/polimi/ingsw/model/workers/package-summary.html" xlink:type="simple"><rect fill="#FEFECE" filter="url(#f11hfkl04mfwhy)" height="25.0938" id="it.polimi.ingsw.model.workers" style="stroke: #A80036; stroke-width: 1.5;" width="170" x="300" y="433"/><text fill="#000000" font-family="sans-serif" font-size="12" lengthAdjust="spacingAndGlyphs" textLength="164" x="303" y="450.457">it.polimi.ingsw.model.workers</text></a><!--class it.polimi.ingsw.model.cards--><a href="it/polimi/ingsw/model/cards/package-summary.html" target="_top" xlink:actuate="onRequest" xlink:show="new" xlink:title="it/polimi/ingsw/model/cards/package-summary.html" xlink:type="simple"><rect fill="#FEFECE" filter="url(#f11hfkl04mfwhy)" height="25.0938" id="it.polimi.ingsw.model.cards" style="stroke: #A80036; stroke-width: 1.5;" width="157" x="107.5" y="433"/><text fill="#000000" font-family="sans-serif" font-size="12" lengthAdjust="spacingAndGlyphs" textLength="151" x="110.5" y="450.457">it.polimi.ingsw.model.cards</text></a><!--class it.polimi.ingsw.model.player--><a href="it/polimi/ingsw/model/player/package-summary.html" target="_top" xlink:actuate="onRequest" xlink:show="new" xlink:title="it/polimi/ingsw/model/player/package-summary.html" xlink:type="simple"><rect fill="#FEFECE" filter="url(#f11hfkl04mfwhy)" height="25.0938" id="it.polimi.ingsw.model.player" style="stroke: #A80036; stroke-width: 1.5;" width="159" x="272.5" y="348"/><text fill="#000000" font-family="sans-serif" font-size="12" lengthAdjust="spacingAndGlyphs" textLength="153" x="275.5" y="365.457">it.polimi.ingsw.model.player</text></a><!--class it.polimi.ingsw.network.server--><a href="it/polimi/ingsw/network/server/package-summary.html" target="_top" xlink:actuate="onRequest" xlink:show="new" xlink:title="it/polimi/ingsw/network/server/package-summary.html" xlink:type="simple"><rect fill="#FEFECE" filter="url(#f11hfkl04mfwhy)" height="25.0938" id="it.polimi.ingsw.network.server" style="stroke: #A80036; stroke-width: 1.5;" width="168" x="279" y="93"/><text fill="#000000" font-family="sans-serif" font-size="12" lengthAdjust="spacingAndGlyphs" textLength="162" x="282" y="110.457">it.polimi.ingsw.network.server</text></a><!--class it.polimi.ingsw.model.board--><a href="it/polimi/ingsw/model/board/package-summary.html" target="_top" xlink:actuate="onRequest" xlink:show="new" xlink:title="it/polimi/ingsw/model/board/package-summary.html" xlink:type="simple"><rect fill="#FEFECE" filter="url(#f11hfkl04mfwhy)" height="25.0938" id="it.polimi.ingsw.model.board" style="stroke: #A80036; stroke-width: 1.5;" width="158" x="467" y="348"/><text fill="#000000" font-family="sans-serif" font-size="12" lengthAdjust="spacingAndGlyphs" textLength="152" x="470" y="365.457">it.polimi.ingsw.model.board</text></a><!--class it.polimi.ingsw.observer--><a href="it/polimi/ingsw/observer/package-summary.html" target="_top" xlink:actuate="onRequest" xlink:show="new" xlink:title="it/polimi/ingsw/observer/package-summary.html" xlink:type="simple"><rect fill="#FEFECE" filter="url(#f11hfkl04mfwhy)" height="25.0938" id="it.polimi.ingsw.observer" style="stroke: #A80036; stroke-width: 1.5;" width="136" x="544" y="433"/><text fill="#000000" font-family="sans-serif" font-size="12" lengthAdjust="spacingAndGlyphs" textLength="130" x="547" y="450.457">it.polimi.ingsw.observer</text></a><!--class it.polimi.ingsw.model.game--><a href="it/polimi/ingsw/model/game/package-summary.html" target="_top" xlink:actuate="onRequest" xlink:show="new" xlink:title="it/polimi/ingsw/model/game/package-summary.html" xlink:type="simple"><rect fill="#FEFECE" filter="url(#f11hfkl04mfwhy)" height="25.0938" id="it.polimi.ingsw.model.game" style="stroke: #A80036; stroke-width: 1.5;" width="158" x="505" y="263"/><text fill="#000000" font-family="sans-serif" font-size="12" lengthAdjust="spacingAndGlyphs" textLength="152" x="508" y="280.457">it.polimi.ingsw.model.game</text></a><!--class it.polimi.ingsw.network.message--><a href="it/polimi/ingsw/network/message/package-summary.html" target="_top" xlink:actuate="onRequest" xlink:show="new" xlink:title="it/polimi/ingsw/network/message/package-summary.html" xlink:type="simple"><rect fill="#FEFECE" filter="url(#f11hfkl04mfwhy)" height="25.0938" id="it.polimi.ingsw.network.message" style="stroke: #A80036; stroke-width: 1.5;" width="187" x="343.5" y="178"/><text fill="#000000" font-family="sans-serif" font-size="12" lengthAdjust="spacingAndGlyphs" textLength="181" x="346.5" y="195.457">it.polimi.ingsw.network.message</text></a><!--class it.polimi.ingsw.view.cli--><a href="it/polimi/ingsw/view/cli/package-summary.html" target="_top" xlink:actuate="onRequest" xlink:show="new" xlink:title="it/polimi/ingsw/view/cli/package-summary.html" xlink:type="simple"><rect fill="#FEFECE" filter="url(#f11hfkl04mfwhy)" height="25.0938" id="it.polimi.ingsw.view.cli" style="stroke: #A80036; stroke-width: 1.5;" width="127" x="637.5" y="178"/><text fill="#000000" font-family="sans-serif" font-size="12" lengthAdjust="spacingAndGlyphs" textLength="121" x="640.5" y="195.457">it.polimi.ingsw.view.cli</text></a><!--class it.polimi.ingsw.network.client--><a href="it/polimi/ingsw/network/client/package-summary.html" target="_top" xlink:actuate="onRequest" xlink:show="new" xlink:title="it/polimi/ingsw/network/client/package-summary.html" xlink:type="simple"><rect fill="#FEFECE" filter="url(#f11hfkl04mfwhy)" height="25.0938" id="it.polimi.ingsw.network.client" style="stroke: #A80036; stroke-width: 1.5;" width="163" x="733.5" y="263"/><text fill="#000000" font-family="sans-serif" font-size="12" lengthAdjust="spacingAndGlyphs" textLength="157" x="736.5" y="280.457">it.polimi.ingsw.network.client</text></a><!--class it.polimi.ingsw.view.gui--><a href="it/polimi/ingsw/view/gui/package-summary.html" target="_top" xlink:actuate="onRequest" xlink:show="new" xlink:title="it/polimi/ingsw/view/gui/package-summary.html" xlink:type="simple"><rect fill="#FEFECE" filter="url(#f11hfkl04mfwhy)" height="25.0938" id="it.polimi.ingsw.view.gui" style="stroke: #A80036; stroke-width: 1.5;" width="132" x="800" y="178"/><text fill="#000000" font-family="sans-serif" font-size="12" lengthAdjust="spacingAndGlyphs" textLength="126" x="803" y="195.457">it.polimi.ingsw.view.gui</text></a><!--link it.polimi.ingsw.controller to it.polimi.ingsw.model.workers--><path d="M107.848,33.139 C98.5765,60.202 77,129.616 77,189.5 C77,189.5 77,189.5 77,276.5 C77,376.481 203.63,417.3174 294.499,433.7504 " fill="none" id="it.polimi.ingsw.controller-it.polimi.ingsw.model.workers" style="stroke: #A80036; stroke-width: 1.0;"/><polygon fill="#A80036" points="299.614,434.6565,291.4505,429.1468,294.6908,433.7837,290.0539,437.024,299.614,434.6565" style="stroke: #A80036; stroke-width: 1.0;"/><!--link it.polimi.ingsw.controller to it.polimi.ingsw.model.cards--><path d="M97.7044,33.331 C68.7709,58.698 6,121.561 6,189.5 C6,189.5 6,189.5 6,276.5 C6,323.823 18.397,338.7 51,373 C77.082,400.4397 116.05,419.509 145.425,431.0112 " fill="none" id="it.polimi.ingsw.controller-it.polimi.ingsw.model.cards" style="stroke: #A80036; stroke-width: 1.0;"/><polygon fill="#A80036" points="150.422,432.9316,143.4568,425.9684,145.755,431.1374,140.586,433.4356,150.422,432.9316" style="stroke: #A80036; stroke-width: 1.0;"/><!--link it.polimi.ingsw.controller to it.polimi.ingsw.model.player--><path d="M120.261,33.135 C156.25,83.819 299.387,285.403 340.751,343.658 " fill="none" id="it.polimi.ingsw.controller-it.polimi.ingsw.model.player" style="stroke: #A80036; stroke-width: 1.0;"/><polygon fill="#A80036" points="343.773,347.914,341.8212,338.2605,340.8771,343.838,335.2996,342.8939,343.773,347.914" style="stroke: #A80036; stroke-width: 1.0;"/><!--link it.polimi.ingsw.controller to it.polimi.ingsw.network.server--><path d="M146.9,33.041 C193.132,48.329 274.487,75.231 323.102,91.307 " fill="none" id="it.polimi.ingsw.controller-it.polimi.ingsw.network.server" style="stroke: #A80036; stroke-width: 1.0;"/><polygon fill="#A80036" points="327.992,92.924,320.7032,86.3003,323.2449,91.354,318.1912,93.8957,327.992,92.924" style="stroke: #A80036; stroke-width: 1.0;"/><!--link it.polimi.ingsw.model.board to it.polimi.ingsw.model.workers--><path d="M523.614,373.0408 C494.378,388.1124 443.247,414.4723 411.927,430.6182 " fill="none" id="it.polimi.ingsw.model.board-it.polimi.ingsw.model.workers" style="stroke: #A80036; stroke-width: 1.0;"/><polygon fill="#A80036" points="407.455,432.9237,417.2874,432.3545,411.899,430.6323,413.6212,425.244,407.455,432.9237" style="stroke: #A80036; stroke-width: 1.0;"/><!--link it.polimi.ingsw.model.board to it.polimi.ingsw.observer--><path d="M555.177,373.0408 C566.736,387.5772 586.645,412.6143 599.564,428.8604 " fill="none" id="it.polimi.ingsw.model.board-it.polimi.ingsw.observer" style="stroke: #A80036; stroke-width: 1.0;"/><polygon fill="#A80036" points="602.688,432.7897,600.2181,423.2556,599.5764,428.8759,593.9561,428.2341,602.688,432.7897" style="stroke: #A80036; stroke-width: 1.0;"/><!--link it.polimi.ingsw.model.game to it.polimi.ingsw.observer--><path d="M597.955,288.23 C612.16,301.172 633.293,323.445 642,348 C651.892,375.896 635.718,408.933 623.537,428.2205 " fill="none" id="it.polimi.ingsw.model.game-it.polimi.ingsw.observer" style="stroke: #A80036; stroke-width: 1.0;"/><polygon fill="#A80036" points="620.545,432.8164,628.808,427.457,623.2733,428.6264,622.1039,423.0917,620.545,432.8164" style="stroke: #A80036; stroke-width: 1.0;"/><!--link it.polimi.ingsw.model.game to it.polimi.ingsw.model.player--><path d="M551.741,288.041 C509.096,303.298 434.116,330.122 389.151,346.209 " fill="none" id="it.polimi.ingsw.model.game-it.polimi.ingsw.model.player" style="stroke: #A80036; stroke-width: 1.0;"/><polygon fill="#A80036" points="384.358,347.924,394.1795,348.6581,389.0657,346.2395,391.4843,341.1258,384.358,347.924" style="stroke: #A80036; stroke-width: 1.0;"/><!--link it.polimi.ingsw.model.player to it.polimi.ingsw.observer--><path d="M388.152,373.0408 C436.041,388.3286 520.313,415.2308 570.671,431.3066 " fill="none" id="it.polimi.ingsw.model.player-it.polimi.ingsw.observer" style="stroke: #A80036; stroke-width: 1.0;"/><polygon fill="#A80036" points="575.737,432.9237,568.379,426.3769,570.9737,431.4036,565.9469,433.9983,575.737,432.9237" style="stroke: #A80036; stroke-width: 1.0;"/><!--link it.polimi.ingsw.model.player to it.polimi.ingsw.model.workers--><path d="M356.589,373.0408 C362.27,387.3308 371.986,411.7686 378.45,428.0269 " fill="none" id="it.polimi.ingsw.model.player-it.polimi.ingsw.model.workers" style="stroke: #A80036; stroke-width: 1.0;"/><polygon fill="#A80036" points="380.344,432.7897,380.7352,422.9486,378.4964,428.1436,373.3014,425.9048,380.344,432.7897" style="stroke: #A80036; stroke-width: 1.0;"/><!--link it.polimi.ingsw.model.player to it.polimi.ingsw.model.cards--><path d="M328.918,373.0408 C298.775,388.1124 246.055,414.4723 213.764,430.6182 " fill="none" id="it.polimi.ingsw.model.player-it.polimi.ingsw.model.cards" style="stroke: #A80036; stroke-width: 1.0;"/><polygon fill="#A80036" points="209.153,432.9237,218.9917,432.4771,213.6253,430.6879,215.4145,425.3215,209.153,432.9237" style="stroke: #A80036; stroke-width: 1.0;"/><!--link it.polimi.ingsw.network.message to it.polimi.ingsw.model.game--><path d="M457.44,203.041 C483.949,218.008 530.175,244.109 558.819,260.282 " fill="none" id="it.polimi.ingsw.network.message-it.polimi.ingsw.model.game" style="stroke: #A80036; stroke-width: 1.0;"/><polygon fill="#A80036" points="563.26,262.79,557.3877,254.8833,558.9055,260.3327,553.4561,261.8505,563.26,262.79" style="stroke: #A80036; stroke-width: 1.0;"/><!--link it.polimi.ingsw.network.server to it.polimi.ingsw.model.player--><path d="M354.531,118.439 C345.416,132.086 331.487,155.457 326,178 C311.422,237.891 333.774,311.024 345.528,343.099 " fill="none" id="it.polimi.ingsw.network.server-it.polimi.ingsw.model.player" style="stroke: #A80036; stroke-width: 1.0;"/><polygon fill="#A80036" points="347.317,347.886,347.9144,338.0553,345.5672,343.2022,340.4203,340.855,347.317,347.886" style="stroke: #A80036; stroke-width: 1.0;"/><!--link it.polimi.ingsw.network.server to it.polimi.ingsw.observer--><path d="M447.086,110.671 C601.431,119.194 917.223,140.988 950,178 C1052.27,293.484 769.826,396.0096 656.612,431.3837 " fill="none" id="it.polimi.ingsw.network.server-it.polimi.ingsw.observer" style="stroke: #A80036; stroke-width: 1.0;"/><polygon fill="#A80036" points="651.677,432.9166,661.4584,434.0675,656.452,431.4337,659.0858,426.4274,651.677,432.9166" style="stroke: #A80036; stroke-width: 1.0;"/><!--link it.polimi.ingsw.network.server to it.polimi.ingsw.model.game--><path d="M429.569,118.046 C468.592,127.947 516.292,145.917 548,178 C569.785,200.042 578.573,236.468 581.977,257.699 " fill="none" id="it.polimi.ingsw.network.server-it.polimi.ingsw.model.game" style="stroke: #A80036; stroke-width: 1.0;"/><polygon fill="#A80036" points="582.731,262.752,585.3578,253.2599,581.9925,257.8068,577.4456,254.4415,582.731,262.752" style="stroke: #A80036; stroke-width: 1.0;"/><!--link it.polimi.ingsw.network.server to it.polimi.ingsw.model.cards--><path d="M354.316,118.315 C344.267,132.23 327.503,156.215 315,178 C262.507,269.465 211.3,385.4891 193.031,427.9649 " fill="none" id="it.polimi.ingsw.network.server-it.polimi.ingsw.model.cards" style="stroke: #A80036; stroke-width: 1.0;"/><polygon fill="#A80036" points="190.969,432.7737,198.1932,426.0796,192.9402,428.1787,190.8411,422.9257,190.969,432.7737" style="stroke: #A80036; stroke-width: 1.0;"/><!--link it.polimi.ingsw.network.server to it.polimi.ingsw.network.message--><path d="M373.289,118.041 C386.25,132.577 408.572,157.614 423.056,173.86 " fill="none" id="it.polimi.ingsw.network.server-it.polimi.ingsw.network.message" style="stroke: #A80036; stroke-width: 1.0;"/><polygon fill="#A80036" points="426.559,177.79,423.5549,168.4105,423.2314,174.0581,417.5838,173.7346,426.559,177.79" style="stroke: #A80036; stroke-width: 1.0;"/><!--link it.polimi.ingsw.view.cli to it.polimi.ingsw.network.client--><path d="M716.851,203.041 C737.155,217.824 772.375,243.466 794.643,259.679 " fill="none" id="it.polimi.ingsw.view.cli-it.polimi.ingsw.network.client" style="stroke: #A80036; stroke-width: 1.0;"/><polygon fill="#A80036" points="798.916,262.79,793.9951,254.2586,794.8741,259.8468,789.2859,260.7257,798.916,262.79" style="stroke: #A80036; stroke-width: 1.0;"/><!--link it.polimi.ingsw.view.cli to it.polimi.ingsw.model.game--><path d="M684.732,203.041 C663.806,217.885 627.445,243.68 604.607,259.881 " fill="none" id="it.polimi.ingsw.view.cli-it.polimi.ingsw.model.game" style="stroke: #A80036; stroke-width: 1.0;"/><polygon fill="#A80036" points="600.507,262.79,610.1621,260.8458,604.5853,259.8973,605.5338,254.3206,600.507,262.79" style="stroke: #A80036; stroke-width: 1.0;"/><!--link it.polimi.ingsw.view.gui to it.polimi.ingsw.network.client--><path d="M858.909,203.041 C850.052,217.454 834.853,242.191 824.865,258.446 " fill="none" id="it.polimi.ingsw.view.gui-it.polimi.ingsw.network.client" style="stroke: #A80036; stroke-width: 1.0;"/><polygon fill="#A80036" points="822.196,262.79,830.3167,257.2174,824.8143,258.5304,823.5013,253.028,822.196,262.79" style="stroke: #A80036; stroke-width: 1.0;"/><text fill="#888888" font-family="sans-serif" font-size="10" lengthAdjust="spacingAndGlyphs" textLength="190" x="400" y="478.3809">UMLDoclet 2.0.10, PlantUML 1.2019.08</text><!--
@startuml
    set namespaceSeparator none
    hide circle
    hide empty fields
    hide empty methods

    it.polimi.ingsw.controller - -> it.polimi.ingsw.model.workers
    it.polimi.ingsw.controller - -> it.polimi.ingsw.model.cards
    it.polimi.ingsw.controller - -> it.polimi.ingsw.model.player
    it.polimi.ingsw.controller - -> it.polimi.ingsw.network.server
    it.polimi.ingsw.model.board - -> it.polimi.ingsw.model.workers
    it.polimi.ingsw.model.board - -> it.polimi.ingsw.observer
    it.polimi.ingsw.model.game - -> it.polimi.ingsw.observer
    it.polimi.ingsw.model.game - -> it.polimi.ingsw.model.player
    it.polimi.ingsw.model.player - -> it.polimi.ingsw.observer
    it.polimi.ingsw.model.player - -> it.polimi.ingsw.model.workers
    it.polimi.ingsw.model.player - -> it.polimi.ingsw.model.cards
    it.polimi.ingsw.network.message - -> it.polimi.ingsw.model.game
    it.polimi.ingsw.network.server - -> it.polimi.ingsw.model.player
    it.polimi.ingsw.network.server - -> it.polimi.ingsw.observer
    it.polimi.ingsw.network.server - -> it.polimi.ingsw.model.game
    it.polimi.ingsw.network.server - -> it.polimi.ingsw.model.cards
    it.polimi.ingsw.network.server - -> it.polimi.ingsw.network.message
    it.polimi.ingsw.view.cli - -> it.polimi.ingsw.network.client
    it.polimi.ingsw.view.cli - -> it.polimi.ingsw.model.game
    it.polimi.ingsw.view.gui - -> it.polimi.ingsw.network.client

    class "it.polimi.ingsw.controller" [[it/polimi/ingsw/controller/package-summary.html]] {
    }
    class "it.polimi.ingsw.model.workers" [[it/polimi/ingsw/model/workers/package-summary.html]] {
    }
    class "it.polimi.ingsw.model.cards" [[it/polimi/ingsw/model/cards/package-summary.html]] {
    }
    class "it.polimi.ingsw.model.player" [[it/polimi/ingsw/model/player/package-summary.html]] {
    }
    class "it.polimi.ingsw.network.server" [[it/polimi/ingsw/network/server/package-summary.html]] {
    }
    class "it.polimi.ingsw.model.board" [[it/polimi/ingsw/model/board/package-summary.html]] {
    }
    class "it.polimi.ingsw.observer" [[it/polimi/ingsw/observer/package-summary.html]] {
    }
    class "it.polimi.ingsw.model.game" [[it/polimi/ingsw/model/game/package-summary.html]] {
    }
    class "it.polimi.ingsw.network.message" [[it/polimi/ingsw/network/message/package-summary.html]] {
    }
    class "it.polimi.ingsw.view.cli" [[it/polimi/ingsw/view/cli/package-summary.html]] {
    }
    class "it.polimi.ingsw.network.client" [[it/polimi/ingsw/network/client/package-summary.html]] {
    }
    class "it.polimi.ingsw.view.gui" [[it/polimi/ingsw/view/gui/package-summary.html]] {
    }

    center footer UMLDoclet 2.0.10, PlantUML 1.2019.08
@enduml

PlantUML version 1.2019.08(Sat Jul 13 21:25:14 CEST 2019)
(APACHE source distribution)
Java Runtime: Java(TM) SE Runtime Environment
JVM: Java HotSpot(TM) 64-Bit Server VM
Java Version: 14.0.1+7
Operating System: Windows 10
OS Version: 10.0
Default Encoding: Cp1252
Language: it
Country: IT
--></g></svg>