<?xml version="1.0" encoding="UTF-8" standalone="no"?><svg xmlns="http://www.w3.org/2000/svg" xmlns:xlink="http://www.w3.org/1999/xlink" contentScriptType="application/ecmascript" contentStyleType="text/css" height="491px" preserveAspectRatio="none" style="width:1342px;height:491px;" version="1.1" viewBox="0 0 1342 491" width="1342px" zoomAndPan="magnify"><defs><filter height="300%" id="f3fqgeozanh0h" width="300%" x="-1" y="-1"><feGaussianBlur result="blurOut" stdDeviation="2.0"/><feColorMatrix in="blurOut" result="blurOut2" type="matrix" values="0 0 0 0 0 0 0 0 0 0 0 0 0 0 0 0 0 0 .4 0"/><feOffset dx="4.0" dy="4.0" in="blurOut2" result="blurOut3"/><feBlend in="SourceGraphic" in2="blurOut3" mode="normal"/></filter></defs><g><!--class it.polimi.ingsw.network.message--><a href="it/polimi/ingsw/network/message/package-summary.html" target="_top" xlink:actuate="onRequest" xlink:show="new" xlink:title="it/polimi/ingsw/network/message/package-summary.html" xlink:type="simple"><rect fill="#FEFECE" filter="url(#f3fqgeozanh0h)" height="25.0938" id="it.polimi.ingsw.network.message" style="stroke: #A80036; stroke-width: 1.5;" width="187" x="734.5" y="178"/><text fill="#000000" font-family="sans-serif" font-size="12" lengthAdjust="spacingAndGlyphs" textLength="181" x="737.5" y="195.457">it.polimi.ingsw.network.message</text></a><!--class it.polimi.ingsw.model.game--><a href="it/polimi/ingsw/model/game/package-summary.html" target="_top" xlink:actuate="onRequest" xlink:show="new" xlink:title="it/polimi/ingsw/model/game/package-summary.html" xlink:type="simple"><rect fill="#FEFECE" filter="url(#f3fqgeozanh0h)" height="25.0938" id="it.polimi.ingsw.model.game" style="stroke: #A80036; stroke-width: 1.5;" width="158" x="749" y="263"/><text fill="#000000" font-family="sans-serif" font-size="12" lengthAdjust="spacingAndGlyphs" textLength="152" x="752" y="280.457">it.polimi.ingsw.model.game</text></a><!--class it.polimi.ingsw.view.gui.panels--><a href="it/polimi/ingsw/view/gui/panels/package-summary.html" target="_top" xlink:actuate="onRequest" xlink:show="new" xlink:title="it/polimi/ingsw/view/gui/panels/package-summary.html" xlink:type="simple"><rect fill="#FEFECE" filter="url(#f3fqgeozanh0h)" height="25.0938" id="it.polimi.ingsw.view.gui.panels" style="stroke: #A80036; stroke-width: 1.5;" width="173" x="252.5" y="93"/><text fill="#000000" font-family="sans-serif" font-size="12" lengthAdjust="spacingAndGlyphs" textLength="167" x="255.5" y="110.457">it.polimi.ingsw.view.gui.panels</text></a><!--class it.polimi.ingsw.model.cards--><a href="it/polimi/ingsw/model/cards/package-summary.html" target="_top" xlink:actuate="onRequest" xlink:show="new" xlink:title="it/polimi/ingsw/model/cards/package-summary.html" xlink:type="simple"><rect fill="#FEFECE" filter="url(#f3fqgeozanh0h)" height="25.0938" id="it.polimi.ingsw.model.cards" style="stroke: #A80036; stroke-width: 1.5;" width="157" x="1117.5" y="433"/><text fill="#000000" font-family="sans-serif" font-size="12" lengthAdjust="spacingAndGlyphs" textLength="151" x="1120.5" y="450.457">it.polimi.ingsw.model.cards</text></a><!--class it.polimi.ingsw.view.gui--><a href="it/polimi/ingsw/view/gui/package-summary.html" target="_top" xlink:actuate="onRequest" xlink:show="new" xlink:title="it/polimi/ingsw/view/gui/package-summary.html" xlink:type="simple"><rect fill="#FEFECE" filter="url(#f3fqgeozanh0h)" height="25.0938" id="it.polimi.ingsw.view.gui" style="stroke: #A80036; stroke-width: 1.5;" width="132" x="333" y="178"/><text fill="#000000" font-family="sans-serif" font-size="12" lengthAdjust="spacingAndGlyphs" textLength="126" x="336" y="195.457">it.polimi.ingsw.view.gui</text></a><!--class it.polimi.ingsw.model.player--><a href="it/polimi/ingsw/model/player/package-summary.html" target="_top" xlink:actuate="onRequest" xlink:show="new" xlink:title="it/polimi/ingsw/model/player/package-summary.html" xlink:type="simple"><rect fill="#FEFECE" filter="url(#f3fqgeozanh0h)" height="25.0938" id="it.polimi.ingsw.model.player" style="stroke: #A80036; stroke-width: 1.5;" width="159" x="881.5" y="348"/><text fill="#000000" font-family="sans-serif" font-size="12" lengthAdjust="spacingAndGlyphs" textLength="153" x="884.5" y="365.457">it.polimi.ingsw.model.player</text></a><!--class it.polimi.ingsw.model.board--><a href="it/polimi/ingsw/model/board/package-summary.html" target="_top" xlink:actuate="onRequest" xlink:show="new" xlink:title="it/polimi/ingsw/model/board/package-summary.html" xlink:type="simple"><rect fill="#FEFECE" filter="url(#f3fqgeozanh0h)" height="25.0938" id="it.polimi.ingsw.model.board" style="stroke: #A80036; stroke-width: 1.5;" width="158" x="59" y="348"/><text fill="#000000" font-family="sans-serif" font-size="12" lengthAdjust="spacingAndGlyphs" textLength="152" x="62" y="365.457">it.polimi.ingsw.model.board</text></a><!--class it.polimi.ingsw.network.server--><a href="it/polimi/ingsw/network/server/package-summary.html" target="_top" xlink:actuate="onRequest" xlink:show="new" xlink:title="it/polimi/ingsw/network/server/package-summary.html" xlink:type="simple"><rect fill="#FEFECE" filter="url(#f3fqgeozanh0h)" height="25.0938" id="it.polimi.ingsw.network.server" style="stroke: #A80036; stroke-width: 1.5;" width="168" x="1031" y="93"/><text fill="#000000" font-family="sans-serif" font-size="12" lengthAdjust="spacingAndGlyphs" textLength="162" x="1034" y="110.457">it.polimi.ingsw.network.server</text></a><!--class it.polimi.ingsw.observer--><a href="it/polimi/ingsw/observer/package-summary.html" target="_top" xlink:actuate="onRequest" xlink:show="new" xlink:title="it/polimi/ingsw/observer/package-summary.html" xlink:type="simple"><rect fill="#FEFECE" filter="url(#f3fqgeozanh0h)" height="25.0938" id="it.polimi.ingsw.observer" style="stroke: #A80036; stroke-width: 1.5;" width="136" x="822" y="433"/><text fill="#000000" font-family="sans-serif" font-size="12" lengthAdjust="spacingAndGlyphs" textLength="130" x="825" y="450.457">it.polimi.ingsw.observer</text></a><!--class it.polimi.ingsw.controller--><a href="it/polimi/ingsw/controller/package-summary.html" target="_top" xlink:actuate="onRequest" xlink:show="new" xlink:title="it/polimi/ingsw/controller/package-summary.html" xlink:type="simple"><rect fill="#FEFECE" filter="url(#f3fqgeozanh0h)" height="25.0938" id="it.polimi.ingsw.controller" style="stroke: #A80036; stroke-width: 1.5;" width="139" x="975.5" y="8"/><text fill="#000000" font-family="sans-serif" font-size="12" lengthAdjust="spacingAndGlyphs" textLength="133" x="978.5" y="25.457">it.polimi.ingsw.controller</text></a><!--class it.polimi.ingsw.model.workers--><a href="it/polimi/ingsw/model/workers/package-summary.html" target="_top" xlink:actuate="onRequest" xlink:show="new" xlink:title="it/polimi/ingsw/model/workers/package-summary.html" xlink:type="simple"><rect fill="#FEFECE" filter="url(#f3fqgeozanh0h)" height="25.0938" id="it.polimi.ingsw.model.workers" style="stroke: #A80036; stroke-width: 1.5;" width="170" x="53" y="433"/><text fill="#000000" font-family="sans-serif" font-size="12" lengthAdjust="spacingAndGlyphs" textLength="164" x="56" y="450.457">it.polimi.ingsw.model.workers</text></a><!--class it.polimi.ingsw.network.client--><a href="it/polimi/ingsw/network/client/package-summary.html" target="_top" xlink:actuate="onRequest" xlink:show="new" xlink:title="it/polimi/ingsw/network/client/package-summary.html" xlink:type="simple"><rect fill="#FEFECE" filter="url(#f3fqgeozanh0h)" height="25.0938" id="it.polimi.ingsw.network.client" style="stroke: #A80036; stroke-width: 1.5;" width="163" x="408.5" y="263"/><text fill="#000000" font-family="sans-serif" font-size="12" lengthAdjust="spacingAndGlyphs" textLength="157" x="411.5" y="280.457">it.polimi.ingsw.network.client</text></a><!--class it.polimi.ingsw.view.cli--><a href="it/polimi/ingsw/view/cli/package-summary.html" target="_top" xlink:actuate="onRequest" xlink:show="new" xlink:title="it/polimi/ingsw/view/cli/package-summary.html" xlink:type="simple"><rect fill="#FEFECE" filter="url(#f3fqgeozanh0h)" height="25.0938" id="it.polimi.ingsw.view.cli" style="stroke: #A80036; stroke-width: 1.5;" width="127" x="500.5" y="178"/><text fill="#000000" font-family="sans-serif" font-size="12" lengthAdjust="spacingAndGlyphs" textLength="121" x="503.5" y="195.457">it.polimi.ingsw.view.cli</text></a><!--link it.polimi.ingsw.network.message to it.polimi.ingsw.model.game--><path d="M828,203.041 C828,217.208 828,241.348 828,257.605 " fill="none" id="it.polimi.ingsw.network.message-it.polimi.ingsw.model.game" style="stroke: #A80036; stroke-width: 1.0;"/><polygon fill="#A80036" points="828,262.79,832,253.79,828,257.79,824,253.79,828,262.79" style="stroke: #A80036; stroke-width: 1.0;"/><!--link it.polimi.ingsw.view.gui.panels to it.polimi.ingsw.model.cards--><path d="M331.293,118.019 C322.675,131.656 309.239,155.38 304,178 C292.227,228.829 303.516,256.358 345,288 C465.167,379.6586 922.175,423.9149 1112.27,438.6591 " fill="none" id="it.polimi.ingsw.view.gui.panels-it.polimi.ingsw.model.cards" style="stroke: #A80036; stroke-width: 1.0;"/><polygon fill="#A80036" points="1117.27,439.0443,1108.5921,434.3866,1112.2838,438.6728,1107.9977,442.3645,1117.27,439.0443" style="stroke: #A80036; stroke-width: 1.0;"/><!--link it.polimi.ingsw.view.gui.panels to it.polimi.ingsw.model.game--><path d="M411.321,118.005 C474.311,129.287 567.443,149.037 645,178 C705.701,200.668 771.727,239.309 805.429,260.154 " fill="none" id="it.polimi.ingsw.view.gui.panels-it.polimi.ingsw.model.game" style="stroke: #A80036; stroke-width: 1.0;"/><polygon fill="#A80036" points="809.77,262.851,804.236,254.7039,805.5229,260.2124,800.0143,261.4993,809.77,262.851" style="stroke: #A80036; stroke-width: 1.0;"/><!--link it.polimi.ingsw.view.gui.panels to it.polimi.ingsw.view.gui--><path d="M347.343,118.041 C357.762,132.454 375.644,157.191 387.394,173.446 " fill="none" id="it.polimi.ingsw.view.gui.panels-it.polimi.ingsw.view.gui" style="stroke: #A80036; stroke-width: 1.0;"/><polygon fill="#A80036" points="390.535,177.79,388.5037,168.1529,387.6056,173.738,382.0205,172.8399,390.535,177.79" style="stroke: #A80036; stroke-width: 1.0;"/><!--link it.polimi.ingsw.view.gui.panels to it.polimi.ingsw.model.player--><path d="M331.683,118.064 C321.024,136.456 303.668,173.325 315,203 C333.078,250.342 346.121,264.463 391,288 C473.407,331.218 738.525,349.421 876.211,356.114 " fill="none" id="it.polimi.ingsw.view.gui.panels-it.polimi.ingsw.model.player" style="stroke: #A80036; stroke-width: 1.0;"/><polygon fill="#A80036" points="881.459,356.366,872.6626,351.9361,876.4648,356.1246,872.2764,359.9268,881.459,356.366" style="stroke: #A80036; stroke-width: 1.0;"/><!--link it.polimi.ingsw.view.gui.panels to it.polimi.ingsw.model.board--><path d="M286.47,118.003 C252.204,128.173 209.14,146.459 183,178 C142.296,227.114 137.566,307.758 137.566,342.597 " fill="none" id="it.polimi.ingsw.view.gui.panels-it.polimi.ingsw.model.board" style="stroke: #A80036; stroke-width: 1.0;"/><polygon fill="#A80036" points="137.602,347.784,141.5402,338.7568,137.5677,342.7841,133.5404,338.8116,137.602,347.784" style="stroke: #A80036; stroke-width: 1.0;"/><!--link it.polimi.ingsw.view.gui.panels to it.polimi.ingsw.network.message--><path d="M406.993,118.041 C498.647,133.598 661.157,161.181 755.209,177.145 " fill="none" id="it.polimi.ingsw.view.gui.panels-it.polimi.ingsw.network.message" style="stroke: #A80036; stroke-width: 1.0;"/><polygon fill="#A80036" points="760.191,177.991,751.9877,172.5408,755.2616,177.154,750.6484,180.4279,760.191,177.991" style="stroke: #A80036; stroke-width: 1.0;"/><!--link it.polimi.ingsw.network.server to it.polimi.ingsw.model.player--><path d="M1107.98,118.028 C1083.18,158.776 999.591,296.1 970.824,343.361 " fill="none" id="it.polimi.ingsw.network.server-it.polimi.ingsw.model.player" style="stroke: #A80036; stroke-width: 1.0;"/><polygon fill="#A80036" points="968.058,347.904,976.1543,342.296,970.6577,343.633,969.3207,338.1364,968.058,347.904" style="stroke: #A80036; stroke-width: 1.0;"/><!--link it.polimi.ingsw.network.server to it.polimi.ingsw.observer--><path d="M1116.02,118.211 C1118.9,158.635 1123.02,294.152 1058,373 C1032.82,403.5355 992.238,421.2934 957.268,431.4738 " fill="none" id="it.polimi.ingsw.network.server-it.polimi.ingsw.observer" style="stroke: #A80036; stroke-width: 1.0;"/><polygon fill="#A80036" points="952.152,432.9215,961.9011,434.3198,956.9631,431.5601,959.7228,426.6221,952.152,432.9215" style="stroke: #A80036; stroke-width: 1.0;"/><!--link it.polimi.ingsw.network.server to it.polimi.ingsw.model.game--><path d="M1095.27,118.047 C1044.28,147.899 908.172,227.57 852.376,260.231 " fill="none" id="it.polimi.ingsw.network.server-it.polimi.ingsw.model.game" style="stroke: #A80036; stroke-width: 1.0;"/><polygon fill="#A80036" points="847.865,262.872,857.6528,261.777,852.18,260.3459,853.611,254.8731,847.865,262.872" style="stroke: #A80036; stroke-width: 1.0;"/><!--link it.polimi.ingsw.network.server to it.polimi.ingsw.model.cards--><path d="M1143.48,118.107 C1167.18,129.48 1199.33,149.307 1214,178 C1257.6,263.277 1219.13,384.4223 1202.64,428.0502 " fill="none" id="it.polimi.ingsw.network.server-it.polimi.ingsw.model.cards" style="stroke: #A80036; stroke-width: 1.0;"/><polygon fill="#A80036" points="1200.84,432.7425,1207.8071,425.7812,1202.6368,428.0765,1200.3415,422.9063,1200.84,432.7425" style="stroke: #A80036; stroke-width: 1.0;"/><!--link it.polimi.ingsw.network.server to it.polimi.ingsw.network.message--><path d="M1075.09,118.041 C1022.02,133.39 928.456,160.448 872.948,176.501 " fill="none" id="it.polimi.ingsw.network.server-it.polimi.ingsw.network.message" style="stroke: #A80036; stroke-width: 1.0;"/><polygon fill="#A80036" points="868.029,177.924,877.7858,179.2678,872.8324,176.5357,875.5645,171.5823,868.029,177.924" style="stroke: #A80036; stroke-width: 1.0;"/><!--link it.polimi.ingsw.controller to it.polimi.ingsw.model.workers--><path d="M975.302,24.872 C805.603,33.527 374.664,58.314 235,93 C127.811,119.621 6,79.055 6,189.5 C6,189.5 6,189.5 6,276.5 C6,322.123 13.6897,336.454 41,373 C59.59,397.8765 89.235,417.9438 110.864,430.4151 " fill="none" id="it.polimi.ingsw.controller-it.polimi.ingsw.model.workers" style="stroke: #A80036; stroke-width: 1.0;"/><polygon fill="#A80036" points="115.351,432.96,109.4945,425.0416,111.0014,430.494,105.549,432.0009,115.351,432.96" style="stroke: #A80036; stroke-width: 1.0;"/><!--link it.polimi.ingsw.controller to it.polimi.ingsw.model.cards--><path d="M1114.72,31.55 C1199.09,48.105 1330,89.849 1330,189.5 C1330,189.5 1330,189.5 1330,276.5 C1330,346.409 1258.21,403.9859 1219.72,429.8287 " fill="none" id="it.polimi.ingsw.controller-it.polimi.ingsw.model.cards" style="stroke: #A80036; stroke-width: 1.0;"/><polygon fill="#A80036" points="1215.2,432.8217,1224.9134,431.1939,1219.3706,430.0638,1220.5007,424.521,1215.2,432.8217" style="stroke: #A80036; stroke-width: 1.0;"/><!--link it.polimi.ingsw.controller to it.polimi.ingsw.model.player--><path d="M1038.93,33.346 C1032.01,47.291 1020.78,71.304 1014,93 C985.208,185.193 968.569,300.383 963.061,342.815 " fill="none" id="it.polimi.ingsw.controller-it.polimi.ingsw.model.player" style="stroke: #A80036; stroke-width: 1.0;"/><polygon fill="#A80036" points="962.415,347.852,967.527,339.4337,963.0508,342.8926,959.592,338.4164,962.415,347.852" style="stroke: #A80036; stroke-width: 1.0;"/><!--link it.polimi.ingsw.controller to it.polimi.ingsw.network.server--><path d="M1054.73,33.041 C1066.99,47.577 1088.11,72.614 1101.81,88.86 " fill="none" id="it.polimi.ingsw.controller-it.polimi.ingsw.network.server" style="stroke: #A80036; stroke-width: 1.0;"/><polygon fill="#A80036" points="1105.12,92.79,1102.3821,83.3294,1101.8992,88.9656,1096.263,88.4826,1105.12,92.79" style="stroke: #A80036; stroke-width: 1.0;"/><!--link it.polimi.ingsw.model.game to it.polimi.ingsw.observer--><path d="M832.262,288.047 C843.013,317.18 871.274,393.7592 883.833,427.7894 " fill="none" id="it.polimi.ingsw.model.game-it.polimi.ingsw.observer" style="stroke: #A80036; stroke-width: 1.0;"/><polygon fill="#A80036" points="885.709,432.8719,886.345,423.0436,883.9776,428.1812,878.84,425.8138,885.709,432.8719" style="stroke: #A80036; stroke-width: 1.0;"/><!--link it.polimi.ingsw.model.game to it.polimi.ingsw.model.player--><path d="M846.493,288.041 C870.379,302.947 911.957,328.894 937.897,345.082 " fill="none" id="it.polimi.ingsw.model.game-it.polimi.ingsw.model.player" style="stroke: #A80036; stroke-width: 1.0;"/><polygon fill="#A80036" points="942.235,347.79,936.7178,339.6315,937.9933,345.1427,932.4821,346.4182,942.235,347.79" style="stroke: #A80036; stroke-width: 1.0;"/><!--link it.polimi.ingsw.model.board to it.polimi.ingsw.model.workers--><path d="M138,373.0408 C138,387.2076 138,411.3481 138,427.6046 " fill="none" id="it.polimi.ingsw.model.board-it.polimi.ingsw.model.workers" style="stroke: #A80036; stroke-width: 1.0;"/><polygon fill="#A80036" points="138,432.7897,142,423.7897,138,427.7897,134,423.7897,138,432.7897" style="stroke: #A80036; stroke-width: 1.0;"/><!--link it.polimi.ingsw.model.board to it.polimi.ingsw.observer--><path d="M217.056,370.2256 C363.518,386.3909 675.017,420.7718 816.884,436.43 " fill="none" id="it.polimi.ingsw.model.board-it.polimi.ingsw.observer" style="stroke: #A80036; stroke-width: 1.0;"/><polygon fill="#A80036" points="821.858,436.979,813.3512,432.0157,816.8882,436.4304,812.4735,439.9674,821.858,436.979" style="stroke: #A80036; stroke-width: 1.0;"/><!--link it.polimi.ingsw.view.gui to it.polimi.ingsw.network.client--><path d="M411.653,203.041 C427.726,217.7 455.507,243.039 473.304,259.272 " fill="none" id="it.polimi.ingsw.view.gui-it.polimi.ingsw.network.client" style="stroke: #A80036; stroke-width: 1.0;"/><polygon fill="#A80036" points="477.161,262.79,473.2077,253.7694,473.4671,259.4203,467.8162,259.6797,477.161,262.79" style="stroke: #A80036; stroke-width: 1.0;"/><!--link it.polimi.ingsw.model.player to it.polimi.ingsw.observer--><path d="M951.128,373.0408 C938.693,387.5772 917.276,412.6143 903.378,428.8604 " fill="none" id="it.polimi.ingsw.model.player-it.polimi.ingsw.observer" style="stroke: #A80036; stroke-width: 1.0;"/><polygon fill="#A80036" points="900.017,432.7897,908.9075,428.5519,903.2677,428.9906,902.829,423.3508,900.017,432.7897" style="stroke: #A80036; stroke-width: 1.0;"/><!--link it.polimi.ingsw.model.player to it.polimi.ingsw.model.workers--><path d="M881.34,369.5338 C727.499,385.0487 390.435,419.0417 228.442,435.3788 " fill="none" id="it.polimi.ingsw.model.player-it.polimi.ingsw.model.workers" style="stroke: #A80036; stroke-width: 1.0;"/><polygon fill="#A80036" points="223.227,435.9048,232.5828,438.982,228.2018,435.4034,231.7805,431.0224,223.227,435.9048" style="stroke: #A80036; stroke-width: 1.0;"/><!--link it.polimi.ingsw.model.player to it.polimi.ingsw.model.cards--><path d="M993.676,373.0408 C1036.87,388.2977 1112.82,415.1222 1158.37,431.2091 " fill="none" id="it.polimi.ingsw.model.player-it.polimi.ingsw.model.cards" style="stroke: #A80036; stroke-width: 1.0;"/><polygon fill="#A80036" points="1163.22,432.9237,1156.0557,426.1656,1158.5029,431.2657,1153.4028,433.7129,1163.22,432.9237" style="stroke: #A80036; stroke-width: 1.0;"/><!--link it.polimi.ingsw.view.cli to it.polimi.ingsw.network.client--><path d="M553.711,203.041 C540.75,217.577 518.428,242.614 503.944,258.86 " fill="none" id="it.polimi.ingsw.view.cli-it.polimi.ingsw.network.client" style="stroke: #A80036; stroke-width: 1.0;"/><polygon fill="#A80036" points="500.441,262.79,509.4162,258.7346,503.7686,259.0581,503.4451,253.4105,500.441,262.79" style="stroke: #A80036; stroke-width: 1.0;"/><!--link it.polimi.ingsw.view.cli to it.polimi.ingsw.model.game--><path d="M600.708,203.041 C649.433,218.359 735.249,245.34 786.345,261.404 " fill="none" id="it.polimi.ingsw.view.cli-it.polimi.ingsw.model.game" style="stroke: #A80036; stroke-width: 1.0;"/><polygon fill="#A80036" points="791.179,262.924,783.794,256.4077,786.4094,261.4237,781.3935,264.0391,791.179,262.924" style="stroke: #A80036; stroke-width: 1.0;"/><text fill="#888888" font-family="sans-serif" font-size="10" lengthAdjust="spacingAndGlyphs" textLength="190" x="579" y="478.3809">UMLDoclet 2.0.10, PlantUML 1.2019.08</text><!--
@startuml
    set namespaceSeparator none
    hide circle
    hide empty fields
    hide empty methods

    it.polimi.ingsw.network.message - -> it.polimi.ingsw.model.game
    it.polimi.ingsw.view.gui.panels - -> it.polimi.ingsw.model.cards
    it.polimi.ingsw.view.gui.panels - -> it.polimi.ingsw.model.game
    it.polimi.ingsw.view.gui.panels - -> it.polimi.ingsw.view.gui
    it.polimi.ingsw.view.gui.panels - -> it.polimi.ingsw.model.player
    it.polimi.ingsw.view.gui.panels - -> it.polimi.ingsw.model.board
    it.polimi.ingsw.view.gui.panels - -> it.polimi.ingsw.network.message
    it.polimi.ingsw.network.server - -> it.polimi.ingsw.model.player
    it.polimi.ingsw.network.server - -> it.polimi.ingsw.observer
    it.polimi.ingsw.network.server - -> it.polimi.ingsw.model.game
    it.polimi.ingsw.network.server - -> it.polimi.ingsw.model.cards
    it.polimi.ingsw.network.server - -> it.polimi.ingsw.network.message
    it.polimi.ingsw.controller - -> it.polimi.ingsw.model.workers
    it.polimi.ingsw.controller - -> it.polimi.ingsw.model.cards
    it.polimi.ingsw.controller - -> it.polimi.ingsw.model.player
    it.polimi.ingsw.controller - -> it.polimi.ingsw.network.server
    it.polimi.ingsw.model.game - -> it.polimi.ingsw.observer
    it.polimi.ingsw.model.game - -> it.polimi.ingsw.model.player
    it.polimi.ingsw.model.board - -> it.polimi.ingsw.model.workers
    it.polimi.ingsw.model.board - -> it.polimi.ingsw.observer
    it.polimi.ingsw.view.gui - -> it.polimi.ingsw.network.client
    it.polimi.ingsw.model.player - -> it.polimi.ingsw.observer
    it.polimi.ingsw.model.player - -> it.polimi.ingsw.model.workers
    it.polimi.ingsw.model.player - -> it.polimi.ingsw.model.cards
    it.polimi.ingsw.view.cli - -> it.polimi.ingsw.network.client
    it.polimi.ingsw.view.cli - -> it.polimi.ingsw.model.game

    class "it.polimi.ingsw.network.message" [[it/polimi/ingsw/network/message/package-summary.html]] {
    }
    class "it.polimi.ingsw.model.game" [[it/polimi/ingsw/model/game/package-summary.html]] {
    }
    class "it.polimi.ingsw.view.gui.panels" [[it/polimi/ingsw/view/gui/panels/package-summary.html]] {
    }
    class "it.polimi.ingsw.model.cards" [[it/polimi/ingsw/model/cards/package-summary.html]] {
    }
    class "it.polimi.ingsw.view.gui" [[it/polimi/ingsw/view/gui/package-summary.html]] {
    }
    class "it.polimi.ingsw.model.player" [[it/polimi/ingsw/model/player/package-summary.html]] {
    }
    class "it.polimi.ingsw.model.board" [[it/polimi/ingsw/model/board/package-summary.html]] {
    }
    class "it.polimi.ingsw.network.server" [[it/polimi/ingsw/network/server/package-summary.html]] {
    }
    class "it.polimi.ingsw.observer" [[it/polimi/ingsw/observer/package-summary.html]] {
    }
    class "it.polimi.ingsw.controller" [[it/polimi/ingsw/controller/package-summary.html]] {
    }
    class "it.polimi.ingsw.model.workers" [[it/polimi/ingsw/model/workers/package-summary.html]] {
    }
    class "it.polimi.ingsw.network.client" [[it/polimi/ingsw/network/client/package-summary.html]] {
    }
    class "it.polimi.ingsw.view.cli" [[it/polimi/ingsw/view/cli/package-summary.html]] {
    }

    center footer UMLDoclet 2.0.10, PlantUML 1.2019.08
@enduml

PlantUML version 1.2019.08(Sat Jul 13 21:25:14 CEST 2019)
(APACHE source distribution)
Java Runtime: Java(TM) SE Runtime Environment
JVM: Java HotSpot(TM) 64-Bit Server VM
Java Version: 14.0.1+7
Operating System: Windows 10
OS Version: 10.0
Default Encoding: Cp1252
Language: it
Country: IT
--></g></svg>