<?xml version="1.0" encoding="UTF-8" standalone="no"?><svg xmlns="http://www.w3.org/2000/svg" xmlns:xlink="http://www.w3.org/1999/xlink" contentScriptType="application/ecmascript" contentStyleType="text/css" height="158px" preserveAspectRatio="none" style="width:375px;height:158px;" version="1.1" viewBox="0 0 375 158" width="375px" zoomAndPan="magnify"><defs><filter height="300%" id="f18y0a7307z6sf" width="300%" x="-1" y="-1"><feGaussianBlur result="blurOut" stdDeviation="2.0"/><feColorMatrix in="blurOut" result="blurOut2" type="matrix" values="0 0 0 0 0 0 0 0 0 0 0 0 0 0 0 0 0 0 .4 0"/><feOffset dx="4.0" dy="4.0" in="blurOut2" result="blurOut3"/><feBlend in="SourceGraphic" in2="blurOut3" mode="normal"/></filter></defs><g><!--class it.polimi.ingsw.controller.ActionManager--><a href="ActionManager.html" target="_top" xlink:actuate="onRequest" xlink:show="new" xlink:title="ActionManager.html" xlink:type="simple"><rect fill="#FEFECE" filter="url(#f18y0a7307z6sf)" height="117.3672" id="it.polimi.ingsw.controller.ActionManager" style="stroke: #A80036; stroke-width: 1.5;" width="358" x="6" y="8"/><ellipse cx="122.75" cy="28.0938" fill="#ADD1B2" rx="11" ry="11" style="stroke: #A80036; stroke-width: 1.0;"/><path d="M125.5156,23.9688 Q125.6719,23.75 125.8594,23.6406 Q126.0469,23.5313 126.2656,23.5313 Q126.6406,23.5313 126.875,23.7969 Q127.1094,24.0469 127.1094,24.6563 L127.1094,26.1094 Q127.1094,26.7188 126.875,26.9844 Q126.6406,27.25 126.2656,27.25 Q125.9219,27.25 125.7188,27.0469 Q125.5156,26.8594 125.4063,26.3438 Q125.3594,25.9844 125.1719,25.7969 Q124.8438,25.4219 124.2344,25.2031 Q123.625,24.9844 123,24.9844 Q122.2344,24.9844 121.5938,25.3125 Q120.9688,25.6406 120.4688,26.3906 Q119.9844,27.1406 119.9844,28.1719 L119.9844,29.2656 Q119.9844,30.5 120.875,31.3281 Q121.7656,32.1406 123.3594,32.1406 Q124.2969,32.1406 124.9531,31.8906 Q125.3438,31.7344 125.7656,31.2969 Q126.0313,31.0313 126.1719,30.9531 Q126.3281,30.875 126.5313,30.875 Q126.8594,30.875 127.1094,31.1406 Q127.375,31.3906 127.375,31.7344 Q127.375,32.0781 127.0313,32.4844 Q126.5313,33.0625 125.7344,33.3906 Q124.6563,33.8438 123.3594,33.8438 Q121.8438,33.8438 120.6406,33.2188 Q119.6563,32.7188 118.9688,31.6563 Q118.2813,30.5781 118.2813,29.2969 L118.2813,28.1406 Q118.2813,26.8125 118.8906,25.6719 Q119.5156,24.5156 120.6094,23.9063 Q121.7031,23.2813 122.9375,23.2813 Q123.6719,23.2813 124.3125,23.4531 Q124.9688,23.6094 125.5156,23.9688 Z "/><text fill="#000000" font-family="sans-serif" font-size="14" lengthAdjust="spacingAndGlyphs" textLength="95" x="153.75" y="27.5332">ActionManager</text><text fill="#000000" font-family="sans-serif" font-size="10" lengthAdjust="spacingAndGlyphs" textLength="116" x="143.25" y="40.9902">it.polimi.ingsw.controller</text><line style="stroke: #A80036; stroke-width: 1.5;" x1="7" x2="363" y1="48.1875" y2="48.1875"/><ellipse cx="17" cy="60.6055" fill="#84BE84" rx="3" ry="3" style="stroke: #038048; stroke-width: 1.0;"/><text fill="#000000" font-family="sans-serif" font-size="11" lengthAdjust="spacingAndGlyphs" text-decoration="underline" textLength="143" x="26" y="63.6064">getInstance(): ActionManager</text><ellipse cx="17" cy="74.4414" fill="#84BE84" rx="3" ry="3" style="stroke: #038048; stroke-width: 1.0;"/><text fill="#000000" font-family="sans-serif" font-size="11" lengthAdjust="spacingAndGlyphs" textLength="158" x="26" y="77.4424">isAround(int, int, int, int): boolean</text><ellipse cx="17" cy="88.2773" fill="#84BE84" rx="3" ry="3" style="stroke: #038048; stroke-width: 1.0;"/><text fill="#000000" font-family="sans-serif" font-size="11" lengthAdjust="spacingAndGlyphs" textLength="137" x="26" y="91.2783">validCoords(int, int): boolean</text><ellipse cx="17" cy="102.1133" fill="#84BE84" rx="3" ry="3" style="stroke: #038048; stroke-width: 1.0;"/><text fill="#000000" font-family="sans-serif" font-size="11" lengthAdjust="spacingAndGlyphs" textLength="276" x="26" y="105.1143">verifyCoordinateMovement(Worker, God, int, int): boolean</text><ellipse cx="17" cy="115.9492" fill="#84BE84" rx="3" ry="3" style="stroke: #038048; stroke-width: 1.0;"/><text fill="#000000" font-family="sans-serif" font-size="11" lengthAdjust="spacingAndGlyphs" textLength="332" x="26" y="118.9502">verifyCoordinateConstruction(Worker, God, boolean, int, int): boolean</text></a><text fill="#888888" font-family="sans-serif" font-size="10" lengthAdjust="spacingAndGlyphs" textLength="190" x="96" y="145.3809">UMLDoclet 2.0.10, PlantUML 1.2019.08</text><!--
@startuml
    set namespaceSeparator none
    hide empty fields
    hide empty methods

    class "<size:14>ActionManager\n<size:10>it.polimi.ingsw.controller" as it.polimi.ingsw.controller.ActionManager [[ActionManager.html]] {
        {static} +getInstance(): ActionManager
        +isAround(int, int, int, int): boolean
        +validCoords(int, int): boolean
        +verifyCoordinateMovement(Worker, God, int, int): boolean
        +verifyCoordinateConstruction(Worker, God, boolean, int, int): boolean
    }

    center footer UMLDoclet 2.0.10, PlantUML 1.2019.08
@enduml

PlantUML version 1.2019.08(Sat Jul 13 21:25:14 CEST 2019)
(APACHE source distribution)
Java Runtime: Java(TM) SE Runtime Environment
JVM: Java HotSpot(TM) 64-Bit Server VM
Java Version: 14.0.1+7
Operating System: Windows 10
OS Version: 10.0
Default Encoding: Cp1252
Language: it
Country: IT
--></g></svg>