<?xml version="1.0" encoding="UTF-8" standalone="no"?><svg xmlns="http://www.w3.org/2000/svg" xmlns:xlink="http://www.w3.org/1999/xlink" contentScriptType="application/ecmascript" contentStyleType="text/css" height="269px" preserveAspectRatio="none" style="width:328px;height:269px;" version="1.1" viewBox="0 0 328 269" width="328px" zoomAndPan="magnify"><defs><filter height="300%" id="f74pt93krpq6n" width="300%" x="-1" y="-1"><feGaussianBlur result="blurOut" stdDeviation="2.0"/><feColorMatrix in="blurOut" result="blurOut2" type="matrix" values="0 0 0 0 0 0 0 0 0 0 0 0 0 0 0 0 0 0 .4 0"/><feOffset dx="4.0" dy="4.0" in="blurOut2" result="blurOut3"/><feBlend in="SourceGraphic" in2="blurOut3" mode="normal"/></filter></defs><g><!--class it.polimi.ingsw.controller.GameManager--><a href="GameManager.html" target="_top" xlink:actuate="onRequest" xlink:show="new" xlink:title="GameManager.html" xlink:type="simple"><rect fill="#FEFECE" filter="url(#f74pt93krpq6n)" height="228.0547" id="it.polimi.ingsw.controller.GameManager" style="stroke: #A80036; stroke-width: 1.5;" width="311" x="6" y="8"/><ellipse cx="99.25" cy="28.0938" fill="#ADD1B2" rx="11" ry="11" style="stroke: #A80036; stroke-width: 1.0;"/><path d="M102.0156,23.9688 Q102.1719,23.75 102.3594,23.6406 Q102.5469,23.5313 102.7656,23.5313 Q103.1406,23.5313 103.375,23.7969 Q103.6094,24.0469 103.6094,24.6563 L103.6094,26.1094 Q103.6094,26.7188 103.375,26.9844 Q103.1406,27.25 102.7656,27.25 Q102.4219,27.25 102.2188,27.0469 Q102.0156,26.8594 101.9063,26.3438 Q101.8594,25.9844 101.6719,25.7969 Q101.3438,25.4219 100.7344,25.2031 Q100.125,24.9844 99.5,24.9844 Q98.7344,24.9844 98.0938,25.3125 Q97.4688,25.6406 96.9688,26.3906 Q96.4844,27.1406 96.4844,28.1719 L96.4844,29.2656 Q96.4844,30.5 97.375,31.3281 Q98.2656,32.1406 99.8594,32.1406 Q100.7969,32.1406 101.4531,31.8906 Q101.8438,31.7344 102.2656,31.2969 Q102.5313,31.0313 102.6719,30.9531 Q102.8281,30.875 103.0313,30.875 Q103.3594,30.875 103.6094,31.1406 Q103.875,31.3906 103.875,31.7344 Q103.875,32.0781 103.5313,32.4844 Q103.0313,33.0625 102.2344,33.3906 Q101.1563,33.8438 99.8594,33.8438 Q98.3438,33.8438 97.1406,33.2188 Q96.1563,32.7188 95.4688,31.6563 Q94.7813,30.5781 94.7813,29.2969 L94.7813,28.1406 Q94.7813,26.8125 95.3906,25.6719 Q96.0156,24.5156 97.1094,23.9063 Q98.2031,23.2813 99.4375,23.2813 Q100.1719,23.2813 100.8125,23.4531 Q101.4688,23.6094 102.0156,23.9688 Z "/><text fill="#000000" font-family="sans-serif" font-size="14" lengthAdjust="spacingAndGlyphs" textLength="94" x="130.75" y="27.5332">GameManager</text><text fill="#000000" font-family="sans-serif" font-size="10" lengthAdjust="spacingAndGlyphs" textLength="116" x="119.75" y="40.9902">it.polimi.ingsw.controller</text><line style="stroke: #A80036; stroke-width: 1.5;" x1="7" x2="316" y1="48.1875" y2="48.1875"/><ellipse cx="17" cy="60.6055" fill="#84BE84" rx="3" ry="3" style="stroke: #038048; stroke-width: 1.0;"/><text fill="#000000" font-family="sans-serif" font-size="11" lengthAdjust="spacingAndGlyphs" text-decoration="underline" textLength="140" x="26" y="63.6064">getInstance(): GameManager</text><ellipse cx="17" cy="74.4414" fill="#84BE84" rx="3" ry="3" style="stroke: #038048; stroke-width: 1.0;"/><text fill="#000000" font-family="sans-serif" font-size="11" lengthAdjust="spacingAndGlyphs" textLength="101" x="26" y="77.4424">mapEmpty(): boolean</text><ellipse cx="17" cy="88.2773" fill="#84BE84" rx="3" ry="3" style="stroke: #038048; stroke-width: 1.0;"/><text fill="#000000" font-family="sans-serif" font-size="11" lengthAdjust="spacingAndGlyphs" textLength="285" x="26" y="91.2783">addPlayerConnection(Player, SocketClientConnection): void</text><ellipse cx="17" cy="102.1133" fill="#84BE84" rx="3" ry="3" style="stroke: #038048; stroke-width: 1.0;"/><text fill="#000000" font-family="sans-serif" font-size="11" lengthAdjust="spacingAndGlyphs" textLength="130" x="26" y="105.1143">setCurrPlayer(Player): void</text><ellipse cx="17" cy="115.9492" fill="#84BE84" rx="3" ry="3" style="stroke: #038048; stroke-width: 1.0;"/><text fill="#000000" font-family="sans-serif" font-size="11" lengthAdjust="spacingAndGlyphs" textLength="110" x="26" y="118.9502">getCurrPlayer(): Player</text><ellipse cx="17" cy="129.7852" fill="#84BE84" rx="3" ry="3" style="stroke: #038048; stroke-width: 1.0;"/><text fill="#000000" font-family="sans-serif" font-size="11" lengthAdjust="spacingAndGlyphs" textLength="137" x="26" y="132.7861">getPlayersInGame(): Player[]</text><ellipse cx="17" cy="143.6211" fill="#84BE84" rx="3" ry="3" style="stroke: #038048; stroke-width: 1.0;"/><text fill="#000000" font-family="sans-serif" font-size="11" lengthAdjust="spacingAndGlyphs" textLength="145" x="26" y="146.6221">setNumberOfPlayers(int): void</text><ellipse cx="17" cy="157.457" fill="#84BE84" rx="3" ry="3" style="stroke: #038048; stroke-width: 1.0;"/><text fill="#000000" font-family="sans-serif" font-size="11" lengthAdjust="spacingAndGlyphs" textLength="112" x="26" y="160.458">choiceOfCard(int): void</text><ellipse cx="17" cy="171.293" fill="#84BE84" rx="3" ry="3" style="stroke: #038048; stroke-width: 1.0;"/><text fill="#000000" font-family="sans-serif" font-size="11" lengthAdjust="spacingAndGlyphs" textLength="112" x="26" y="174.2939">setWorker(int, int): void</text><ellipse cx="17" cy="185.1289" fill="#84BE84" rx="3" ry="3" style="stroke: #038048; stroke-width: 1.0;"/><text fill="#000000" font-family="sans-serif" font-size="11" lengthAdjust="spacingAndGlyphs" textLength="115" x="26" y="188.1299">nextPlayer(Player): void</text><ellipse cx="17" cy="198.9648" fill="#84BE84" rx="3" ry="3" style="stroke: #038048; stroke-width: 1.0;"/><text fill="#000000" font-family="sans-serif" font-size="11" lengthAdjust="spacingAndGlyphs" textLength="123" x="26" y="201.9658">deletePlayer(Player): void</text><ellipse cx="17" cy="212.8008" fill="#84BE84" rx="3" ry="3" style="stroke: #038048; stroke-width: 1.0;"/><text fill="#000000" font-family="sans-serif" font-size="11" lengthAdjust="spacingAndGlyphs" textLength="110" x="26" y="215.8018">endGame(Player): void</text><ellipse cx="17" cy="226.6367" fill="#84BE84" rx="3" ry="3" style="stroke: #038048; stroke-width: 1.0;"/><text fill="#000000" font-family="sans-serif" font-size="11" lengthAdjust="spacingAndGlyphs" textLength="159" x="26" y="229.6377">disconnectedPlayer(Player): void</text></a><text fill="#888888" font-family="sans-serif" font-size="10" lengthAdjust="spacingAndGlyphs" textLength="190" x="72.5" y="256.3809">UMLDoclet 2.0.10, PlantUML 1.2019.08</text><!--
@startuml
    set namespaceSeparator none
    hide empty fields
    hide empty methods

    class "<size:14>GameManager\n<size:10>it.polimi.ingsw.controller" as it.polimi.ingsw.controller.GameManager [[GameManager.html]] {
        {static} +getInstance(): GameManager
        +mapEmpty(): boolean
        +addPlayerConnection(Player, SocketClientConnection): void
        +setCurrPlayer(Player): void
        +getCurrPlayer(): Player
        +getPlayersInGame(): Player[]
        +setNumberOfPlayers(int): void
        +choiceOfCard(int): void
        +setWorker(int, int): void
        +nextPlayer(Player): void
        +deletePlayer(Player): void
        +endGame(Player): void
        +disconnectedPlayer(Player): void
    }

    center footer UMLDoclet 2.0.10, PlantUML 1.2019.08
@enduml

PlantUML version 1.2019.08(Sat Jul 13 21:25:14 CEST 2019)
(APACHE source distribution)
Java Runtime: Java(TM) SE Runtime Environment
JVM: Java HotSpot(TM) 64-Bit Server VM
Java Version: 14.0.1+7
Operating System: Windows 10
OS Version: 10.0
Default Encoding: Cp1252
Language: it
Country: IT
--></g></svg>