<?xml version="1.0" encoding="UTF-8" standalone="no"?><svg xmlns="http://www.w3.org/2000/svg" xmlns:xlink="http://www.w3.org/1999/xlink" contentScriptType="application/ecmascript" contentStyleType="text/css" height="408px" preserveAspectRatio="none" style="width:1281px;height:408px;" version="1.1" viewBox="0 0 1281 408" width="1281px" zoomAndPan="magnify"><defs><filter height="300%" id="f1oqdh9ufznihp" width="300%" x="-1" y="-1"><feGaussianBlur result="blurOut" stdDeviation="2.0"/><feColorMatrix in="blurOut" result="blurOut2" type="matrix" values="0 0 0 0 0 0 0 0 0 0 0 0 0 0 0 0 0 0 .4 0"/><feOffset dx="4.0" dy="4.0" in="blurOut2" result="blurOut3"/><feBlend in="SourceGraphic" in2="blurOut3" mode="normal"/></filter></defs><g><!--cluster it.polimi.ingsw.controller--><polygon fill="#FFFFFF" filter="url(#f1oqdh9ufznihp)" points="22,24,201,24,208,47.6094,1259,47.6094,1259,359,22,359,22,24" style="stroke: #000000; stroke-width: 1.5;"/><line style="stroke: #000000; stroke-width: 1.5;" x1="22" x2="208" y1="47.6094" y2="47.6094"/><text fill="#000000" font-family="sans-serif" font-size="14" font-weight="bold" lengthAdjust="spacingAndGlyphs" textLength="173" x="26" y="40.5332">it.polimi.ingsw.controller</text><!--class it.polimi.ingsw.controller.ActionManager--><a href="ActionManager.html" target="_top" xlink:actuate="onRequest" xlink:show="new" xlink:title="ActionManager.html" xlink:type="simple"><rect fill="#FEFECE" filter="url(#f1oqdh9ufznihp)" height="103.3438" id="it.polimi.ingsw.controller.ActionManager" style="stroke: #A80036; stroke-width: 1.5;" width="358" x="806" y="150"/><ellipse cx="940.25" cy="166" fill="#ADD1B2" rx="11" ry="11" style="stroke: #A80036; stroke-width: 1.0;"/><path d="M943.0156,161.875 Q943.1719,161.6563 943.3594,161.5469 Q943.5469,161.4375 943.7656,161.4375 Q944.1406,161.4375 944.375,161.7031 Q944.6094,161.9531 944.6094,162.5625 L944.6094,164.0156 Q944.6094,164.625 944.375,164.8906 Q944.1406,165.1563 943.7656,165.1563 Q943.4219,165.1563 943.2188,164.9531 Q943.0156,164.7656 942.9063,164.25 Q942.8594,163.8906 942.6719,163.7031 Q942.3438,163.3281 941.7344,163.1094 Q941.125,162.8906 940.5,162.8906 Q939.7344,162.8906 939.0938,163.2188 Q938.4688,163.5469 937.9688,164.2969 Q937.4844,165.0469 937.4844,166.0781 L937.4844,167.1719 Q937.4844,168.4063 938.375,169.2344 Q939.2656,170.0469 940.8594,170.0469 Q941.7969,170.0469 942.4531,169.7969 Q942.8438,169.6406 943.2656,169.2031 Q943.5313,168.9375 943.6719,168.8594 Q943.8281,168.7813 944.0313,168.7813 Q944.3594,168.7813 944.6094,169.0469 Q944.875,169.2969 944.875,169.6406 Q944.875,169.9844 944.5313,170.3906 Q944.0313,170.9688 943.2344,171.2969 Q942.1563,171.75 940.8594,171.75 Q939.3438,171.75 938.1406,171.125 Q937.1563,170.625 936.4688,169.5625 Q935.7813,168.4844 935.7813,167.2031 L935.7813,166.0469 Q935.7813,164.7188 936.3906,163.5781 Q937.0156,162.4219 938.1094,161.8125 Q939.2031,161.1875 940.4375,161.1875 Q941.1719,161.1875 941.8125,161.3594 Q942.4688,161.5156 943.0156,161.875 Z "/><text fill="#000000" font-family="sans-serif" font-size="12" lengthAdjust="spacingAndGlyphs" textLength="81" x="960.75" y="170.9102">ActionManager</text><line style="stroke: #A80036; stroke-width: 1.5;" x1="807" x2="1163" y1="182" y2="182"/><line style="stroke: #A80036; stroke-width: 1.5;" x1="807" x2="1163" y1="190" y2="190"/><ellipse cx="817" cy="202.418" fill="#84BE84" rx="3" ry="3" style="stroke: #038048; stroke-width: 1.0;"/><text fill="#000000" font-family="sans-serif" font-size="11" lengthAdjust="spacingAndGlyphs" textLength="158" x="826" y="205.4189">isAround(int, int, int, int): boolean</text><ellipse cx="817" cy="216.2539" fill="#84BE84" rx="3" ry="3" style="stroke: #038048; stroke-width: 1.0;"/><text fill="#000000" font-family="sans-serif" font-size="11" lengthAdjust="spacingAndGlyphs" textLength="137" x="826" y="219.2549">validCoords(int, int): boolean</text><ellipse cx="817" cy="230.0898" fill="#84BE84" rx="3" ry="3" style="stroke: #038048; stroke-width: 1.0;"/><text fill="#000000" font-family="sans-serif" font-size="11" lengthAdjust="spacingAndGlyphs" textLength="276" x="826" y="233.0908">verifyCoordinateMovement(Worker, God, int, int): boolean</text><ellipse cx="817" cy="243.9258" fill="#84BE84" rx="3" ry="3" style="stroke: #038048; stroke-width: 1.0;"/><text fill="#000000" font-family="sans-serif" font-size="11" lengthAdjust="spacingAndGlyphs" textLength="332" x="826" y="246.9268">verifyCoordinateConstruction(Worker, God, boolean, int, int): boolean</text></a><!--class it.polimi.ingsw.controller.GameManager--><a href="GameManager.html" target="_top" xlink:actuate="onRequest" xlink:show="new" xlink:title="GameManager.html" xlink:type="simple"><rect fill="#FEFECE" filter="url(#f1oqdh9ufznihp)" height="214.0313" id="it.polimi.ingsw.controller.GameManager" style="stroke: #A80036; stroke-width: 1.5;" width="311" x="380.5" y="94.5"/><ellipse cx="490.75" cy="110.5" fill="#ADD1B2" rx="11" ry="11" style="stroke: #A80036; stroke-width: 1.0;"/><path d="M493.5156,106.375 Q493.6719,106.1563 493.8594,106.0469 Q494.0469,105.9375 494.2656,105.9375 Q494.6406,105.9375 494.875,106.2031 Q495.1094,106.4531 495.1094,107.0625 L495.1094,108.5156 Q495.1094,109.125 494.875,109.3906 Q494.6406,109.6563 494.2656,109.6563 Q493.9219,109.6563 493.7188,109.4531 Q493.5156,109.2656 493.4063,108.75 Q493.3594,108.3906 493.1719,108.2031 Q492.8438,107.8281 492.2344,107.6094 Q491.625,107.3906 491,107.3906 Q490.2344,107.3906 489.5938,107.7188 Q488.9688,108.0469 488.4688,108.7969 Q487.9844,109.5469 487.9844,110.5781 L487.9844,111.6719 Q487.9844,112.9063 488.875,113.7344 Q489.7656,114.5469 491.3594,114.5469 Q492.2969,114.5469 492.9531,114.2969 Q493.3438,114.1406 493.7656,113.7031 Q494.0313,113.4375 494.1719,113.3594 Q494.3281,113.2813 494.5313,113.2813 Q494.8594,113.2813 495.1094,113.5469 Q495.375,113.7969 495.375,114.1406 Q495.375,114.4844 495.0313,114.8906 Q494.5313,115.4688 493.7344,115.7969 Q492.6563,116.25 491.3594,116.25 Q489.8438,116.25 488.6406,115.625 Q487.6563,115.125 486.9688,114.0625 Q486.2813,112.9844 486.2813,111.7031 L486.2813,110.5469 Q486.2813,109.2188 486.8906,108.0781 Q487.5156,106.9219 488.6094,106.3125 Q489.7031,105.6875 490.9375,105.6875 Q491.6719,105.6875 492.3125,105.8594 Q492.9688,106.0156 493.5156,106.375 Z "/><text fill="#000000" font-family="sans-serif" font-size="12" lengthAdjust="spacingAndGlyphs" textLength="82" x="511.25" y="115.4102">GameManager</text><line style="stroke: #A80036; stroke-width: 1.5;" x1="381.5" x2="690.5" y1="126.5" y2="126.5"/><line style="stroke: #A80036; stroke-width: 1.5;" x1="381.5" x2="690.5" y1="134.5" y2="134.5"/><ellipse cx="391.5" cy="146.918" fill="#84BE84" rx="3" ry="3" style="stroke: #038048; stroke-width: 1.0;"/><text fill="#000000" font-family="sans-serif" font-size="11" lengthAdjust="spacingAndGlyphs" textLength="101" x="400.5" y="149.9189">mapEmpty(): boolean</text><ellipse cx="391.5" cy="160.7539" fill="#84BE84" rx="3" ry="3" style="stroke: #038048; stroke-width: 1.0;"/><text fill="#000000" font-family="sans-serif" font-size="11" lengthAdjust="spacingAndGlyphs" textLength="285" x="400.5" y="163.7549">addPlayerConnection(Player, SocketClientConnection): void</text><ellipse cx="391.5" cy="174.5898" fill="#84BE84" rx="3" ry="3" style="stroke: #038048; stroke-width: 1.0;"/><text fill="#000000" font-family="sans-serif" font-size="11" lengthAdjust="spacingAndGlyphs" textLength="130" x="400.5" y="177.5908">setCurrPlayer(Player): void</text><ellipse cx="391.5" cy="188.4258" fill="#84BE84" rx="3" ry="3" style="stroke: #038048; stroke-width: 1.0;"/><text fill="#000000" font-family="sans-serif" font-size="11" lengthAdjust="spacingAndGlyphs" textLength="110" x="400.5" y="191.4268">getCurrPlayer(): Player</text><ellipse cx="391.5" cy="202.2617" fill="#84BE84" rx="3" ry="3" style="stroke: #038048; stroke-width: 1.0;"/><text fill="#000000" font-family="sans-serif" font-size="11" lengthAdjust="spacingAndGlyphs" textLength="137" x="400.5" y="205.2627">getPlayersInGame(): Player[]</text><ellipse cx="391.5" cy="216.0977" fill="#84BE84" rx="3" ry="3" style="stroke: #038048; stroke-width: 1.0;"/><text fill="#000000" font-family="sans-serif" font-size="11" lengthAdjust="spacingAndGlyphs" textLength="145" x="400.5" y="219.0986">setNumberOfPlayers(int): void</text><ellipse cx="391.5" cy="229.9336" fill="#84BE84" rx="3" ry="3" style="stroke: #038048; stroke-width: 1.0;"/><text fill="#000000" font-family="sans-serif" font-size="11" lengthAdjust="spacingAndGlyphs" textLength="112" x="400.5" y="232.9346">choiceOfCard(int): void</text><ellipse cx="391.5" cy="243.7695" fill="#84BE84" rx="3" ry="3" style="stroke: #038048; stroke-width: 1.0;"/><text fill="#000000" font-family="sans-serif" font-size="11" lengthAdjust="spacingAndGlyphs" textLength="112" x="400.5" y="246.7705">setWorker(int, int): void</text><ellipse cx="391.5" cy="257.6055" fill="#84BE84" rx="3" ry="3" style="stroke: #038048; stroke-width: 1.0;"/><text fill="#000000" font-family="sans-serif" font-size="11" lengthAdjust="spacingAndGlyphs" textLength="115" x="400.5" y="260.6064">nextPlayer(Player): void</text><ellipse cx="391.5" cy="271.4414" fill="#84BE84" rx="3" ry="3" style="stroke: #038048; stroke-width: 1.0;"/><text fill="#000000" font-family="sans-serif" font-size="11" lengthAdjust="spacingAndGlyphs" textLength="123" x="400.5" y="274.4424">deletePlayer(Player): void</text><ellipse cx="391.5" cy="285.2773" fill="#84BE84" rx="3" ry="3" style="stroke: #038048; stroke-width: 1.0;"/><text fill="#000000" font-family="sans-serif" font-size="11" lengthAdjust="spacingAndGlyphs" textLength="110" x="400.5" y="288.2783">endGame(Player): void</text><ellipse cx="391.5" cy="299.1133" fill="#84BE84" rx="3" ry="3" style="stroke: #038048; stroke-width: 1.0;"/><text fill="#000000" font-family="sans-serif" font-size="11" lengthAdjust="spacingAndGlyphs" textLength="159" x="400.5" y="302.1143">disconnectedPlayer(Player): void</text></a><!--class it.polimi.ingsw.controller.TurnManager--><a href="TurnManager.html" target="_top" xlink:actuate="onRequest" xlink:show="new" xlink:title="TurnManager.html" xlink:type="simple"><rect fill="#FEFECE" filter="url(#f1oqdh9ufznihp)" height="283.2109" id="it.polimi.ingsw.controller.TurnManager" style="stroke: #A80036; stroke-width: 1.5;" width="228" x="38" y="60"/><ellipse cx="111.25" cy="76" fill="#ADD1B2" rx="11" ry="11" style="stroke: #A80036; stroke-width: 1.0;"/><path d="M114.0156,71.875 Q114.1719,71.6563 114.3594,71.5469 Q114.5469,71.4375 114.7656,71.4375 Q115.1406,71.4375 115.375,71.7031 Q115.6094,71.9531 115.6094,72.5625 L115.6094,74.0156 Q115.6094,74.625 115.375,74.8906 Q115.1406,75.1563 114.7656,75.1563 Q114.4219,75.1563 114.2188,74.9531 Q114.0156,74.7656 113.9063,74.25 Q113.8594,73.8906 113.6719,73.7031 Q113.3438,73.3281 112.7344,73.1094 Q112.125,72.8906 111.5,72.8906 Q110.7344,72.8906 110.0938,73.2188 Q109.4688,73.5469 108.9688,74.2969 Q108.4844,75.0469 108.4844,76.0781 L108.4844,77.1719 Q108.4844,78.4063 109.375,79.2344 Q110.2656,80.0469 111.8594,80.0469 Q112.7969,80.0469 113.4531,79.7969 Q113.8438,79.6406 114.2656,79.2031 Q114.5313,78.9375 114.6719,78.8594 Q114.8281,78.7813 115.0313,78.7813 Q115.3594,78.7813 115.6094,79.0469 Q115.875,79.2969 115.875,79.6406 Q115.875,79.9844 115.5313,80.3906 Q115.0313,80.9688 114.2344,81.2969 Q113.1563,81.75 111.8594,81.75 Q110.3438,81.75 109.1406,81.125 Q108.1563,80.625 107.4688,79.5625 Q106.7813,78.4844 106.7813,77.2031 L106.7813,76.0469 Q106.7813,74.7188 107.3906,73.5781 Q108.0156,72.4219 109.1094,71.8125 Q110.2031,71.1875 111.4375,71.1875 Q112.1719,71.1875 112.8125,71.3594 Q113.4688,71.5156 114.0156,71.875 Z "/><text fill="#000000" font-family="sans-serif" font-size="12" lengthAdjust="spacingAndGlyphs" textLength="73" x="131.75" y="80.9102">TurnManager</text><line style="stroke: #A80036; stroke-width: 1.5;" x1="39" x2="265" y1="92" y2="92"/><line style="stroke: #A80036; stroke-width: 1.5;" x1="39" x2="265" y1="100" y2="100"/><ellipse cx="49" cy="112.418" fill="#84BE84" rx="3" ry="3" style="stroke: #038048; stroke-width: 1.0;"/><text fill="#000000" font-family="sans-serif" font-size="11" lengthAdjust="spacingAndGlyphs" textLength="113" x="58" y="115.4189">workerChoice(int): void</text><ellipse cx="49" cy="126.2539" fill="#84BE84" rx="3" ry="3" style="stroke: #038048; stroke-width: 1.0;"/><text fill="#000000" font-family="sans-serif" font-size="11" lengthAdjust="spacingAndGlyphs" textLength="157" x="58" y="129.2549">prebuildPrometheus(int, int): void</text><ellipse cx="49" cy="140.0898" fill="#84BE84" rx="3" ry="3" style="stroke: #038048; stroke-width: 1.0;"/><text fill="#000000" font-family="sans-serif" font-size="11" lengthAdjust="spacingAndGlyphs" textLength="111" x="58" y="143.0908">movement(int, int): void</text><ellipse cx="49" cy="153.9258" fill="#84BE84" rx="3" ry="3" style="stroke: #038048; stroke-width: 1.0;"/><text fill="#000000" font-family="sans-serif" font-size="11" lengthAdjust="spacingAndGlyphs" textLength="124" x="58" y="156.9268">secondMove(int, int): void</text><ellipse cx="49" cy="167.7617" fill="#84BE84" rx="3" ry="3" style="stroke: #038048; stroke-width: 1.0;"/><text fill="#000000" font-family="sans-serif" font-size="11" lengthAdjust="spacingAndGlyphs" textLength="98" x="58" y="170.7627">win(int, int): boolean</text><ellipse cx="49" cy="181.5977" fill="#84BE84" rx="3" ry="3" style="stroke: #038048; stroke-width: 1.0;"/><text fill="#000000" font-family="sans-serif" font-size="11" lengthAdjust="spacingAndGlyphs" textLength="122" x="58" y="184.5986">construction(int, int): void</text><ellipse cx="49" cy="195.4336" fill="#84BE84" rx="3" ry="3" style="stroke: #038048; stroke-width: 1.0;"/><text fill="#000000" font-family="sans-serif" font-size="11" lengthAdjust="spacingAndGlyphs" textLength="199" x="58" y="198.4346">secondConstructionDemeter(int, int): void</text><ellipse cx="49" cy="209.2695" fill="#84BE84" rx="3" ry="3" style="stroke: #038048; stroke-width: 1.0;"/><text fill="#000000" font-family="sans-serif" font-size="11" lengthAdjust="spacingAndGlyphs" textLength="189" x="58" y="212.2705">secondConstructionHestia(int, int): void</text><ellipse cx="49" cy="223.1055" fill="#84BE84" rx="3" ry="3" style="stroke: #038048; stroke-width: 1.0;"/><text fill="#000000" font-family="sans-serif" font-size="11" lengthAdjust="spacingAndGlyphs" textLength="155" x="58" y="226.1064">constructionCupola(int, int): void</text><ellipse cx="49" cy="236.9414" fill="#84BE84" rx="3" ry="3" style="stroke: #038048; stroke-width: 1.0;"/><text fill="#000000" font-family="sans-serif" font-size="11" lengthAdjust="spacingAndGlyphs" textLength="155" x="58" y="239.9424">doubleConstruction(int, int): void</text><ellipse cx="49" cy="250.7773" fill="#84BE84" rx="3" ry="3" style="stroke: #038048; stroke-width: 1.0;"/><text fill="#000000" font-family="sans-serif" font-size="11" lengthAdjust="spacingAndGlyphs" textLength="141" x="58" y="253.7783">getWorkerSelected(): Worker</text><ellipse cx="49" cy="264.6133" fill="#84BE84" rx="3" ry="3" style="stroke: #038048; stroke-width: 1.0;"/><text fill="#000000" font-family="sans-serif" font-size="11" lengthAdjust="spacingAndGlyphs" textLength="180" x="58" y="267.6143">setAllowHeightAthena(boolean): void</text><ellipse cx="49" cy="278.4492" fill="#84BE84" rx="3" ry="3" style="stroke: #038048; stroke-width: 1.0;"/><text fill="#000000" font-family="sans-serif" font-size="11" lengthAdjust="spacingAndGlyphs" textLength="112" x="58" y="281.4502">cannotGoUp(): boolean</text><ellipse cx="49" cy="292.2852" fill="#84BE84" rx="3" ry="3" style="stroke: #038048; stroke-width: 1.0;"/><text fill="#000000" font-family="sans-serif" font-size="11" lengthAdjust="spacingAndGlyphs" textLength="202" x="58" y="295.2861">setAllowHeightPrometheus(boolean): void</text><ellipse cx="49" cy="306.1211" fill="#84BE84" rx="3" ry="3" style="stroke: #038048; stroke-width: 1.0;"/><text fill="#000000" font-family="sans-serif" font-size="11" lengthAdjust="spacingAndGlyphs" textLength="169" x="58" y="309.1221">cannotGoUpPrometheus(): boolean</text><ellipse cx="49" cy="319.957" fill="#84BE84" rx="3" ry="3" style="stroke: #038048; stroke-width: 1.0;"/><text fill="#000000" font-family="sans-serif" font-size="11" lengthAdjust="spacingAndGlyphs" textLength="156" x="58" y="322.958">setAllowWinHera(boolean): void</text><ellipse cx="49" cy="333.793" fill="#84BE84" rx="3" ry="3" style="stroke: #038048; stroke-width: 1.0;"/><text fill="#000000" font-family="sans-serif" font-size="11" lengthAdjust="spacingAndGlyphs" textLength="103" x="58" y="336.7939">cannotWin(): boolean</text></a><!--link it.polimi.ingsw.controller.ActionManager to it.polimi.ingsw.controller.ActionManager--><path d="M1164.13,185.121 C1185.24,188.121 1199,193.581 1199,201.5 C1199,208.738 1187.5,213.922 1169.41,217.051 " fill="none" id="it.polimi.ingsw.controller.ActionManager-it.polimi.ingsw.controller.ActionManager" style="stroke: #A80036; stroke-width: 1.0;"/><polygon fill="#A80036" points="1164.13,217.879,1173.6394,220.4425,1169.0701,217.1076,1172.4051,212.5383,1164.13,217.879" style="stroke: #A80036; stroke-width: 1.0;"/><text fill="#000000" font-family="sans-serif" font-size="13" lengthAdjust="spacingAndGlyphs" textLength="49" x="1205" y="206.9951">instance</text><!--link it.polimi.ingsw.controller.GameManager to it.polimi.ingsw.controller.GameManager--><path d="M691.84,166.009 C712.663,172.011 726.5,183.841 726.5,201.5 C726.5,217.642 714.939,228.913 697.05,235.314 " fill="none" id="it.polimi.ingsw.controller.GameManager-it.polimi.ingsw.controller.GameManager" style="stroke: #A80036; stroke-width: 1.0;"/><polygon fill="#A80036" points="691.84,236.991,701.6326,238.0424,696.5997,235.4597,699.1824,230.4268,691.84,236.991" style="stroke: #A80036; stroke-width: 1.0;"/><text fill="#000000" font-family="sans-serif" font-size="13" lengthAdjust="spacingAndGlyphs" textLength="49" x="732.5" y="206.9951">instance</text><!--link it.polimi.ingsw.controller.TurnManager to it.polimi.ingsw.controller.TurnManager--><path d="M266.005,151.627 C286.591,158.025 301,174.649 301,201.5 C301,226.253 288.755,242.315 270.713,249.686 " fill="none" id="it.polimi.ingsw.controller.TurnManager-it.polimi.ingsw.controller.TurnManager" style="stroke: #A80036; stroke-width: 1.0;"/><polygon fill="#A80036" points="266.005,251.373,275.8269,252.1018,270.7118,249.686,273.1276,244.5709,266.005,251.373" style="stroke: #A80036; stroke-width: 1.0;"/><text fill="#000000" font-family="sans-serif" font-size="13" lengthAdjust="spacingAndGlyphs" textLength="49" x="307" y="206.9951">instance</text><text fill="#888888" font-family="sans-serif" font-size="10" lengthAdjust="spacingAndGlyphs" textLength="190" x="551.5" y="395.3809">UMLDoclet 2.0.10, PlantUML 1.2019.08</text><!--
@startuml
    namespace it.polimi.ingsw.controller {

        class ActionManager [[ActionManager.html]] {
            +isAround(int, int, int, int): boolean
            +validCoords(int, int): boolean
            +verifyCoordinateMovement(Worker, God, int, int): boolean
            +verifyCoordinateConstruction(Worker, God, boolean, int, int): boolean
        }

        class GameManager [[GameManager.html]] {
            +mapEmpty(): boolean
            +addPlayerConnection(Player, SocketClientConnection): void
            +setCurrPlayer(Player): void
            +getCurrPlayer(): Player
            +getPlayersInGame(): Player[]
            +setNumberOfPlayers(int): void
            +choiceOfCard(int): void
            +setWorker(int, int): void
            +nextPlayer(Player): void
            +deletePlayer(Player): void
            +endGame(Player): void
            +disconnectedPlayer(Player): void
        }

        class TurnManager [[TurnManager.html]] {
            +workerChoice(int): void
            +prebuildPrometheus(int, int): void
            +movement(int, int): void
            +secondMove(int, int): void
            +win(int, int): boolean
            +construction(int, int): void
            +secondConstructionDemeter(int, int): void
            +secondConstructionHestia(int, int): void
            +constructionCupola(int, int): void
            +doubleConstruction(int, int): void
            +getWorkerSelected(): Worker
            +setAllowHeightAthena(boolean): void
            +cannotGoUp(): boolean
            +setAllowHeightPrometheus(boolean): void
            +cannotGoUpPrometheus(): boolean
            +setAllowWinHera(boolean): void
            +cannotWin(): boolean
        }

        ActionManager - -> ActionManager: instance
        GameManager - -> GameManager: instance
        TurnManager - -> TurnManager: instance
    }

    center footer UMLDoclet 2.0.10, PlantUML 1.2019.08
@enduml

PlantUML version 1.2019.08(Sat Jul 13 21:25:14 CEST 2019)
(APACHE source distribution)
Java Runtime: Java(TM) SE Runtime Environment
JVM: Java HotSpot(TM) 64-Bit Server VM
Java Version: 14.0.1+7
Operating System: Windows 10
OS Version: 10.0
Default Encoding: Cp1252
Language: it
Country: IT
--></g></svg>