<?xml version="1.0" encoding="UTF-8" standalone="no"?><svg xmlns="http://www.w3.org/2000/svg" xmlns:xlink="http://www.w3.org/1999/xlink" contentScriptType="application/ecmascript" contentStyleType="text/css" height="295px" preserveAspectRatio="none" style="width:239px;height:295px;" version="1.1" viewBox="0 0 239 295" width="239px" zoomAndPan="magnify"><defs><filter height="300%" id="f5qmvruterrgk" width="300%" x="-1" y="-1"><feGaussianBlur result="blurOut" stdDeviation="2.0"/><feColorMatrix in="blurOut" result="blurOut2" type="matrix" values="0 0 0 0 0 0 0 0 0 0 0 0 0 0 0 0 0 0 .4 0"/><feOffset dx="4.0" dy="4.0" in="blurOut2" result="blurOut3"/><feBlend in="SourceGraphic" in2="blurOut3" mode="normal"/></filter></defs><g><!--class it.polimi.ingsw.view.cli.Cli--><a href="Cli.html" target="_top" xlink:actuate="onRequest" xlink:show="new" xlink:title="Cli.html" xlink:type="simple"><rect fill="#FEFECE" filter="url(#f5qmvruterrgk)" height="103.5313" id="it.polimi.ingsw.view.cli.Cli" style="stroke: #A80036; stroke-width: 1.5;" width="215" x="8" y="158"/><ellipse cx="57.75" cy="178.0938" fill="#ADD1B2" rx="11" ry="11" style="stroke: #A80036; stroke-width: 1.0;"/><path d="M60.5156,173.9688 Q60.6719,173.75 60.8594,173.6406 Q61.0469,173.5313 61.2656,173.5313 Q61.6406,173.5313 61.875,173.7969 Q62.1094,174.0469 62.1094,174.6563 L62.1094,176.1094 Q62.1094,176.7188 61.875,176.9844 Q61.6406,177.25 61.2656,177.25 Q60.9219,177.25 60.7188,177.0469 Q60.5156,176.8594 60.4063,176.3438 Q60.3594,175.9844 60.1719,175.7969 Q59.8438,175.4219 59.2344,175.2031 Q58.625,174.9844 58,174.9844 Q57.2344,174.9844 56.5938,175.3125 Q55.9688,175.6406 55.4688,176.3906 Q54.9844,177.1406 54.9844,178.1719 L54.9844,179.2656 Q54.9844,180.5 55.875,181.3281 Q56.7656,182.1406 58.3594,182.1406 Q59.2969,182.1406 59.9531,181.8906 Q60.3438,181.7344 60.7656,181.2969 Q61.0313,181.0313 61.1719,180.9531 Q61.3281,180.875 61.5313,180.875 Q61.8594,180.875 62.1094,181.1406 Q62.375,181.3906 62.375,181.7344 Q62.375,182.0781 62.0313,182.4844 Q61.5313,183.0625 60.7344,183.3906 Q59.6563,183.8438 58.3594,183.8438 Q56.8438,183.8438 55.6406,183.2188 Q54.6563,182.7188 53.9688,181.6563 Q53.2813,180.5781 53.2813,179.2969 L53.2813,178.1406 Q53.2813,176.8125 53.8906,175.6719 Q54.5156,174.5156 55.6094,173.9063 Q56.7031,173.2813 57.9375,173.2813 Q58.6719,173.2813 59.3125,173.4531 Q59.9688,173.6094 60.5156,173.9688 Z "/><text fill="#000000" font-family="sans-serif" font-size="14" lengthAdjust="spacingAndGlyphs" textLength="16" x="123.75" y="177.5332">Cli</text><text fill="#000000" font-family="sans-serif" font-size="10" lengthAdjust="spacingAndGlyphs" textLength="107" x="78.25" y="190.9902">it.polimi.ingsw.view.cli</text><line style="stroke: #A80036; stroke-width: 1.5;" x1="9" x2="222" y1="198.1875" y2="198.1875"/><ellipse cx="19" cy="210.6055" fill="#84BE84" rx="3" ry="3" style="stroke: #038048; stroke-width: 1.0;"/><text fill="#000000" font-family="sans-serif" font-size="11" lengthAdjust="spacingAndGlyphs" textLength="64" x="28" y="213.6064">Cli(String, int)</text><ellipse cx="19" cy="224.4414" fill="#84BE84" rx="3" ry="3" style="stroke: #038048; stroke-width: 1.0;"/><text fill="#000000" font-family="sans-serif" font-size="11" lengthAdjust="spacingAndGlyphs" textLength="160" x="28" y="227.4424">asyncReadFromSocket(): Thread</text><ellipse cx="19" cy="238.2773" fill="#84BE84" rx="3" ry="3" style="stroke: #038048; stroke-width: 1.0;"/><text fill="#000000" font-family="sans-serif" font-size="11" lengthAdjust="spacingAndGlyphs" textLength="189" x="28" y="241.2783">asyncWriteToSocket(Scanner): Thread</text><ellipse cx="19" cy="252.1133" fill="#84BE84" rx="3" ry="3" style="stroke: #038048; stroke-width: 1.0;"/><text fill="#000000" font-family="sans-serif" font-size="11" lengthAdjust="spacingAndGlyphs" textLength="50" x="28" y="255.1143">run(): void</text></a><!--class it.polimi.ingsw.network.client.Client--><a href="../../network/client/Client.html" target="_top" xlink:actuate="onRequest" xlink:show="new" xlink:title="../../network/client/Client.html" xlink:type="simple"><rect fill="#FEFECE" filter="url(#f5qmvruterrgk)" height="89.6953" id="it.polimi.ingsw.network.client.Client" style="stroke: #A80036; stroke-width: 1.5;" width="219" x="6" y="8"/><ellipse cx="21" cy="28.0938" fill="#A9DCDF" rx="11" ry="11" style="stroke: #A80036; stroke-width: 1.0;"/><path d="M23.1875,29.8594 L19.0469,29.8594 L18.625,30.8906 L19.0469,30.8906 Q19.6563,30.8906 19.9219,31.125 Q20.1875,31.3594 20.1875,31.75 Q20.1875,32.125 19.9219,32.3594 Q19.6563,32.5938 19.0469,32.5938 L16.75,32.5938 Q16.1406,32.5938 15.8906,32.3594 Q15.625,32.125 15.625,31.7344 Q15.625,31.3594 15.9063,31.125 Q16.1719,30.875 16.7969,30.8906 L19.4688,24.2344 L18.3594,24.2344 Q17.75,24.2344 17.4844,24 Q17.2188,23.7656 17.2188,23.375 Q17.2188,23 17.4844,22.7656 Q17.75,22.5313 18.3594,22.5313 L22.0313,22.5313 L25.4219,30.8906 Q26.0156,30.8906 26.2031,31.0313 Q26.5938,31.2969 26.5938,31.75 Q26.5938,32.125 26.3281,32.3594 Q26.0781,32.5938 25.4688,32.5938 L23.1719,32.5938 Q22.5625,32.5938 22.2969,32.3594 Q22.0313,32.125 22.0313,31.7344 Q22.0313,31.3594 22.2969,31.125 Q22.5625,30.8906 23.1719,30.8906 L23.5938,30.8906 L23.1875,29.8594 Z M22.4688,28.1563 L21.1094,24.7813 L19.7344,28.1563 L22.4688,28.1563 Z "/><text fill="#000000" font-family="sans-serif" font-size="14" font-style="italic" lengthAdjust="spacingAndGlyphs" textLength="36" x="85.5" y="27.5332">Client</text><text fill="#000000" font-family="sans-serif" font-size="10" font-style="italic" lengthAdjust="spacingAndGlyphs" textLength="137" x="35" y="40.9902">it.polimi.ingsw.network.client</text><rect fill="#FFFFFF" height="17.0938" style="stroke: #000000; stroke-width: 1.0; stroke-dasharray: 2.0,2.0;" width="48" x="180" y="5"/><text fill="#000000" font-family="sans-serif" font-size="12" font-style="italic" lengthAdjust="spacingAndGlyphs" textLength="46" x="181" y="18.457">Scanner</text><line style="stroke: #A80036; stroke-width: 1.5;" x1="7" x2="224" y1="48.1875" y2="48.1875"/><ellipse cx="17" cy="60.6055" fill="#84BE84" rx="3" ry="3" style="stroke: #038048; stroke-width: 1.0;"/><text fill="#000000" font-family="sans-serif" font-size="11" font-style="italic" lengthAdjust="spacingAndGlyphs" textLength="164" x="26" y="63.6064">asyncReadFromSocket(): Thread</text><ellipse cx="17" cy="74.4414" fill="#84BE84" rx="3" ry="3" style="stroke: #038048; stroke-width: 1.0;"/><text fill="#000000" font-family="sans-serif" font-size="11" font-style="italic" lengthAdjust="spacingAndGlyphs" textLength="193" x="26" y="77.4424">asyncWriteToSocket(Scanner): Thread</text><ellipse cx="17" cy="88.2773" fill="#84BE84" rx="3" ry="3" style="stroke: #038048; stroke-width: 1.0;"/><text fill="#000000" font-family="sans-serif" font-size="11" font-style="italic" lengthAdjust="spacingAndGlyphs" textLength="50" x="26" y="91.2783">run(): void</text></a><!--link it.polimi.ingsw.network.client.Client to it.polimi.ingsw.view.cli.Cli--><path d="M115.5,118.102 C115.5,131.32 115.5,145.075 115.5,157.764 " fill="none" id="it.polimi.ingsw.network.client.Client-it.polimi.ingsw.view.cli.Cli" style="stroke: #A80036; stroke-width: 1.0;"/><polygon fill="none" points="108.5,118.002,115.5,98.002,122.5,118.002,108.5,118.002" style="stroke: #A80036; stroke-width: 1.0;"/><text fill="#888888" font-family="sans-serif" font-size="10" lengthAdjust="spacingAndGlyphs" textLength="190" x="26.5" y="282.3809">UMLDoclet 2.0.10, PlantUML 1.2019.08</text><!--
@startuml
    set namespaceSeparator none
    hide empty fields
    hide empty methods

    class "<size:14>Cli\n<size:10>it.polimi.ingsw.view.cli" as it.polimi.ingsw.view.cli.Cli [[Cli.html]] {
        +Cli(String, int)
        +asyncReadFromSocket(): Thread
        +asyncWriteToSocket(Scanner): Thread
        +run(): void
    }

    abstract class "<size:14>Client\n<size:10>it.polimi.ingsw.network.client" as it.polimi.ingsw.network.client.Client<Scanner> [[../../network/client/Client.html]] {
        {abstract} +asyncReadFromSocket(): Thread
        {abstract} +asyncWriteToSocket(Scanner): Thread
        {abstract} +run(): void
    }

    it.polimi.ingsw.network.client.Client <|- - it.polimi.ingsw.view.cli.Cli

    center footer UMLDoclet 2.0.10, PlantUML 1.2019.08
@enduml

PlantUML version 1.2019.08(Sat Jul 13 21:25:14 CEST 2019)
(APACHE source distribution)
Java Runtime: Java(TM) SE Runtime Environment
JVM: Java HotSpot(TM) 64-Bit Server VM
Java Version: 14.0.1+7
Operating System: Windows 10
OS Version: 10.0
Default Encoding: Cp1252
Language: it
Country: IT
--></g></svg>