<?xml version="1.0" encoding="UTF-8" standalone="no"?><svg xmlns="http://www.w3.org/2000/svg" xmlns:xlink="http://www.w3.org/1999/xlink" contentScriptType="application/ecmascript" contentStyleType="text/css" height="394px" preserveAspectRatio="none" style="width:292px;height:394px;" version="1.1" viewBox="0 0 292 394" width="292px" zoomAndPan="magnify"><defs><filter height="300%" id="f1bns0xgs1lwd7" width="300%" x="-1" y="-1"><feGaussianBlur result="blurOut" stdDeviation="2.0"/><feColorMatrix in="blurOut" result="blurOut2" type="matrix" values="0 0 0 0 0 0 0 0 0 0 0 0 0 0 0 0 0 0 .4 0"/><feOffset dx="4.0" dy="4.0" in="blurOut2" result="blurOut3"/><feBlend in="SourceGraphic" in2="blurOut3" mode="normal"/></filter></defs><g><!--cluster it.polimi.ingsw.view.cli--><polygon fill="#FFFFFF" filter="url(#f1bns0xgs1lwd7)" points="22,190,185,190,192,213.6094,270,213.6094,270,345,22,345,22,190" style="stroke: #000000; stroke-width: 1.5;"/><line style="stroke: #000000; stroke-width: 1.5;" x1="22" x2="192" y1="213.6094" y2="213.6094"/><text fill="#000000" font-family="sans-serif" font-size="14" font-weight="bold" lengthAdjust="spacingAndGlyphs" textLength="157" x="26" y="206.5332">it.polimi.ingsw.view.cli</text><!--cluster it.polimi.ingsw.network.client--><polygon fill="#FFFFFF" filter="url(#f1bns0xgs1lwd7)" points="35,24,245,24,252,47.6094,257,47.6094,257,166,35,166,35,24" style="stroke: #000000; stroke-width: 1.5;"/><line style="stroke: #000000; stroke-width: 1.5;" x1="35" x2="252" y1="47.6094" y2="47.6094"/><text fill="#000000" font-family="sans-serif" font-size="14" font-weight="bold" lengthAdjust="spacingAndGlyphs" textLength="204" x="39" y="40.5332">it.polimi.ingsw.network.client</text><!--class it.polimi.ingsw.view.cli.Cli--><a href="Cli.html" target="_top" xlink:actuate="onRequest" xlink:show="new" xlink:title="Cli.html" xlink:type="simple"><rect fill="#FEFECE" filter="url(#f1bns0xgs1lwd7)" height="103.3438" id="it.polimi.ingsw.view.cli.Cli" style="stroke: #A80036; stroke-width: 1.5;" width="215" x="38.5" y="226"/><ellipse cx="134.25" cy="242" fill="#ADD1B2" rx="11" ry="11" style="stroke: #A80036; stroke-width: 1.0;"/><path d="M137.0156,237.875 Q137.1719,237.6563 137.3594,237.5469 Q137.5469,237.4375 137.7656,237.4375 Q138.1406,237.4375 138.375,237.7031 Q138.6094,237.9531 138.6094,238.5625 L138.6094,240.0156 Q138.6094,240.625 138.375,240.8906 Q138.1406,241.1563 137.7656,241.1563 Q137.4219,241.1563 137.2188,240.9531 Q137.0156,240.7656 136.9063,240.25 Q136.8594,239.8906 136.6719,239.7031 Q136.3438,239.3281 135.7344,239.1094 Q135.125,238.8906 134.5,238.8906 Q133.7344,238.8906 133.0938,239.2188 Q132.4688,239.5469 131.9688,240.2969 Q131.4844,241.0469 131.4844,242.0781 L131.4844,243.1719 Q131.4844,244.4063 132.375,245.2344 Q133.2656,246.0469 134.8594,246.0469 Q135.7969,246.0469 136.4531,245.7969 Q136.8438,245.6406 137.2656,245.2031 Q137.5313,244.9375 137.6719,244.8594 Q137.8281,244.7813 138.0313,244.7813 Q138.3594,244.7813 138.6094,245.0469 Q138.875,245.2969 138.875,245.6406 Q138.875,245.9844 138.5313,246.3906 Q138.0313,246.9688 137.2344,247.2969 Q136.1563,247.75 134.8594,247.75 Q133.3438,247.75 132.1406,247.125 Q131.1563,246.625 130.4688,245.5625 Q129.7813,244.4844 129.7813,243.2031 L129.7813,242.0469 Q129.7813,240.7188 130.3906,239.5781 Q131.0156,238.4219 132.1094,237.8125 Q133.2031,237.1875 134.4375,237.1875 Q135.1719,237.1875 135.8125,237.3594 Q136.4688,237.5156 137.0156,237.875 Z "/><text fill="#000000" font-family="sans-serif" font-size="12" lengthAdjust="spacingAndGlyphs" textLength="15" x="154.75" y="246.9102">Cli</text><line style="stroke: #A80036; stroke-width: 1.5;" x1="39.5" x2="252.5" y1="258" y2="258"/><line style="stroke: #A80036; stroke-width: 1.5;" x1="39.5" x2="252.5" y1="266" y2="266"/><ellipse cx="49.5" cy="278.418" fill="#84BE84" rx="3" ry="3" style="stroke: #038048; stroke-width: 1.0;"/><text fill="#000000" font-family="sans-serif" font-size="11" lengthAdjust="spacingAndGlyphs" textLength="64" x="58.5" y="281.4189">Cli(String, int)</text><ellipse cx="49.5" cy="292.2539" fill="#84BE84" rx="3" ry="3" style="stroke: #038048; stroke-width: 1.0;"/><text fill="#000000" font-family="sans-serif" font-size="11" lengthAdjust="spacingAndGlyphs" textLength="160" x="58.5" y="295.2549">asyncReadFromSocket(): Thread</text><ellipse cx="49.5" cy="306.0898" fill="#84BE84" rx="3" ry="3" style="stroke: #038048; stroke-width: 1.0;"/><text fill="#000000" font-family="sans-serif" font-size="11" lengthAdjust="spacingAndGlyphs" textLength="189" x="58.5" y="309.0908">asyncWriteToSocket(Scanner): Thread</text><ellipse cx="49.5" cy="319.9258" fill="#84BE84" rx="3" ry="3" style="stroke: #038048; stroke-width: 1.0;"/><text fill="#000000" font-family="sans-serif" font-size="11" lengthAdjust="spacingAndGlyphs" textLength="50" x="58.5" y="322.9268">run(): void</text></a><!--class it.polimi.ingsw.network.client.Client--><a href="../../network/client/Client.html" target="_top" xlink:actuate="onRequest" xlink:show="new" xlink:title="../../network/client/Client.html" xlink:type="simple"><rect fill="#FEFECE" filter="url(#f1bns0xgs1lwd7)" height="89.5078" id="it.polimi.ingsw.network.client.Client" style="stroke: #A80036; stroke-width: 1.5;" width="190" x="51" y="60"/><ellipse cx="120.25" cy="76" fill="#A9DCDF" rx="11" ry="11" style="stroke: #A80036; stroke-width: 1.0;"/><path d="M122.4375,77.7656 L118.2969,77.7656 L117.875,78.7969 L118.2969,78.7969 Q118.9063,78.7969 119.1719,79.0313 Q119.4375,79.2656 119.4375,79.6563 Q119.4375,80.0313 119.1719,80.2656 Q118.9063,80.5 118.2969,80.5 L116,80.5 Q115.3906,80.5 115.1406,80.2656 Q114.875,80.0313 114.875,79.6406 Q114.875,79.2656 115.1563,79.0313 Q115.4219,78.7813 116.0469,78.7969 L118.7188,72.1406 L117.6094,72.1406 Q117,72.1406 116.7344,71.9063 Q116.4688,71.6719 116.4688,71.2813 Q116.4688,70.9063 116.7344,70.6719 Q117,70.4375 117.6094,70.4375 L121.2813,70.4375 L124.6719,78.7969 Q125.2656,78.7969 125.4531,78.9375 Q125.8438,79.2031 125.8438,79.6563 Q125.8438,80.0313 125.5781,80.2656 Q125.3281,80.5 124.7188,80.5 L122.4219,80.5 Q121.8125,80.5 121.5469,80.2656 Q121.2813,80.0313 121.2813,79.6406 Q121.2813,79.2656 121.5469,79.0313 Q121.8125,78.7969 122.4219,78.7969 L122.8438,78.7969 L122.4375,77.7656 Z M121.7188,76.0625 L120.3594,72.6875 L118.9844,76.0625 L121.7188,76.0625 Z "/><text fill="#000000" font-family="sans-serif" font-size="12" font-style="italic" lengthAdjust="spacingAndGlyphs" textLength="32" x="140.75" y="80.9102">Client</text><rect fill="#FFFFFF" height="17.0938" style="stroke: #000000; stroke-width: 1.0; stroke-dasharray: 2.0,2.0;" width="9" x="235" y="57"/><text fill="#000000" font-family="sans-serif" font-size="12" font-style="italic" lengthAdjust="spacingAndGlyphs" textLength="7" x="236" y="70.457">T</text><line style="stroke: #A80036; stroke-width: 1.5;" x1="52" x2="240" y1="92" y2="92"/><line style="stroke: #A80036; stroke-width: 1.5;" x1="52" x2="240" y1="100" y2="100"/><ellipse cx="62" cy="112.418" fill="#84BE84" rx="3" ry="3" style="stroke: #038048; stroke-width: 1.0;"/><text fill="#000000" font-family="sans-serif" font-size="11" font-style="italic" lengthAdjust="spacingAndGlyphs" textLength="164" x="71" y="115.4189">asyncReadFromSocket(): Thread</text><ellipse cx="62" cy="126.2539" fill="#84BE84" rx="3" ry="3" style="stroke: #038048; stroke-width: 1.0;"/><text fill="#000000" font-family="sans-serif" font-size="11" font-style="italic" lengthAdjust="spacingAndGlyphs" textLength="159" x="71" y="129.2549">asyncWriteToSocket(T): Thread</text><ellipse cx="62" cy="140.0898" fill="#84BE84" rx="3" ry="3" style="stroke: #038048; stroke-width: 1.0;"/><text fill="#000000" font-family="sans-serif" font-size="11" font-style="italic" lengthAdjust="spacingAndGlyphs" textLength="50" x="71" y="143.0908">run(): void</text></a><!--link it.polimi.ingsw.network.client.Client to it.polimi.ingsw.view.cli.Cli--><path d="M146,170.567 C146,188.82 146,208.42 146,225.736 " fill="none" id="it.polimi.ingsw.network.client.Client-it.polimi.ingsw.view.cli.Cli" style="stroke: #A80036; stroke-width: 1.0;"/><polygon fill="none" points="139,170.352,146,150.352,153,170.352,139,170.352" style="stroke: #A80036; stroke-width: 1.0;"/><text fill="#888888" font-family="sans-serif" font-size="10" lengthAdjust="spacingAndGlyphs" textLength="190" x="57" y="381.3809">UMLDoclet 2.0.10, PlantUML 1.2019.08</text><!--
@startuml
    namespace it.polimi.ingsw.view.cli {

        class Cli [[Cli.html]] {
            +Cli(String, int)
            +asyncReadFromSocket(): Thread
            +asyncWriteToSocket(Scanner): Thread
            +run(): void
        }

        it.polimi.ingsw.network.client.Client <|- - Cli
    }

    namespace it.polimi.ingsw.network.client {
        abstract class Client<T> [[../../network/client/Client.html]] {
            {abstract} +asyncReadFromSocket(): Thread
            {abstract} +asyncWriteToSocket(T): Thread
            {abstract} +run(): void
        }
    }

    center footer UMLDoclet 2.0.10, PlantUML 1.2019.08
@enduml

PlantUML version 1.2019.08(Sat Jul 13 21:25:14 CEST 2019)
(APACHE source distribution)
Java Runtime: Java(TM) SE Runtime Environment
JVM: Java HotSpot(TM) 64-Bit Server VM
Java Version: 14.0.1+7
Operating System: Windows 10
OS Version: 10.0
Default Encoding: Cp1252
Language: it
Country: IT
--></g></svg>