<?xml version="1.0" encoding="UTF-8" standalone="no"?><svg xmlns="http://www.w3.org/2000/svg" xmlns:xlink="http://www.w3.org/1999/xlink" contentScriptType="application/ecmascript" contentStyleType="text/css" height="187px" preserveAspectRatio="none" style="width:343px;height:187px;" version="1.1" viewBox="0 0 343 187" width="343px" zoomAndPan="magnify"><defs><filter height="300%" id="flcc8tj21iag9" width="300%" x="-1" y="-1"><feGaussianBlur result="blurOut" stdDeviation="2.0"/><feColorMatrix in="blurOut" result="blurOut2" type="matrix" values="0 0 0 0 0 0 0 0 0 0 0 0 0 0 0 0 0 0 .4 0"/><feOffset dx="4.0" dy="4.0" in="blurOut2" result="blurOut3"/><feBlend in="SourceGraphic" in2="blurOut3" mode="normal"/></filter></defs><g><!--cluster it.polimi.ingsw.apps--><polygon fill="#FFFFFF" filter="url(#flcc8tj21iag9)" points="22,24,166,24,173,47.6094,321,47.6094,321,138,22,138,22,24" style="stroke: #000000; stroke-width: 1.5;"/><line style="stroke: #000000; stroke-width: 1.5;" x1="22" x2="173" y1="47.6094" y2="47.6094"/><text fill="#000000" font-family="sans-serif" font-size="14" font-weight="bold" lengthAdjust="spacingAndGlyphs" textLength="138" x="26" y="40.5332">it.polimi.ingsw.apps</text><!--class it.polimi.ingsw.apps.ClientApp--><a href="ClientApp.html" target="_top" xlink:actuate="onRequest" xlink:show="new" xlink:title="ClientApp.html" xlink:type="simple"><rect fill="#FEFECE" filter="url(#flcc8tj21iag9)" height="61.8359" id="it.polimi.ingsw.apps.ClientApp" style="stroke: #A80036; stroke-width: 1.5;" width="116" x="189" y="60"/><ellipse cx="217.95" cy="76" fill="#ADD1B2" rx="11" ry="11" style="stroke: #A80036; stroke-width: 1.0;"/><path d="M220.7156,71.875 Q220.8719,71.6563 221.0594,71.5469 Q221.2469,71.4375 221.4656,71.4375 Q221.8406,71.4375 222.075,71.7031 Q222.3094,71.9531 222.3094,72.5625 L222.3094,74.0156 Q222.3094,74.625 222.075,74.8906 Q221.8406,75.1563 221.4656,75.1563 Q221.1219,75.1563 220.9188,74.9531 Q220.7156,74.7656 220.6063,74.25 Q220.5594,73.8906 220.3719,73.7031 Q220.0438,73.3281 219.4344,73.1094 Q218.825,72.8906 218.2,72.8906 Q217.4344,72.8906 216.7938,73.2188 Q216.1688,73.5469 215.6688,74.2969 Q215.1844,75.0469 215.1844,76.0781 L215.1844,77.1719 Q215.1844,78.4063 216.075,79.2344 Q216.9656,80.0469 218.5594,80.0469 Q219.4969,80.0469 220.1531,79.7969 Q220.5438,79.6406 220.9656,79.2031 Q221.2313,78.9375 221.3719,78.8594 Q221.5281,78.7813 221.7313,78.7813 Q222.0594,78.7813 222.3094,79.0469 Q222.575,79.2969 222.575,79.6406 Q222.575,79.9844 222.2313,80.3906 Q221.7313,80.9688 220.9344,81.2969 Q219.8563,81.75 218.5594,81.75 Q217.0438,81.75 215.8406,81.125 Q214.8563,80.625 214.1688,79.5625 Q213.4813,78.4844 213.4813,77.2031 L213.4813,76.0469 Q213.4813,74.7188 214.0906,73.5781 Q214.7156,72.4219 215.8094,71.8125 Q216.9031,71.1875 218.1375,71.1875 Q218.8719,71.1875 219.5125,71.3594 Q220.1688,71.5156 220.7156,71.875 Z "/><text fill="#000000" font-family="sans-serif" font-size="12" lengthAdjust="spacingAndGlyphs" textLength="53" x="235.05" y="80.9102">ClientApp</text><line style="stroke: #A80036; stroke-width: 1.5;" x1="190" x2="304" y1="92" y2="92"/><line style="stroke: #A80036; stroke-width: 1.5;" x1="190" x2="304" y1="100" y2="100"/><ellipse cx="200" cy="112.418" fill="#84BE84" rx="3" ry="3" style="stroke: #038048; stroke-width: 1.0;"/><text fill="#000000" font-family="sans-serif" font-size="11" lengthAdjust="spacingAndGlyphs" text-decoration="underline" textLength="90" x="209" y="115.4189">main(String[]): void</text></a><!--class it.polimi.ingsw.apps.ServerApp--><a href="ServerApp.html" target="_top" xlink:actuate="onRequest" xlink:show="new" xlink:title="ServerApp.html" xlink:type="simple"><rect fill="#FEFECE" filter="url(#flcc8tj21iag9)" height="61.8359" id="it.polimi.ingsw.apps.ServerApp" style="stroke: #A80036; stroke-width: 1.5;" width="116" x="38" y="60"/><ellipse cx="65.6" cy="76" fill="#ADD1B2" rx="11" ry="11" style="stroke: #A80036; stroke-width: 1.0;"/><path d="M68.3656,71.875 Q68.5219,71.6563 68.7094,71.5469 Q68.8969,71.4375 69.1156,71.4375 Q69.4906,71.4375 69.725,71.7031 Q69.9594,71.9531 69.9594,72.5625 L69.9594,74.0156 Q69.9594,74.625 69.725,74.8906 Q69.4906,75.1563 69.1156,75.1563 Q68.7719,75.1563 68.5688,74.9531 Q68.3656,74.7656 68.2563,74.25 Q68.2094,73.8906 68.0219,73.7031 Q67.6938,73.3281 67.0844,73.1094 Q66.475,72.8906 65.85,72.8906 Q65.0844,72.8906 64.4438,73.2188 Q63.8187,73.5469 63.3187,74.2969 Q62.8344,75.0469 62.8344,76.0781 L62.8344,77.1719 Q62.8344,78.4063 63.725,79.2344 Q64.6156,80.0469 66.2094,80.0469 Q67.1469,80.0469 67.8031,79.7969 Q68.1938,79.6406 68.6156,79.2031 Q68.8813,78.9375 69.0219,78.8594 Q69.1781,78.7813 69.3813,78.7813 Q69.7094,78.7813 69.9594,79.0469 Q70.225,79.2969 70.225,79.6406 Q70.225,79.9844 69.8813,80.3906 Q69.3813,80.9688 68.5844,81.2969 Q67.5063,81.75 66.2094,81.75 Q64.6938,81.75 63.4906,81.125 Q62.5062,80.625 61.8187,79.5625 Q61.1312,78.4844 61.1312,77.2031 L61.1312,76.0469 Q61.1312,74.7188 61.7406,73.5781 Q62.3656,72.4219 63.4594,71.8125 Q64.5531,71.1875 65.7875,71.1875 Q66.5219,71.1875 67.1625,71.3594 Q67.8188,71.5156 68.3656,71.875 Z "/><text fill="#000000" font-family="sans-serif" font-size="12" lengthAdjust="spacingAndGlyphs" textLength="56" x="82.4" y="80.9102">ServerApp</text><line style="stroke: #A80036; stroke-width: 1.5;" x1="39" x2="153" y1="92" y2="92"/><line style="stroke: #A80036; stroke-width: 1.5;" x1="39" x2="153" y1="100" y2="100"/><ellipse cx="49" cy="112.418" fill="#84BE84" rx="3" ry="3" style="stroke: #038048; stroke-width: 1.0;"/><text fill="#000000" font-family="sans-serif" font-size="11" lengthAdjust="spacingAndGlyphs" text-decoration="underline" textLength="90" x="58" y="115.4189">main(String[]): void</text></a><text fill="#888888" font-family="sans-serif" font-size="10" lengthAdjust="spacingAndGlyphs" textLength="190" x="82.5" y="174.3809">UMLDoclet 2.0.10, PlantUML 1.2019.08</text><!--
@startuml
    namespace it.polimi.ingsw.apps {

        class ClientApp [[ClientApp.html]] {
            {static} +main(String[]): void
        }

        class ServerApp [[ServerApp.html]] {
            {static} +main(String[]): void
        }

    }

    center footer UMLDoclet 2.0.10, PlantUML 1.2019.08
@enduml

PlantUML version 1.2019.08(Sat Jul 13 21:25:14 CEST 2019)
(APACHE source distribution)
Java Runtime: Java(TM) SE Runtime Environment
JVM: Java HotSpot(TM) 64-Bit Server VM
Java Version: 14.0.1+7
Operating System: Windows 10
OS Version: 10.0
Default Encoding: Cp1252
Language: it
Country: IT
--></g></svg>