<?xml version="1.0" encoding="UTF-8" standalone="no"?><svg xmlns="http://www.w3.org/2000/svg" xmlns:xlink="http://www.w3.org/1999/xlink" contentScriptType="application/ecmascript" contentStyleType="text/css" height="103px" preserveAspectRatio="none" style="width:202px;height:103px;" version="1.1" viewBox="0 0 202 103" width="202px" zoomAndPan="magnify"><defs><filter height="300%" id="f1vka0aup7lp17" width="300%" x="-1" y="-1"><feGaussianBlur result="blurOut" stdDeviation="2.0"/><feColorMatrix in="blurOut" result="blurOut2" type="matrix" values="0 0 0 0 0 0 0 0 0 0 0 0 0 0 0 0 0 0 .4 0"/><feOffset dx="4.0" dy="4.0" in="blurOut2" result="blurOut3"/><feBlend in="SourceGraphic" in2="blurOut3" mode="normal"/></filter></defs><g><!--class it.polimi.ingsw.apps.ServerApp--><a href="ServerApp.html" target="_top" xlink:actuate="onRequest" xlink:show="new" xlink:title="ServerApp.html" xlink:type="simple"><rect fill="#FEFECE" filter="url(#f1vka0aup7lp17)" height="62.0234" id="it.polimi.ingsw.apps.ServerApp" style="stroke: #A80036; stroke-width: 1.5;" width="125" x="26.5" y="8"/><ellipse cx="41.5" cy="28.0938" fill="#ADD1B2" rx="11" ry="11" style="stroke: #A80036; stroke-width: 1.0;"/><path d="M44.2656,23.9688 Q44.4219,23.75 44.6094,23.6406 Q44.7969,23.5313 45.0156,23.5313 Q45.3906,23.5313 45.625,23.7969 Q45.8594,24.0469 45.8594,24.6563 L45.8594,26.1094 Q45.8594,26.7188 45.625,26.9844 Q45.3906,27.25 45.0156,27.25 Q44.6719,27.25 44.4688,27.0469 Q44.2656,26.8594 44.1563,26.3438 Q44.1094,25.9844 43.9219,25.7969 Q43.5938,25.4219 42.9844,25.2031 Q42.375,24.9844 41.75,24.9844 Q40.9844,24.9844 40.3438,25.3125 Q39.7188,25.6406 39.2188,26.3906 Q38.7344,27.1406 38.7344,28.1719 L38.7344,29.2656 Q38.7344,30.5 39.625,31.3281 Q40.5156,32.1406 42.1094,32.1406 Q43.0469,32.1406 43.7031,31.8906 Q44.0938,31.7344 44.5156,31.2969 Q44.7813,31.0313 44.9219,30.9531 Q45.0781,30.875 45.2813,30.875 Q45.6094,30.875 45.8594,31.1406 Q46.125,31.3906 46.125,31.7344 Q46.125,32.0781 45.7813,32.4844 Q45.2813,33.0625 44.4844,33.3906 Q43.4063,33.8438 42.1094,33.8438 Q40.5938,33.8438 39.3906,33.2188 Q38.4063,32.7188 37.7188,31.6563 Q37.0313,30.5781 37.0313,29.2969 L37.0313,28.1406 Q37.0313,26.8125 37.6406,25.6719 Q38.2656,24.5156 39.3594,23.9063 Q40.4531,23.2813 41.6875,23.2813 Q42.4219,23.2813 43.0625,23.4531 Q43.7188,23.6094 44.2656,23.9688 Z "/><text fill="#000000" font-family="sans-serif" font-size="14" lengthAdjust="spacingAndGlyphs" textLength="67" x="68.5" y="27.5332">ServerApp</text><text fill="#000000" font-family="sans-serif" font-size="10" lengthAdjust="spacingAndGlyphs" textLength="93" x="55.5" y="40.9902">it.polimi.ingsw.apps</text><line style="stroke: #A80036; stroke-width: 1.5;" x1="27.5" x2="150.5" y1="48.1875" y2="48.1875"/><ellipse cx="37.5" cy="60.6055" fill="#84BE84" rx="3" ry="3" style="stroke: #038048; stroke-width: 1.0;"/><text fill="#000000" font-family="sans-serif" font-size="11" lengthAdjust="spacingAndGlyphs" text-decoration="underline" textLength="90" x="46.5" y="63.6064">main(String[]): void</text></a><text fill="#888888" font-family="sans-serif" font-size="10" lengthAdjust="spacingAndGlyphs" textLength="190" x="0" y="90.3809">UMLDoclet 2.0.10, PlantUML 1.2019.08</text><!--
@startuml
    set namespaceSeparator none
    hide empty fields
    hide empty methods

    class "<size:14>ServerApp\n<size:10>it.polimi.ingsw.apps" as it.polimi.ingsw.apps.ServerApp [[ServerApp.html]] {
        {static} +main(String[]): void
    }

    center footer UMLDoclet 2.0.10, PlantUML 1.2019.08
@enduml

PlantUML version 1.2019.08(Sat Jul 13 21:25:14 CEST 2019)
(APACHE source distribution)
Java Runtime: Java(TM) SE Runtime Environment
JVM: Java HotSpot(TM) 64-Bit Server VM
Java Version: 14.0.1+7
Operating System: Windows 10
OS Version: 10.0
Default Encoding: Cp1252
Language: it
Country: IT
--></g></svg>