<?xml version="1.0" encoding="UTF-8" standalone="no"?><svg xmlns="http://www.w3.org/2000/svg" xmlns:xlink="http://www.w3.org/1999/xlink" contentScriptType="application/ecmascript" contentStyleType="text/css" height="668px" preserveAspectRatio="none" style="width:2856px;height:668px;" version="1.1" viewBox="0 0 2856 668" width="2856px" zoomAndPan="magnify"><defs><filter height="300%" id="f11mxmkl26zby" width="300%" x="-1" y="-1"><feGaussianBlur result="blurOut" stdDeviation="2.0"/><feColorMatrix in="blurOut" result="blurOut2" type="matrix" values="0 0 0 0 0 0 0 0 0 0 0 0 0 0 0 0 0 0 .4 0"/><feOffset dx="4.0" dy="4.0" in="blurOut2" result="blurOut3"/><feBlend in="SourceGraphic" in2="blurOut3" mode="normal"/></filter></defs><g><!--cluster it.polimi.ingsw.model.workers--><polygon fill="#FFFFFF" filter="url(#f11mxmkl26zby)" points="22,148,236,148,243,171.6094,2834,171.6094,2834,619,22,619,22,148" style="stroke: #000000; stroke-width: 1.5;"/><line style="stroke: #000000; stroke-width: 1.5;" x1="22" x2="243" y1="171.6094" y2="171.6094"/><text fill="#000000" font-family="sans-serif" font-size="14" font-weight="bold" lengthAdjust="spacingAndGlyphs" textLength="208" x="26" y="164.5332">it.polimi.ingsw.model.workers</text><!--cluster java.io--><polygon fill="#FFFFFF" filter="url(#f11mxmkl26zby)" points="1375,24,1427,24,1434,47.6094,1507,47.6094,1507,124,1375,124,1375,24" style="stroke: #000000; stroke-width: 1.5;"/><line style="stroke: #000000; stroke-width: 1.5;" x1="1375" x2="1434" y1="47.6094" y2="47.6094"/><text fill="#000000" font-family="sans-serif" font-size="14" font-weight="bold" lengthAdjust="spacingAndGlyphs" textLength="46" x="1379" y="40.5332">java.io</text><!--class it.polimi.ingsw.model.workers.Worker--><a href="Worker.html" target="_top" xlink:actuate="onRequest" xlink:show="new" xlink:title="Worker.html" xlink:type="simple"><rect fill="#FEFECE" filter="url(#f11mxmkl26zby)" height="255.5391" id="it.polimi.ingsw.model.workers.Worker" style="stroke: #A80036; stroke-width: 1.5;" width="165" x="1358.5" y="184"/><ellipse cx="1416.75" cy="200" fill="#A9DCDF" rx="11" ry="11" style="stroke: #A80036; stroke-width: 1.0;"/><path d="M1418.9375,201.7656 L1414.7969,201.7656 L1414.375,202.7969 L1414.7969,202.7969 Q1415.4063,202.7969 1415.6719,203.0313 Q1415.9375,203.2656 1415.9375,203.6563 Q1415.9375,204.0313 1415.6719,204.2656 Q1415.4063,204.5 1414.7969,204.5 L1412.5,204.5 Q1411.8906,204.5 1411.6406,204.2656 Q1411.375,204.0313 1411.375,203.6406 Q1411.375,203.2656 1411.6563,203.0313 Q1411.9219,202.7813 1412.5469,202.7969 L1415.2188,196.1406 L1414.1094,196.1406 Q1413.5,196.1406 1413.2344,195.9063 Q1412.9688,195.6719 1412.9688,195.2813 Q1412.9688,194.9063 1413.2344,194.6719 Q1413.5,194.4375 1414.1094,194.4375 L1417.7813,194.4375 L1421.1719,202.7969 Q1421.7656,202.7969 1421.9531,202.9375 Q1422.3438,203.2031 1422.3438,203.6563 Q1422.3438,204.0313 1422.0781,204.2656 Q1421.8281,204.5 1421.2188,204.5 L1418.9219,204.5 Q1418.3125,204.5 1418.0469,204.2656 Q1417.7813,204.0313 1417.7813,203.6406 Q1417.7813,203.2656 1418.0469,203.0313 Q1418.3125,202.7969 1418.9219,202.7969 L1419.3438,202.7969 L1418.9375,201.7656 Z M1418.2188,200.0625 L1416.8594,196.6875 L1415.4844,200.0625 L1418.2188,200.0625 Z "/><text fill="#000000" font-family="sans-serif" font-size="12" font-style="italic" lengthAdjust="spacingAndGlyphs" textLength="40" x="1437.25" y="204.9102">Worker</text><line style="stroke: #A80036; stroke-width: 1.5;" x1="1359.5" x2="1522.5" y1="216" y2="216"/><line style="stroke: #A80036; stroke-width: 1.5;" x1="1359.5" x2="1522.5" y1="224" y2="224"/><ellipse cx="1369.5" cy="236.418" fill="#84BE84" rx="3" ry="3" style="stroke: #038048; stroke-width: 1.0;"/><text fill="#000000" font-family="sans-serif" font-size="11" lengthAdjust="spacingAndGlyphs" textLength="105" x="1378.5" y="239.4189">Worker(String, int, int)</text><ellipse cx="1369.5" cy="250.2539" fill="#84BE84" rx="3" ry="3" style="stroke: #038048; stroke-width: 1.0;"/><text fill="#000000" font-family="sans-serif" font-size="11" lengthAdjust="spacingAndGlyphs" textLength="96" x="1378.5" y="253.2549">canMove(): boolean</text><ellipse cx="1369.5" cy="264.0898" fill="#84BE84" rx="3" ry="3" style="stroke: #038048; stroke-width: 1.0;"/><text fill="#000000" font-family="sans-serif" font-size="11" lengthAdjust="spacingAndGlyphs" textLength="93" x="1378.5" y="267.0908">canBuild(): boolean</text><ellipse cx="1369.5" cy="277.9258" fill="#84BE84" rx="3" ry="3" style="stroke: #038048; stroke-width: 1.0;"/><text fill="#000000" font-family="sans-serif" font-size="11" lengthAdjust="spacingAndGlyphs" textLength="135" x="1378.5" y="280.9268">changePosition(int, int): void</text><ellipse cx="1369.5" cy="291.7617" fill="#84BE84" rx="3" ry="3" style="stroke: #038048; stroke-width: 1.0;"/><text fill="#000000" font-family="sans-serif" font-size="11" lengthAdjust="spacingAndGlyphs" textLength="139" x="1378.5" y="294.7627">canDoAgain(int, int): boolean</text><ellipse cx="1369.5" cy="305.5977" fill="#84BE84" rx="3" ry="3" style="stroke: #038048; stroke-width: 1.0;"/><text fill="#000000" font-family="sans-serif" font-size="11" lengthAdjust="spacingAndGlyphs" textLength="122" x="1378.5" y="308.5986">canPush(int, int): boolean</text><ellipse cx="1369.5" cy="319.4336" fill="#84BE84" rx="3" ry="3" style="stroke: #038048; stroke-width: 1.0;"/><text fill="#000000" font-family="sans-serif" font-size="11" lengthAdjust="spacingAndGlyphs" textLength="110" x="1378.5" y="322.4346">buildBlock(int, int): void</text><ellipse cx="1369.5" cy="333.2695" fill="#84BE84" rx="3" ry="3" style="stroke: #038048; stroke-width: 1.0;"/><text fill="#000000" font-family="sans-serif" font-size="11" lengthAdjust="spacingAndGlyphs" textLength="119" x="1378.5" y="336.2705">specialBuild(int, int): void</text><ellipse cx="1369.5" cy="347.1055" fill="#84BE84" rx="3" ry="3" style="stroke: #038048; stroke-width: 1.0;"/><text fill="#000000" font-family="sans-serif" font-size="11" lengthAdjust="spacingAndGlyphs" textLength="100" x="1378.5" y="350.1064">getIdWorker(): String</text><ellipse cx="1369.5" cy="360.9414" fill="#84BE84" rx="3" ry="3" style="stroke: #038048; stroke-width: 1.0;"/><text fill="#000000" font-family="sans-serif" font-size="11" lengthAdjust="spacingAndGlyphs" textLength="76" x="1378.5" y="363.9424">getCoordX(): int</text><ellipse cx="1369.5" cy="374.7773" fill="#84BE84" rx="3" ry="3" style="stroke: #038048; stroke-width: 1.0;"/><text fill="#000000" font-family="sans-serif" font-size="11" lengthAdjust="spacingAndGlyphs" textLength="96" x="1378.5" y="377.7783">setCoordX(int): void</text><ellipse cx="1369.5" cy="388.6133" fill="#84BE84" rx="3" ry="3" style="stroke: #038048; stroke-width: 1.0;"/><text fill="#000000" font-family="sans-serif" font-size="11" lengthAdjust="spacingAndGlyphs" textLength="77" x="1378.5" y="391.6143">getCoordY(): int</text><ellipse cx="1369.5" cy="402.4492" fill="#84BE84" rx="3" ry="3" style="stroke: #038048; stroke-width: 1.0;"/><text fill="#000000" font-family="sans-serif" font-size="11" lengthAdjust="spacingAndGlyphs" textLength="97" x="1378.5" y="405.4502">setCoordY(int): void</text><ellipse cx="1369.5" cy="416.2852" fill="#84BE84" rx="3" ry="3" style="stroke: #038048; stroke-width: 1.0;"/><text fill="#000000" font-family="sans-serif" font-size="11" lengthAdjust="spacingAndGlyphs" textLength="76" x="1378.5" y="419.2861">getCoordZ(): int</text><ellipse cx="1369.5" cy="430.1211" fill="#84BE84" rx="3" ry="3" style="stroke: #038048; stroke-width: 1.0;"/><text fill="#000000" font-family="sans-serif" font-size="11" lengthAdjust="spacingAndGlyphs" textLength="96" x="1378.5" y="433.1221">setCoordZ(int): void</text></a><!--class it.polimi.ingsw.model.workers.WorkerApollo--><a href="WorkerApollo.html" target="_top" xlink:actuate="onRequest" xlink:show="new" xlink:title="WorkerApollo.html" xlink:type="simple"><rect fill="#FEFECE" filter="url(#f11mxmkl26zby)" height="89.5078" id="it.polimi.ingsw.model.workers.WorkerApollo" style="stroke: #A80036; stroke-width: 1.5;" width="161" x="38.5" y="506.5"/><ellipse cx="78.7" cy="522.5" fill="#ADD1B2" rx="11" ry="11" style="stroke: #A80036; stroke-width: 1.0;"/><path d="M81.4656,518.375 Q81.6219,518.1563 81.8094,518.0469 Q81.9969,517.9375 82.2156,517.9375 Q82.5906,517.9375 82.825,518.2031 Q83.0594,518.4531 83.0594,519.0625 L83.0594,520.5156 Q83.0594,521.125 82.825,521.3906 Q82.5906,521.6563 82.2156,521.6563 Q81.8719,521.6563 81.6688,521.4531 Q81.4656,521.2656 81.3563,520.75 Q81.3094,520.3906 81.1219,520.2031 Q80.7938,519.8281 80.1844,519.6094 Q79.575,519.3906 78.95,519.3906 Q78.1844,519.3906 77.5438,519.7188 Q76.9188,520.0469 76.4188,520.7969 Q75.9344,521.5469 75.9344,522.5781 L75.9344,523.6719 Q75.9344,524.9063 76.825,525.7344 Q77.7156,526.5469 79.3094,526.5469 Q80.2469,526.5469 80.9031,526.2969 Q81.2938,526.1406 81.7156,525.7031 Q81.9813,525.4375 82.1219,525.3594 Q82.2781,525.2813 82.4813,525.2813 Q82.8094,525.2813 83.0594,525.5469 Q83.325,525.7969 83.325,526.1406 Q83.325,526.4844 82.9813,526.8906 Q82.4813,527.4688 81.6844,527.7969 Q80.6063,528.25 79.3094,528.25 Q77.7938,528.25 76.5906,527.625 Q75.6063,527.125 74.9188,526.0625 Q74.2313,524.9844 74.2313,523.7031 L74.2313,522.5469 Q74.2313,521.2188 74.8406,520.0781 Q75.4656,518.9219 76.5594,518.3125 Q77.6531,517.6875 78.8875,517.6875 Q79.6219,517.6875 80.2625,517.8594 Q80.9188,518.0156 81.4656,518.375 Z "/><text fill="#000000" font-family="sans-serif" font-size="12" lengthAdjust="spacingAndGlyphs" textLength="73" x="98.3" y="527.4102">WorkerApollo</text><line style="stroke: #A80036; stroke-width: 1.5;" x1="39.5" x2="198.5" y1="538.5" y2="538.5"/><line style="stroke: #A80036; stroke-width: 1.5;" x1="39.5" x2="198.5" y1="546.5" y2="546.5"/><ellipse cx="49.5" cy="558.918" fill="#84BE84" rx="3" ry="3" style="stroke: #038048; stroke-width: 1.0;"/><text fill="#000000" font-family="sans-serif" font-size="11" lengthAdjust="spacingAndGlyphs" textLength="135" x="58.5" y="561.9189">WorkerApollo(String, int, int)</text><ellipse cx="49.5" cy="572.7539" fill="#84BE84" rx="3" ry="3" style="stroke: #038048; stroke-width: 1.0;"/><text fill="#000000" font-family="sans-serif" font-size="11" lengthAdjust="spacingAndGlyphs" textLength="96" x="58.5" y="575.7549">canMove(): boolean</text><ellipse cx="49.5" cy="586.5898" fill="#84BE84" rx="3" ry="3" style="stroke: #038048; stroke-width: 1.0;"/><text fill="#000000" font-family="sans-serif" font-size="11" lengthAdjust="spacingAndGlyphs" textLength="135" x="58.5" y="589.5908">changePosition(int, int): void</text></a><!--class it.polimi.ingsw.model.workers.WorkerArtemis--><a href="WorkerArtemis.html" target="_top" xlink:actuate="onRequest" xlink:show="new" xlink:title="WorkerArtemis.html" xlink:type="simple"><rect fill="#FEFECE" filter="url(#f11mxmkl26zby)" height="75.6719" id="it.polimi.ingsw.model.workers.WorkerArtemis" style="stroke: #A80036; stroke-width: 1.5;" width="168" x="235" y="513.5"/><ellipse cx="274.75" cy="529.5" fill="#ADD1B2" rx="11" ry="11" style="stroke: #A80036; stroke-width: 1.0;"/><path d="M277.5156,525.375 Q277.6719,525.1563 277.8594,525.0469 Q278.0469,524.9375 278.2656,524.9375 Q278.6406,524.9375 278.875,525.2031 Q279.1094,525.4531 279.1094,526.0625 L279.1094,527.5156 Q279.1094,528.125 278.875,528.3906 Q278.6406,528.6563 278.2656,528.6563 Q277.9219,528.6563 277.7188,528.4531 Q277.5156,528.2656 277.4063,527.75 Q277.3594,527.3906 277.1719,527.2031 Q276.8438,526.8281 276.2344,526.6094 Q275.625,526.3906 275,526.3906 Q274.2344,526.3906 273.5938,526.7188 Q272.9688,527.0469 272.4688,527.7969 Q271.9844,528.5469 271.9844,529.5781 L271.9844,530.6719 Q271.9844,531.9063 272.875,532.7344 Q273.7656,533.5469 275.3594,533.5469 Q276.2969,533.5469 276.9531,533.2969 Q277.3438,533.1406 277.7656,532.7031 Q278.0313,532.4375 278.1719,532.3594 Q278.3281,532.2813 278.5313,532.2813 Q278.8594,532.2813 279.1094,532.5469 Q279.375,532.7969 279.375,533.1406 Q279.375,533.4844 279.0313,533.8906 Q278.5313,534.4688 277.7344,534.7969 Q276.6563,535.25 275.3594,535.25 Q273.8438,535.25 272.6406,534.625 Q271.6563,534.125 270.9688,533.0625 Q270.2813,531.9844 270.2813,530.7031 L270.2813,529.5469 Q270.2813,528.2188 270.8906,527.0781 Q271.5156,525.9219 272.6094,525.3125 Q273.7031,524.6875 274.9375,524.6875 Q275.6719,524.6875 276.3125,524.8594 Q276.9688,525.0156 277.5156,525.375 Z "/><text fill="#000000" font-family="sans-serif" font-size="12" lengthAdjust="spacingAndGlyphs" textLength="81" x="294.25" y="534.4102">WorkerArtemis</text><line style="stroke: #A80036; stroke-width: 1.5;" x1="236" x2="402" y1="545.5" y2="545.5"/><line style="stroke: #A80036; stroke-width: 1.5;" x1="236" x2="402" y1="553.5" y2="553.5"/><ellipse cx="246" cy="565.918" fill="#84BE84" rx="3" ry="3" style="stroke: #038048; stroke-width: 1.0;"/><text fill="#000000" font-family="sans-serif" font-size="11" lengthAdjust="spacingAndGlyphs" textLength="142" x="255" y="568.9189">WorkerArtemis(String, int, int)</text><ellipse cx="246" cy="579.7539" fill="#84BE84" rx="3" ry="3" style="stroke: #038048; stroke-width: 1.0;"/><text fill="#000000" font-family="sans-serif" font-size="11" lengthAdjust="spacingAndGlyphs" textLength="139" x="255" y="582.7549">canDoAgain(int, int): boolean</text></a><!--class it.polimi.ingsw.model.workers.WorkerAthena--><a href="WorkerAthena.html" target="_top" xlink:actuate="onRequest" xlink:show="new" xlink:title="WorkerAthena.html" xlink:type="simple"><rect fill="#FEFECE" filter="url(#f11mxmkl26zby)" height="89.5078" id="it.polimi.ingsw.model.workers.WorkerAthena" style="stroke: #A80036; stroke-width: 1.5;" width="166" x="438" y="506.5"/><ellipse cx="478.65" cy="522.5" fill="#ADD1B2" rx="11" ry="11" style="stroke: #A80036; stroke-width: 1.0;"/><path d="M481.4156,518.375 Q481.5719,518.1563 481.7594,518.0469 Q481.9469,517.9375 482.1656,517.9375 Q482.5406,517.9375 482.775,518.2031 Q483.0094,518.4531 483.0094,519.0625 L483.0094,520.5156 Q483.0094,521.125 482.775,521.3906 Q482.5406,521.6563 482.1656,521.6563 Q481.8219,521.6563 481.6188,521.4531 Q481.4156,521.2656 481.3063,520.75 Q481.2594,520.3906 481.0719,520.2031 Q480.7438,519.8281 480.1344,519.6094 Q479.525,519.3906 478.9,519.3906 Q478.1344,519.3906 477.4938,519.7188 Q476.8688,520.0469 476.3688,520.7969 Q475.8844,521.5469 475.8844,522.5781 L475.8844,523.6719 Q475.8844,524.9063 476.775,525.7344 Q477.6656,526.5469 479.2594,526.5469 Q480.1969,526.5469 480.8531,526.2969 Q481.2438,526.1406 481.6656,525.7031 Q481.9313,525.4375 482.0719,525.3594 Q482.2281,525.2813 482.4313,525.2813 Q482.7594,525.2813 483.0094,525.5469 Q483.275,525.7969 483.275,526.1406 Q483.275,526.4844 482.9313,526.8906 Q482.4313,527.4688 481.6344,527.7969 Q480.5563,528.25 479.2594,528.25 Q477.7438,528.25 476.5406,527.625 Q475.5563,527.125 474.8688,526.0625 Q474.1813,524.9844 474.1813,523.7031 L474.1813,522.5469 Q474.1813,521.2188 474.7906,520.0781 Q475.4156,518.9219 476.5094,518.3125 Q477.6031,517.6875 478.8375,517.6875 Q479.5719,517.6875 480.2125,517.8594 Q480.8688,518.0156 481.4156,518.375 Z "/><text fill="#000000" font-family="sans-serif" font-size="12" lengthAdjust="spacingAndGlyphs" textLength="77" x="498.35" y="527.4102">WorkerAthena</text><line style="stroke: #A80036; stroke-width: 1.5;" x1="439" x2="603" y1="538.5" y2="538.5"/><line style="stroke: #A80036; stroke-width: 1.5;" x1="439" x2="603" y1="546.5" y2="546.5"/><ellipse cx="449" cy="558.918" fill="#84BE84" rx="3" ry="3" style="stroke: #038048; stroke-width: 1.0;"/><text fill="#000000" font-family="sans-serif" font-size="11" lengthAdjust="spacingAndGlyphs" textLength="140" x="458" y="561.9189">WorkerAthena(String, int, int)</text><ellipse cx="449" cy="572.7539" fill="#84BE84" rx="3" ry="3" style="stroke: #038048; stroke-width: 1.0;"/><text fill="#000000" font-family="sans-serif" font-size="11" lengthAdjust="spacingAndGlyphs" textLength="96" x="458" y="575.7549">canMove(): boolean</text><ellipse cx="449" cy="586.5898" fill="#84BE84" rx="3" ry="3" style="stroke: #038048; stroke-width: 1.0;"/><text fill="#000000" font-family="sans-serif" font-size="11" lengthAdjust="spacingAndGlyphs" textLength="135" x="458" y="589.5908">changePosition(int, int): void</text></a><!--class it.polimi.ingsw.model.workers.WorkerAtlas--><a href="WorkerAtlas.html" target="_top" xlink:actuate="onRequest" xlink:show="new" xlink:title="WorkerAtlas.html" xlink:type="simple"><rect fill="#FEFECE" filter="url(#f11mxmkl26zby)" height="75.6719" id="it.polimi.ingsw.model.workers.WorkerAtlas" style="stroke: #A80036; stroke-width: 1.5;" width="156" x="639" y="513.5"/><ellipse cx="680.1" cy="529.5" fill="#ADD1B2" rx="11" ry="11" style="stroke: #A80036; stroke-width: 1.0;"/><path d="M682.8656,525.375 Q683.0219,525.1563 683.2094,525.0469 Q683.3969,524.9375 683.6156,524.9375 Q683.9906,524.9375 684.225,525.2031 Q684.4594,525.4531 684.4594,526.0625 L684.4594,527.5156 Q684.4594,528.125 684.225,528.3906 Q683.9906,528.6563 683.6156,528.6563 Q683.2719,528.6563 683.0688,528.4531 Q682.8656,528.2656 682.7563,527.75 Q682.7094,527.3906 682.5219,527.2031 Q682.1938,526.8281 681.5844,526.6094 Q680.975,526.3906 680.35,526.3906 Q679.5844,526.3906 678.9438,526.7188 Q678.3188,527.0469 677.8188,527.7969 Q677.3344,528.5469 677.3344,529.5781 L677.3344,530.6719 Q677.3344,531.9063 678.225,532.7344 Q679.1156,533.5469 680.7094,533.5469 Q681.6469,533.5469 682.3031,533.2969 Q682.6938,533.1406 683.1156,532.7031 Q683.3813,532.4375 683.5219,532.3594 Q683.6781,532.2813 683.8813,532.2813 Q684.2094,532.2813 684.4594,532.5469 Q684.725,532.7969 684.725,533.1406 Q684.725,533.4844 684.3813,533.8906 Q683.8813,534.4688 683.0844,534.7969 Q682.0063,535.25 680.7094,535.25 Q679.1938,535.25 677.9906,534.625 Q677.0063,534.125 676.3188,533.0625 Q675.6313,531.9844 675.6313,530.7031 L675.6313,529.5469 Q675.6313,528.2188 676.2406,527.0781 Q676.8656,525.9219 677.9594,525.3125 Q679.0531,524.6875 680.2875,524.6875 Q681.0219,524.6875 681.6625,524.8594 Q682.3188,525.0156 682.8656,525.375 Z "/><text fill="#000000" font-family="sans-serif" font-size="12" lengthAdjust="spacingAndGlyphs" textLength="66" x="699.9" y="534.4102">WorkerAtlas</text><line style="stroke: #A80036; stroke-width: 1.5;" x1="640" x2="794" y1="545.5" y2="545.5"/><line style="stroke: #A80036; stroke-width: 1.5;" x1="640" x2="794" y1="553.5" y2="553.5"/><ellipse cx="650" cy="565.918" fill="#84BE84" rx="3" ry="3" style="stroke: #038048; stroke-width: 1.0;"/><text fill="#000000" font-family="sans-serif" font-size="11" lengthAdjust="spacingAndGlyphs" textLength="130" x="659" y="568.9189">WorkerAtlas(String, int, int)</text><ellipse cx="650" cy="579.7539" fill="#84BE84" rx="3" ry="3" style="stroke: #038048; stroke-width: 1.0;"/><text fill="#000000" font-family="sans-serif" font-size="11" lengthAdjust="spacingAndGlyphs" textLength="119" x="659" y="582.7549">specialBuild(int, int): void</text></a><!--class it.polimi.ingsw.model.workers.WorkerChronus--><a href="WorkerChronus.html" target="_top" xlink:actuate="onRequest" xlink:show="new" xlink:title="WorkerChronus.html" xlink:type="simple"><rect fill="#FEFECE" filter="url(#f11mxmkl26zby)" height="61.8359" id="it.polimi.ingsw.model.workers.WorkerChronus" style="stroke: #A80036; stroke-width: 1.5;" width="172" x="830" y="520.5"/><ellipse cx="868.85" cy="536.5" fill="#ADD1B2" rx="11" ry="11" style="stroke: #A80036; stroke-width: 1.0;"/><path d="M871.6156,532.375 Q871.7719,532.1563 871.9594,532.0469 Q872.1469,531.9375 872.3656,531.9375 Q872.7406,531.9375 872.975,532.2031 Q873.2094,532.4531 873.2094,533.0625 L873.2094,534.5156 Q873.2094,535.125 872.975,535.3906 Q872.7406,535.6563 872.3656,535.6563 Q872.0219,535.6563 871.8188,535.4531 Q871.6156,535.2656 871.5063,534.75 Q871.4594,534.3906 871.2719,534.2031 Q870.9438,533.8281 870.3344,533.6094 Q869.725,533.3906 869.1,533.3906 Q868.3344,533.3906 867.6938,533.7188 Q867.0688,534.0469 866.5688,534.7969 Q866.0844,535.5469 866.0844,536.5781 L866.0844,537.6719 Q866.0844,538.9063 866.975,539.7344 Q867.8656,540.5469 869.4594,540.5469 Q870.3969,540.5469 871.0531,540.2969 Q871.4438,540.1406 871.8656,539.7031 Q872.1313,539.4375 872.2719,539.3594 Q872.4281,539.2813 872.6313,539.2813 Q872.9594,539.2813 873.2094,539.5469 Q873.475,539.7969 873.475,540.1406 Q873.475,540.4844 873.1313,540.8906 Q872.6313,541.4688 871.8344,541.7969 Q870.7563,542.25 869.4594,542.25 Q867.9438,542.25 866.7406,541.625 Q865.7563,541.125 865.0688,540.0625 Q864.3813,538.9844 864.3813,537.7031 L864.3813,536.5469 Q864.3813,535.2188 864.9906,534.0781 Q865.6156,532.9219 866.7094,532.3125 Q867.8031,531.6875 869.0375,531.6875 Q869.7719,531.6875 870.4125,531.8594 Q871.0688,532.0156 871.6156,532.375 Z "/><text fill="#000000" font-family="sans-serif" font-size="12" lengthAdjust="spacingAndGlyphs" textLength="87" x="888.15" y="541.4102">WorkerChronus</text><line style="stroke: #A80036; stroke-width: 1.5;" x1="831" x2="1001" y1="552.5" y2="552.5"/><line style="stroke: #A80036; stroke-width: 1.5;" x1="831" x2="1001" y1="560.5" y2="560.5"/><ellipse cx="841" cy="572.918" fill="#84BE84" rx="3" ry="3" style="stroke: #038048; stroke-width: 1.0;"/><text fill="#000000" font-family="sans-serif" font-size="11" lengthAdjust="spacingAndGlyphs" textLength="146" x="850" y="575.9189">WorkerChronus(String, int, int)</text></a><!--class it.polimi.ingsw.model.workers.WorkerDemeter--><a href="WorkerDemeter.html" target="_top" xlink:actuate="onRequest" xlink:show="new" xlink:title="WorkerDemeter.html" xlink:type="simple"><rect fill="#FEFECE" filter="url(#f11mxmkl26zby)" height="75.6719" id="it.polimi.ingsw.model.workers.WorkerDemeter" style="stroke: #A80036; stroke-width: 1.5;" width="171" x="1037.5" y="513.5"/><ellipse cx="1075.9" cy="529.5" fill="#ADD1B2" rx="11" ry="11" style="stroke: #A80036; stroke-width: 1.0;"/><path d="M1078.6656,525.375 Q1078.8219,525.1563 1079.0094,525.0469 Q1079.1969,524.9375 1079.4156,524.9375 Q1079.7906,524.9375 1080.025,525.2031 Q1080.2594,525.4531 1080.2594,526.0625 L1080.2594,527.5156 Q1080.2594,528.125 1080.025,528.3906 Q1079.7906,528.6563 1079.4156,528.6563 Q1079.0719,528.6563 1078.8688,528.4531 Q1078.6656,528.2656 1078.5563,527.75 Q1078.5094,527.3906 1078.3219,527.2031 Q1077.9938,526.8281 1077.3844,526.6094 Q1076.775,526.3906 1076.15,526.3906 Q1075.3844,526.3906 1074.7438,526.7188 Q1074.1188,527.0469 1073.6188,527.7969 Q1073.1344,528.5469 1073.1344,529.5781 L1073.1344,530.6719 Q1073.1344,531.9063 1074.025,532.7344 Q1074.9156,533.5469 1076.5094,533.5469 Q1077.4469,533.5469 1078.1031,533.2969 Q1078.4938,533.1406 1078.9156,532.7031 Q1079.1813,532.4375 1079.3219,532.3594 Q1079.4781,532.2813 1079.6813,532.2813 Q1080.0094,532.2813 1080.2594,532.5469 Q1080.525,532.7969 1080.525,533.1406 Q1080.525,533.4844 1080.1813,533.8906 Q1079.6813,534.4688 1078.8844,534.7969 Q1077.8063,535.25 1076.5094,535.25 Q1074.9938,535.25 1073.7906,534.625 Q1072.8063,534.125 1072.1188,533.0625 Q1071.4313,531.9844 1071.4313,530.7031 L1071.4313,529.5469 Q1071.4313,528.2188 1072.0406,527.0781 Q1072.6656,525.9219 1073.7594,525.3125 Q1074.8531,524.6875 1076.0875,524.6875 Q1076.8219,524.6875 1077.4625,524.8594 Q1078.1188,525.0156 1078.6656,525.375 Z "/><text fill="#000000" font-family="sans-serif" font-size="12" lengthAdjust="spacingAndGlyphs" textLength="87" x="1095.1" y="534.4102">WorkerDemeter</text><line style="stroke: #A80036; stroke-width: 1.5;" x1="1038.5" x2="1207.5" y1="545.5" y2="545.5"/><line style="stroke: #A80036; stroke-width: 1.5;" x1="1038.5" x2="1207.5" y1="553.5" y2="553.5"/><ellipse cx="1048.5" cy="565.918" fill="#84BE84" rx="3" ry="3" style="stroke: #038048; stroke-width: 1.0;"/><text fill="#000000" font-family="sans-serif" font-size="11" lengthAdjust="spacingAndGlyphs" textLength="145" x="1057.5" y="568.9189">WorkerDemeter(String, int, int)</text><ellipse cx="1048.5" cy="579.7539" fill="#84BE84" rx="3" ry="3" style="stroke: #038048; stroke-width: 1.0;"/><text fill="#000000" font-family="sans-serif" font-size="11" lengthAdjust="spacingAndGlyphs" textLength="139" x="1057.5" y="582.7549">canDoAgain(int, int): boolean</text></a><!--class it.polimi.ingsw.model.workers.WorkerHephaestus--><a href="WorkerHephaestus.html" target="_top" xlink:actuate="onRequest" xlink:show="new" xlink:title="WorkerHephaestus.html" xlink:type="simple"><rect fill="#FEFECE" filter="url(#f11mxmkl26zby)" height="89.5078" id="it.polimi.ingsw.model.workers.WorkerHephaestus" style="stroke: #A80036; stroke-width: 1.5;" width="189" x="1243.5" y="506.5"/><ellipse cx="1281" cy="522.5" fill="#ADD1B2" rx="11" ry="11" style="stroke: #A80036; stroke-width: 1.0;"/><path d="M1283.7656,518.375 Q1283.9219,518.1563 1284.1094,518.0469 Q1284.2969,517.9375 1284.5156,517.9375 Q1284.8906,517.9375 1285.125,518.2031 Q1285.3594,518.4531 1285.3594,519.0625 L1285.3594,520.5156 Q1285.3594,521.125 1285.125,521.3906 Q1284.8906,521.6563 1284.5156,521.6563 Q1284.1719,521.6563 1283.9688,521.4531 Q1283.7656,521.2656 1283.6563,520.75 Q1283.6094,520.3906 1283.4219,520.2031 Q1283.0938,519.8281 1282.4844,519.6094 Q1281.875,519.3906 1281.25,519.3906 Q1280.4844,519.3906 1279.8438,519.7188 Q1279.2188,520.0469 1278.7188,520.7969 Q1278.2344,521.5469 1278.2344,522.5781 L1278.2344,523.6719 Q1278.2344,524.9063 1279.125,525.7344 Q1280.0156,526.5469 1281.6094,526.5469 Q1282.5469,526.5469 1283.2031,526.2969 Q1283.5938,526.1406 1284.0156,525.7031 Q1284.2813,525.4375 1284.4219,525.3594 Q1284.5781,525.2813 1284.7813,525.2813 Q1285.1094,525.2813 1285.3594,525.5469 Q1285.625,525.7969 1285.625,526.1406 Q1285.625,526.4844 1285.2813,526.8906 Q1284.7813,527.4688 1283.9844,527.7969 Q1282.9063,528.25 1281.6094,528.25 Q1280.0938,528.25 1278.8906,527.625 Q1277.9063,527.125 1277.2188,526.0625 Q1276.5313,524.9844 1276.5313,523.7031 L1276.5313,522.5469 Q1276.5313,521.2188 1277.1406,520.0781 Q1277.7656,518.9219 1278.8594,518.3125 Q1279.9531,517.6875 1281.1875,517.6875 Q1281.9219,517.6875 1282.5625,517.8594 Q1283.2188,518.0156 1283.7656,518.375 Z "/><text fill="#000000" font-family="sans-serif" font-size="12" lengthAdjust="spacingAndGlyphs" textLength="107" x="1300" y="527.4102">WorkerHephaestus</text><line style="stroke: #A80036; stroke-width: 1.5;" x1="1244.5" x2="1431.5" y1="538.5" y2="538.5"/><line style="stroke: #A80036; stroke-width: 1.5;" x1="1244.5" x2="1431.5" y1="546.5" y2="546.5"/><ellipse cx="1254.5" cy="558.918" fill="#84BE84" rx="3" ry="3" style="stroke: #038048; stroke-width: 1.0;"/><text fill="#000000" font-family="sans-serif" font-size="11" lengthAdjust="spacingAndGlyphs" textLength="163" x="1263.5" y="561.9189">WorkerHephaestus(String, int, int)</text><ellipse cx="1254.5" cy="572.7539" fill="#84BE84" rx="3" ry="3" style="stroke: #038048; stroke-width: 1.0;"/><text fill="#000000" font-family="sans-serif" font-size="11" lengthAdjust="spacingAndGlyphs" textLength="93" x="1263.5" y="575.7549">canBuild(): boolean</text><ellipse cx="1254.5" cy="586.5898" fill="#84BE84" rx="3" ry="3" style="stroke: #038048; stroke-width: 1.0;"/><text fill="#000000" font-family="sans-serif" font-size="11" lengthAdjust="spacingAndGlyphs" textLength="119" x="1263.5" y="589.5908">specialBuild(int, int): void</text></a><!--class it.polimi.ingsw.model.workers.WorkerHera--><a href="WorkerHera.html" target="_top" xlink:actuate="onRequest" xlink:show="new" xlink:title="WorkerHera.html" xlink:type="simple"><rect fill="#FEFECE" filter="url(#f11mxmkl26zby)" height="61.8359" id="it.polimi.ingsw.model.workers.WorkerHera" style="stroke: #A80036; stroke-width: 1.5;" width="154" x="1468" y="520.5"/><ellipse cx="1508.2" cy="536.5" fill="#ADD1B2" rx="11" ry="11" style="stroke: #A80036; stroke-width: 1.0;"/><path d="M1510.9656,532.375 Q1511.1219,532.1563 1511.3094,532.0469 Q1511.4969,531.9375 1511.7156,531.9375 Q1512.0906,531.9375 1512.325,532.2031 Q1512.5594,532.4531 1512.5594,533.0625 L1512.5594,534.5156 Q1512.5594,535.125 1512.325,535.3906 Q1512.0906,535.6563 1511.7156,535.6563 Q1511.3719,535.6563 1511.1688,535.4531 Q1510.9656,535.2656 1510.8563,534.75 Q1510.8094,534.3906 1510.6219,534.2031 Q1510.2938,533.8281 1509.6844,533.6094 Q1509.075,533.3906 1508.45,533.3906 Q1507.6844,533.3906 1507.0438,533.7188 Q1506.4188,534.0469 1505.9188,534.7969 Q1505.4344,535.5469 1505.4344,536.5781 L1505.4344,537.6719 Q1505.4344,538.9063 1506.325,539.7344 Q1507.2156,540.5469 1508.8094,540.5469 Q1509.7469,540.5469 1510.4031,540.2969 Q1510.7938,540.1406 1511.2156,539.7031 Q1511.4813,539.4375 1511.6219,539.3594 Q1511.7781,539.2813 1511.9813,539.2813 Q1512.3094,539.2813 1512.5594,539.5469 Q1512.825,539.7969 1512.825,540.1406 Q1512.825,540.4844 1512.4813,540.8906 Q1511.9813,541.4688 1511.1844,541.7969 Q1510.1063,542.25 1508.8094,542.25 Q1507.2938,542.25 1506.0906,541.625 Q1505.1063,541.125 1504.4188,540.0625 Q1503.7313,538.9844 1503.7313,537.7031 L1503.7313,536.5469 Q1503.7313,535.2188 1504.3406,534.0781 Q1504.9656,532.9219 1506.0594,532.3125 Q1507.1531,531.6875 1508.3875,531.6875 Q1509.1219,531.6875 1509.7625,531.8594 Q1510.4188,532.0156 1510.9656,532.375 Z "/><text fill="#000000" font-family="sans-serif" font-size="12" lengthAdjust="spacingAndGlyphs" textLength="66" x="1527.8" y="541.4102">WorkerHera</text><line style="stroke: #A80036; stroke-width: 1.5;" x1="1469" x2="1621" y1="552.5" y2="552.5"/><line style="stroke: #A80036; stroke-width: 1.5;" x1="1469" x2="1621" y1="560.5" y2="560.5"/><ellipse cx="1479" cy="572.918" fill="#84BE84" rx="3" ry="3" style="stroke: #038048; stroke-width: 1.0;"/><text fill="#000000" font-family="sans-serif" font-size="11" lengthAdjust="spacingAndGlyphs" textLength="128" x="1488" y="575.9189">WorkerHera(String, int, int)</text></a><!--class it.polimi.ingsw.model.workers.WorkerHestia--><a href="WorkerHestia.html" target="_top" xlink:actuate="onRequest" xlink:show="new" xlink:title="WorkerHestia.html" xlink:type="simple"><rect fill="#FEFECE" filter="url(#f11mxmkl26zby)" height="75.6719" id="it.polimi.ingsw.model.workers.WorkerHestia" style="stroke: #A80036; stroke-width: 1.5;" width="161" x="1657.5" y="513.5"/><ellipse cx="1696.8" cy="529.5" fill="#ADD1B2" rx="11" ry="11" style="stroke: #A80036; stroke-width: 1.0;"/><path d="M1699.5656,525.375 Q1699.7219,525.1563 1699.9094,525.0469 Q1700.0969,524.9375 1700.3156,524.9375 Q1700.6906,524.9375 1700.925,525.2031 Q1701.1594,525.4531 1701.1594,526.0625 L1701.1594,527.5156 Q1701.1594,528.125 1700.925,528.3906 Q1700.6906,528.6563 1700.3156,528.6563 Q1699.9719,528.6563 1699.7688,528.4531 Q1699.5656,528.2656 1699.4563,527.75 Q1699.4094,527.3906 1699.2219,527.2031 Q1698.8938,526.8281 1698.2844,526.6094 Q1697.675,526.3906 1697.05,526.3906 Q1696.2844,526.3906 1695.6438,526.7188 Q1695.0188,527.0469 1694.5188,527.7969 Q1694.0344,528.5469 1694.0344,529.5781 L1694.0344,530.6719 Q1694.0344,531.9063 1694.925,532.7344 Q1695.8156,533.5469 1697.4094,533.5469 Q1698.3469,533.5469 1699.0031,533.2969 Q1699.3938,533.1406 1699.8156,532.7031 Q1700.0813,532.4375 1700.2219,532.3594 Q1700.3781,532.2813 1700.5813,532.2813 Q1700.9094,532.2813 1701.1594,532.5469 Q1701.425,532.7969 1701.425,533.1406 Q1701.425,533.4844 1701.0813,533.8906 Q1700.5813,534.4688 1699.7844,534.7969 Q1698.7063,535.25 1697.4094,535.25 Q1695.8938,535.25 1694.6906,534.625 Q1693.7063,534.125 1693.0188,533.0625 Q1692.3313,531.9844 1692.3313,530.7031 L1692.3313,529.5469 Q1692.3313,528.2188 1692.9406,527.0781 Q1693.5656,525.9219 1694.6594,525.3125 Q1695.7531,524.6875 1696.9875,524.6875 Q1697.7219,524.6875 1698.3625,524.8594 Q1699.0188,525.0156 1699.5656,525.375 Z "/><text fill="#000000" font-family="sans-serif" font-size="12" lengthAdjust="spacingAndGlyphs" textLength="75" x="1716.2" y="534.4102">WorkerHestia</text><line style="stroke: #A80036; stroke-width: 1.5;" x1="1658.5" x2="1817.5" y1="545.5" y2="545.5"/><line style="stroke: #A80036; stroke-width: 1.5;" x1="1658.5" x2="1817.5" y1="553.5" y2="553.5"/><ellipse cx="1668.5" cy="565.918" fill="#84BE84" rx="3" ry="3" style="stroke: #038048; stroke-width: 1.0;"/><text fill="#000000" font-family="sans-serif" font-size="11" lengthAdjust="spacingAndGlyphs" textLength="135" x="1677.5" y="568.9189">WorkerHestia(String, int, int)</text><ellipse cx="1668.5" cy="579.7539" fill="#84BE84" rx="3" ry="3" style="stroke: #038048; stroke-width: 1.0;"/><text fill="#000000" font-family="sans-serif" font-size="11" lengthAdjust="spacingAndGlyphs" textLength="93" x="1677.5" y="582.7549">canBuild(): boolean</text></a><!--class it.polimi.ingsw.model.workers.WorkerMinotaur--><a href="WorkerMinotaur.html" target="_top" xlink:actuate="onRequest" xlink:show="new" xlink:title="WorkerMinotaur.html" xlink:type="simple"><rect fill="#FEFECE" filter="url(#f11mxmkl26zby)" height="103.3438" id="it.polimi.ingsw.model.workers.WorkerMinotaur" style="stroke: #A80036; stroke-width: 1.5;" width="172" x="1854" y="500"/><ellipse cx="1893.3" cy="516" fill="#ADD1B2" rx="11" ry="11" style="stroke: #A80036; stroke-width: 1.0;"/><path d="M1896.0656,511.875 Q1896.2219,511.6563 1896.4094,511.5469 Q1896.5969,511.4375 1896.8156,511.4375 Q1897.1906,511.4375 1897.425,511.7031 Q1897.6594,511.9531 1897.6594,512.5625 L1897.6594,514.0156 Q1897.6594,514.625 1897.425,514.8906 Q1897.1906,515.1563 1896.8156,515.1563 Q1896.4719,515.1563 1896.2688,514.9531 Q1896.0656,514.7656 1895.9563,514.25 Q1895.9094,513.8906 1895.7219,513.7031 Q1895.3938,513.3281 1894.7844,513.1094 Q1894.175,512.8906 1893.55,512.8906 Q1892.7844,512.8906 1892.1438,513.2188 Q1891.5188,513.5469 1891.0188,514.2969 Q1890.5344,515.0469 1890.5344,516.0781 L1890.5344,517.1719 Q1890.5344,518.4063 1891.425,519.2344 Q1892.3156,520.0469 1893.9094,520.0469 Q1894.8469,520.0469 1895.5031,519.7969 Q1895.8938,519.6406 1896.3156,519.2031 Q1896.5813,518.9375 1896.7219,518.8594 Q1896.8781,518.7813 1897.0813,518.7813 Q1897.4094,518.7813 1897.6594,519.0469 Q1897.925,519.2969 1897.925,519.6406 Q1897.925,519.9844 1897.5813,520.3906 Q1897.0813,520.9688 1896.2844,521.2969 Q1895.2063,521.75 1893.9094,521.75 Q1892.3938,521.75 1891.1906,521.125 Q1890.2063,520.625 1889.5188,519.5625 Q1888.8313,518.4844 1888.8313,517.2031 L1888.8313,516.0469 Q1888.8313,514.7188 1889.4406,513.5781 Q1890.0656,512.4219 1891.1594,511.8125 Q1892.2531,511.1875 1893.4875,511.1875 Q1894.2219,511.1875 1894.8625,511.3594 Q1895.5188,511.5156 1896.0656,511.875 Z "/><text fill="#000000" font-family="sans-serif" font-size="12" lengthAdjust="spacingAndGlyphs" textLength="86" x="1912.7" y="520.9102">WorkerMinotaur</text><line style="stroke: #A80036; stroke-width: 1.5;" x1="1855" x2="2025" y1="532" y2="532"/><line style="stroke: #A80036; stroke-width: 1.5;" x1="1855" x2="2025" y1="540" y2="540"/><ellipse cx="1865" cy="552.418" fill="#84BE84" rx="3" ry="3" style="stroke: #038048; stroke-width: 1.0;"/><text fill="#000000" font-family="sans-serif" font-size="11" lengthAdjust="spacingAndGlyphs" textLength="146" x="1874" y="555.4189">WorkerMinotaur(String, int, int)</text><ellipse cx="1865" cy="566.2539" fill="#84BE84" rx="3" ry="3" style="stroke: #038048; stroke-width: 1.0;"/><text fill="#000000" font-family="sans-serif" font-size="11" lengthAdjust="spacingAndGlyphs" textLength="122" x="1874" y="569.2549">canPush(int, int): boolean</text><ellipse cx="1865" cy="580.0898" fill="#84BE84" rx="3" ry="3" style="stroke: #038048; stroke-width: 1.0;"/><text fill="#000000" font-family="sans-serif" font-size="11" lengthAdjust="spacingAndGlyphs" textLength="96" x="1874" y="583.0908">canMove(): boolean</text><ellipse cx="1865" cy="593.9258" fill="#84BE84" rx="3" ry="3" style="stroke: #038048; stroke-width: 1.0;"/><text fill="#000000" font-family="sans-serif" font-size="11" lengthAdjust="spacingAndGlyphs" textLength="135" x="1874" y="596.9268">changePosition(int, int): void</text></a><!--class it.polimi.ingsw.model.workers.WorkerPan--><a href="WorkerPan.html" target="_top" xlink:actuate="onRequest" xlink:show="new" xlink:title="WorkerPan.html" xlink:type="simple"><rect fill="#FEFECE" filter="url(#f11mxmkl26zby)" height="61.8359" id="it.polimi.ingsw.model.workers.WorkerPan" style="stroke: #A80036; stroke-width: 1.5;" width="149" x="2061.5" y="520.5"/><ellipse cx="2101.7" cy="536.5" fill="#ADD1B2" rx="11" ry="11" style="stroke: #A80036; stroke-width: 1.0;"/><path d="M2104.4656,532.375 Q2104.6219,532.1563 2104.8094,532.0469 Q2104.9969,531.9375 2105.2156,531.9375 Q2105.5906,531.9375 2105.825,532.2031 Q2106.0594,532.4531 2106.0594,533.0625 L2106.0594,534.5156 Q2106.0594,535.125 2105.825,535.3906 Q2105.5906,535.6563 2105.2156,535.6563 Q2104.8719,535.6563 2104.6688,535.4531 Q2104.4656,535.2656 2104.3563,534.75 Q2104.3094,534.3906 2104.1219,534.2031 Q2103.7938,533.8281 2103.1844,533.6094 Q2102.575,533.3906 2101.95,533.3906 Q2101.1844,533.3906 2100.5438,533.7188 Q2099.9188,534.0469 2099.4188,534.7969 Q2098.9344,535.5469 2098.9344,536.5781 L2098.9344,537.6719 Q2098.9344,538.9063 2099.825,539.7344 Q2100.7156,540.5469 2102.3094,540.5469 Q2103.2469,540.5469 2103.9031,540.2969 Q2104.2938,540.1406 2104.7156,539.7031 Q2104.9813,539.4375 2105.1219,539.3594 Q2105.2781,539.2813 2105.4813,539.2813 Q2105.8094,539.2813 2106.0594,539.5469 Q2106.325,539.7969 2106.325,540.1406 Q2106.325,540.4844 2105.9813,540.8906 Q2105.4813,541.4688 2104.6844,541.7969 Q2103.6063,542.25 2102.3094,542.25 Q2100.7938,542.25 2099.5906,541.625 Q2098.6063,541.125 2097.9188,540.0625 Q2097.2313,538.9844 2097.2313,537.7031 L2097.2313,536.5469 Q2097.2313,535.2188 2097.8406,534.0781 Q2098.4656,532.9219 2099.5594,532.3125 Q2100.6531,531.6875 2101.8875,531.6875 Q2102.6219,531.6875 2103.2625,531.8594 Q2103.9188,532.0156 2104.4656,532.375 Z "/><text fill="#000000" font-family="sans-serif" font-size="12" lengthAdjust="spacingAndGlyphs" textLength="61" x="2121.3" y="541.4102">WorkerPan</text><line style="stroke: #A80036; stroke-width: 1.5;" x1="2062.5" x2="2209.5" y1="552.5" y2="552.5"/><line style="stroke: #A80036; stroke-width: 1.5;" x1="2062.5" x2="2209.5" y1="560.5" y2="560.5"/><ellipse cx="2072.5" cy="572.918" fill="#84BE84" rx="3" ry="3" style="stroke: #038048; stroke-width: 1.0;"/><text fill="#000000" font-family="sans-serif" font-size="11" lengthAdjust="spacingAndGlyphs" textLength="123" x="2081.5" y="575.9189">WorkerPan(String, int, int)</text></a><!--class it.polimi.ingsw.model.workers.WorkerPrometheus--><a href="WorkerPrometheus.html" target="_top" xlink:actuate="onRequest" xlink:show="new" xlink:title="WorkerPrometheus.html" xlink:type="simple"><rect fill="#FEFECE" filter="url(#f11mxmkl26zby)" height="75.6719" id="it.polimi.ingsw.model.workers.WorkerPrometheus" style="stroke: #A80036; stroke-width: 1.5;" width="188" x="2246" y="513.5"/><ellipse cx="2283.05" cy="529.5" fill="#ADD1B2" rx="11" ry="11" style="stroke: #A80036; stroke-width: 1.0;"/><path d="M2285.8156,525.375 Q2285.9719,525.1563 2286.1594,525.0469 Q2286.3469,524.9375 2286.5656,524.9375 Q2286.9406,524.9375 2287.175,525.2031 Q2287.4094,525.4531 2287.4094,526.0625 L2287.4094,527.5156 Q2287.4094,528.125 2287.175,528.3906 Q2286.9406,528.6563 2286.5656,528.6563 Q2286.2219,528.6563 2286.0188,528.4531 Q2285.8156,528.2656 2285.7063,527.75 Q2285.6594,527.3906 2285.4719,527.2031 Q2285.1438,526.8281 2284.5344,526.6094 Q2283.925,526.3906 2283.3,526.3906 Q2282.5344,526.3906 2281.8938,526.7188 Q2281.2688,527.0469 2280.7688,527.7969 Q2280.2844,528.5469 2280.2844,529.5781 L2280.2844,530.6719 Q2280.2844,531.9063 2281.175,532.7344 Q2282.0656,533.5469 2283.6594,533.5469 Q2284.5969,533.5469 2285.2531,533.2969 Q2285.6438,533.1406 2286.0656,532.7031 Q2286.3313,532.4375 2286.4719,532.3594 Q2286.6281,532.2813 2286.8313,532.2813 Q2287.1594,532.2813 2287.4094,532.5469 Q2287.675,532.7969 2287.675,533.1406 Q2287.675,533.4844 2287.3313,533.8906 Q2286.8313,534.4688 2286.0344,534.7969 Q2284.9563,535.25 2283.6594,535.25 Q2282.1438,535.25 2280.9406,534.625 Q2279.9563,534.125 2279.2688,533.0625 Q2278.5813,531.9844 2278.5813,530.7031 L2278.5813,529.5469 Q2278.5813,528.2188 2279.1906,527.0781 Q2279.8156,525.9219 2280.9094,525.3125 Q2282.0031,524.6875 2283.2375,524.6875 Q2283.9719,524.6875 2284.6125,524.8594 Q2285.2688,525.0156 2285.8156,525.375 Z "/><text fill="#000000" font-family="sans-serif" font-size="12" lengthAdjust="spacingAndGlyphs" textLength="107" x="2301.95" y="534.4102">WorkerPrometheus</text><line style="stroke: #A80036; stroke-width: 1.5;" x1="2247" x2="2433" y1="545.5" y2="545.5"/><line style="stroke: #A80036; stroke-width: 1.5;" x1="2247" x2="2433" y1="553.5" y2="553.5"/><ellipse cx="2257" cy="565.918" fill="#84BE84" rx="3" ry="3" style="stroke: #038048; stroke-width: 1.0;"/><text fill="#000000" font-family="sans-serif" font-size="11" lengthAdjust="spacingAndGlyphs" textLength="162" x="2266" y="568.9189">WorkerPrometheus(String, int, int)</text><ellipse cx="2257" cy="579.7539" fill="#84BE84" rx="3" ry="3" style="stroke: #038048; stroke-width: 1.0;"/><text fill="#000000" font-family="sans-serif" font-size="11" lengthAdjust="spacingAndGlyphs" textLength="96" x="2266" y="582.7549">canMove(): boolean</text></a><!--class it.polimi.ingsw.model.workers.WorkerTriton--><a href="WorkerTriton.html" target="_top" xlink:actuate="onRequest" xlink:show="new" xlink:title="WorkerTriton.html" xlink:type="simple"><rect fill="#FEFECE" filter="url(#f11mxmkl26zby)" height="61.8359" id="it.polimi.ingsw.model.workers.WorkerTriton" style="stroke: #A80036; stroke-width: 1.5;" width="158" x="2469" y="520.5"/><ellipse cx="2509.2" cy="536.5" fill="#ADD1B2" rx="11" ry="11" style="stroke: #A80036; stroke-width: 1.0;"/><path d="M2511.9656,532.375 Q2512.1219,532.1563 2512.3094,532.0469 Q2512.4969,531.9375 2512.7156,531.9375 Q2513.0906,531.9375 2513.325,532.2031 Q2513.5594,532.4531 2513.5594,533.0625 L2513.5594,534.5156 Q2513.5594,535.125 2513.325,535.3906 Q2513.0906,535.6563 2512.7156,535.6563 Q2512.3719,535.6563 2512.1688,535.4531 Q2511.9656,535.2656 2511.8563,534.75 Q2511.8094,534.3906 2511.6219,534.2031 Q2511.2938,533.8281 2510.6844,533.6094 Q2510.075,533.3906 2509.45,533.3906 Q2508.6844,533.3906 2508.0438,533.7188 Q2507.4188,534.0469 2506.9188,534.7969 Q2506.4344,535.5469 2506.4344,536.5781 L2506.4344,537.6719 Q2506.4344,538.9063 2507.325,539.7344 Q2508.2156,540.5469 2509.8094,540.5469 Q2510.7469,540.5469 2511.4031,540.2969 Q2511.7938,540.1406 2512.2156,539.7031 Q2512.4813,539.4375 2512.6219,539.3594 Q2512.7781,539.2813 2512.9813,539.2813 Q2513.3094,539.2813 2513.5594,539.5469 Q2513.825,539.7969 2513.825,540.1406 Q2513.825,540.4844 2513.4813,540.8906 Q2512.9813,541.4688 2512.1844,541.7969 Q2511.1063,542.25 2509.8094,542.25 Q2508.2938,542.25 2507.0906,541.625 Q2506.1063,541.125 2505.4188,540.0625 Q2504.7313,538.9844 2504.7313,537.7031 L2504.7313,536.5469 Q2504.7313,535.2188 2505.3406,534.0781 Q2505.9656,532.9219 2507.0594,532.3125 Q2508.1531,531.6875 2509.3875,531.6875 Q2510.1219,531.6875 2510.7625,531.8594 Q2511.4188,532.0156 2511.9656,532.375 Z "/><text fill="#000000" font-family="sans-serif" font-size="12" lengthAdjust="spacingAndGlyphs" textLength="70" x="2528.8" y="541.4102">WorkerTriton</text><line style="stroke: #A80036; stroke-width: 1.5;" x1="2470" x2="2626" y1="552.5" y2="552.5"/><line style="stroke: #A80036; stroke-width: 1.5;" x1="2470" x2="2626" y1="560.5" y2="560.5"/><ellipse cx="2480" cy="572.918" fill="#84BE84" rx="3" ry="3" style="stroke: #038048; stroke-width: 1.0;"/><text fill="#000000" font-family="sans-serif" font-size="11" lengthAdjust="spacingAndGlyphs" textLength="132" x="2489" y="575.9189">WorkerTriton(String, int, int)</text></a><!--class it.polimi.ingsw.model.workers.WorkerZeus--><a href="WorkerZeus.html" target="_top" xlink:actuate="onRequest" xlink:show="new" xlink:title="WorkerZeus.html" xlink:type="simple"><rect fill="#FEFECE" filter="url(#f11mxmkl26zby)" height="75.6719" id="it.polimi.ingsw.model.workers.WorkerZeus" style="stroke: #A80036; stroke-width: 1.5;" width="156" x="2662" y="513.5"/><ellipse cx="2702.65" cy="529.5" fill="#ADD1B2" rx="11" ry="11" style="stroke: #A80036; stroke-width: 1.0;"/><path d="M2705.4156,525.375 Q2705.5719,525.1563 2705.7594,525.0469 Q2705.9469,524.9375 2706.1656,524.9375 Q2706.5406,524.9375 2706.775,525.2031 Q2707.0094,525.4531 2707.0094,526.0625 L2707.0094,527.5156 Q2707.0094,528.125 2706.775,528.3906 Q2706.5406,528.6563 2706.1656,528.6563 Q2705.8219,528.6563 2705.6188,528.4531 Q2705.4156,528.2656 2705.3063,527.75 Q2705.2594,527.3906 2705.0719,527.2031 Q2704.7438,526.8281 2704.1344,526.6094 Q2703.525,526.3906 2702.9,526.3906 Q2702.1344,526.3906 2701.4938,526.7188 Q2700.8688,527.0469 2700.3688,527.7969 Q2699.8844,528.5469 2699.8844,529.5781 L2699.8844,530.6719 Q2699.8844,531.9063 2700.775,532.7344 Q2701.6656,533.5469 2703.2594,533.5469 Q2704.1969,533.5469 2704.8531,533.2969 Q2705.2438,533.1406 2705.6656,532.7031 Q2705.9313,532.4375 2706.0719,532.3594 Q2706.2281,532.2813 2706.4313,532.2813 Q2706.7594,532.2813 2707.0094,532.5469 Q2707.275,532.7969 2707.275,533.1406 Q2707.275,533.4844 2706.9313,533.8906 Q2706.4313,534.4688 2705.6344,534.7969 Q2704.5563,535.25 2703.2594,535.25 Q2701.7438,535.25 2700.5406,534.625 Q2699.5563,534.125 2698.8688,533.0625 Q2698.1813,531.9844 2698.1813,530.7031 L2698.1813,529.5469 Q2698.1813,528.2188 2698.7906,527.0781 Q2699.4156,525.9219 2700.5094,525.3125 Q2701.6031,524.6875 2702.8375,524.6875 Q2703.5719,524.6875 2704.2125,524.8594 Q2704.8688,525.0156 2705.4156,525.375 Z "/><text fill="#000000" font-family="sans-serif" font-size="12" lengthAdjust="spacingAndGlyphs" textLength="67" x="2722.35" y="534.4102">WorkerZeus</text><line style="stroke: #A80036; stroke-width: 1.5;" x1="2663" x2="2817" y1="545.5" y2="545.5"/><line style="stroke: #A80036; stroke-width: 1.5;" x1="2663" x2="2817" y1="553.5" y2="553.5"/><ellipse cx="2673" cy="565.918" fill="#84BE84" rx="3" ry="3" style="stroke: #038048; stroke-width: 1.0;"/><text fill="#000000" font-family="sans-serif" font-size="11" lengthAdjust="spacingAndGlyphs" textLength="130" x="2682" y="568.9189">WorkerZeus(String, int, int)</text><ellipse cx="2673" cy="579.7539" fill="#84BE84" rx="3" ry="3" style="stroke: #038048; stroke-width: 1.0;"/><text fill="#000000" font-family="sans-serif" font-size="11" lengthAdjust="spacingAndGlyphs" textLength="110" x="2682" y="582.7549">buildBlock(int, int): void</text></a><!--class java.io.Serializable--><rect fill="#FEFECE" filter="url(#f11mxmkl26zby)" height="48" id="java.io.Serializable" style="stroke: #A80036; stroke-width: 1.5;" width="99" x="1391.5" y="60"/><ellipse cx="1406.5" cy="76" fill="#B4A7E5" rx="11" ry="11" style="stroke: #A80036; stroke-width: 1.0;"/><path d="M1407.4531,72.6406 L1407.4531,79.2969 L1409.1719,79.2969 Q1409.7813,79.2969 1410.0469,79.5313 Q1410.3125,79.7656 1410.3125,80.1563 Q1410.3125,80.5313 1410.0469,80.7656 Q1409.7813,81 1409.1719,81 L1404.0313,81 Q1403.4219,81 1403.1563,80.7656 Q1402.8906,80.5313 1402.8906,80.1406 Q1402.8906,79.7656 1403.1563,79.5313 Q1403.4219,79.2969 1404.0313,79.2969 L1405.75,79.2969 L1405.75,72.6406 L1404.0313,72.6406 Q1403.4219,72.6406 1403.1563,72.4063 Q1402.8906,72.1719 1402.8906,71.7813 Q1402.8906,71.4063 1403.1563,71.1719 Q1403.4219,70.9375 1404.0313,70.9375 L1409.1719,70.9375 Q1409.7813,70.9375 1410.0469,71.1719 Q1410.3125,71.4063 1410.3125,71.7813 Q1410.3125,72.1719 1410.0469,72.4063 Q1409.7813,72.6406 1409.1719,72.6406 L1407.4531,72.6406 Z "/><text fill="#000000" font-family="sans-serif" font-size="12" font-style="italic" lengthAdjust="spacingAndGlyphs" textLength="67" x="1420.5" y="80.9102">Serializable</text><line style="stroke: #A80036; stroke-width: 1.5;" x1="1392.5" x2="1489.5" y1="92" y2="92"/><line style="stroke: #A80036; stroke-width: 1.5;" x1="1392.5" x2="1489.5" y1="100" y2="100"/><!--link java.io.Serializable to it.polimi.ingsw.model.workers.Worker--><path d="M1441,128.539 C1441,144.702 1441,163.963 1441,183.817 " fill="none" id="java.io.Serializable-it.polimi.ingsw.model.workers.Worker" style="stroke: #A80036; stroke-width: 1.0; stroke-dasharray: 7.0,7.0;"/><polygon fill="none" points="1434,128.335,1441,108.335,1448,128.335,1434,128.335" style="stroke: #A80036; stroke-width: 1.0;"/><!--link it.polimi.ingsw.model.workers.Worker to it.polimi.ingsw.model.workers.WorkerApollo--><path d="M1338.41,317.644 C1124.98,329.679 619.6,370.598 218,500 C211.94,501.953 205.797,504.241 199.693,506.746 " fill="none" id="it.polimi.ingsw.model.workers.Worker-it.polimi.ingsw.model.workers.WorkerApollo" style="stroke: #A80036; stroke-width: 1.0;"/><polygon fill="none" points="1338.09,310.651,1358.44,316.551,1338.85,324.63,1338.09,310.651" style="stroke: #A80036; stroke-width: 1.0;"/><!--link it.polimi.ingsw.model.workers.Worker to it.polimi.ingsw.model.workers.WorkerArtemis--><path d="M1338.37,322.281 C1151.8,341.229 746.267,392.023 421,500 C409.842,503.704 398.36,508.415 387.309,513.463 " fill="none" id="it.polimi.ingsw.model.workers.Worker-it.polimi.ingsw.model.workers.WorkerArtemis" style="stroke: #A80036; stroke-width: 1.0;"/><polygon fill="none" points="1337.82,315.301,1358.42,320.282,1339.21,329.232,1337.82,315.301" style="stroke: #A80036; stroke-width: 1.0;"/><!--link it.polimi.ingsw.model.workers.Worker to it.polimi.ingsw.model.workers.WorkerAthena--><path d="M1338.58,328.289 C1181.3,353.558 872.242,410.334 622,500 C616.094,502.116 610.087,504.492 604.095,507.03 " fill="none" id="it.polimi.ingsw.model.workers.Worker-it.polimi.ingsw.model.workers.WorkerAthena" style="stroke: #A80036; stroke-width: 1.0;"/><polygon fill="none" points="1337.52,321.37,1358.37,325.148,1339.71,335.197,1337.52,321.37" style="stroke: #A80036; stroke-width: 1.0;"/><!--link it.polimi.ingsw.model.workers.Worker to it.polimi.ingsw.model.workers.WorkerAtlas--><path d="M1338.68,336.928 C1212.63,367.885 993.07,426.646 813,500 C803.233,503.979 793.146,508.633 783.345,513.477 " fill="none" id="it.polimi.ingsw.model.workers.Worker-it.polimi.ingsw.model.workers.WorkerAtlas" style="stroke: #A80036; stroke-width: 1.0;"/><polygon fill="none" points="1337.38,330.042,1358.46,332.11,1340.69,343.644,1337.38,330.042" style="stroke: #A80036; stroke-width: 1.0;"/><!--link it.polimi.ingsw.model.workers.Worker to it.polimi.ingsw.model.workers.WorkerChronus--><path d="M1339.91,356.75 C1254.36,394.052 1128.67,449.498 1020,500 C1006.08,506.471 991.186,513.584 977.152,520.378 " fill="none" id="it.polimi.ingsw.model.workers.Worker-it.polimi.ingsw.model.workers.WorkerChronus" style="stroke: #A80036; stroke-width: 1.0;"/><polygon fill="none" points="1337.21,350.292,1358.34,348.725,1342.8,363.128,1337.21,350.292" style="stroke: #A80036; stroke-width: 1.0;"/><!--link it.polimi.ingsw.model.workers.Worker to it.polimi.ingsw.model.workers.WorkerDemeter--><path d="M1342,386.941 C1285.74,428.954 1217.75,479.735 1172.6,513.456 " fill="none" id="it.polimi.ingsw.model.workers.Worker-it.polimi.ingsw.model.workers.WorkerDemeter" style="stroke: #A80036; stroke-width: 1.0;"/><polygon fill="none" points="1338.07,381.14,1358.28,374.78,1346.44,392.357,1338.07,381.14" style="stroke: #A80036; stroke-width: 1.0;"/><!--link it.polimi.ingsw.model.workers.Worker to it.polimi.ingsw.model.workers.WorkerHephaestus--><path d="M1377.84,458.636 C1370.37,475.854 1363.25,492.277 1357.15,506.35 " fill="none" id="it.polimi.ingsw.model.workers.Worker-it.polimi.ingsw.model.workers.WorkerHephaestus" style="stroke: #A80036; stroke-width: 1.0;"/><polygon fill="none" points="1371.5,455.657,1385.88,440.093,1384.35,461.227,1371.5,455.657" style="stroke: #A80036; stroke-width: 1.0;"/><!--link it.polimi.ingsw.model.workers.Worker to it.polimi.ingsw.model.workers.WorkerHera--><path d="M1504.74,458.565 C1514.94,481.857 1524.5,503.696 1531.75,520.24 " fill="none" id="it.polimi.ingsw.model.workers.Worker-it.polimi.ingsw.model.workers.WorkerHera" style="stroke: #A80036; stroke-width: 1.0;"/><polygon fill="none" points="1498.26,461.222,1496.65,440.093,1511.09,455.606,1498.26,461.222" style="stroke: #A80036; stroke-width: 1.0;"/><!--link it.polimi.ingsw.model.workers.Worker to it.polimi.ingsw.model.workers.WorkerHestia--><path d="M1539.67,391.905 C1590.94,432.9 1651.17,481.061 1691.69,513.464 " fill="none" id="it.polimi.ingsw.model.workers.Worker-it.polimi.ingsw.model.workers.WorkerHestia" style="stroke: #A80036; stroke-width: 1.0;"/><polygon fill="none" points="1534.98,397.115,1523.73,379.157,1543.72,386.181,1534.98,397.115" style="stroke: #A80036; stroke-width: 1.0;"/><!--link it.polimi.ingsw.model.workers.Worker to it.polimi.ingsw.model.workers.WorkerMinotaur--><path d="M1541.85,360.407 C1621.74,398.045 1736.14,452.118 1836,500 C1841.79,502.777 1847.76,505.649 1853.77,508.548 " fill="none" id="it.polimi.ingsw.model.workers.Worker-it.polimi.ingsw.model.workers.WorkerMinotaur" style="stroke: #A80036; stroke-width: 1.0;"/><polygon fill="none" points="1538.69,366.656,1523.58,351.802,1544.65,353.991,1538.69,366.656" style="stroke: #A80036; stroke-width: 1.0;"/><!--link it.polimi.ingsw.model.workers.Worker to it.polimi.ingsw.model.workers.WorkerPan--><path d="M1543.33,337.991 C1665.1,369.258 1873.4,427.597 2044,500 C2057.75,505.837 2072.14,513.116 2085.33,520.314 " fill="none" id="it.polimi.ingsw.model.workers.Worker-it.polimi.ingsw.model.workers.WorkerPan" style="stroke: #A80036; stroke-width: 1.0;"/><polygon fill="none" points="1541.47,344.742,1523.81,333.023,1544.92,331.174,1541.47,344.742" style="stroke: #A80036; stroke-width: 1.0;"/><!--link it.polimi.ingsw.model.workers.Worker to it.polimi.ingsw.model.workers.WorkerPrometheus--><path d="M1543.79,330.942 C1695.76,358.914 1988.28,418.308 2228,500 C2239.41,503.887 2251.23,508.519 2262.74,513.376 " fill="none" id="it.polimi.ingsw.model.workers.Worker-it.polimi.ingsw.model.workers.WorkerPrometheus" style="stroke: #A80036; stroke-width: 1.0;"/><polygon fill="none" points="1542.16,337.76,1523.74,327.284,1544.67,323.988,1542.16,337.76" style="stroke: #A80036; stroke-width: 1.0;"/><!--link it.polimi.ingsw.model.workers.Worker to it.polimi.ingsw.model.workers.WorkerTriton--><path d="M1543.69,321.702 C1729.35,339.671 2131.34,388.882 2452,500 C2467.3,505.303 2483.16,512.742 2497.47,520.284 " fill="none" id="it.polimi.ingsw.model.workers.Worker-it.polimi.ingsw.model.workers.WorkerTriton" style="stroke: #A80036; stroke-width: 1.0;"/><polygon fill="none" points="1542.99,328.667,1523.74,319.811,1544.31,314.729,1542.99,328.667" style="stroke: #A80036; stroke-width: 1.0;"/><!--link it.polimi.ingsw.model.workers.Worker to it.polimi.ingsw.model.workers.WorkerZeus--><path d="M1543.67,317.427 C1754.97,329.013 2251.67,369.07 2645,500 C2655.81,503.599 2666.86,508.35 2677.43,513.499 " fill="none" id="it.polimi.ingsw.model.workers.Worker-it.polimi.ingsw.model.workers.WorkerZeus" style="stroke: #A80036; stroke-width: 1.0;"/><polygon fill="none" points="1543.12,324.408,1523.52,316.362,1543.86,310.427,1543.12,324.408" style="stroke: #A80036; stroke-width: 1.0;"/><text fill="#888888" font-family="sans-serif" font-size="10" lengthAdjust="spacingAndGlyphs" textLength="190" x="1339" y="655.3809">UMLDoclet 2.0.10, PlantUML 1.2019.08</text><!--
@startuml
    namespace it.polimi.ingsw.model.workers {

        abstract class Worker [[Worker.html]] {
            +Worker(String, int, int)
            +canMove(): boolean
            +canBuild(): boolean
            +changePosition(int, int): void
            +canDoAgain(int, int): boolean
            +canPush(int, int): boolean
            +buildBlock(int, int): void
            +specialBuild(int, int): void
            +getIdWorker(): String
            +getCoordX(): int
            +setCoordX(int): void
            +getCoordY(): int
            +setCoordY(int): void
            +getCoordZ(): int
            +setCoordZ(int): void
        }

        class WorkerApollo [[WorkerApollo.html]] {
            +WorkerApollo(String, int, int)
            +canMove(): boolean
            +changePosition(int, int): void
        }

        class WorkerArtemis [[WorkerArtemis.html]] {
            +WorkerArtemis(String, int, int)
            +canDoAgain(int, int): boolean
        }

        class WorkerAthena [[WorkerAthena.html]] {
            +WorkerAthena(String, int, int)
            +canMove(): boolean
            +changePosition(int, int): void
        }

        class WorkerAtlas [[WorkerAtlas.html]] {
            +WorkerAtlas(String, int, int)
            +specialBuild(int, int): void
        }

        class WorkerChronus [[WorkerChronus.html]] {
            +WorkerChronus(String, int, int)
        }

        class WorkerDemeter [[WorkerDemeter.html]] {
            +WorkerDemeter(String, int, int)
            +canDoAgain(int, int): boolean
        }

        class WorkerHephaestus [[WorkerHephaestus.html]] {
            +WorkerHephaestus(String, int, int)
            +canBuild(): boolean
            +specialBuild(int, int): void
        }

        class WorkerHera [[WorkerHera.html]] {
            +WorkerHera(String, int, int)
        }

        class WorkerHestia [[WorkerHestia.html]] {
            +WorkerHestia(String, int, int)
            +canBuild(): boolean
        }

        class WorkerMinotaur [[WorkerMinotaur.html]] {
            +WorkerMinotaur(String, int, int)
            +canPush(int, int): boolean
            +canMove(): boolean
            +changePosition(int, int): void
        }

        class WorkerPan [[WorkerPan.html]] {
            +WorkerPan(String, int, int)
        }

        class WorkerPrometheus [[WorkerPrometheus.html]] {
            +WorkerPrometheus(String, int, int)
            +canMove(): boolean
        }

        class WorkerTriton [[WorkerTriton.html]] {
            +WorkerTriton(String, int, int)
        }

        class WorkerZeus [[WorkerZeus.html]] {
            +WorkerZeus(String, int, int)
            +buildBlock(int, int): void
        }

        java.io.Serializable <|.. Worker
        Worker <|- - WorkerApollo
        Worker <|- - WorkerArtemis
        Worker <|- - WorkerAthena
        Worker <|- - WorkerAtlas
        Worker <|- - WorkerChronus
        Worker <|- - WorkerDemeter
        Worker <|- - WorkerHephaestus
        Worker <|- - WorkerHera
        Worker <|- - WorkerHestia
        Worker <|- - WorkerMinotaur
        Worker <|- - WorkerPan
        Worker <|- - WorkerPrometheus
        Worker <|- - WorkerTriton
        Worker <|- - WorkerZeus
    }

    namespace java.io {
        interface Serializable
    }

    center footer UMLDoclet 2.0.10, PlantUML 1.2019.08
@enduml

PlantUML version 1.2019.08(Sat Jul 13 21:25:14 CEST 2019)
(APACHE source distribution)
Java Runtime: Java(TM) SE Runtime Environment
JVM: Java HotSpot(TM) 64-Bit Server VM
Java Version: 14.0.1+7
Operating System: Windows 10
OS Version: 10.0
Default Encoding: Cp1252
Language: it
Country: IT
--></g></svg>