<?xml version="1.0" encoding="UTF-8" standalone="no"?><svg xmlns="http://www.w3.org/2000/svg" xmlns:xlink="http://www.w3.org/1999/xlink" contentScriptType="application/ecmascript" contentStyleType="text/css" height="217px" preserveAspectRatio="none" style="width:204px;height:217px;" version="1.1" viewBox="0 0 204 217" width="204px" zoomAndPan="magnify"><defs><filter height="300%" id="f77it7ovtxsux" width="300%" x="-1" y="-1"><feGaussianBlur result="blurOut" stdDeviation="2.0"/><feColorMatrix in="blurOut" result="blurOut2" type="matrix" values="0 0 0 0 0 0 0 0 0 0 0 0 0 0 0 0 0 0 .4 0"/><feOffset dx="4.0" dy="4.0" in="blurOut2" result="blurOut3"/><feBlend in="SourceGraphic" in2="blurOut3" mode="normal"/></filter></defs><g><!--class it.polimi.ingsw.model.workers.WorkerDemeter--><a href="WorkerDemeter.html" target="_top" xlink:actuate="onRequest" xlink:show="new" xlink:title="WorkerDemeter.html" xlink:type="simple"><rect fill="#FEFECE" filter="url(#f77it7ovtxsux)" height="75.8594" id="it.polimi.ingsw.model.workers.WorkerDemeter" style="stroke: #A80036; stroke-width: 1.5;" width="171" x="6" y="108"/><ellipse cx="21.9" cy="128.0938" fill="#ADD1B2" rx="11" ry="11" style="stroke: #A80036; stroke-width: 1.0;"/><path d="M24.6656,123.9688 Q24.8219,123.75 25.0094,123.6406 Q25.1969,123.5313 25.4156,123.5313 Q25.7906,123.5313 26.025,123.7969 Q26.2594,124.0469 26.2594,124.6563 L26.2594,126.1094 Q26.2594,126.7188 26.025,126.9844 Q25.7906,127.25 25.4156,127.25 Q25.0719,127.25 24.8688,127.0469 Q24.6656,126.8594 24.5563,126.3438 Q24.5094,125.9844 24.3219,125.7969 Q23.9938,125.4219 23.3844,125.2031 Q22.775,124.9844 22.15,124.9844 Q21.3844,124.9844 20.7438,125.3125 Q20.1188,125.6406 19.6188,126.3906 Q19.1344,127.1406 19.1344,128.1719 L19.1344,129.2656 Q19.1344,130.5 20.025,131.3281 Q20.9156,132.1406 22.5094,132.1406 Q23.4469,132.1406 24.1031,131.8906 Q24.4938,131.7344 24.9156,131.2969 Q25.1813,131.0313 25.3219,130.9531 Q25.4781,130.875 25.6813,130.875 Q26.0094,130.875 26.2594,131.1406 Q26.525,131.3906 26.525,131.7344 Q26.525,132.0781 26.1813,132.4844 Q25.6813,133.0625 24.8844,133.3906 Q23.8063,133.8438 22.5094,133.8438 Q20.9938,133.8438 19.7906,133.2188 Q18.8063,132.7188 18.1188,131.6563 Q17.4313,130.5781 17.4313,129.2969 L17.4313,128.1406 Q17.4313,126.8125 18.0406,125.6719 Q18.6656,124.5156 19.7594,123.9063 Q20.8531,123.2813 22.0875,123.2813 Q22.8219,123.2813 23.4625,123.4531 Q24.1188,123.6094 24.6656,123.9688 Z "/><text fill="#000000" font-family="sans-serif" font-size="14" lengthAdjust="spacingAndGlyphs" textLength="100" x="54.6" y="127.5332">WorkerDemeter</text><text fill="#000000" font-family="sans-serif" font-size="10" lengthAdjust="spacingAndGlyphs" textLength="137" x="36.1" y="140.9902">it.polimi.ingsw.model.workers</text><line style="stroke: #A80036; stroke-width: 1.5;" x1="7" x2="176" y1="148.1875" y2="148.1875"/><ellipse cx="17" cy="160.6055" fill="#84BE84" rx="3" ry="3" style="stroke: #038048; stroke-width: 1.0;"/><text fill="#000000" font-family="sans-serif" font-size="11" lengthAdjust="spacingAndGlyphs" textLength="145" x="26" y="163.6064">WorkerDemeter(String, int, int)</text><ellipse cx="17" cy="174.4414" fill="#84BE84" rx="3" ry="3" style="stroke: #038048; stroke-width: 1.0;"/><text fill="#000000" font-family="sans-serif" font-size="11" lengthAdjust="spacingAndGlyphs" textLength="139" x="26" y="177.4424">canDoAgain(int, int): boolean</text></a><!--class it.polimi.ingsw.model.workers.Worker--><a href="Worker.html" target="_top" xlink:actuate="onRequest" xlink:show="new" xlink:title="Worker.html" xlink:type="simple"><rect fill="#FEFECE" filter="url(#f77it7ovtxsux)" height="40.1875" id="it.polimi.ingsw.model.workers.Worker" style="stroke: #A80036; stroke-width: 1.5;" width="170" x="6.5" y="8"/><ellipse cx="21.5" cy="28.0938" fill="#A9DCDF" rx="11" ry="11" style="stroke: #A80036; stroke-width: 1.0;"/><path d="M23.6875,29.8594 L19.5469,29.8594 L19.125,30.8906 L19.5469,30.8906 Q20.1563,30.8906 20.4219,31.125 Q20.6875,31.3594 20.6875,31.75 Q20.6875,32.125 20.4219,32.3594 Q20.1563,32.5938 19.5469,32.5938 L17.25,32.5938 Q16.6406,32.5938 16.3906,32.3594 Q16.125,32.125 16.125,31.7344 Q16.125,31.3594 16.4063,31.125 Q16.6719,30.875 17.2969,30.8906 L19.9688,24.2344 L18.8594,24.2344 Q18.25,24.2344 17.9844,24 Q17.7188,23.7656 17.7188,23.375 Q17.7188,23 17.9844,22.7656 Q18.25,22.5313 18.8594,22.5313 L22.5313,22.5313 L25.9219,30.8906 Q26.5156,30.8906 26.7031,31.0313 Q27.0938,31.2969 27.0938,31.75 Q27.0938,32.125 26.8281,32.3594 Q26.5781,32.5938 25.9688,32.5938 L23.6719,32.5938 Q23.0625,32.5938 22.7969,32.3594 Q22.5313,32.125 22.5313,31.7344 Q22.5313,31.3594 22.7969,31.125 Q23.0625,30.8906 23.6719,30.8906 L24.0938,30.8906 L23.6875,29.8594 Z M22.9688,28.1563 L21.6094,24.7813 L20.2344,28.1563 L22.9688,28.1563 Z "/><text fill="#000000" font-family="sans-serif" font-size="14" font-style="italic" lengthAdjust="spacingAndGlyphs" textLength="48" x="80.5" y="27.5332">Worker</text><text fill="#000000" font-family="sans-serif" font-size="10" font-style="italic" lengthAdjust="spacingAndGlyphs" textLength="138" x="35.5" y="40.9902">it.polimi.ingsw.model.workers</text></a><!--link it.polimi.ingsw.model.workers.Worker to it.polimi.ingsw.model.workers.WorkerDemeter--><path d="M91.5,68.491 C91.5,81.272 91.5,95.3932 91.5,107.9879 " fill="none" id="it.polimi.ingsw.model.workers.Worker-it.polimi.ingsw.model.workers.WorkerDemeter" style="stroke: #A80036; stroke-width: 1.0;"/><polygon fill="none" points="84.5001,68.155,91.5,48.155,98.5001,68.155,84.5001,68.155" style="stroke: #A80036; stroke-width: 1.0;"/><text fill="#888888" font-family="sans-serif" font-size="10" lengthAdjust="spacingAndGlyphs" textLength="190" x="2.5" y="204.3809">UMLDoclet 2.0.10, PlantUML 1.2019.08</text><!--
@startuml
    set namespaceSeparator none
    hide empty fields
    hide empty methods

    class "<size:14>WorkerDemeter\n<size:10>it.polimi.ingsw.model.workers" as it.polimi.ingsw.model.workers.WorkerDemeter [[WorkerDemeter.html]] {
        +WorkerDemeter(String, int, int)
        +canDoAgain(int, int): boolean
    }

    abstract class "<size:14>Worker\n<size:10>it.polimi.ingsw.model.workers" as it.polimi.ingsw.model.workers.Worker [[Worker.html]]

    it.polimi.ingsw.model.workers.Worker <|- - it.polimi.ingsw.model.workers.WorkerDemeter

    center footer UMLDoclet 2.0.10, PlantUML 1.2019.08
@enduml

PlantUML version 1.2019.08(Sat Jul 13 21:25:14 CEST 2019)
(APACHE source distribution)
Java Runtime: Java(TM) SE Runtime Environment
JVM: Java HotSpot(TM) 64-Bit Server VM
Java Version: 14.0.1+7
Operating System: Windows 10
OS Version: 10.0
Default Encoding: Cp1252
Language: it
Country: IT
--></g></svg>