<?xml version="1.0" encoding="UTF-8" standalone="no"?><svg xmlns="http://www.w3.org/2000/svg" xmlns:xlink="http://www.w3.org/1999/xlink" contentScriptType="application/ecmascript" contentStyleType="text/css" height="245px" preserveAspectRatio="none" style="width:205px;height:245px;" version="1.1" viewBox="0 0 205 245" width="205px" zoomAndPan="magnify"><defs><filter height="300%" id="f3xcaxda1hur1" width="300%" x="-1" y="-1"><feGaussianBlur result="blurOut" stdDeviation="2.0"/><feColorMatrix in="blurOut" result="blurOut2" type="matrix" values="0 0 0 0 0 0 0 0 0 0 0 0 0 0 0 0 0 0 .4 0"/><feOffset dx="4.0" dy="4.0" in="blurOut2" result="blurOut3"/><feBlend in="SourceGraphic" in2="blurOut3" mode="normal"/></filter></defs><g><!--class it.polimi.ingsw.model.workers.WorkerMinotaur--><a href="WorkerMinotaur.html" target="_top" xlink:actuate="onRequest" xlink:show="new" xlink:title="WorkerMinotaur.html" xlink:type="simple"><rect fill="#FEFECE" filter="url(#f3xcaxda1hur1)" height="103.5313" id="it.polimi.ingsw.model.workers.WorkerMinotaur" style="stroke: #A80036; stroke-width: 1.5;" width="172" x="6" y="108"/><ellipse cx="22.35" cy="128.0938" fill="#ADD1B2" rx="11" ry="11" style="stroke: #A80036; stroke-width: 1.0;"/><path d="M25.1156,123.9688 Q25.2719,123.75 25.4594,123.6406 Q25.6469,123.5313 25.8656,123.5313 Q26.2406,123.5313 26.475,123.7969 Q26.7094,124.0469 26.7094,124.6563 L26.7094,126.1094 Q26.7094,126.7188 26.475,126.9844 Q26.2406,127.25 25.8656,127.25 Q25.5219,127.25 25.3188,127.0469 Q25.1156,126.8594 25.0063,126.3438 Q24.9594,125.9844 24.7719,125.7969 Q24.4438,125.4219 23.8344,125.2031 Q23.225,124.9844 22.6,124.9844 Q21.8344,124.9844 21.1938,125.3125 Q20.5688,125.6406 20.0688,126.3906 Q19.5844,127.1406 19.5844,128.1719 L19.5844,129.2656 Q19.5844,130.5 20.475,131.3281 Q21.3656,132.1406 22.9594,132.1406 Q23.8969,132.1406 24.5531,131.8906 Q24.9438,131.7344 25.3656,131.2969 Q25.6313,131.0313 25.7719,130.9531 Q25.9281,130.875 26.1313,130.875 Q26.4594,130.875 26.7094,131.1406 Q26.975,131.3906 26.975,131.7344 Q26.975,132.0781 26.6313,132.4844 Q26.1313,133.0625 25.3344,133.3906 Q24.2563,133.8438 22.9594,133.8438 Q21.4438,133.8438 20.2406,133.2188 Q19.2563,132.7188 18.5688,131.6563 Q17.8813,130.5781 17.8813,129.2969 L17.8813,128.1406 Q17.8813,126.8125 18.4906,125.6719 Q19.1156,124.5156 20.2094,123.9063 Q21.3031,123.2813 22.5375,123.2813 Q23.2719,123.2813 23.9125,123.4531 Q24.5688,123.6094 25.1156,123.9688 Z "/><text fill="#000000" font-family="sans-serif" font-size="14" lengthAdjust="spacingAndGlyphs" textLength="101" x="54.65" y="127.5332">WorkerMinotaur</text><text fill="#000000" font-family="sans-serif" font-size="10" lengthAdjust="spacingAndGlyphs" textLength="137" x="36.65" y="140.9902">it.polimi.ingsw.model.workers</text><line style="stroke: #A80036; stroke-width: 1.5;" x1="7" x2="177" y1="148.1875" y2="148.1875"/><ellipse cx="17" cy="160.6055" fill="#84BE84" rx="3" ry="3" style="stroke: #038048; stroke-width: 1.0;"/><text fill="#000000" font-family="sans-serif" font-size="11" lengthAdjust="spacingAndGlyphs" textLength="146" x="26" y="163.6064">WorkerMinotaur(String, int, int)</text><ellipse cx="17" cy="174.4414" fill="#84BE84" rx="3" ry="3" style="stroke: #038048; stroke-width: 1.0;"/><text fill="#000000" font-family="sans-serif" font-size="11" lengthAdjust="spacingAndGlyphs" textLength="122" x="26" y="177.4424">canPush(int, int): boolean</text><ellipse cx="17" cy="188.2773" fill="#84BE84" rx="3" ry="3" style="stroke: #038048; stroke-width: 1.0;"/><text fill="#000000" font-family="sans-serif" font-size="11" lengthAdjust="spacingAndGlyphs" textLength="96" x="26" y="191.2783">canMove(): boolean</text><ellipse cx="17" cy="202.1133" fill="#84BE84" rx="3" ry="3" style="stroke: #038048; stroke-width: 1.0;"/><text fill="#000000" font-family="sans-serif" font-size="11" lengthAdjust="spacingAndGlyphs" textLength="135" x="26" y="205.1143">changePosition(int, int): void</text></a><!--class it.polimi.ingsw.model.workers.Worker--><a href="Worker.html" target="_top" xlink:actuate="onRequest" xlink:show="new" xlink:title="Worker.html" xlink:type="simple"><rect fill="#FEFECE" filter="url(#f3xcaxda1hur1)" height="40.1875" id="it.polimi.ingsw.model.workers.Worker" style="stroke: #A80036; stroke-width: 1.5;" width="170" x="7" y="8"/><ellipse cx="22" cy="28.0938" fill="#A9DCDF" rx="11" ry="11" style="stroke: #A80036; stroke-width: 1.0;"/><path d="M24.1875,29.8594 L20.0469,29.8594 L19.625,30.8906 L20.0469,30.8906 Q20.6563,30.8906 20.9219,31.125 Q21.1875,31.3594 21.1875,31.75 Q21.1875,32.125 20.9219,32.3594 Q20.6563,32.5938 20.0469,32.5938 L17.75,32.5938 Q17.1406,32.5938 16.8906,32.3594 Q16.625,32.125 16.625,31.7344 Q16.625,31.3594 16.9063,31.125 Q17.1719,30.875 17.7969,30.8906 L20.4688,24.2344 L19.3594,24.2344 Q18.75,24.2344 18.4844,24 Q18.2188,23.7656 18.2188,23.375 Q18.2188,23 18.4844,22.7656 Q18.75,22.5313 19.3594,22.5313 L23.0313,22.5313 L26.4219,30.8906 Q27.0156,30.8906 27.2031,31.0313 Q27.5938,31.2969 27.5938,31.75 Q27.5938,32.125 27.3281,32.3594 Q27.0781,32.5938 26.4688,32.5938 L24.1719,32.5938 Q23.5625,32.5938 23.2969,32.3594 Q23.0313,32.125 23.0313,31.7344 Q23.0313,31.3594 23.2969,31.125 Q23.5625,30.8906 24.1719,30.8906 L24.5938,30.8906 L24.1875,29.8594 Z M23.4688,28.1563 L22.1094,24.7813 L20.7344,28.1563 L23.4688,28.1563 Z "/><text fill="#000000" font-family="sans-serif" font-size="14" font-style="italic" lengthAdjust="spacingAndGlyphs" textLength="48" x="81" y="27.5332">Worker</text><text fill="#000000" font-family="sans-serif" font-size="10" font-style="italic" lengthAdjust="spacingAndGlyphs" textLength="138" x="36" y="40.9902">it.polimi.ingsw.model.workers</text></a><!--link it.polimi.ingsw.model.workers.Worker to it.polimi.ingsw.model.workers.WorkerMinotaur--><path d="M92,68.489 C92,80.934 92,94.862 92,107.991 " fill="none" id="it.polimi.ingsw.model.workers.Worker-it.polimi.ingsw.model.workers.WorkerMinotaur" style="stroke: #A80036; stroke-width: 1.0;"/><polygon fill="none" points="85.0001,68.182,92,48.182,99.0001,68.182,85.0001,68.182" style="stroke: #A80036; stroke-width: 1.0;"/><text fill="#888888" font-family="sans-serif" font-size="10" lengthAdjust="spacingAndGlyphs" textLength="190" x="3" y="232.3809">UMLDoclet 2.0.10, PlantUML 1.2019.08</text><!--
@startuml
    set namespaceSeparator none
    hide empty fields
    hide empty methods

    class "<size:14>WorkerMinotaur\n<size:10>it.polimi.ingsw.model.workers" as it.polimi.ingsw.model.workers.WorkerMinotaur [[WorkerMinotaur.html]] {
        +WorkerMinotaur(String, int, int)
        +canPush(int, int): boolean
        +canMove(): boolean
        +changePosition(int, int): void
    }

    abstract class "<size:14>Worker\n<size:10>it.polimi.ingsw.model.workers" as it.polimi.ingsw.model.workers.Worker [[Worker.html]]

    it.polimi.ingsw.model.workers.Worker <|- - it.polimi.ingsw.model.workers.WorkerMinotaur

    center footer UMLDoclet 2.0.10, PlantUML 1.2019.08
@enduml

PlantUML version 1.2019.08(Sat Jul 13 21:25:14 CEST 2019)
(APACHE source distribution)
Java Runtime: Java(TM) SE Runtime Environment
JVM: Java HotSpot(TM) 64-Bit Server VM
Java Version: 14.0.1+7
Operating System: Windows 10
OS Version: 10.0
Default Encoding: Cp1252
Language: it
Country: IT
--></g></svg>