<?xml version="1.0" encoding="UTF-8" standalone="no"?><svg xmlns="http://www.w3.org/2000/svg" xmlns:xlink="http://www.w3.org/1999/xlink" contentScriptType="application/ecmascript" contentStyleType="text/css" height="397px" preserveAspectRatio="none" style="width:204px;height:397px;" version="1.1" viewBox="0 0 204 397" width="204px" zoomAndPan="magnify"><defs><filter height="300%" id="f7d9443b9jyfg" width="300%" x="-1" y="-1"><feGaussianBlur result="blurOut" stdDeviation="2.0"/><feColorMatrix in="blurOut" result="blurOut2" type="matrix" values="0 0 0 0 0 0 0 0 0 0 0 0 0 0 0 0 0 0 .4 0"/><feOffset dx="4.0" dy="4.0" in="blurOut2" result="blurOut3"/><feBlend in="SourceGraphic" in2="blurOut3" mode="normal"/></filter></defs><g><!--class it.polimi.ingsw.model.workers.Worker--><a href="Worker.html" target="_top" xlink:actuate="onRequest" xlink:show="new" xlink:title="Worker.html" xlink:type="simple"><rect fill="#FEFECE" filter="url(#f7d9443b9jyfg)" height="255.7266" id="it.polimi.ingsw.model.workers.Worker" style="stroke: #A80036; stroke-width: 1.5;" width="170" x="6" y="108"/><ellipse cx="21" cy="128.0938" fill="#A9DCDF" rx="11" ry="11" style="stroke: #A80036; stroke-width: 1.0;"/><path d="M23.1875,129.8594 L19.0469,129.8594 L18.625,130.8906 L19.0469,130.8906 Q19.6563,130.8906 19.9219,131.125 Q20.1875,131.3594 20.1875,131.75 Q20.1875,132.125 19.9219,132.3594 Q19.6563,132.5938 19.0469,132.5938 L16.75,132.5938 Q16.1406,132.5938 15.8906,132.3594 Q15.625,132.125 15.625,131.7344 Q15.625,131.3594 15.9063,131.125 Q16.1719,130.875 16.7969,130.8906 L19.4688,124.2344 L18.3594,124.2344 Q17.75,124.2344 17.4844,124 Q17.2188,123.7656 17.2188,123.375 Q17.2188,123 17.4844,122.7656 Q17.75,122.5313 18.3594,122.5313 L22.0313,122.5313 L25.4219,130.8906 Q26.0156,130.8906 26.2031,131.0313 Q26.5938,131.2969 26.5938,131.75 Q26.5938,132.125 26.3281,132.3594 Q26.0781,132.5938 25.4688,132.5938 L23.1719,132.5938 Q22.5625,132.5938 22.2969,132.3594 Q22.0313,132.125 22.0313,131.7344 Q22.0313,131.3594 22.2969,131.125 Q22.5625,130.8906 23.1719,130.8906 L23.5938,130.8906 L23.1875,129.8594 Z M22.4688,128.1563 L21.1094,124.7813 L19.7344,128.1563 L22.4688,128.1563 Z "/><text fill="#000000" font-family="sans-serif" font-size="14" font-style="italic" lengthAdjust="spacingAndGlyphs" textLength="48" x="80" y="127.5332">Worker</text><text fill="#000000" font-family="sans-serif" font-size="10" font-style="italic" lengthAdjust="spacingAndGlyphs" textLength="138" x="35" y="140.9902">it.polimi.ingsw.model.workers</text><line style="stroke: #A80036; stroke-width: 1.5;" x1="7" x2="175" y1="148.1875" y2="148.1875"/><ellipse cx="17" cy="160.6055" fill="#84BE84" rx="3" ry="3" style="stroke: #038048; stroke-width: 1.0;"/><text fill="#000000" font-family="sans-serif" font-size="11" lengthAdjust="spacingAndGlyphs" textLength="105" x="26" y="163.6064">Worker(String, int, int)</text><ellipse cx="17" cy="174.4414" fill="#84BE84" rx="3" ry="3" style="stroke: #038048; stroke-width: 1.0;"/><text fill="#000000" font-family="sans-serif" font-size="11" lengthAdjust="spacingAndGlyphs" textLength="96" x="26" y="177.4424">canMove(): boolean</text><ellipse cx="17" cy="188.2773" fill="#84BE84" rx="3" ry="3" style="stroke: #038048; stroke-width: 1.0;"/><text fill="#000000" font-family="sans-serif" font-size="11" lengthAdjust="spacingAndGlyphs" textLength="93" x="26" y="191.2783">canBuild(): boolean</text><ellipse cx="17" cy="202.1133" fill="#84BE84" rx="3" ry="3" style="stroke: #038048; stroke-width: 1.0;"/><text fill="#000000" font-family="sans-serif" font-size="11" lengthAdjust="spacingAndGlyphs" textLength="135" x="26" y="205.1143">changePosition(int, int): void</text><ellipse cx="17" cy="215.9492" fill="#84BE84" rx="3" ry="3" style="stroke: #038048; stroke-width: 1.0;"/><text fill="#000000" font-family="sans-serif" font-size="11" lengthAdjust="spacingAndGlyphs" textLength="139" x="26" y="218.9502">canDoAgain(int, int): boolean</text><ellipse cx="17" cy="229.7852" fill="#84BE84" rx="3" ry="3" style="stroke: #038048; stroke-width: 1.0;"/><text fill="#000000" font-family="sans-serif" font-size="11" lengthAdjust="spacingAndGlyphs" textLength="122" x="26" y="232.7861">canPush(int, int): boolean</text><ellipse cx="17" cy="243.6211" fill="#84BE84" rx="3" ry="3" style="stroke: #038048; stroke-width: 1.0;"/><text fill="#000000" font-family="sans-serif" font-size="11" lengthAdjust="spacingAndGlyphs" textLength="110" x="26" y="246.6221">buildBlock(int, int): void</text><ellipse cx="17" cy="257.457" fill="#84BE84" rx="3" ry="3" style="stroke: #038048; stroke-width: 1.0;"/><text fill="#000000" font-family="sans-serif" font-size="11" lengthAdjust="spacingAndGlyphs" textLength="119" x="26" y="260.458">specialBuild(int, int): void</text><ellipse cx="17" cy="271.293" fill="#84BE84" rx="3" ry="3" style="stroke: #038048; stroke-width: 1.0;"/><text fill="#000000" font-family="sans-serif" font-size="11" lengthAdjust="spacingAndGlyphs" textLength="100" x="26" y="274.2939">getIdWorker(): String</text><ellipse cx="17" cy="285.1289" fill="#84BE84" rx="3" ry="3" style="stroke: #038048; stroke-width: 1.0;"/><text fill="#000000" font-family="sans-serif" font-size="11" lengthAdjust="spacingAndGlyphs" textLength="76" x="26" y="288.1299">getCoordX(): int</text><ellipse cx="17" cy="298.9648" fill="#84BE84" rx="3" ry="3" style="stroke: #038048; stroke-width: 1.0;"/><text fill="#000000" font-family="sans-serif" font-size="11" lengthAdjust="spacingAndGlyphs" textLength="96" x="26" y="301.9658">setCoordX(int): void</text><ellipse cx="17" cy="312.8008" fill="#84BE84" rx="3" ry="3" style="stroke: #038048; stroke-width: 1.0;"/><text fill="#000000" font-family="sans-serif" font-size="11" lengthAdjust="spacingAndGlyphs" textLength="77" x="26" y="315.8018">getCoordY(): int</text><ellipse cx="17" cy="326.6367" fill="#84BE84" rx="3" ry="3" style="stroke: #038048; stroke-width: 1.0;"/><text fill="#000000" font-family="sans-serif" font-size="11" lengthAdjust="spacingAndGlyphs" textLength="97" x="26" y="329.6377">setCoordY(int): void</text><ellipse cx="17" cy="340.4727" fill="#84BE84" rx="3" ry="3" style="stroke: #038048; stroke-width: 1.0;"/><text fill="#000000" font-family="sans-serif" font-size="11" lengthAdjust="spacingAndGlyphs" textLength="76" x="26" y="343.4736">getCoordZ(): int</text><ellipse cx="17" cy="354.3086" fill="#84BE84" rx="3" ry="3" style="stroke: #038048; stroke-width: 1.0;"/><text fill="#000000" font-family="sans-serif" font-size="11" lengthAdjust="spacingAndGlyphs" textLength="96" x="26" y="357.3096">setCoordZ(int): void</text></a><!--class java.io.Serializable--><rect fill="#FEFECE" filter="url(#f7d9443b9jyfg)" height="40.1875" id="java.io.Serializable" style="stroke: #A80036; stroke-width: 1.5;" width="105" x="38.5" y="8"/><ellipse cx="53.5" cy="28.0938" fill="#B4A7E5" rx="11" ry="11" style="stroke: #A80036; stroke-width: 1.0;"/><path d="M54.4531,24.7344 L54.4531,31.3906 L56.1719,31.3906 Q56.7813,31.3906 57.0469,31.625 Q57.3125,31.8594 57.3125,32.25 Q57.3125,32.625 57.0469,32.8594 Q56.7813,33.0938 56.1719,33.0938 L51.0313,33.0938 Q50.4219,33.0938 50.1563,32.8594 Q49.8906,32.625 49.8906,32.2344 Q49.8906,31.8594 50.1563,31.625 Q50.4219,31.3906 51.0313,31.3906 L52.75,31.3906 L52.75,24.7344 L51.0313,24.7344 Q50.4219,24.7344 50.1563,24.5 Q49.8906,24.2656 49.8906,23.875 Q49.8906,23.5 50.1563,23.2656 Q50.4219,23.0313 51.0313,23.0313 L56.1719,23.0313 Q56.7813,23.0313 57.0469,23.2656 Q57.3125,23.5 57.3125,23.875 Q57.3125,24.2656 57.0469,24.5 Q56.7813,24.7344 56.1719,24.7344 L54.4531,24.7344 Z "/><text fill="#000000" font-family="sans-serif" font-size="14" font-style="italic" lengthAdjust="spacingAndGlyphs" textLength="73" x="67.5" y="27.5332">Serializable</text><text fill="#000000" font-family="sans-serif" font-size="10" font-style="italic" lengthAdjust="spacingAndGlyphs" textLength="31" x="88.5" y="40.9902">java.io</text><!--link java.io.Serializable to it.polimi.ingsw.model.workers.Worker--><path d="M91,68.065 C91,79.836 91,93.451 91,107.725 " fill="none" id="java.io.Serializable-it.polimi.ingsw.model.workers.Worker" style="stroke: #A80036; stroke-width: 1.0; stroke-dasharray: 7.0,7.0;"/><polygon fill="none" points="84.0001,68.011,91,48.011,98.0001,68.011,84.0001,68.011" style="stroke: #A80036; stroke-width: 1.0;"/><text fill="#888888" font-family="sans-serif" font-size="10" lengthAdjust="spacingAndGlyphs" textLength="190" x="2" y="384.3809">UMLDoclet 2.0.10, PlantUML 1.2019.08</text><!--
@startuml
    set namespaceSeparator none
    hide empty fields
    hide empty methods

    abstract class "<size:14>Worker\n<size:10>it.polimi.ingsw.model.workers" as it.polimi.ingsw.model.workers.Worker [[Worker.html]] {
        +Worker(String, int, int)
        +canMove(): boolean
        +canBuild(): boolean
        +changePosition(int, int): void
        +canDoAgain(int, int): boolean
        +canPush(int, int): boolean
        +buildBlock(int, int): void
        +specialBuild(int, int): void
        +getIdWorker(): String
        +getCoordX(): int
        +setCoordX(int): void
        +getCoordY(): int
        +setCoordY(int): void
        +getCoordZ(): int
        +setCoordZ(int): void
    }

    interface "<size:14>Serializable\n<size:10>java.io" as java.io.Serializable

    java.io.Serializable <|.. it.polimi.ingsw.model.workers.Worker

    center footer UMLDoclet 2.0.10, PlantUML 1.2019.08
@enduml

PlantUML version 1.2019.08(Sat Jul 13 21:25:14 CEST 2019)
(APACHE source distribution)
Java Runtime: Java(TM) SE Runtime Environment
JVM: Java HotSpot(TM) 64-Bit Server VM
Java Version: 14.0.1+7
Operating System: Windows 10
OS Version: 10.0
Default Encoding: Cp1252
Language: it
Country: IT
--></g></svg>