<?xml version="1.0" encoding="UTF-8" standalone="no"?><svg xmlns="http://www.w3.org/2000/svg" xmlns:xlink="http://www.w3.org/1999/xlink" contentScriptType="application/ecmascript" contentStyleType="text/css" height="217px" preserveAspectRatio="none" style="width:213px;height:217px;" version="1.1" viewBox="0 0 213 217" width="213px" zoomAndPan="magnify"><defs><filter height="300%" id="f14s5momde229r" width="300%" x="-1" y="-1"><feGaussianBlur result="blurOut" stdDeviation="2.0"/><feColorMatrix in="blurOut" result="blurOut2" type="matrix" values="0 0 0 0 0 0 0 0 0 0 0 0 0 0 0 0 0 0 .4 0"/><feOffset dx="4.0" dy="4.0" in="blurOut2" result="blurOut3"/><feBlend in="SourceGraphic" in2="blurOut3" mode="normal"/></filter></defs><g><!--class it.polimi.ingsw.model.workers.WorkerPrometheus--><a href="WorkerPrometheus.html" target="_top" xlink:actuate="onRequest" xlink:show="new" xlink:title="WorkerPrometheus.html" xlink:type="simple"><rect fill="#FEFECE" filter="url(#f14s5momde229r)" height="75.8594" id="it.polimi.ingsw.model.workers.WorkerPrometheus" style="stroke: #A80036; stroke-width: 1.5;" width="188" x="6" y="108"/><ellipse cx="29.55" cy="128.0938" fill="#ADD1B2" rx="11" ry="11" style="stroke: #A80036; stroke-width: 1.0;"/><path d="M32.3156,123.9688 Q32.4719,123.75 32.6594,123.6406 Q32.8469,123.5313 33.0656,123.5313 Q33.4406,123.5313 33.675,123.7969 Q33.9094,124.0469 33.9094,124.6563 L33.9094,126.1094 Q33.9094,126.7188 33.675,126.9844 Q33.4406,127.25 33.0656,127.25 Q32.7219,127.25 32.5188,127.0469 Q32.3156,126.8594 32.2063,126.3438 Q32.1594,125.9844 31.9719,125.7969 Q31.6438,125.4219 31.0344,125.2031 Q30.425,124.9844 29.8,124.9844 Q29.0344,124.9844 28.3938,125.3125 Q27.7688,125.6406 27.2688,126.3906 Q26.7844,127.1406 26.7844,128.1719 L26.7844,129.2656 Q26.7844,130.5 27.675,131.3281 Q28.5656,132.1406 30.1594,132.1406 Q31.0969,132.1406 31.7531,131.8906 Q32.1438,131.7344 32.5656,131.2969 Q32.8313,131.0313 32.9719,130.9531 Q33.1281,130.875 33.3313,130.875 Q33.6594,130.875 33.9094,131.1406 Q34.175,131.3906 34.175,131.7344 Q34.175,132.0781 33.8313,132.4844 Q33.3313,133.0625 32.5344,133.3906 Q31.4563,133.8438 30.1594,133.8438 Q28.6438,133.8438 27.4406,133.2188 Q26.4563,132.7188 25.7688,131.6563 Q25.0813,130.5781 25.0813,129.2969 L25.0813,128.1406 Q25.0813,126.8125 25.6906,125.6719 Q26.3156,124.5156 27.4094,123.9063 Q28.5031,123.2813 29.7375,123.2813 Q30.4719,123.2813 31.1125,123.4531 Q31.7688,123.6094 32.3156,123.9688 Z "/><text fill="#000000" font-family="sans-serif" font-size="14" lengthAdjust="spacingAndGlyphs" textLength="122" x="52.95" y="127.5332">WorkerPrometheus</text><text fill="#000000" font-family="sans-serif" font-size="10" lengthAdjust="spacingAndGlyphs" textLength="137" x="45.45" y="140.9902">it.polimi.ingsw.model.workers</text><line style="stroke: #A80036; stroke-width: 1.5;" x1="7" x2="193" y1="148.1875" y2="148.1875"/><ellipse cx="17" cy="160.6055" fill="#84BE84" rx="3" ry="3" style="stroke: #038048; stroke-width: 1.0;"/><text fill="#000000" font-family="sans-serif" font-size="11" lengthAdjust="spacingAndGlyphs" textLength="162" x="26" y="163.6064">WorkerPrometheus(String, int, int)</text><ellipse cx="17" cy="174.4414" fill="#84BE84" rx="3" ry="3" style="stroke: #038048; stroke-width: 1.0;"/><text fill="#000000" font-family="sans-serif" font-size="11" lengthAdjust="spacingAndGlyphs" textLength="96" x="26" y="177.4424">canMove(): boolean</text></a><!--class it.polimi.ingsw.model.workers.Worker--><a href="Worker.html" target="_top" xlink:actuate="onRequest" xlink:show="new" xlink:title="Worker.html" xlink:type="simple"><rect fill="#FEFECE" filter="url(#f14s5momde229r)" height="40.1875" id="it.polimi.ingsw.model.workers.Worker" style="stroke: #A80036; stroke-width: 1.5;" width="170" x="15" y="8"/><ellipse cx="30" cy="28.0938" fill="#A9DCDF" rx="11" ry="11" style="stroke: #A80036; stroke-width: 1.0;"/><path d="M32.1875,29.8594 L28.0469,29.8594 L27.625,30.8906 L28.0469,30.8906 Q28.6563,30.8906 28.9219,31.125 Q29.1875,31.3594 29.1875,31.75 Q29.1875,32.125 28.9219,32.3594 Q28.6563,32.5938 28.0469,32.5938 L25.75,32.5938 Q25.1406,32.5938 24.8906,32.3594 Q24.625,32.125 24.625,31.7344 Q24.625,31.3594 24.9063,31.125 Q25.1719,30.875 25.7969,30.8906 L28.4688,24.2344 L27.3594,24.2344 Q26.75,24.2344 26.4844,24 Q26.2188,23.7656 26.2188,23.375 Q26.2188,23 26.4844,22.7656 Q26.75,22.5313 27.3594,22.5313 L31.0313,22.5313 L34.4219,30.8906 Q35.0156,30.8906 35.2031,31.0313 Q35.5938,31.2969 35.5938,31.75 Q35.5938,32.125 35.3281,32.3594 Q35.0781,32.5938 34.4688,32.5938 L32.1719,32.5938 Q31.5625,32.5938 31.2969,32.3594 Q31.0313,32.125 31.0313,31.7344 Q31.0313,31.3594 31.2969,31.125 Q31.5625,30.8906 32.1719,30.8906 L32.5938,30.8906 L32.1875,29.8594 Z M31.4688,28.1563 L30.1094,24.7813 L28.7344,28.1563 L31.4688,28.1563 Z "/><text fill="#000000" font-family="sans-serif" font-size="14" font-style="italic" lengthAdjust="spacingAndGlyphs" textLength="48" x="89" y="27.5332">Worker</text><text fill="#000000" font-family="sans-serif" font-size="10" font-style="italic" lengthAdjust="spacingAndGlyphs" textLength="138" x="44" y="40.9902">it.polimi.ingsw.model.workers</text></a><!--link it.polimi.ingsw.model.workers.Worker to it.polimi.ingsw.model.workers.WorkerPrometheus--><path d="M100,68.491 C100,81.272 100,95.3932 100,107.9879 " fill="none" id="it.polimi.ingsw.model.workers.Worker-it.polimi.ingsw.model.workers.WorkerPrometheus" style="stroke: #A80036; stroke-width: 1.0;"/><polygon fill="none" points="93.0001,68.155,100,48.155,107,68.155,93.0001,68.155" style="stroke: #A80036; stroke-width: 1.0;"/><text fill="#888888" font-family="sans-serif" font-size="10" lengthAdjust="spacingAndGlyphs" textLength="190" x="11" y="204.3809">UMLDoclet 2.0.10, PlantUML 1.2019.08</text><!--
@startuml
    set namespaceSeparator none
    hide empty fields
    hide empty methods

    class "<size:14>WorkerPrometheus\n<size:10>it.polimi.ingsw.model.workers" as it.polimi.ingsw.model.workers.WorkerPrometheus [[WorkerPrometheus.html]] {
        +WorkerPrometheus(String, int, int)
        +canMove(): boolean
    }

    abstract class "<size:14>Worker\n<size:10>it.polimi.ingsw.model.workers" as it.polimi.ingsw.model.workers.Worker [[Worker.html]]

    it.polimi.ingsw.model.workers.Worker <|- - it.polimi.ingsw.model.workers.WorkerPrometheus

    center footer UMLDoclet 2.0.10, PlantUML 1.2019.08
@enduml

PlantUML version 1.2019.08(Sat Jul 13 21:25:14 CEST 2019)
(APACHE source distribution)
Java Runtime: Java(TM) SE Runtime Environment
JVM: Java HotSpot(TM) 64-Bit Server VM
Java Version: 14.0.1+7
Operating System: Windows 10
OS Version: 10.0
Default Encoding: Cp1252
Language: it
Country: IT
--></g></svg>