<?xml version="1.0" encoding="UTF-8" standalone="no"?><svg xmlns="http://www.w3.org/2000/svg" xmlns:xlink="http://www.w3.org/1999/xlink" contentScriptType="application/ecmascript" contentStyleType="text/css" height="231px" preserveAspectRatio="none" style="width:213px;height:231px;" version="1.1" viewBox="0 0 213 231" width="213px" zoomAndPan="magnify"><defs><filter height="300%" id="f1nixux85ncb8c" width="300%" x="-1" y="-1"><feGaussianBlur result="blurOut" stdDeviation="2.0"/><feColorMatrix in="blurOut" result="blurOut2" type="matrix" values="0 0 0 0 0 0 0 0 0 0 0 0 0 0 0 0 0 0 .4 0"/><feOffset dx="4.0" dy="4.0" in="blurOut2" result="blurOut3"/><feBlend in="SourceGraphic" in2="blurOut3" mode="normal"/></filter></defs><g><!--class it.polimi.ingsw.model.workers.WorkerHephaestus--><a href="WorkerHephaestus.html" target="_top" xlink:actuate="onRequest" xlink:show="new" xlink:title="WorkerHephaestus.html" xlink:type="simple"><rect fill="#FEFECE" filter="url(#f1nixux85ncb8c)" height="89.6953" id="it.polimi.ingsw.model.workers.WorkerHephaestus" style="stroke: #A80036; stroke-width: 1.5;" width="189" x="6" y="108"/><ellipse cx="30" cy="128.0938" fill="#ADD1B2" rx="11" ry="11" style="stroke: #A80036; stroke-width: 1.0;"/><path d="M32.7656,123.9688 Q32.9219,123.75 33.1094,123.6406 Q33.2969,123.5313 33.5156,123.5313 Q33.8906,123.5313 34.125,123.7969 Q34.3594,124.0469 34.3594,124.6563 L34.3594,126.1094 Q34.3594,126.7188 34.125,126.9844 Q33.8906,127.25 33.5156,127.25 Q33.1719,127.25 32.9688,127.0469 Q32.7656,126.8594 32.6563,126.3438 Q32.6094,125.9844 32.4219,125.7969 Q32.0938,125.4219 31.4844,125.2031 Q30.875,124.9844 30.25,124.9844 Q29.4844,124.9844 28.8438,125.3125 Q28.2188,125.6406 27.7188,126.3906 Q27.2344,127.1406 27.2344,128.1719 L27.2344,129.2656 Q27.2344,130.5 28.125,131.3281 Q29.0156,132.1406 30.6094,132.1406 Q31.5469,132.1406 32.2031,131.8906 Q32.5938,131.7344 33.0156,131.2969 Q33.2813,131.0313 33.4219,130.9531 Q33.5781,130.875 33.7813,130.875 Q34.1094,130.875 34.3594,131.1406 Q34.625,131.3906 34.625,131.7344 Q34.625,132.0781 34.2813,132.4844 Q33.7813,133.0625 32.9844,133.3906 Q31.9063,133.8438 30.6094,133.8438 Q29.0938,133.8438 27.8906,133.2188 Q26.9063,132.7188 26.2188,131.6563 Q25.5313,130.5781 25.5313,129.2969 L25.5313,128.1406 Q25.5313,126.8125 26.1406,125.6719 Q26.7656,124.5156 27.8594,123.9063 Q28.9531,123.2813 30.1875,123.2813 Q30.9219,123.2813 31.5625,123.4531 Q32.2188,123.6094 32.7656,123.9688 Z "/><text fill="#000000" font-family="sans-serif" font-size="14" lengthAdjust="spacingAndGlyphs" textLength="121" x="54" y="127.5332">WorkerHephaestus</text><text fill="#000000" font-family="sans-serif" font-size="10" lengthAdjust="spacingAndGlyphs" textLength="137" x="46" y="140.9902">it.polimi.ingsw.model.workers</text><line style="stroke: #A80036; stroke-width: 1.5;" x1="7" x2="194" y1="148.1875" y2="148.1875"/><ellipse cx="17" cy="160.6055" fill="#84BE84" rx="3" ry="3" style="stroke: #038048; stroke-width: 1.0;"/><text fill="#000000" font-family="sans-serif" font-size="11" lengthAdjust="spacingAndGlyphs" textLength="163" x="26" y="163.6064">WorkerHephaestus(String, int, int)</text><ellipse cx="17" cy="174.4414" fill="#84BE84" rx="3" ry="3" style="stroke: #038048; stroke-width: 1.0;"/><text fill="#000000" font-family="sans-serif" font-size="11" lengthAdjust="spacingAndGlyphs" textLength="93" x="26" y="177.4424">canBuild(): boolean</text><ellipse cx="17" cy="188.2773" fill="#84BE84" rx="3" ry="3" style="stroke: #038048; stroke-width: 1.0;"/><text fill="#000000" font-family="sans-serif" font-size="11" lengthAdjust="spacingAndGlyphs" textLength="119" x="26" y="191.2783">specialBuild(int, int): void</text></a><!--class it.polimi.ingsw.model.workers.Worker--><a href="Worker.html" target="_top" xlink:actuate="onRequest" xlink:show="new" xlink:title="Worker.html" xlink:type="simple"><rect fill="#FEFECE" filter="url(#f1nixux85ncb8c)" height="40.1875" id="it.polimi.ingsw.model.workers.Worker" style="stroke: #A80036; stroke-width: 1.5;" width="170" x="15.5" y="8"/><ellipse cx="30.5" cy="28.0938" fill="#A9DCDF" rx="11" ry="11" style="stroke: #A80036; stroke-width: 1.0;"/><path d="M32.6875,29.8594 L28.5469,29.8594 L28.125,30.8906 L28.5469,30.8906 Q29.1563,30.8906 29.4219,31.125 Q29.6875,31.3594 29.6875,31.75 Q29.6875,32.125 29.4219,32.3594 Q29.1563,32.5938 28.5469,32.5938 L26.25,32.5938 Q25.6406,32.5938 25.3906,32.3594 Q25.125,32.125 25.125,31.7344 Q25.125,31.3594 25.4063,31.125 Q25.6719,30.875 26.2969,30.8906 L28.9688,24.2344 L27.8594,24.2344 Q27.25,24.2344 26.9844,24 Q26.7188,23.7656 26.7188,23.375 Q26.7188,23 26.9844,22.7656 Q27.25,22.5313 27.8594,22.5313 L31.5313,22.5313 L34.9219,30.8906 Q35.5156,30.8906 35.7031,31.0313 Q36.0938,31.2969 36.0938,31.75 Q36.0938,32.125 35.8281,32.3594 Q35.5781,32.5938 34.9688,32.5938 L32.6719,32.5938 Q32.0625,32.5938 31.7969,32.3594 Q31.5313,32.125 31.5313,31.7344 Q31.5313,31.3594 31.7969,31.125 Q32.0625,30.8906 32.6719,30.8906 L33.0938,30.8906 L32.6875,29.8594 Z M31.9688,28.1563 L30.6094,24.7813 L29.2344,28.1563 L31.9688,28.1563 Z "/><text fill="#000000" font-family="sans-serif" font-size="14" font-style="italic" lengthAdjust="spacingAndGlyphs" textLength="48" x="89.5" y="27.5332">Worker</text><text fill="#000000" font-family="sans-serif" font-size="10" font-style="italic" lengthAdjust="spacingAndGlyphs" textLength="138" x="44.5" y="40.9902">it.polimi.ingsw.model.workers</text></a><!--link it.polimi.ingsw.model.workers.Worker to it.polimi.ingsw.model.workers.WorkerHephaestus--><path d="M100.5,68.254 C100.5,80.893 100.5,94.98 100.5,107.9416 " fill="none" id="it.polimi.ingsw.model.workers.Worker-it.polimi.ingsw.model.workers.WorkerHephaestus" style="stroke: #A80036; stroke-width: 1.0;"/><polygon fill="none" points="93.5001,68.219,100.5,48.219,107.5,68.219,93.5001,68.219" style="stroke: #A80036; stroke-width: 1.0;"/><text fill="#888888" font-family="sans-serif" font-size="10" lengthAdjust="spacingAndGlyphs" textLength="190" x="11.5" y="218.3809">UMLDoclet 2.0.10, PlantUML 1.2019.08</text><!--
@startuml
    set namespaceSeparator none
    hide empty fields
    hide empty methods

    class "<size:14>WorkerHephaestus\n<size:10>it.polimi.ingsw.model.workers" as it.polimi.ingsw.model.workers.WorkerHephaestus [[WorkerHephaestus.html]] {
        +WorkerHephaestus(String, int, int)
        +canBuild(): boolean
        +specialBuild(int, int): void
    }

    abstract class "<size:14>Worker\n<size:10>it.polimi.ingsw.model.workers" as it.polimi.ingsw.model.workers.Worker [[Worker.html]]

    it.polimi.ingsw.model.workers.Worker <|- - it.polimi.ingsw.model.workers.WorkerHephaestus

    center footer UMLDoclet 2.0.10, PlantUML 1.2019.08
@enduml

PlantUML version 1.2019.08(Sat Jul 13 21:25:14 CEST 2019)
(APACHE source distribution)
Java Runtime: Java(TM) SE Runtime Environment
JVM: Java HotSpot(TM) 64-Bit Server VM
Java Version: 14.0.1+7
Operating System: Windows 10
OS Version: 10.0
Default Encoding: Cp1252
Language: it
Country: IT
--></g></svg>