<?xml version="1.0" encoding="UTF-8" standalone="no"?><svg xmlns="http://www.w3.org/2000/svg" xmlns:xlink="http://www.w3.org/1999/xlink" contentScriptType="application/ecmascript" contentStyleType="text/css" height="217px" preserveAspectRatio="none" style="width:219px;height:217px;" version="1.1" viewBox="0 0 219 217" width="219px" zoomAndPan="magnify"><defs><filter height="300%" id="fcsy4welwa5wn" width="300%" x="-1" y="-1"><feGaussianBlur result="blurOut" stdDeviation="2.0"/><feColorMatrix in="blurOut" result="blurOut2" type="matrix" values="0 0 0 0 0 0 0 0 0 0 0 0 0 0 0 0 0 0 .4 0"/><feOffset dx="4.0" dy="4.0" in="blurOut2" result="blurOut3"/><feBlend in="SourceGraphic" in2="blurOut3" mode="normal"/></filter></defs><g><!--class it.polimi.ingsw.network.message.Message_QuestionArtemis--><a href="Message_QuestionArtemis.html" target="_top" xlink:actuate="onRequest" xlink:show="new" xlink:title="Message_QuestionArtemis.html" xlink:type="simple"><rect fill="#FEFECE" filter="url(#fcsy4welwa5wn)" height="75.8594" id="it.polimi.ingsw.network.message.Message_QuestionArtemis" style="stroke: #A80036; stroke-width: 1.5;" width="201" x="6" y="108"/><ellipse cx="21" cy="128.0938" fill="#ADD1B2" rx="11" ry="11" style="stroke: #A80036; stroke-width: 1.0;"/><path d="M23.7656,123.9688 Q23.9219,123.75 24.1094,123.6406 Q24.2969,123.5313 24.5156,123.5313 Q24.8906,123.5313 25.125,123.7969 Q25.3594,124.0469 25.3594,124.6563 L25.3594,126.1094 Q25.3594,126.7188 25.125,126.9844 Q24.8906,127.25 24.5156,127.25 Q24.1719,127.25 23.9688,127.0469 Q23.7656,126.8594 23.6563,126.3438 Q23.6094,125.9844 23.4219,125.7969 Q23.0938,125.4219 22.4844,125.2031 Q21.875,124.9844 21.25,124.9844 Q20.4844,124.9844 19.8438,125.3125 Q19.2188,125.6406 18.7188,126.3906 Q18.2344,127.1406 18.2344,128.1719 L18.2344,129.2656 Q18.2344,130.5 19.125,131.3281 Q20.0156,132.1406 21.6094,132.1406 Q22.5469,132.1406 23.2031,131.8906 Q23.5938,131.7344 24.0156,131.2969 Q24.2813,131.0313 24.4219,130.9531 Q24.5781,130.875 24.7813,130.875 Q25.1094,130.875 25.3594,131.1406 Q25.625,131.3906 25.625,131.7344 Q25.625,132.0781 25.2813,132.4844 Q24.7813,133.0625 23.9844,133.3906 Q22.9063,133.8438 21.6094,133.8438 Q20.0938,133.8438 18.8906,133.2188 Q17.9063,132.7188 17.2188,131.6563 Q16.5313,130.5781 16.5313,129.2969 L16.5313,128.1406 Q16.5313,126.8125 17.1406,125.6719 Q17.7656,124.5156 18.8594,123.9063 Q19.9531,123.2813 21.1875,123.2813 Q21.9219,123.2813 22.5625,123.4531 Q23.2188,123.6094 23.7656,123.9688 Z "/><text fill="#000000" font-family="sans-serif" font-size="14" lengthAdjust="spacingAndGlyphs" textLength="169" x="35" y="127.5332">Message_QuestionArtemis</text><text fill="#000000" font-family="sans-serif" font-size="10" lengthAdjust="spacingAndGlyphs" textLength="150" x="44.5" y="140.9902">it.polimi.ingsw.network.message</text><line style="stroke: #A80036; stroke-width: 1.5;" x1="7" x2="206" y1="148.1875" y2="148.1875"/><ellipse cx="17" cy="160.6055" fill="#84BE84" rx="3" ry="3" style="stroke: #038048; stroke-width: 1.0;"/><text fill="#000000" font-family="sans-serif" font-size="11" lengthAdjust="spacingAndGlyphs" textLength="135" x="26" y="163.6064">getGameState(): GameState</text><ellipse cx="17" cy="174.4414" fill="#84BE84" rx="3" ry="3" style="stroke: #038048; stroke-width: 1.0;"/><text fill="#000000" font-family="sans-serif" font-size="11" lengthAdjust="spacingAndGlyphs" textLength="101" x="26" y="177.4424">getMessage(): String</text></a><!--class it.polimi.ingsw.network.message.Message--><a href="Message.html" target="_top" xlink:actuate="onRequest" xlink:show="new" xlink:title="Message.html" xlink:type="simple"><rect fill="#FEFECE" filter="url(#fcsy4welwa5wn)" height="40.1875" id="it.polimi.ingsw.network.message.Message" style="stroke: #A80036; stroke-width: 1.5;" width="184" x="14.5" y="8"/><ellipse cx="29.5" cy="28.0938" fill="#A9DCDF" rx="11" ry="11" style="stroke: #A80036; stroke-width: 1.0;"/><path d="M31.6875,29.8594 L27.5469,29.8594 L27.125,30.8906 L27.5469,30.8906 Q28.1563,30.8906 28.4219,31.125 Q28.6875,31.3594 28.6875,31.75 Q28.6875,32.125 28.4219,32.3594 Q28.1563,32.5938 27.5469,32.5938 L25.25,32.5938 Q24.6406,32.5938 24.3906,32.3594 Q24.125,32.125 24.125,31.7344 Q24.125,31.3594 24.4063,31.125 Q24.6719,30.875 25.2969,30.8906 L27.9688,24.2344 L26.8594,24.2344 Q26.25,24.2344 25.9844,24 Q25.7188,23.7656 25.7188,23.375 Q25.7188,23 25.9844,22.7656 Q26.25,22.5313 26.8594,22.5313 L30.5313,22.5313 L33.9219,30.8906 Q34.5156,30.8906 34.7031,31.0313 Q35.0938,31.2969 35.0938,31.75 Q35.0938,32.125 34.8281,32.3594 Q34.5781,32.5938 33.9688,32.5938 L31.6719,32.5938 Q31.0625,32.5938 30.7969,32.3594 Q30.5313,32.125 30.5313,31.7344 Q30.5313,31.3594 30.7969,31.125 Q31.0625,30.8906 31.6719,30.8906 L32.0938,30.8906 L31.6875,29.8594 Z M30.9688,28.1563 L29.6094,24.7813 L28.2344,28.1563 L30.9688,28.1563 Z "/><text fill="#000000" font-family="sans-serif" font-size="14" font-style="italic" lengthAdjust="spacingAndGlyphs" textLength="58" x="90.5" y="27.5332">Message</text><text fill="#000000" font-family="sans-serif" font-size="10" font-style="italic" lengthAdjust="spacingAndGlyphs" textLength="152" x="43.5" y="40.9902">it.polimi.ingsw.network.message</text></a><!--link it.polimi.ingsw.network.message.Message to it.polimi.ingsw.network.message.Message_QuestionArtemis--><path d="M106.5,68.491 C106.5,81.272 106.5,95.3932 106.5,107.9879 " fill="none" id="it.polimi.ingsw.network.message.Message-it.polimi.ingsw.network.message.Message_QuestionArtemis" style="stroke: #A80036; stroke-width: 1.0;"/><polygon fill="none" points="99.5001,68.155,106.5,48.155,113.5,68.155,99.5001,68.155" style="stroke: #A80036; stroke-width: 1.0;"/><text fill="#888888" font-family="sans-serif" font-size="10" lengthAdjust="spacingAndGlyphs" textLength="190" x="17.5" y="204.3809">UMLDoclet 2.0.10, PlantUML 1.2019.08</text><!--
@startuml
    set namespaceSeparator none
    hide empty fields
    hide empty methods

    class "<size:14>Message_QuestionArtemis\n<size:10>it.polimi.ingsw.network.message" as it.polimi.ingsw.network.message.Message_QuestionArtemis [[Message_QuestionArtemis.html]] {
        +getGameState(): GameState
        +getMessage(): String
    }

    abstract class "<size:14>Message\n<size:10>it.polimi.ingsw.network.message" as it.polimi.ingsw.network.message.Message [[Message.html]]

    it.polimi.ingsw.network.message.Message <|- - it.polimi.ingsw.network.message.Message_QuestionArtemis

    center footer UMLDoclet 2.0.10, PlantUML 1.2019.08
@enduml

PlantUML version 1.2019.08(Sat Jul 13 21:25:14 CEST 2019)
(APACHE source distribution)
Java Runtime: Java(TM) SE Runtime Environment
JVM: Java HotSpot(TM) 64-Bit Server VM
Java Version: 14.0.1+7
Operating System: Windows 10
OS Version: 10.0
Default Encoding: Cp1252
Language: it
Country: IT
--></g></svg>