<?xml version="1.0" encoding="UTF-8" standalone="no"?><svg xmlns="http://www.w3.org/2000/svg" xmlns:xlink="http://www.w3.org/1999/xlink" contentScriptType="application/ecmascript" contentStyleType="text/css" height="255px" preserveAspectRatio="none" style="width:224px;height:255px;" version="1.1" viewBox="0 0 224 255" width="224px" zoomAndPan="magnify"><defs><filter height="300%" id="f71r71cooz6qz" width="300%" x="-1" y="-1"><feGaussianBlur result="blurOut" stdDeviation="2.0"/><feColorMatrix in="blurOut" result="blurOut2" type="matrix" values="0 0 0 0 0 0 0 0 0 0 0 0 0 0 0 0 0 0 .4 0"/><feOffset dx="4.0" dy="4.0" in="blurOut2" result="blurOut3"/><feBlend in="SourceGraphic" in2="blurOut3" mode="normal"/></filter></defs><g><!--class it.polimi.ingsw.network.client.Client--><a href="Client.html" target="_top" xlink:actuate="onRequest" xlink:show="new" xlink:title="Client.html" xlink:type="simple"><rect fill="#FEFECE" filter="url(#f71r71cooz6qz)" height="214.2188" id="it.polimi.ingsw.network.client.Client" style="stroke: #A80036; stroke-width: 1.5;" width="204" x="6" y="8"/><ellipse cx="31.8" cy="28.0938" fill="#A9DCDF" rx="11" ry="11" style="stroke: #A80036; stroke-width: 1.0;"/><path d="M33.9875,29.8594 L29.8469,29.8594 L29.425,30.8906 L29.8469,30.8906 Q30.4563,30.8906 30.7219,31.125 Q30.9875,31.3594 30.9875,31.75 Q30.9875,32.125 30.7219,32.3594 Q30.4563,32.5938 29.8469,32.5938 L27.55,32.5938 Q26.9406,32.5938 26.6906,32.3594 Q26.425,32.125 26.425,31.7344 Q26.425,31.3594 26.7063,31.125 Q26.9719,30.875 27.5969,30.8906 L30.2688,24.2344 L29.1594,24.2344 Q28.55,24.2344 28.2844,24 Q28.0188,23.7656 28.0188,23.375 Q28.0188,23 28.2844,22.7656 Q28.55,22.5313 29.1594,22.5313 L32.8313,22.5313 L36.2219,30.8906 Q36.8156,30.8906 37.0031,31.0313 Q37.3938,31.2969 37.3938,31.75 Q37.3938,32.125 37.1281,32.3594 Q36.8781,32.5938 36.2688,32.5938 L33.9719,32.5938 Q33.3625,32.5938 33.0969,32.3594 Q32.8313,32.125 32.8313,31.7344 Q32.8313,31.3594 33.0969,31.125 Q33.3625,30.8906 33.9719,30.8906 L34.3938,30.8906 L33.9875,29.8594 Z M33.2688,28.1563 L31.9094,24.7813 L30.5344,28.1563 L33.2688,28.1563 Z "/><text fill="#000000" font-family="sans-serif" font-size="14" font-style="italic" lengthAdjust="spacingAndGlyphs" textLength="36" x="98.7" y="27.5332">Client</text><text fill="#000000" font-family="sans-serif" font-size="10" font-style="italic" lengthAdjust="spacingAndGlyphs" textLength="137" x="48.2" y="40.9902">it.polimi.ingsw.network.client</text><rect fill="#FFFFFF" height="17.0938" style="stroke: #000000; stroke-width: 1.0; stroke-dasharray: 2.0,2.0;" width="9" x="204" y="5"/><text fill="#000000" font-family="sans-serif" font-size="12" font-style="italic" lengthAdjust="spacingAndGlyphs" textLength="7" x="205" y="18.457">T</text><line style="stroke: #A80036; stroke-width: 1.5;" x1="7" x2="209" y1="48.1875" y2="48.1875"/><ellipse cx="17" cy="60.6055" fill="#84BE84" rx="3" ry="3" style="stroke: #038048; stroke-width: 1.0;"/><text fill="#000000" font-family="sans-serif" font-size="11" lengthAdjust="spacingAndGlyphs" textLength="79" x="26" y="63.6064">Client(String, int)</text><ellipse cx="17" cy="74.4414" fill="#84BE84" rx="3" ry="3" style="stroke: #038048; stroke-width: 1.0;"/><text fill="#000000" font-family="sans-serif" font-size="11" lengthAdjust="spacingAndGlyphs" textLength="65" x="26" y="77.4424">getIp(): String</text><ellipse cx="17" cy="88.2773" fill="#84BE84" rx="3" ry="3" style="stroke: #038048; stroke-width: 1.0;"/><text fill="#000000" font-family="sans-serif" font-size="11" lengthAdjust="spacingAndGlyphs" textLength="59" x="26" y="91.2783">getPort(): int</text><ellipse cx="17" cy="102.1133" fill="#84BE84" rx="3" ry="3" style="stroke: #038048; stroke-width: 1.0;"/><text fill="#000000" font-family="sans-serif" font-size="11" lengthAdjust="spacingAndGlyphs" textLength="118" x="26" y="105.1143">setActive(boolean): void</text><ellipse cx="17" cy="115.9492" fill="#84BE84" rx="3" ry="3" style="stroke: #038048; stroke-width: 1.0;"/><text fill="#000000" font-family="sans-serif" font-size="11" lengthAdjust="spacingAndGlyphs" textLength="91" x="26" y="118.9502">isActive(): boolean</text><ellipse cx="17" cy="129.7852" fill="#84BE84" rx="3" ry="3" style="stroke: #038048; stroke-width: 1.0;"/><text fill="#000000" font-family="sans-serif" font-size="11" lengthAdjust="spacingAndGlyphs" textLength="178" x="26" y="132.7861">setSocketIn(ObjectInputStream): void</text><ellipse cx="17" cy="143.6211" fill="#84BE84" rx="3" ry="3" style="stroke: #038048; stroke-width: 1.0;"/><text fill="#000000" font-family="sans-serif" font-size="11" lengthAdjust="spacingAndGlyphs" textLength="158" x="26" y="146.6221">getSocketIn(): ObjectInputStream</text><ellipse cx="17" cy="157.457" fill="#84BE84" rx="3" ry="3" style="stroke: #038048; stroke-width: 1.0;"/><text fill="#000000" font-family="sans-serif" font-size="11" lengthAdjust="spacingAndGlyphs" textLength="149" x="26" y="160.458">setSocketOut(PrintWriter): void</text><ellipse cx="17" cy="171.293" fill="#84BE84" rx="3" ry="3" style="stroke: #038048; stroke-width: 1.0;"/><text fill="#000000" font-family="sans-serif" font-size="11" lengthAdjust="spacingAndGlyphs" textLength="129" x="26" y="174.2939">getSocketOut(): PrintWriter</text><ellipse cx="17" cy="185.1289" fill="#84BE84" rx="3" ry="3" style="stroke: #038048; stroke-width: 1.0;"/><text fill="#000000" font-family="sans-serif" font-size="11" font-style="italic" lengthAdjust="spacingAndGlyphs" textLength="164" x="26" y="188.1299">asyncReadFromSocket(): Thread</text><ellipse cx="17" cy="198.9648" fill="#84BE84" rx="3" ry="3" style="stroke: #038048; stroke-width: 1.0;"/><text fill="#000000" font-family="sans-serif" font-size="11" font-style="italic" lengthAdjust="spacingAndGlyphs" textLength="159" x="26" y="201.9658">asyncWriteToSocket(T): Thread</text><ellipse cx="17" cy="212.8008" fill="#84BE84" rx="3" ry="3" style="stroke: #038048; stroke-width: 1.0;"/><text fill="#000000" font-family="sans-serif" font-size="11" font-style="italic" lengthAdjust="spacingAndGlyphs" textLength="50" x="26" y="215.8018">run(): void</text></a><text fill="#888888" font-family="sans-serif" font-size="10" lengthAdjust="spacingAndGlyphs" textLength="190" x="19" y="242.3809">UMLDoclet 2.0.10, PlantUML 1.2019.08</text><!--
@startuml
    set namespaceSeparator none
    hide empty fields
    hide empty methods

    abstract class "<size:14>Client\n<size:10>it.polimi.ingsw.network.client" as it.polimi.ingsw.network.client.Client<T> [[Client.html]] {
        +Client(String, int)
        +getIp(): String
        +getPort(): int
        +setActive(boolean): void
        +isActive(): boolean
        +setSocketIn(ObjectInputStream): void
        +getSocketIn(): ObjectInputStream
        +setSocketOut(PrintWriter): void
        +getSocketOut(): PrintWriter
        {abstract} +asyncReadFromSocket(): Thread
        {abstract} +asyncWriteToSocket(T): Thread
        {abstract} +run(): void
    }

    center footer UMLDoclet 2.0.10, PlantUML 1.2019.08
@enduml

PlantUML version 1.2019.08(Sat Jul 13 21:25:14 CEST 2019)
(APACHE source distribution)
Java Runtime: Java(TM) SE Runtime Environment
JVM: Java HotSpot(TM) 64-Bit Server VM
Java Version: 14.0.1+7
Operating System: Windows 10
OS Version: 10.0
Default Encoding: Cp1252
Language: it
Country: IT
--></g></svg>