<?xml version="1.0" encoding="UTF-8" standalone="no"?><svg xmlns="http://www.w3.org/2000/svg" xmlns:xlink="http://www.w3.org/1999/xlink" contentScriptType="application/ecmascript" contentStyleType="text/css" height="339px" preserveAspectRatio="none" style="width:280px;height:339px;" version="1.1" viewBox="0 0 280 339" width="280px" zoomAndPan="magnify"><defs><filter height="300%" id="f1ahx52wshsx9q" width="300%" x="-1" y="-1"><feGaussianBlur result="blurOut" stdDeviation="2.0"/><feColorMatrix in="blurOut" result="blurOut2" type="matrix" values="0 0 0 0 0 0 0 0 0 0 0 0 0 0 0 0 0 0 .4 0"/><feOffset dx="4.0" dy="4.0" in="blurOut2" result="blurOut3"/><feBlend in="SourceGraphic" in2="blurOut3" mode="normal"/></filter></defs><g><!--cluster it.polimi.ingsw.network.client--><polygon fill="#FFFFFF" filter="url(#f1ahx52wshsx9q)" points="22,24,232,24,239,47.6094,258,47.6094,258,290,22,290,22,24" style="stroke: #000000; stroke-width: 1.5;"/><line style="stroke: #000000; stroke-width: 1.5;" x1="22" x2="239" y1="47.6094" y2="47.6094"/><text fill="#000000" font-family="sans-serif" font-size="14" font-weight="bold" lengthAdjust="spacingAndGlyphs" textLength="204" x="26" y="40.5332">it.polimi.ingsw.network.client</text><!--class it.polimi.ingsw.network.client.Client--><a href="Client.html" target="_top" xlink:actuate="onRequest" xlink:show="new" xlink:title="Client.html" xlink:type="simple"><rect fill="#FEFECE" filter="url(#f1ahx52wshsx9q)" height="214.0313" id="it.polimi.ingsw.network.client.Client" style="stroke: #A80036; stroke-width: 1.5;" width="204" x="38" y="60"/><ellipse cx="114.25" cy="76" fill="#A9DCDF" rx="11" ry="11" style="stroke: #A80036; stroke-width: 1.0;"/><path d="M116.4375,77.7656 L112.2969,77.7656 L111.875,78.7969 L112.2969,78.7969 Q112.9063,78.7969 113.1719,79.0313 Q113.4375,79.2656 113.4375,79.6563 Q113.4375,80.0313 113.1719,80.2656 Q112.9063,80.5 112.2969,80.5 L110,80.5 Q109.3906,80.5 109.1406,80.2656 Q108.875,80.0313 108.875,79.6406 Q108.875,79.2656 109.1563,79.0313 Q109.4219,78.7813 110.0469,78.7969 L112.7188,72.1406 L111.6094,72.1406 Q111,72.1406 110.7344,71.9063 Q110.4688,71.6719 110.4688,71.2813 Q110.4688,70.9063 110.7344,70.6719 Q111,70.4375 111.6094,70.4375 L115.2813,70.4375 L118.6719,78.7969 Q119.2656,78.7969 119.4531,78.9375 Q119.8438,79.2031 119.8438,79.6563 Q119.8438,80.0313 119.5781,80.2656 Q119.3281,80.5 118.7188,80.5 L116.4219,80.5 Q115.8125,80.5 115.5469,80.2656 Q115.2813,80.0313 115.2813,79.6406 Q115.2813,79.2656 115.5469,79.0313 Q115.8125,78.7969 116.4219,78.7969 L116.8438,78.7969 L116.4375,77.7656 Z M115.7188,76.0625 L114.3594,72.6875 L112.9844,76.0625 L115.7188,76.0625 Z "/><text fill="#000000" font-family="sans-serif" font-size="12" font-style="italic" lengthAdjust="spacingAndGlyphs" textLength="32" x="134.75" y="80.9102">Client</text><rect fill="#FFFFFF" height="17.0938" style="stroke: #000000; stroke-width: 1.0; stroke-dasharray: 2.0,2.0;" width="9" x="236" y="57"/><text fill="#000000" font-family="sans-serif" font-size="12" font-style="italic" lengthAdjust="spacingAndGlyphs" textLength="7" x="237" y="70.457">T</text><line style="stroke: #A80036; stroke-width: 1.5;" x1="39" x2="241" y1="92" y2="92"/><line style="stroke: #A80036; stroke-width: 1.5;" x1="39" x2="241" y1="100" y2="100"/><ellipse cx="49" cy="112.418" fill="#84BE84" rx="3" ry="3" style="stroke: #038048; stroke-width: 1.0;"/><text fill="#000000" font-family="sans-serif" font-size="11" lengthAdjust="spacingAndGlyphs" textLength="79" x="58" y="115.4189">Client(String, int)</text><ellipse cx="49" cy="126.2539" fill="#84BE84" rx="3" ry="3" style="stroke: #038048; stroke-width: 1.0;"/><text fill="#000000" font-family="sans-serif" font-size="11" lengthAdjust="spacingAndGlyphs" textLength="65" x="58" y="129.2549">getIp(): String</text><ellipse cx="49" cy="140.0898" fill="#84BE84" rx="3" ry="3" style="stroke: #038048; stroke-width: 1.0;"/><text fill="#000000" font-family="sans-serif" font-size="11" lengthAdjust="spacingAndGlyphs" textLength="59" x="58" y="143.0908">getPort(): int</text><ellipse cx="49" cy="153.9258" fill="#84BE84" rx="3" ry="3" style="stroke: #038048; stroke-width: 1.0;"/><text fill="#000000" font-family="sans-serif" font-size="11" lengthAdjust="spacingAndGlyphs" textLength="118" x="58" y="156.9268">setActive(boolean): void</text><ellipse cx="49" cy="167.7617" fill="#84BE84" rx="3" ry="3" style="stroke: #038048; stroke-width: 1.0;"/><text fill="#000000" font-family="sans-serif" font-size="11" lengthAdjust="spacingAndGlyphs" textLength="91" x="58" y="170.7627">isActive(): boolean</text><ellipse cx="49" cy="181.5977" fill="#84BE84" rx="3" ry="3" style="stroke: #038048; stroke-width: 1.0;"/><text fill="#000000" font-family="sans-serif" font-size="11" lengthAdjust="spacingAndGlyphs" textLength="178" x="58" y="184.5986">setSocketIn(ObjectInputStream): void</text><ellipse cx="49" cy="195.4336" fill="#84BE84" rx="3" ry="3" style="stroke: #038048; stroke-width: 1.0;"/><text fill="#000000" font-family="sans-serif" font-size="11" lengthAdjust="spacingAndGlyphs" textLength="158" x="58" y="198.4346">getSocketIn(): ObjectInputStream</text><ellipse cx="49" cy="209.2695" fill="#84BE84" rx="3" ry="3" style="stroke: #038048; stroke-width: 1.0;"/><text fill="#000000" font-family="sans-serif" font-size="11" lengthAdjust="spacingAndGlyphs" textLength="149" x="58" y="212.2705">setSocketOut(PrintWriter): void</text><ellipse cx="49" cy="223.1055" fill="#84BE84" rx="3" ry="3" style="stroke: #038048; stroke-width: 1.0;"/><text fill="#000000" font-family="sans-serif" font-size="11" lengthAdjust="spacingAndGlyphs" textLength="129" x="58" y="226.1064">getSocketOut(): PrintWriter</text><ellipse cx="49" cy="236.9414" fill="#84BE84" rx="3" ry="3" style="stroke: #038048; stroke-width: 1.0;"/><text fill="#000000" font-family="sans-serif" font-size="11" font-style="italic" lengthAdjust="spacingAndGlyphs" textLength="164" x="58" y="239.9424">asyncReadFromSocket(): Thread</text><ellipse cx="49" cy="250.7773" fill="#84BE84" rx="3" ry="3" style="stroke: #038048; stroke-width: 1.0;"/><text fill="#000000" font-family="sans-serif" font-size="11" font-style="italic" lengthAdjust="spacingAndGlyphs" textLength="159" x="58" y="253.7783">asyncWriteToSocket(T): Thread</text><ellipse cx="49" cy="264.6133" fill="#84BE84" rx="3" ry="3" style="stroke: #038048; stroke-width: 1.0;"/><text fill="#000000" font-family="sans-serif" font-size="11" font-style="italic" lengthAdjust="spacingAndGlyphs" textLength="50" x="58" y="267.6143">run(): void</text></a><text fill="#888888" font-family="sans-serif" font-size="10" lengthAdjust="spacingAndGlyphs" textLength="190" x="51" y="326.3809">UMLDoclet 2.0.10, PlantUML 1.2019.08</text><!--
@startuml
    namespace it.polimi.ingsw.network.client {

        abstract class Client<T> [[Client.html]] {
            +Client(String, int)
            +getIp(): String
            +getPort(): int
            +setActive(boolean): void
            +isActive(): boolean
            +setSocketIn(ObjectInputStream): void
            +getSocketIn(): ObjectInputStream
            +setSocketOut(PrintWriter): void
            +getSocketOut(): PrintWriter
            {abstract} +asyncReadFromSocket(): Thread
            {abstract} +asyncWriteToSocket(T): Thread
            {abstract} +run(): void
        }

    }

    center footer UMLDoclet 2.0.10, PlantUML 1.2019.08
@enduml

PlantUML version 1.2019.08(Sat Jul 13 21:25:14 CEST 2019)
(APACHE source distribution)
Java Runtime: Java(TM) SE Runtime Environment
JVM: Java HotSpot(TM) 64-Bit Server VM
Java Version: 14.0.1+7
Operating System: Windows 10
OS Version: 10.0
Default Encoding: Cp1252
Language: it
Country: IT
--></g></svg>